<svg xmlns="http://www.w3.org/2000/svg" width="24" height="24" viewBox="0 0 24 24" fill="none">
  <path d="M18.7598 21H14.1285C14.9089 20.3031 15.6447 19.5579 16.3316 18.7687C18.9004 15.8156 20.2598 12.6938 20.2598 9.75C20.2598 7.56196 19.3906 5.46354 17.8434 3.91637C16.2962 2.36919 14.1978 1.5 12.0098 1.5C9.82173 1.5 7.72331 2.36919 6.17613 3.91637C4.62896 5.46354 3.75977 7.56196 3.75977 9.75C3.75977 12.6938 5.11914 15.8156 7.69727 18.7687C8.38174 19.5602 9.11772 20.3055 9.90039 21H5.25977C5.06085 21 4.87009 21.079 4.72944 21.2197C4.58878 21.3603 4.50977 21.5511 4.50977 21.75C4.50977 21.9489 4.58878 22.1397 4.72944 22.2803C4.87009 22.421 5.06085 22.5 5.25977 22.5H18.7598C18.9587 22.5 19.1494 22.421 19.2901 22.2803C19.4307 22.1397 19.5098 21.9489 19.5098 21.75C19.5098 21.5511 19.4307 21.3603 19.2901 21.2197C19.1494 21.079 18.9587 21 18.7598 21ZM12.0098 6.75C12.6031 6.75 13.1831 6.92595 13.6765 7.25559C14.1698 7.58524 14.5543 8.05377 14.7814 8.60195C15.0085 9.15013 15.0679 9.75333 14.9521 10.3353C14.8364 10.9172 14.5506 11.4518 14.1311 11.8713C13.7115 12.2909 13.177 12.5766 12.595 12.6924C12.0131 12.8081 11.4099 12.7487 10.8617 12.5216C10.3135 12.2946 9.845 11.9101 9.51536 11.4167C9.18571 10.9234 9.00977 10.3433 9.00977 9.75C9.00977 8.95435 9.32584 8.19129 9.88844 7.62868C10.4511 7.06607 11.2141 6.75 12.0098 6.75Z" fill="white"/>
</svg>