<svg xmlns="http://www.w3.org/2000/svg" width="225" height="202" viewBox="0 0 225 202" fill="none">
  <path d="M42.3291 183.699H96.4822V183.555H42.3291V183.699Z" fill="#EEEEEE"/>
  <path d="M26.7695 181.115H30.4306V181.259H26.7695V181.115Z" fill="#EEEEEE"/>
  <path d="M224.171 195.454C224.171 199.069 173.989 202 112.086 202C50.1825 202 0 199.069 0 195.454C0 191.839 50.1825 188.908 112.086 188.908C173.989 188.908 224.171 191.839 224.171 195.454Z" fill="#F8F8F9"/>
  <path d="M199.5 10.1109C199.5 15.6958 194.974 20.2217 189.389 20.2217C189.164 20.2217 188.938 20.2165 188.713 20.1985C183.452 19.8517 179.284 15.4698 179.284 10.1109C179.284 4.75255 183.452 0.370047 188.713 0.0231934C188.938 0.00584984 189.164 7.43866e-05 189.389 7.43866e-05C194.974 7.43866e-05 199.5 4.52652 199.5 10.1109Z" fill="#6648C0"/>
  <path d="M188.713 20.1982C183.452 19.8514 179.284 15.4695 179.284 10.1106C179.284 4.75224 183.452 0.36974 188.713 0.0228863C193.979 0.36974 198.147 4.75224 198.147 10.1106C198.147 15.4695 193.979 19.8514 188.713 20.1982ZM188.693 2.54626C184.515 2.54626 181.128 5.9327 181.128 10.1106C181.128 14.2884 184.515 17.6749 188.693 17.6749C192.87 17.6749 196.257 14.2884 196.257 10.1106C196.257 5.9327 192.87 2.54626 188.693 2.54626Z" fill="#8065CF"/>
  <path d="M188.691 17.6738C184.513 17.6738 181.127 14.2874 181.127 10.1095C181.127 5.93165 184.513 2.54521 188.691 2.54521C192.869 2.54521 196.256 5.93165 196.256 10.1095C196.256 14.2874 192.869 17.6738 188.691 17.6738ZM185.494 12.1589L184.924 13.7174C185.649 14.196 186.771 14.573 187.986 14.6857L187.951 16.069H189.209L189.243 14.6857C191.312 14.5099 192.462 13.3913 192.169 11.7189C191.916 10.2731 190.592 9.82047 189.376 9.48055L189.429 7.26762C190.121 7.34277 190.812 7.55725 191.417 7.92145L191.911 6.36234C191.241 5.986 190.38 5.73337 189.472 5.64608L189.504 4.24941H188.247L188.212 5.63278C186.101 5.78424 184.928 6.91557 185.221 8.58799C185.487 10.1095 186.852 10.5749 188.083 10.9269L188.026 13.0514C187.144 12.963 186.247 12.6491 185.494 12.1589ZM189.29 13.0133L189.328 11.2911C189.797 11.4547 190.126 11.6813 190.19 12.0455C190.273 12.5236 189.945 12.8751 189.29 13.0133ZM188.12 9.12849C187.634 8.94003 187.28 8.71401 187.212 8.32379C187.141 7.84571 187.475 7.45667 188.168 7.3185L188.12 9.12849Z" fill="#B5A4E7"/>
  <path d="M189.21 16.0688H187.953L187.987 14.6855C186.772 14.5728 185.651 14.1958 184.926 13.7172L185.495 12.1587C186.248 12.6489 187.145 12.9628 188.028 13.0512L188.084 10.9267C186.853 10.5747 185.489 10.1093 185.222 8.58779C184.93 6.91537 186.103 5.78404 188.213 5.63258L188.248 4.24921H189.505L189.473 5.64588C190.381 5.73317 191.243 5.9858 191.912 6.36214L191.418 7.92125C190.814 7.55705 190.122 7.34257 189.43 7.26742L189.378 9.48035C190.593 9.82027 191.917 10.2729 192.17 11.7187C192.463 13.3911 191.314 14.5097 189.244 14.6855L189.21 16.0688ZM189.33 11.2909L189.292 13.0131C189.946 12.8749 190.274 12.5234 190.191 12.0453C190.127 11.6811 189.798 11.4545 189.33 11.2909ZM188.169 7.3183C187.476 7.45646 187.142 7.84551 187.213 8.32359C187.282 8.71381 187.635 8.93983 188.121 9.12829L188.169 7.3183Z" fill="#EAE5FA"/>
  <path d="M104.892 195.481H139.097V102.969H104.892V195.481Z" fill="#6648C0"/>
  <path d="M104.883 188.921V176.351H104.891V188.92L104.883 188.921ZM104.891 176.206H104.883V150.341C104.886 150.34 104.889 150.339 104.891 150.339V176.206ZM104.883 150.192V130.12C104.886 130.12 104.889 130.12 104.891 130.12V150.19C104.889 150.191 104.886 150.191 104.883 150.192ZM104.883 106.704V102.879H107.298V102.969H104.891V106.703C104.889 106.703 104.886 106.704 104.883 106.704ZM114.548 102.969H114.399V102.879H114.548V102.969ZM114.255 102.969H107.443V102.879H114.255V102.969Z" fill="#CDCCCE"/>
  <path d="M104.883 150.341V150.192C104.886 150.191 104.889 150.191 104.891 150.19V150.339C104.889 150.339 104.886 150.34 104.883 150.341ZM107.443 102.969H107.298V102.879H107.443V102.969Z" fill="#BBBABD"/>
  <path d="M114.256 102.969H114.4V102.879H114.256V102.969Z" fill="#BBBABD"/>
  <path d="M104.883 176.352H104.891V176.207H104.883V176.352Z" fill="#BBBABD"/>
  <path d="M104.891 130.121C104.889 130.121 104.886 130.121 104.883 130.121V106.704C104.886 106.704 104.889 106.703 104.891 106.703V130.121Z" fill="#BFBEC1"/>
  <path d="M114.548 195.5H104.883V188.921L104.891 188.92V195.481H114.548V195.5Z" fill="#C3C2C5"/>
  <path d="M114.549 195.481H104.892V102.969H114.549V195.481Z" fill="#5839B4"/>
  <path d="M70.6396 195.481H104.845V139.966H70.6396V195.481Z" fill="#6648C0"/>
  <path d="M70.6396 195.422H80.9182V139.966H70.6396V195.422Z" fill="#5839B4"/>
  <path d="M36.4082 195.481H70.6138V151.754H36.4082V195.481Z" fill="#6648C0"/>
  <path d="M36.4082 195.422H46.5826V151.754H36.4082V195.422Z" fill="#5839B4"/>
  <path d="M2.19336 195.483H36.3983V163.545H2.19336V195.483Z" fill="#6648C0"/>
  <path d="M2.19531 163.544H11.8612V163.513H2.19531V163.544Z" fill="#CDCCCE"/>
  <path d="M2.19531 195.422H11.8612V163.544H2.19531V195.422Z" fill="#5839B4"/>
  <path d="M95.1919 31.5011C93.5675 33.4643 91.895 35.3887 90.2203 37.3097L88.9549 38.7423L87.8201 40.0083C87.353 40.5598 87.0454 41.2506 86.9362 42.0044L86.5552 45.7366C86.4269 47.002 86.3043 48.268 86.1558 49.5329C85.876 52.0632 85.5858 54.5929 85.2459 57.1203C85.1268 58.006 84.3122 58.6274 83.426 58.5083C82.6444 58.4037 82.0692 57.7562 82.0265 56.9972C81.8796 54.4536 81.7825 51.9129 81.6964 49.3722C81.6443 48.1015 81.6189 46.832 81.5871 45.5626L81.501 41.6882C81.5247 39.9059 82.1132 38.1139 83.1324 36.6091L84.3908 34.917L85.532 33.4007C87.0651 31.3895 88.6005 29.3824 90.1839 27.414C91.3031 26.0237 93.3374 25.8029 94.7283 26.922C96.1191 28.0412 96.3394 30.0761 95.2202 31.4664L95.1919 31.5011Z" fill="#6648C0"/>
  <path d="M81.6266 57.2884L79.5137 60.8754L84.3777 61.3691L85.2333 57.7272C85.335 57.2953 85.0576 56.86 84.6211 56.7855C83.8147 56.6473 82.5533 56.5901 81.6266 57.2884Z" fill="#E46554"/>
  <path d="M79.5137 60.8754L79.7357 62.1443C79.8449 62.7715 80.3901 63.2282 81.0271 63.227L82.6111 63.2224C83.0938 63.2213 83.536 62.9542 83.7626 62.5281L84.3777 61.3691L79.5137 60.8754Z" fill="#E46554"/>
  <path d="M81.2822 54.5996L85.9642 54.7598L85.6624 57.5571L81.7077 57.2513L81.2822 54.5996Z" fill="#6648C0"/>
  <path d="M85.6624 57.5571L85.2537 57.5253L81.7077 57.2513L81.7048 57.2317L81.2822 54.5996L85.9642 54.7598L85.6624 57.5571Z" fill="#9179D7"/>
  <path d="M86.0035 83.9659L85.2341 85.1221L84.6456 83.9277L86.0474 65.7769C86.27 62.8916 85.2965 60.5203 81.7071 60.433C78.3496 60.352 76.3118 62.6453 76.0777 65.526L74.6076 83.6445L73.8035 84.7972L73.2549 83.6063L74.7342 65.4924C75.0077 62.1436 76.4939 59.4566 81.7742 59.5838C87.0637 59.7115 87.6534 62.4546 87.3961 65.811L86.0035 83.9659Z" fill="#221D30"/>
  <path d="M71.125 71.7232L70.1966 71.7186C68.2634 71.7099 66.6251 73.1407 66.3742 75.0576L64.6631 88.1381L70.6856 88.3525L71.125 71.7232Z" fill="#221D30"/>
  <path d="M67.7437 88.248L64.6631 88.1382L66.3742 75.0578C66.6246 73.1466 68.253 71.7187 70.1786 71.7187C70.1844 71.7187 70.1908 71.7187 70.1966 71.7187L70.992 71.7227C69.3531 71.7505 68.027 73.0876 68.0021 74.7716L67.7877 85.2564C67.7859 85.3501 67.7888 85.4426 67.7958 85.5345L67.7437 88.248Z" fill="#4B455C"/>
  <path d="M88.1309 84.1187L86.7707 84.0799L86.903 65.9296C86.9239 63.0438 85.785 60.673 82.1893 60.5857C78.826 60.5042 76.9483 62.7981 76.916 65.6787L76.713 83.7967L75.3574 83.7585L75.5702 65.6446C75.6095 62.2963 76.9079 59.6088 82.1968 59.7365C87.4956 59.8643 88.2766 62.6073 88.254 65.9637L88.1309 84.1187Z" fill="#221D30"/>
  <path d="M94.5136 89.0591L67.7451 88.2648L68.0035 74.771C68.029 73.0419 69.4262 71.6782 71.1264 71.7227L90.6155 72.2326C92.8169 72.2904 94.5945 74.1455 94.5853 76.3798L94.5136 89.0591Z" fill="#221D30"/>
  <path d="M67.7967 85.5332C67.7897 85.4413 67.7868 85.3488 67.7886 85.2551L68.003 74.7703L67.7967 85.5332Z" fill="#95929E"/>
  <path d="M90.0013 88.9238L70.6867 88.3509C69.1531 88.3053 67.9119 87.0676 67.7969 85.5327L68.0033 74.7699C68.0281 73.068 69.382 71.7204 71.0452 71.7204C71.0723 71.7204 71.0989 71.7204 71.1261 71.7216L75.497 71.836L75.3571 83.758L75.989 84.9495L76.7128 83.7962L76.8463 71.8713L86.8571 72.1332L86.7704 84.0794L87.4421 85.2743L88.1306 84.1182L88.2116 72.1685L88.9949 72.1893C89.0342 77.7788 89.7528 83.7389 90.0013 88.9238Z" fill="#7A7588"/>
  <path d="M88.2116 72.1699L86.8571 72.1347L86.9028 65.9306C86.9028 65.9023 86.9028 65.8745 86.9028 65.8462C86.9011 63.4223 86.0663 61.3758 83.621 60.7677C83.1938 60.6619 82.718 60.5995 82.189 60.5867C82.1312 60.5856 82.0734 60.5844 82.0162 60.5844C81.2647 60.5844 80.5901 60.7052 79.9964 60.9261C79.8437 60.9827 79.6969 61.0457 79.5553 61.1151C77.8586 61.9464 76.9383 63.6703 76.9157 65.6797L76.8463 71.8728L75.4971 71.8375L75.5699 65.6456C75.6081 62.3736 76.8486 59.7329 81.8405 59.7329C81.9572 59.7329 82.0757 59.7346 82.1966 59.7375C87.4231 59.8635 88.2544 62.5337 88.2538 65.8271C88.2538 65.8728 88.2538 65.9185 88.2538 65.9647L88.2116 72.1699Z" fill="#625D72"/>
  <path d="M87.4424 85.2754L86.7707 84.0805L86.8574 72.1342L88.2118 72.1695L88.1309 84.1192L87.4424 85.2754ZM75.9893 84.9505L75.3574 83.7591L75.4973 71.8371L76.8466 71.8724L76.713 83.7972L75.9893 84.9505Z" fill="#A3A1AA"/>
  <path d="M77.1713 76.7949L74.9404 76.7348L74.9503 75.8948L77.1805 75.9544L77.1713 76.7949Z" fill="#221D30"/>
  <path d="M77.113 82.2422L74.877 82.1798L74.8874 81.3357L77.1223 81.3982L77.113 82.2422Z" fill="#221D30"/>
  <path d="M88.6376 77.105L86.3975 77.0449L86.4038 76.2032L88.6428 76.2633L88.6376 77.105Z" fill="#221D30"/>
  <path d="M88.6012 82.5625L86.3564 82.4995L86.3628 81.6543L88.6064 81.7168L88.6012 82.5625Z" fill="#221D30"/>
  <path d="M84.3686 77.4692L79.5791 77.3392L79.597 75.5425L84.3836 75.6702L84.3686 77.4692Z" fill="white"/>
  <path d="M105.034 11.2168C105.218 11.1815 105.415 11.3734 105.474 11.6521C105.534 11.9307 105.438 12.192 105.253 12.2273C105.069 12.2625 104.873 12.0706 104.814 11.792C104.739 11.5041 104.85 11.2515 105.034 11.2168Z" fill="#221D30"/>
  <path d="M105.066 11.4492C105.254 11.3613 105.427 11.1648 105.502 10.9711C105.342 11.122 105.12 11.2058 104.899 11.2006C104.984 11.2486 105.061 11.3521 105.066 11.4492Z" fill="#221D30"/>
  <path d="M105.436 14.2788C105.922 14.2991 106.391 14.1031 106.718 13.7447C106.01 13.1296 105.39 12.4209 104.873 11.6387L105.436 14.2788Z" fill="#D33B32"/>
  <path d="M103.486 10.7591C103.753 10.4232 104.167 10.2365 104.596 10.259L104.651 10.2671C104.745 10.2654 104.821 10.1879 104.819 10.0937C104.816 10.0001 104.739 9.92489 104.645 9.92663C104.109 9.88269 103.585 10.1018 103.238 10.514L103.197 10.6244C103.198 10.7186 103.274 10.7949 103.368 10.7949L103.486 10.7591Z" fill="#221D30"/>
  <path d="M101.725 27.4675C96.9162 27.519 96.1797 24.9008 96.1797 24.9008C97.6081 23.4984 97.6793 20.9322 97.3752 18.6441C97.744 19.1609 98.203 19.6136 98.8036 20.0142C99.9546 20.7709 102.45 19.5552 102.45 19.5552C102.456 19.5552 102.45 19.9818 102.481 20.5963C102.559 22.0959 102.889 24.7268 104.253 25.1338C104.253 25.1338 107.026 27.4091 101.725 27.4675Z" fill="#E46554"/>
  <path d="M102.521 19.9441C102.47 20.1655 102.419 20.3863 102.388 20.621L102.328 20.6413C101.201 20.9211 99.9568 20.7673 98.8058 20.0111C98.2005 19.6105 97.7409 19.1608 97.3744 18.6434C97.301 18.0624 97.1952 17.4959 97.0889 16.9756L102.326 19.8394L102.521 19.9441Z" fill="#E46554"/>
  <path d="M105.967 16.0177C105.933 17.7959 104.961 19.2966 103.6 20.1129L103.593 20.1135L103.573 20.1198C103.208 20.3511 102.808 20.5158 102.388 20.621L102.329 20.6413C101.202 20.9211 99.9576 20.7673 98.8066 20.0111C98.2013 19.6105 97.7417 19.1608 97.3752 18.6434C96.4324 17.3502 96.0393 15.624 95.3646 13.1983C95.1571 12.4856 95.1155 11.7312 95.2479 11.001C95.7207 8.38979 98.2216 6.65841 100.826 7.13187C104.482 7.78049 106.04 12.7694 105.967 16.0177Z" fill="#E46554"/>
  <path d="M102.536 20.5806C102.623 20.5551 102.71 20.5274 102.796 20.4967C102.717 20.5268 102.634 20.5534 102.536 20.5806Z" fill="#CDCCCE"/>
  <path d="M102.482 20.5957C102.45 19.9812 102.457 19.5546 102.45 19.5546C102.482 19.0181 102.521 18.4816 102.521 18.4816C102.521 18.5013 103.084 20.2078 103.335 20.2078C103.116 20.3465 102.969 20.431 102.796 20.4974C102.71 20.5281 102.624 20.5558 102.536 20.5813C102.519 20.5859 102.5 20.5905 102.482 20.5957Z" fill="#B55144"/>
  <path d="M104.703 9.45866C104.312 10.0807 103.079 10.6067 103.121 10.4622C103.333 9.94599 103.294 8.95514 102.654 9.18696C102.831 9.58179 103.362 12.5503 103.121 12.9104C102.99 13.107 102.865 15.4818 101.854 17.5756C101.047 19.2463 101.047 19.7643 101.047 19.7643L97.7644 20.3984C96.5354 20.2447 95.3908 18.674 95.2896 18.5006C94.8607 17.7624 93.5496 16.7935 92.8674 16.2801C92.572 16.0581 92.3414 15.7309 92.2165 15.3812C91.9916 14.7511 92.4512 12.4803 92.5518 11.4126C92.6957 9.87662 93.5022 8.45568 95.7295 7.54345C97.1071 6.97923 98.2662 5.74155 99.6715 5.2519C101.077 4.76168 102.75 4.78423 103.937 5.682C104.521 6.12366 105.684 7.89897 104.703 9.45866Z" fill="#221D30"/>
  <path d="M102.987 11.6211C103.999 11.9182 104.526 13.4085 104.57 14.3549C104.619 15.4006 103.921 16.0614 103.009 15.3613C102.322 14.822 101.832 14.0722 101.613 13.2264C101.365 12.2021 101.976 11.3245 102.987 11.6211Z" fill="#E46554"/>
  <path d="M104.204 15.1053C104.204 15.3493 104.007 15.5464 103.763 15.5464C103.519 15.5464 103.321 15.3493 103.321 15.1053C103.321 14.8614 103.519 14.6636 103.763 14.6636C104.007 14.6636 104.204 14.8614 104.204 15.1053Z" fill="#6648C0"/>
  <path d="M103.763 15.5464C103.519 15.5464 103.321 15.3493 103.321 15.1053C103.321 14.8614 103.519 14.6636 103.763 14.6636C104.007 14.6636 104.204 14.8614 104.204 15.1053C104.204 15.3493 104.007 15.5464 103.763 15.5464Z" fill="#9179D7"/>
  <path d="M94.7988 26.6338C94.7988 26.6338 95.5457 24.3278 96.673 23.5994C97.8003 22.871 102.748 23.6266 103.524 23.9301C104.299 24.2336 105.081 26.0204 105.081 26.0204L94.7988 26.6338Z" fill="#6648C0"/>
  <path d="M95.2422 25.5376C95.5717 24.8375 96.0677 23.9906 96.6735 23.5987C97.0192 23.3755 97.7251 23.2917 98.5593 23.2917C100.444 23.2917 102.987 23.7189 103.524 23.9293C103.995 24.1138 104.469 24.845 104.768 25.3913C104.617 25.3694 104.445 25.3497 104.234 25.333C103.173 25.2838 102.112 25.2595 101.051 25.2595C100.903 25.2595 100.756 25.2601 100.609 25.2607C99.1605 25.2688 97.7129 25.3225 96.2677 25.422C95.922 25.4468 95.5804 25.4867 95.2422 25.5376Z" fill="#9179D7"/>
  <path d="M106.098 25.6488C105.328 25.5228 105.116 25.406 104.234 25.3366C101.579 25.2118 98.9192 25.2407 96.2675 25.4228C95.2997 25.4921 94.3684 25.6789 93.4435 25.9014C91.5445 26.357 90.2646 28.1265 90.4051 30.0608C90.7993 35.4723 92.3989 38.6483 92.6347 42.2111C93.1053 49.3089 91.9728 54.2857 91.7797 55.9425L95.4194 56.4951C101.919 56.3413 106.235 54.9441 109.812 53.422C109.812 53.422 108.874 44.8402 109.781 41.7486C112.257 33.3004 110.65 31.9639 110.161 29.5445C109.754 27.5345 108.137 25.9835 106.098 25.6488Z" fill="#6648C0"/>
  <path d="M91.781 55.9419L91.7793 55.9413C91.9192 54.7464 92.5476 51.8201 92.7112 47.6145C92.5493 51.8184 91.9209 54.7447 91.781 55.9419ZM109.813 53.4209C109.802 53.3197 109.386 49.4603 109.387 46.012C109.387 46.0161 109.387 46.0207 109.387 46.0253C109.387 49.5158 109.814 53.4203 109.814 53.4203C109.813 53.4208 109.813 53.4209 109.813 53.4209ZM105.536 25.5419C105.279 25.4869 105.066 25.4366 104.77 25.3944C104.77 25.3939 104.77 25.3933 104.769 25.3927C105.064 25.4355 105.278 25.4864 105.536 25.5419Z" fill="white"/>
  <path d="M104.769 25.3945C104.617 25.3731 104.445 25.3541 104.234 25.3373C103.155 25.2864 102.076 25.261 100.996 25.261C100.867 25.261 100.738 25.2616 100.608 25.2621C100.756 25.2616 100.903 25.261 101.051 25.261C102.112 25.261 103.173 25.2853 104.234 25.3344C104.445 25.3512 104.617 25.3708 104.768 25.3928C104.768 25.3934 104.768 25.394 104.769 25.3945Z" fill="#9E89DD"/>
  <path d="M91.8559 55.9536L91.7796 55.9421C91.9195 54.7448 92.5478 51.8185 92.7097 47.6147C92.7727 45.9948 92.7669 44.1854 92.6375 42.2118C92.3987 38.6502 90.8014 35.4765 90.4072 30.0598C90.2655 28.1272 91.5449 26.3554 93.445 25.9033C94.37 25.6767 95.3007 25.4958 96.2702 25.4247C97.7142 25.3264 99.1612 25.2715 100.608 25.2622C100.738 25.2616 100.867 25.2611 100.996 25.2611C102.075 25.2611 103.155 25.2865 104.234 25.3374C104.445 25.3541 104.617 25.3732 104.769 25.3946C105.064 25.4368 105.277 25.4871 105.534 25.542C105.551 25.5461 105.569 25.5495 105.587 25.5536C104.541 25.9363 103.719 26.8479 103.511 28.022C103.476 28.2145 103.46 28.4059 103.46 28.5943C103.46 30.1309 104.561 31.4923 106.126 31.7715C106.751 31.8825 107.378 31.9762 108.006 32.0652L110.827 37.39C110.621 38.5924 110.284 40.0209 109.78 41.7465C109.484 42.7518 109.386 44.3363 109.386 46.0122C109.384 49.4605 109.801 53.3198 109.812 53.421C109.81 53.4216 109.808 53.4222 109.807 53.4227C109.807 53.4222 109.807 53.4222 109.807 53.4216L95.1296 55.4148L91.9068 55.8305C91.9068 55.8305 91.8888 55.8727 91.8559 55.9536Z" fill="#7053C6"/>
  <path d="M107.143 25.3873C108.472 25.5746 109.788 25.8399 111.111 26.0631C112.429 26.3174 113.746 26.5787 115.06 26.8608L114.583 26.8238C115.17 26.8493 115.686 26.8949 116.011 26.9157C116.168 26.9273 116.279 26.9238 116.237 26.9481C116.229 26.9614 116.152 26.9857 116.063 27.0435C115.95 27.1036 115.815 27.2013 115.668 27.351C115.366 27.6545 115.244 28.0609 115.252 28.1818C115.25 28.313 115.292 28.2823 115.299 28.18C115.321 27.9719 115.277 27.5725 115.19 27.1626L115.251 27.3325C114.584 25.4087 113.951 23.4715 113.371 21.5135C112.809 19.5485 112.268 17.575 111.884 15.5401C111.737 14.7591 112.251 14.0058 113.032 13.8584C113.63 13.7463 114.212 14.0232 114.518 14.5076C115.619 16.2615 116.564 18.0767 117.485 19.9012C118.391 21.7314 119.243 23.583 120.061 25.448L120.121 25.6185C120.344 26.2082 120.563 26.8284 120.694 27.6626C120.755 28.0812 120.797 28.5795 120.701 29.2264C120.612 29.8594 120.266 30.7664 119.582 31.4329C119.248 31.7677 118.887 32.0029 118.543 32.1833C118.214 32.3481 117.891 32.4648 117.628 32.5365C117.077 32.6886 116.664 32.7325 116.299 32.7706C115.577 32.8389 115.045 32.8418 114.583 32.8695L114.51 32.8735L114.108 32.8313C112.772 32.6914 111.439 32.5307 110.107 32.3619C108.78 32.1631 107.447 32.0058 106.126 31.7711C104.368 31.4578 103.197 29.779 103.511 28.0216C103.816 26.3047 105.431 25.1485 107.143 25.3873Z" fill="#6648C0"/>
  <path d="M114.51 32.8735L114.4 32.862L114.255 32.8469L114.108 32.8313C113.055 32.7215 112.004 32.5984 110.954 32.4683C110.931 32.3469 110.905 32.229 110.879 32.1145L107.44 30.9965L108.006 32.0648C107.378 31.9758 106.751 31.8821 106.126 31.7711C104.561 31.4919 103.461 30.1305 103.46 28.5939C103.46 28.4055 103.476 28.2141 103.511 28.0216C103.789 26.4556 105.158 25.3561 106.696 25.3561C106.844 25.3561 106.993 25.3665 107.144 25.3873C108.473 25.5746 109.788 25.8399 111.112 26.0631C112.403 26.3122 113.694 26.5683 114.981 26.8446C115.016 26.8464 115.05 26.8487 115.084 26.8504C114.852 26.1717 114.623 25.4913 114.4 24.8086C114.351 24.6606 114.303 24.5126 114.255 24.3646C113.949 23.4183 113.654 22.4685 113.371 21.5135C113.072 20.4683 112.779 19.4208 112.513 18.3629L116.039 17.1229C116.539 18.0421 117.016 18.9699 117.486 19.9012C118.391 21.7314 119.243 23.583 120.061 25.448L120.121 25.6185C120.344 26.2082 120.563 26.8285 120.695 27.6626C120.729 27.9049 120.758 28.1731 120.758 28.4818C120.758 28.7067 120.742 28.9535 120.701 29.2264C120.612 29.8594 120.266 30.7664 119.582 31.4329C119.248 31.7677 118.887 32.0029 118.543 32.1833C118.215 32.3481 117.891 32.4648 117.628 32.5365C117.077 32.6886 116.664 32.7325 116.299 32.7706C115.577 32.8389 115.045 32.8418 114.584 32.8695L114.51 32.8735ZM115.252 28.1927C115.252 28.2459 115.261 28.2691 115.27 28.2691C115.281 28.2691 115.295 28.2349 115.299 28.18C115.303 28.1442 115.304 28.1026 115.304 28.0563C115.304 28.0216 115.303 27.9835 115.302 27.9436C115.267 28.0407 115.252 28.1216 115.252 28.1696C115.252 28.1737 115.252 28.1777 115.252 28.1818C115.252 28.1852 115.252 28.1893 115.252 28.1927ZM111.901 15.6268C111.895 15.5979 111.89 15.569 111.884 15.5401C111.875 15.4875 111.868 15.4354 111.864 15.3834L111.905 15.5401C111.913 15.5667 111.923 15.5921 111.934 15.617L111.901 15.6268Z" fill="#7053C6"/>
  <path d="M131.048 12.9414L148.38 12.4101L148.114 6.98071L130.817 8.11954L131.048 12.9414Z" fill="#6648C0"/>
  <path d="M117.949 13.1504L131.964 12.6989L131.751 8.24702L117.761 9.14943L117.949 13.1504Z" fill="#6648C0"/>
  <path d="M130.113 12.8134L131.031 12.9111L130.804 8.15402L129.898 8.33959L130.113 12.8134Z" fill="#221D30"/>
  <path d="M131.031 12.9111L130.113 12.8134L130.111 12.7591L129.9 8.36734L129.898 8.33959L130.803 8.15402L130.887 9.90448L131.031 12.9111Z" fill="#1B1824"/>
  <path d="M131.034 12.9414L131.975 12.9125L131.742 8.05828L130.803 8.12014L131.034 12.9414Z" fill="#221D30"/>
  <path d="M115.773 12.4916L117.164 13.1367L116.98 9.23634L115.656 10.0127L115.773 12.4916Z" fill="#221D30"/>
  <path d="M108.651 12.4438L112.772 12.2294L112.687 10.4038L108.567 10.65L108.651 12.4438Z" fill="#221D30"/>
  <path d="M108.651 12.4438L108.567 10.65L111.484 10.4754L111.124 12.1213C111.109 12.1854 111.102 12.2508 111.1 12.3161L108.651 12.4438Z" fill="#1B1824"/>
  <path d="M112.209 12.5972L116.794 12.4209L116.674 9.86569L112.094 10.1368L112.209 12.5972Z" fill="#221D30"/>
  <path d="M117.164 13.1367L115.773 12.4916L115.771 12.4598L116.794 12.4205L116.674 9.8653L115.822 9.9156L116.98 9.23634L117.164 13.1367Z" fill="#1B1824"/>
  <path d="M115.771 12.4609L115.656 10.0139L115.822 9.91676L116.674 9.86646L116.794 12.4216L115.771 12.4609Z" fill="#1B1824"/>
  <path d="M117.189 13.1738L117.949 13.1496L117.761 9.14859L117.002 9.19773L117.189 13.1738Z" fill="#221D30"/>
  <path d="M147.791 12.4287L150.51 12.3316L150.243 6.88078L147.526 7.01952L147.791 12.4287Z" fill="#221D30"/>
  <path d="M148.997 12.8149L152.465 12.7178L152.552 12.4779C153.293 10.4217 153.146 8.14976 152.145 6.2068L148.685 6.44554L148.761 6.62706C149.582 8.5943 149.666 10.791 148.997 12.8149Z" fill="#6648C0"/>
  <path d="M145.307 8.17676C145.273 7.98194 145.285 7.78134 145.301 7.58306L146.704 7.49634L146.732 8.09467L145.307 8.17676Z" fill="#A28DE0"/>
  <path d="M132.293 8.92871L132.264 8.3882L144.453 7.6494C144.437 7.84711 144.428 8.04539 144.459 8.24021L132.293 8.92871Z" fill="#A28DE0"/>
  <path d="M118.083 9.9502L118.058 9.46461L129.489 8.74026L129.514 9.27094L118.083 9.9502Z" fill="#A28DE0"/>
  <path d="M149.025 7.23926L148.991 6.63284L151.707 6.44207L151.736 7.06006L149.025 7.23926Z" fill="#A28DE0"/>
  <path d="M149.311 12.6309L149.277 12.0244L152.114 11.9152C152.096 12.1221 152.086 12.3303 152.119 12.5343L149.311 12.6309Z" fill="#4E2EAC"/>
  <path d="M132.211 12.7104L132.182 12.1705L147.087 11.5791C147.07 11.7791 147.061 11.9809 147.092 12.1786L132.211 12.7104Z" fill="#4E2EAC"/>
  <path d="M118.326 13.0205L118.301 12.5343L129.376 12.1013C129.365 12.2782 129.359 12.4563 129.384 12.6315L118.326 13.0205Z" fill="#4E2EAC"/>
  <path d="M107.724 10.718L107.76 12.4644C107.766 12.7609 108.035 12.9968 108.361 12.9916L109.778 12.9673L109.719 10.1069L108.303 10.159C107.976 10.1711 107.717 10.4214 107.724 10.718Z" fill="#6648C0"/>
  <path d="M115.049 15.5623L115.587 12.3089C115.609 12.1736 115.614 12.0366 115.602 11.8996L115.448 10.1757C115.422 9.95256 115.266 9.73347 115.023 9.6589L112.424 9.62826C112.081 9.52015 111.704 9.68491 111.59 9.99014L111.124 12.1216C111.088 12.2817 111.092 12.4464 111.134 12.6048L111.905 15.5398C111.979 15.7843 112.205 15.9757 112.486 16.0295L114.184 16.0451C114.584 16.1214 114.967 15.9086 115.049 15.5623Z" fill="#E76454"/>
  <path d="M116.576 16.9323L112.157 18.4868L111.421 15.7721L115.215 14.6171L116.576 16.9323Z" fill="#6648C0"/>
  <path d="M112.157 18.4868L111.421 15.7721L115.215 14.6171L116.576 16.9323L116.038 17.1219L112.512 18.3619L112.157 18.4868Z" fill="#9179D7"/>
  <path d="M110.827 37.3887L108.006 32.0639C108.707 32.1633 109.408 32.2564 110.107 32.361C110.389 32.3974 110.671 32.4327 110.954 32.4674C111.056 33.0033 111.125 33.6166 111.125 34.3606C111.126 35.1856 111.042 36.1706 110.827 37.3887Z" fill="#5F40BA"/>
  <path d="M110.954 32.4673C110.672 32.4326 110.39 32.3973 110.108 32.3609C109.408 32.2563 108.707 32.1632 108.006 32.0638L107.44 30.9955L110.879 32.1135C110.906 32.228 110.931 32.3459 110.954 32.4673Z" fill="#5F40BA"/>
  <path d="M128.289 90.4626L127.589 99.1456L131.541 99.2207L132.625 90.2753L128.289 90.4626Z" fill="#E76454"/>
  <path d="M132.165 98.0343L127.657 98.1256C127.487 98.1291 127.34 98.2586 127.305 98.4372L126.529 102.391C126.458 102.742 126.664 103.086 126.989 103.158L127.117 103.172C128.742 103.109 130.186 102.984 132.209 102.946C134.597 102.899 133.994 103.218 136.802 103.204C138.493 103.194 138.782 101.124 138.064 101.037C134.777 100.659 134.427 99.6021 133.148 98.3661C132.87 98.1297 132.52 98.0117 132.165 98.0343Z" fill="#221D30"/>
  <path d="M85.1297 127.674L83.5312 135.649L87.7808 136.947L89.8278 128.801L85.1297 127.674Z" fill="#E76454"/>
  <path d="M107.866 53.7703C107.866 53.7703 101.818 89.0708 98.532 99.4597C96.193 106.857 89.9185 131.058 89.9185 131.058L84.2272 129.796C84.2272 129.796 83.5907 113.323 86.7563 104.82C87.8362 101.919 89.245 99.3019 89.6271 97.5028C91.2567 89.8195 87.8974 75.8805 89.3826 65.4842C90.1878 59.8489 91.9071 55.83 91.9071 55.83L107.866 53.7703Z" fill="#221D30"/>
  <path d="M98.532 99.4597C96.193 106.857 89.9185 131.058 89.9185 131.058L84.2272 129.796C84.2272 129.796 83.5907 113.323 86.7563 104.82C87.8362 101.919 89.245 99.3019 89.6271 97.5028C91.2567 89.8195 87.8974 75.8805 89.3826 65.4842C90.1878 59.8489 91.9071 55.83 91.9071 55.83" fill="#221D30"/>
  <path d="M103.495 76.6377L100.942 66.6159C103.031 67.5767 104.465 67.7467 105.221 67.7744L103.495 76.6377Z" fill="#1B1824"/>
  <path d="M132.903 94.628L127.342 94.8066C127.342 94.8066 127.752 87.5285 127.752 76.9153C127.752 75.2787 128.007 73.6659 128.365 72.2207C129.158 68.9781 130.441 66.5611 130.441 66.5611C130.441 66.5611 129.845 66.5958 128.828 66.6427C125.683 66.8039 106.188 67.811 105.807 67.7821C105.77 67.7786 105.708 67.7792 105.621 67.7798C105.037 67.7838 103.337 67.7884 100.57 66.4397C94.6693 63.5632 94.6104 55.4849 94.6104 55.4849L109.808 53.4212C109.808 53.4327 110.057 53.468 113.717 53.531C124.81 53.7218 138.443 54.1513 140.836 57.9603C144.201 63.3175 132.903 94.628 132.903 94.628Z" fill="#221D30"/>
  <path d="M87.9943 134.884L83.3309 134.947C83.1551 134.95 83.0112 135.079 82.9846 135.259L82.4042 139.245C82.3504 139.599 82.5834 139.946 82.9245 140.023L83.0569 140.038C84.7362 139.984 86.2248 139.868 88.3181 139.843C90.7877 139.81 90.1818 140.128 93.0885 140.132C94.8395 140.133 95.0222 138.044 94.2735 137.952C90.8484 137.551 90.4246 136.481 89.0308 135.225C88.7302 134.984 88.3614 134.863 87.9943 134.884Z" fill="#221D30"/>
  <path d="M128.362 72.2207C129.155 68.9782 130.438 66.5612 130.438 66.5612C130.438 66.5612 129.842 66.5959 128.825 66.6427C128.779 66.6248 128.733 66.6132 128.674 66.6132L132.729 66.2721L128.362 72.2207Z" fill="#1B1824"/>
</svg>