<svg xmlns="http://www.w3.org/2000/svg" width="202" height="134" viewBox="0 0 202 134" fill="none">
  <path d="M160.736 45.212V2.41545C160.736 1.17065 159.729 0.161613 158.487 0.161613H72.1992C70.9573 0.161613 69.9512 1.17065 69.9512 2.41545V61.8953C69.9512 63.1409 70.9573 64.1499 72.1992 64.1499H151.623L160.736 45.212Z" fill="white"/>
  <path d="M151.623 64.311H72.1989C70.8706 64.311 69.7891 63.2273 69.7891 61.8954V2.41549C69.7891 1.08355 70.8706 -0.000175476 72.1989 -0.000175476H158.487C159.816 -0.000175476 160.897 1.08355 160.897 2.41549V45.212C160.897 45.3013 160.824 45.3731 160.736 45.3731C160.646 45.3731 160.574 45.3013 160.574 45.212V2.41549C160.574 1.26148 159.637 0.322742 158.487 0.322742H72.1989C71.0485 0.322742 70.112 1.26148 70.112 2.41549V61.8954C70.112 63.0494 71.0485 63.9881 72.1989 63.9881H151.623C151.712 63.9881 151.784 64.0606 151.784 64.1499C151.784 64.2393 151.712 64.311 151.623 64.311Z" fill="#141317"/>
  <path d="M111.041 16.7881H75.8408V5.94435H111.041V16.7881Z" fill="white"/>
  <path d="M76.0016 16.6263H110.88V6.10548H76.0016V16.6263ZM111.041 16.9492H75.8405C75.7512 16.9492 75.6787 16.8767 75.6787 16.7881V5.94439C75.6787 5.85506 75.7512 5.78255 75.8405 5.78255H111.041C111.13 5.78255 111.203 5.85506 111.203 5.94439V16.7881C111.203 16.8767 111.13 16.9492 111.041 16.9492Z" fill="#141317"/>
  <path d="M154.846 30.52H116.399V5.94457H154.846V30.52Z" fill="#E9E2FF"/>
  <path d="M154.846 58.2568H116.399V33.6814H154.846V58.2568Z" fill="#E9E2FF"/>
  <path d="M111.041 25.73H75.8408V19.8127H111.041V25.73Z" fill="#E9E2FF"/>
  <path d="M111.041 58.3677H75.8408V30.1354H111.041V58.3677Z" fill="white"/>
  <path d="M76.0016 58.2059H110.88V30.2966H76.0016V58.2059ZM111.041 58.5288H75.8405C75.7512 58.5288 75.6787 58.4563 75.6787 58.3677V30.1355C75.6787 30.0461 75.7512 29.9736 75.8405 29.9736H111.041C111.13 29.9736 111.203 30.0461 111.203 30.1355V58.3677C111.203 58.4563 111.13 58.5288 111.041 58.5288Z" fill="#141317"/>
  <path d="M1.69574 131.471C1.68007 131.471 1.66432 131.469 1.64865 131.464C1.56335 131.438 1.51524 131.348 1.54123 131.263L16.3182 82.6515C16.3442 82.5658 16.4341 82.5175 16.5197 82.5439C16.605 82.5695 16.6531 82.6596 16.6271 82.7452L1.85002 131.356C1.82893 131.426 1.76493 131.471 1.69574 131.471Z" fill="#141317"/>
  <path d="M0 132.632C0 133.362 0.592237 133.955 1.32279 133.955C2.05328 133.955 2.64551 133.362 2.64551 132.632C2.64551 131.901 2.05328 131.31 1.32279 131.31C0.592237 131.31 0 131.901 0 132.632Z" fill="#141317"/>
  <path d="M50.6315 131.471C50.5693 131.471 50.51 131.434 50.4836 131.373L29.5854 82.7621C29.5502 82.6801 29.5881 82.5849 29.6701 82.5497C29.7514 82.5146 29.8468 82.5527 29.8822 82.6347L50.7802 131.246C50.8153 131.327 50.7772 131.422 50.6952 131.458C50.6747 131.466 50.6528 131.471 50.6315 131.471Z" fill="#141317"/>
  <path d="M52.3272 132.632C52.3272 133.362 51.7348 133.955 51.0048 133.955C50.274 133.955 49.6816 133.362 49.6816 132.632C49.6816 131.901 50.274 131.31 51.0048 131.31C51.7348 131.31 52.3272 131.901 52.3272 132.632Z" fill="#141317"/>
  <path d="M48.008 123.507H4.389C4.29974 123.507 4.22754 123.434 4.22754 123.345C4.22754 123.256 4.29974 123.184 4.389 123.184H48.008C48.0972 123.184 48.1694 123.256 48.1694 123.345C48.1694 123.434 48.0972 123.507 48.008 123.507Z" fill="#141317"/>
  <path d="M13.8256 80.5228H32.3804C33.8864 80.5228 35.1073 81.7442 35.1073 83.2497C35.1073 84.7559 33.8864 85.9766 32.3804 85.9766H13.8256C12.3196 85.9766 11.0986 84.7559 11.0986 83.2497C11.0986 81.7442 12.3196 80.5228 13.8256 80.5228Z" fill="white"/>
  <path d="M13.8259 80.6847C12.4112 80.6847 11.2603 81.8351 11.2603 83.2497C11.2603 84.6644 12.4112 85.8148 13.8259 85.8148H32.3806C33.7953 85.8148 34.9463 84.6644 34.9463 83.2497C34.9463 81.8351 33.7953 80.6847 32.3806 80.6847H13.8259ZM32.3806 86.1377H13.8259C12.2332 86.1377 10.9375 84.8424 10.9375 83.2497C10.9375 81.6571 12.2332 80.3618 13.8259 80.3618H32.3806C33.9733 80.3618 35.2691 81.6571 35.2691 83.2497C35.2691 84.8424 33.9733 86.1377 32.3806 86.1377Z" fill="#141317"/>
  <path d="M43.227 88.1479L43.5726 92.4996C43.7413 94.6216 42.0539 96.4325 39.925 96.4134L8.92537 96.1747C6.99211 96.1571 5.41245 94.626 5.33439 92.6944L3.6495 50.9933C3.56573 48.9196 5.23649 47.1988 7.31202 47.2208L18.8275 47.3445L23.1139 87.7356L43.227 88.1479Z" fill="white"/>
  <path d="M7.27197 47.3816C6.32738 47.3816 5.44628 47.7543 4.78704 48.4331C4.11894 49.1214 3.7723 50.0286 3.81104 50.9864L5.49592 92.6875C5.57068 94.5357 7.07771 95.9965 8.92705 96.0126L39.9265 96.2513C40.897 96.2594 41.8315 95.8581 42.4926 95.1493C43.1537 94.4397 43.4889 93.4783 43.4119 92.5117L43.0779 88.3058L23.1108 87.8964C23.0295 87.895 22.9622 87.8335 22.9536 87.7522L18.6823 47.5046L7.31056 47.3823C7.29767 47.3816 7.28471 47.3816 7.27197 47.3816ZM39.9575 96.5742C39.9462 96.5742 39.9349 96.5742 39.9237 96.5742L8.92435 96.3355C6.90263 96.3172 5.25494 94.7209 5.17337 92.7007L3.48856 50.9996C3.44616 49.9517 3.8251 48.961 4.55543 48.2083C5.28562 47.4563 6.25767 47.0477 7.314 47.0594L18.8294 47.1831C18.9114 47.1839 18.9795 47.2461 18.9882 47.3274L23.2596 87.5764L43.2305 87.9858C43.3134 87.988 43.3815 88.0517 43.3881 88.1344L43.7338 92.4869C43.8177 93.5427 43.4515 94.5935 42.7289 95.3689C42.0138 96.1363 41.0053 96.5742 39.9575 96.5742Z" fill="#141317"/>
  <path d="M41.249 93.3374H10.1724C9.20806 93.3374 8.41563 92.5832 8.36848 91.6196L6.30194 49.496C6.2977 49.4066 6.36624 49.3312 6.45528 49.3268C6.54139 49.3232 6.62003 49.3913 6.6245 49.4799L8.69103 91.6042C8.72961 92.395 9.38043 93.0145 10.1724 93.0145H41.249C41.3383 93.0145 41.4105 93.087 41.4105 93.1763C41.4105 93.2649 41.3383 93.3374 41.249 93.3374Z" fill="#141317"/>
  <path d="M38.6617 24.0308C38.5548 23.0818 37.799 22.2573 37.0686 21.7008C36.3434 21.1495 35.4776 20.7863 34.5743 20.664C33.5443 20.5241 32.49 20.7167 31.5607 21.1773C31.0851 21.4131 30.6435 21.7228 30.2603 22.0904C30.0992 22.2449 29.9409 22.4118 29.8053 22.5927C29.8038 22.5927 29.802 22.5934 29.8004 22.5934C27.6173 22.7274 24.9353 22.8226 24.3709 27.4907C24.3094 28.0003 24.6312 31.168 25.2668 32.0913C25.3876 32.2671 25.5219 32.434 25.6658 32.5929C25.4623 32.6368 25.2638 32.7079 25.0868 32.7943C24.3359 33.1604 23.4913 33.6276 23.0829 34.3891C22.3565 35.743 22.714 37.5253 23.7143 38.6405C24.7114 39.752 26.3412 40.0771 27.7161 39.5236C28.4293 39.2365 29.0464 38.7232 29.4082 38.0378C29.8602 37.1826 29.7862 36.2058 29.4926 35.311C29.3389 34.8431 29.1272 34.3693 28.8304 33.9673C28.9156 33.9644 29.0007 33.9593 29.0859 33.9519C30.6297 33.8136 32.0606 32.9561 33.199 31.9485C34.237 31.0288 35.1674 29.8822 35.7009 28.5868C35.7557 28.5575 35.81 28.5283 35.8637 28.4975C36.6401 28.0552 37.327 27.4475 37.8382 26.713C38.363 25.9588 38.7667 24.9644 38.6617 24.0308Z" fill="#141317"/>
  <path d="M12.9139 62.0917C12.5693 61.3514 12.1084 60.5393 12.1084 60.5393C11.878 60.1329 11.7165 59.8752 11.7165 59.8744C11.0077 58.8017 11.2366 59.6167 11.2482 55.9972C11.256 53.5508 13.2705 44.1935 14.705 42.2084C16.2575 40.0607 18.9116 38.9448 21.5379 38.5509C22.5958 38.392 26.2184 38.4806 26.2184 38.4806C26.2184 38.4806 29.4093 41.7325 34.1326 39.204C35.4402 38.9931 37.9529 39.5526 38.9852 40.38C40.1409 41.3056 40.8069 42.237 41.4776 43.4393C44.0029 47.9653 45.2655 50.2286 46.4263 53.3963C48.0897 57.9347 48.0973 59.6086 47.9988 60.6821C47.7607 63.2764 46.7141 64.4363 46.4058 64.7534C46.0427 65.1268 45.3363 65.8715 44.2344 66.1029C42.0816 66.5561 40.5358 64.6201 39.8322 65.203C39.3997 65.5618 39.8858 66.3738 39.9285 68.6745C39.948 69.7245 39.9626 70.5124 39.8064 70.9891C39.0434 73.3176 32.4445 72.4346 24.593 72.8417C16.1104 73.2818 12.3985 74.8868 11.3496 73.1031C9.98728 70.7863 13.619 63.6067 12.9139 62.0917Z" fill="#764DEF"/>
  <path d="M52.6632 64.916C48.3386 65.1796 44.0138 65.4432 39.6889 65.7075C39.5336 63.4295 39.3765 61.1508 39.2176 58.8721C39.1385 57.7385 39.039 56.3202 38.959 55.1867C41.3934 54.5811 43.8279 53.9748 46.2623 53.3685L52.6632 64.916Z" fill="white"/>
  <path d="M42.004 65.4424C41.9233 65.4424 41.8548 65.3823 41.844 65.3018L41.4477 62.3216C41.4359 62.233 41.498 62.1517 41.5864 62.14C41.6757 62.1283 41.7561 62.1905 41.7677 62.2791L42.1448 65.1143L52.3947 64.7636L46.1213 53.4468C46.0782 53.3692 46.1064 53.2711 46.1844 53.2279C46.2621 53.1847 46.3606 53.2125 46.4038 53.2909L52.8048 64.8376C52.8319 64.8866 52.8319 64.9467 52.804 64.9957C52.7762 65.044 52.7257 65.0755 52.6693 65.077L42.0096 65.4424C42.0077 65.4424 42.0058 65.4424 42.004 65.4424Z" fill="#141317"/>
  <path d="M22.2348 55.6943C22.2225 55.6943 22.2101 55.6929 22.1976 55.6899C22.1109 55.6694 22.0572 55.5823 22.0775 55.4959L23.6713 48.7366C23.6916 48.6494 23.7788 48.596 23.8655 48.6165C23.9522 48.637 24.006 48.7234 23.9856 48.8105L22.3918 55.5699C22.3744 55.6445 22.308 55.6943 22.2348 55.6943Z" fill="#141317"/>
  <path d="M39.0084 55.1548C38.9373 55.1548 38.8722 55.1072 38.8526 55.0354L36.9695 48.066C36.9463 47.9803 36.9972 47.8917 37.0832 47.8683C37.1687 47.8448 37.2579 47.8954 37.2812 47.9818L39.1645 54.9512C39.1876 55.0369 39.1367 55.1255 39.0506 55.1489C39.0366 55.1526 39.0224 55.1548 39.0084 55.1548Z" fill="#141317"/>
  <path d="M45.7348 66.478H16.2138C12.4257 66.478 9.62022 62.9581 10.4657 59.2662L11.315 55.5581C11.315 55.5581 17.8502 54.0109 22.1154 55.7302L21.2252 59.3057H35.0662C37.6959 59.3057 40.2769 60.1354 42.3504 61.7521C43.7569 62.849 45.0851 64.3824 45.7348 66.478Z" fill="white"/>
  <path d="M12.347 65.2954C12.3104 65.2954 12.2735 65.283 12.2432 65.2581C10.5279 63.8163 9.78629 61.5068 10.3076 59.2303L11.157 55.5222C11.1767 55.4351 11.2637 55.3809 11.3503 55.4006C11.4372 55.4204 11.4915 55.5068 11.4716 55.594L10.6222 59.302C10.1282 61.4599 10.8288 63.6471 12.4511 65.0106C12.5193 65.0684 12.5281 65.1702 12.4708 65.2383C12.4388 65.2764 12.3931 65.2954 12.347 65.2954Z" fill="#141317"/>
  <path d="M45.7343 66.6396C45.6654 66.6396 45.6016 66.595 45.5802 66.5262C45.0241 64.7322 43.9039 63.1688 42.2506 61.8794C41.197 61.0578 39.3895 60.0861 37.9732 59.8181C37.8856 59.8013 37.8281 59.7171 37.8446 59.6292C37.8613 59.542 37.9461 59.4842 38.0331 59.501C39.5683 59.791 41.3983 60.8052 42.4492 61.6245C44.1555 62.9558 45.3126 64.5725 45.8885 66.4302C45.915 66.5152 45.8672 66.606 45.7821 66.6323C45.7662 66.6375 45.7501 66.6396 45.7343 66.6396Z" fill="#141317"/>
  <path d="M42.0034 65.4424C41.9398 65.4424 41.8794 65.4043 41.854 65.3413C41.2542 63.8681 39.9303 62.6848 38.399 62.2535C38.3132 62.2293 38.2632 62.14 38.2873 62.0543C38.3118 61.9686 38.401 61.9181 38.4866 61.9423C40.1115 62.4007 41.5163 63.6565 42.1529 65.2198C42.1866 65.3025 42.1469 65.3963 42.0643 65.4299C42.0444 65.438 42.0238 65.4424 42.0034 65.4424Z" fill="#141317"/>
  <path d="M38.875 65.5107C38.8133 65.5107 38.7543 65.4749 38.7275 65.4148C38.1786 64.1832 37.0877 63.1917 35.8093 62.7634C35.7248 62.7348 35.6793 62.6433 35.7076 62.5591C35.7362 62.4741 35.8277 62.4287 35.9122 62.4573C37.2745 62.9142 38.4373 63.9708 39.0223 65.283C39.0587 65.365 39.022 65.4602 38.9406 65.4961C38.9192 65.5063 38.897 65.5107 38.875 65.5107Z" fill="#141317"/>
  <path d="M32.1871 39.7612L32.6009 38.5823L33.8371 33.1066L29.6293 30.9949L28.1166 36.3431C27.8874 37.153 27.2625 37.7915 26.4574 38.0375L26.4209 38.1335L27.0771 39.7612H32.1871Z" fill="white"/>
  <path d="M32.7094 38.1836C32.6973 38.1836 32.685 38.1821 32.6727 38.1792C32.586 38.1587 32.5319 38.0723 32.5521 37.9852L33.2615 34.9295C33.2815 34.8424 33.3685 34.7882 33.4552 34.8087C33.5419 34.8285 33.596 34.9156 33.5758 35.002L32.8664 38.0584C32.8492 38.1331 32.7827 38.1836 32.7094 38.1836Z" fill="#141317"/>
  <path d="M27.3468 36.6142L25.3203 38.5305L28.282 43.3091C28.525 43.7016 29.0916 43.7118 29.349 43.3288L31.0517 40.7968L32.5841 42.8712C32.8961 43.2937 33.5566 43.1765 33.7045 42.6728L34.6892 39.3169L33.7332 37.7587L30.7609 38.8549L27.3468 36.6142Z" fill="white"/>
  <path d="M30.7611 39.0161C30.73 39.0161 30.6991 39.0073 30.6725 38.9898L27.2584 36.7491C27.1838 36.7 27.1632 36.6004 27.212 36.5258C27.2611 36.4511 27.3613 36.4306 27.4355 36.4789L30.7816 38.6749L33.6774 37.6073C33.761 37.5765 33.8537 37.619 33.8847 37.7032C33.9155 37.7867 33.8728 37.8797 33.789 37.9104L30.8169 39.0059C30.7987 39.0132 30.7798 39.0161 30.7611 39.0161Z" fill="#141317"/>
  <path d="M29.9568 29.8724C29.9568 29.8724 28.8657 27.9745 27.7491 28.3223C26.0474 28.8517 26.1574 31.8927 28.9618 31.7462C28.9618 31.7462 32.2795 35.9844 35.4628 34.8085C38.646 33.6318 36.3935 27.1309 36.3494 27.0189C36.3494 27.0189 33.9419 27.8368 31.4312 27.2188C31.2549 27.1749 30.137 29.8131 29.9568 29.8724Z" fill="white"/>
  <path d="M28.9614 31.5851C29.0109 31.5851 29.0577 31.6078 29.0884 31.6466C29.1209 31.6884 32.3706 35.7787 35.4065 34.6569C35.9634 34.4511 36.3797 34.0513 36.6443 33.4684C37.541 31.4936 36.4891 27.9701 36.2462 27.2195C35.6744 27.3887 33.6322 27.9034 31.4671 27.393C31.3312 27.5739 31 28.2512 30.7744 28.7118C30.2367 29.8109 30.1363 29.983 30.0075 30.0255C29.9347 30.0496 29.8549 30.0196 29.8166 29.953C29.8063 29.9354 28.7775 28.1714 27.7967 28.4768C27.0019 28.7235 26.6981 29.5576 26.8159 30.2158C26.9426 30.9246 27.5721 31.6576 28.9531 31.5851C28.9558 31.5851 28.9585 31.5851 28.9614 31.5851ZM34.2871 35.1782C31.6598 35.179 29.2795 32.3942 28.8865 31.911C27.3544 31.9586 26.6396 31.0645 26.4981 30.2722C26.331 29.3386 26.848 28.4336 27.7008 28.1685C28.7015 27.8566 29.6343 29.0823 29.9681 29.5868C30.1014 29.3533 30.3162 28.9139 30.4845 28.5698C31.1698 27.1697 31.2686 27.013 31.4695 27.0621C33.9067 27.6618 36.2733 26.8739 36.2971 26.8658C36.3793 26.838 36.468 26.879 36.4993 26.9596C36.5152 27.0006 38.008 31.2168 36.9443 33.5885C36.6432 34.26 36.1635 34.7213 35.5184 34.9593C35.1064 35.1116 34.6937 35.1782 34.2871 35.1782Z" fill="#141317"/>
  <path d="M29.2467 30.7598C29.1967 30.7598 29.1473 30.7371 29.1156 30.6931C28.8147 30.2757 28.3101 30.018 27.796 30.018C27.7903 30.018 27.7838 30.018 27.7796 30.018C27.6912 30.018 27.6189 29.947 27.6182 29.8584C27.6174 29.769 27.6889 29.6958 27.778 29.6951C27.7838 29.6951 27.7898 29.6951 27.7958 29.6951C28.412 29.6951 29.0167 30.0041 29.3776 30.5042C29.4296 30.5767 29.4134 30.6777 29.341 30.7297C29.3125 30.7502 29.2794 30.7598 29.2467 30.7598Z" fill="#141317"/>
  <path d="M65.9509 66.6362H32.7907C32.3329 66.6362 31.9619 66.265 31.9619 65.8073V65.6126C31.9619 64.7119 32.6918 63.9826 33.5922 63.9826H68.3409L68.062 65.0187C67.8049 65.9728 66.9394 66.6362 65.9509 66.6362Z" fill="#141317"/>
  <path d="M66.9201 65.4346H46.414C45.5382 65.4346 44.895 64.613 45.1057 63.7629L48.981 48.1303C49.1303 47.5291 49.67 47.1066 50.2895 47.1066H70.7951C71.6709 47.1066 72.3145 47.9289 72.1037 48.779L68.2279 64.4116C68.0793 65.0128 67.5396 65.4346 66.9201 65.4346Z" fill="#141317"/>
  <path d="M50.2892 47.1869C49.7056 47.1869 49.1996 47.5831 49.059 48.1491L45.1837 63.7824C45.0892 64.1632 45.1739 64.5586 45.4157 64.8676C45.6574 65.1766 46.0212 65.3538 46.4135 65.3538H66.9198C67.5034 65.3538 68.0094 64.9584 68.1492 64.3916L72.025 48.759C72.1194 48.3783 72.0352 47.9829 71.7936 47.6739C71.5512 47.3649 71.1873 47.1869 70.7948 47.1869H50.2892ZM66.9198 65.5156H46.4135C45.9712 65.5156 45.561 65.3157 45.2885 64.9672C45.0159 64.6186 44.9205 64.1727 45.0269 63.7429L48.9023 48.1103C49.0612 47.4718 49.6309 47.0258 50.2892 47.0258H70.7948C71.2378 47.0258 71.6479 47.2257 71.9203 47.5743C72.1927 47.9228 72.2878 48.3688 72.1817 48.7978L68.3059 64.4304C68.1478 65.069 67.5773 65.5156 66.9198 65.5156Z" fill="#141317"/>
  <path d="M60.6361 53.1386C60.6361 53.5128 60.333 53.8159 59.9588 53.8159C59.5854 53.8159 59.2822 53.5128 59.2822 53.1386C59.2822 52.7652 59.5854 52.462 59.9588 52.462C60.333 52.462 60.6361 52.7652 60.6361 53.1386Z" fill="#764DEF"/>
  <path d="M77.6455 88.6919C77.6455 88.6919 85.8019 112.225 86.3657 112.896C86.7348 113.335 89.0494 115.423 90.6032 116.811C91.1531 117.303 90.8632 118.214 90.1302 118.298L66.3543 121.027L62.8066 93.9406L77.6455 88.6919Z" fill="white"/>
  <path d="M62.9844 94.0497L66.494 120.848L90.1124 118.137C90.3877 118.106 90.6111 117.922 90.6945 117.659C90.7787 117.395 90.7026 117.116 90.4961 116.932C88.757 115.377 86.6064 113.433 86.2425 112.999C85.6867 112.338 78.6001 91.935 77.5472 88.8984L62.9844 94.0497ZM66.3549 121.188C66.275 121.188 66.2055 121.129 66.1952 121.047L62.6468 93.9618C62.6373 93.8864 62.6812 93.8139 62.753 93.789L77.5926 88.5396C77.6328 88.5257 77.6775 88.5279 77.7163 88.5462C77.7551 88.5652 77.7844 88.5982 77.799 88.6392C81.0641 98.0602 86.0734 112.268 86.49 112.792C86.7646 113.119 88.2635 114.503 90.7114 116.691C91.0138 116.961 91.1251 117.369 91.0028 117.756C90.8798 118.143 90.5525 118.412 90.149 118.458L66.3732 121.187C66.3673 121.188 66.3607 121.188 66.3549 121.188Z" fill="#141317"/>
  <path d="M66.4702 116.237C66.394 116.237 66.3259 116.182 66.3113 116.105C66.2952 116.017 66.3537 115.933 66.4409 115.917L84.2021 112.657C84.2907 112.642 84.3742 112.7 84.3895 112.787C84.4056 112.875 84.3478 112.959 84.2599 112.975L66.4994 116.234C66.4892 116.236 66.4797 116.237 66.4702 116.237Z" fill="#141317"/>
  <path d="M45.7725 110.034L47.1871 128.57C47.3116 130.201 48.596 131.502 50.2245 131.649L72.7065 133.674C73.4658 133.742 73.93 132.859 73.4424 132.271L68.6879 126.547L66.2752 103.893L45.7725 110.034Z" fill="white"/>
  <path d="M45.9427 110.151L47.3474 128.557C47.4663 130.116 48.6821 131.348 50.2385 131.489L72.7204 133.513C73.0602 133.543 73.2938 133.342 73.3985 133.143C73.5025 132.944 73.5369 132.638 73.3179 132.375L68.5635 126.651C68.543 126.626 68.5305 126.596 68.5269 126.564L66.1347 104.103L45.9427 110.151ZM72.7878 133.838C72.7556 133.838 72.7234 133.837 72.6911 133.834L50.2099 131.81C48.4956 131.656 47.1564 130.298 47.0255 128.582L45.6108 110.046C45.605 109.97 45.6528 109.901 45.7254 109.879L66.2277 103.737C66.2745 103.724 66.3236 103.732 66.3638 103.758C66.4041 103.784 66.4297 103.828 66.4349 103.875L68.8425 126.482L73.5662 132.169C73.8342 132.491 73.8796 132.922 73.6841 133.293C73.5047 133.636 73.1664 133.838 72.7878 133.838Z" fill="#141317"/>
  <path d="M56.5122 127.088C53.6301 127.088 50.7487 126.977 47.8843 126.754C47.7954 126.747 47.729 126.67 47.7358 126.581C47.7428 126.492 47.8202 126.426 47.9092 126.432C54.1932 126.921 60.5615 126.872 66.8375 126.286C66.9254 126.278 67.0052 126.343 67.0132 126.432C67.0213 126.521 66.9561 126.599 66.8675 126.607C63.434 126.928 59.9727 127.088 56.5122 127.088Z" fill="#141317"/>
  <path d="M11.6853 71.2728C11.6853 71.2728 4.71735 86.816 15.3552 91.3105C17.3813 92.1665 19.6878 92.7494 22.0942 93.1323C29.1367 93.1257 37.4242 93.251 41.5862 93.1448C43.317 92.9434 44.3586 92.7721 44.3586 92.7721L45.6805 111.914L87.1946 104.609C87.1946 104.609 78.5842 87.2349 71.9919 75.7636C68.554 69.7797 61.8027 66.5125 54.9768 67.5281C39.8293 69.7805 13.9986 70.3479 11.6853 71.2728Z" fill="#764DEF"/>
  <path d="M71.2588 107.574C71.179 107.574 71.1095 107.516 71.0985 107.434C71.0648 107.177 67.6298 81.7122 60.9211 77.742C53.1139 73.1216 40.3907 82.8699 36.6773 85.968C29.9981 91.5396 26.6171 93.2128 26.5836 93.2289C26.5035 93.2684 26.4068 93.2348 26.368 93.1549C26.3289 93.0744 26.3621 92.9777 26.4422 92.9389C26.4753 92.9228 29.8281 91.2606 36.4705 85.7198C38.8405 83.7427 43.5786 80.1042 48.6834 77.9448C53.7971 75.7818 57.9701 75.62 61.0858 77.4638C63.9672 79.1691 66.582 84.7298 68.8585 93.9904C70.5478 100.865 71.4104 107.327 71.4185 107.392C71.4302 107.48 71.3679 107.561 71.2801 107.573C71.2727 107.574 71.2654 107.574 71.2588 107.574Z" fill="#141317"/>
  <path d="M17.5137 74.8496C17.4343 74.8496 17.3554 74.8496 17.2763 74.8489C15.1073 74.8276 12.6702 74.0537 11.3499 72.9663C11.281 72.9099 11.2712 72.8081 11.3279 72.7393C11.3844 72.6705 11.4861 72.6609 11.5551 72.7173C12.8236 73.7622 15.1776 74.5055 17.2794 74.526C20.8199 74.5596 24.6586 73.8252 28.6832 72.3417C29.3429 72.0986 30.026 71.8372 30.6867 71.5838C33.6227 70.4591 36.6587 69.2963 39.4626 69.0129C39.5533 69.0041 39.6307 69.0693 39.6395 69.1579C39.6485 69.2465 39.5839 69.3256 39.4951 69.3344C36.734 69.6134 33.7184 70.7681 30.8022 71.8855C30.1406 72.1389 29.4564 72.401 28.7948 72.6448C24.8229 74.1086 21.0288 74.8496 17.5137 74.8496Z" fill="#141317"/>
  <path d="M100.527 132.54C100.438 132.54 100.366 132.468 100.366 132.379V66.5132H64.2324C64.143 66.5132 64.0713 66.4407 64.0713 66.3514C64.0713 66.262 64.143 66.1903 64.2324 66.1903H100.527C100.617 66.1903 100.688 66.262 100.688 66.3514V132.379C100.688 132.468 100.617 132.54 100.527 132.54Z" fill="#141317"/>
  <path d="M101.799 132.353C101.799 133.083 101.207 133.676 100.476 133.676C99.7457 133.676 99.1533 133.083 99.1533 132.353C99.1533 131.623 99.7457 131.03 100.476 131.03C101.207 131.03 101.799 131.623 101.799 132.353Z" fill="#141317"/>
  <path d="M147.531 132.568C147.522 132.568 147.514 132.568 147.505 132.566C147.417 132.552 147.358 132.468 147.372 132.38L156.963 74.7646C156.978 74.6767 157.061 74.6174 157.149 74.632C157.237 74.6467 157.296 74.7301 157.282 74.818L147.691 132.434C147.678 132.513 147.609 132.568 147.531 132.568Z" fill="#141317"/>
  <path d="M146.147 132.407C146.147 133.17 146.767 133.789 147.531 133.789C148.294 133.789 148.914 133.17 148.914 132.407C148.914 131.644 148.294 131.025 147.531 131.025C146.767 131.025 146.147 131.644 146.147 132.407Z" fill="#141317"/>
  <path d="M181.85 132.568C181.774 132.568 181.707 132.516 181.692 132.439L170.108 74.9711C170.09 74.8839 170.147 74.7982 170.234 74.7807C170.321 74.7631 170.406 74.8195 170.424 74.9074L182.008 132.375C182.026 132.462 181.969 132.548 181.882 132.565C181.871 132.568 181.861 132.568 181.85 132.568Z" fill="#141317"/>
  <path d="M181.844 132.407C181.844 133.17 181.224 133.789 180.46 133.789C179.697 133.789 179.077 133.17 179.077 132.407C179.077 131.644 179.697 131.025 180.46 131.025C181.224 131.025 181.844 131.644 181.844 132.407Z" fill="#141317"/>
  <path d="M176.208 112.003H151.027C150.938 112.003 150.866 111.931 150.866 111.842C150.866 111.753 150.938 111.68 151.027 111.68H176.208C176.297 111.68 176.369 111.753 176.369 111.842C176.369 111.931 176.297 112.003 176.208 112.003Z" fill="#141317"/>
  <path d="M176.903 114.996H150.466C150.376 114.996 150.304 114.924 150.304 114.835C150.304 114.745 150.376 114.673 150.466 114.673H176.903C176.992 114.673 177.064 114.745 177.064 114.835C177.064 114.924 176.992 114.996 176.903 114.996Z" fill="#141317"/>
  <path d="M171.984 77.2974H149.603C148.477 77.2974 147.563 76.3843 147.563 75.2573V74.2681C147.563 73.1412 148.477 72.2281 149.603 72.2281H171.984C173.111 72.2281 174.024 73.1412 174.024 74.2681V75.2573C174.024 76.3843 173.111 77.2974 171.984 77.2974Z" fill="white"/>
  <path d="M149.603 72.3894C148.568 72.3894 147.725 73.2322 147.725 74.2684V75.2576C147.725 76.2937 148.568 77.1366 149.603 77.1366H171.984C173.02 77.1366 173.863 76.2937 173.863 75.2576V74.2684C173.863 73.2322 173.02 72.3894 171.984 72.3894H149.603ZM171.984 77.4595H149.603C148.39 77.4595 147.402 76.4717 147.402 75.2576V74.2684C147.402 73.0543 148.39 72.0665 149.603 72.0665H171.984C173.198 72.0665 174.185 73.0543 174.185 74.2684V75.2576C174.185 76.4717 173.198 77.4595 171.984 77.4595Z" fill="#141317"/>
  <path d="M147.547 59.2882L146.289 65.2231C146.289 65.2231 137.17 75.183 132.52 80.2764C125.8 87.6369 123.383 97.9564 126.128 107.538C128.385 115.418 131.017 124.229 132.572 128.148C132.979 129.173 132.735 130.339 131.956 131.118L130.359 132.715C129.944 133.13 130.238 133.838 130.824 133.838H139.983C140.623 133.838 141.257 133.695 141.824 133.399C145.782 131.336 148.801 128.117 151.203 124.141C151.704 123.312 151.779 122.295 151.413 121.398L143.066 100.967L166.443 60.8325L147.547 59.2882Z" fill="white"/>
  <path d="M147.675 59.4609L146.446 65.2565C146.441 65.2844 146.427 65.3107 146.408 65.332C146.317 65.4315 137.236 75.3497 132.639 80.3854C125.909 87.7568 123.532 97.8903 126.282 107.493C129.223 117.762 131.449 124.884 132.722 128.089C133.152 129.172 132.896 130.406 132.07 131.232L130.473 132.829C130.3 133.002 130.303 133.222 130.365 133.37C130.427 133.519 130.58 133.677 130.824 133.677H139.983C140.61 133.677 141.221 133.531 141.75 133.256C145.442 131.33 148.489 128.321 151.065 124.058C151.536 123.279 151.609 122.307 151.263 121.46L142.916 101.028C142.897 100.982 142.901 100.929 142.926 100.886L166.174 60.9722L147.675 59.4609ZM139.983 134H130.824C130.486 134 130.196 133.806 130.066 133.494C129.937 133.182 130.005 132.839 130.244 132.601L131.841 131.004C132.576 130.269 132.804 129.171 132.422 128.208C130.809 124.146 128.025 114.749 125.972 107.582C124.618 102.853 124.495 97.8237 125.617 93.037C126.74 88.2489 129.085 83.7991 132.4 80.1672C136.865 75.2765 145.561 65.7786 146.14 65.146L147.389 59.2544C147.406 59.1753 147.48 59.1204 147.559 59.127L166.456 60.6713C166.511 60.6757 166.56 60.7079 166.585 60.7577C166.611 60.8067 166.609 60.8653 166.582 60.9136L143.245 100.98L151.562 121.337C151.947 122.279 151.864 123.358 151.341 124.225C148.734 128.54 145.645 131.589 141.899 133.542C141.324 133.842 140.662 134 139.983 134Z" fill="#141317"/>
  <path d="M133.409 129.198C133.34 129.198 133.275 129.152 133.255 129.082C133.229 128.997 133.278 128.907 133.363 128.881C139.158 127.159 144.54 123.704 148.518 119.152C148.576 119.085 148.679 119.078 148.745 119.137C148.813 119.195 148.819 119.297 148.761 119.364C144.744 123.962 139.308 127.451 133.455 129.191C133.44 129.196 133.425 129.198 133.409 129.198Z" fill="#141317"/>
  <path d="M127.83 132.246C132.657 126.277 154.369 99.3066 166.218 82.6687C171.011 75.9401 171.783 67.1188 168.15 59.699C167.932 59.256 167.756 58.936 167.636 58.783C166.677 57.5565 156.676 58.4323 156.676 58.4323L151.731 72.7512L109.446 128.265C108.89 128.995 108.191 129.603 107.392 130.053L104.044 131.936C103.008 132.519 103.432 133.783 104.621 133.768L123.489 133.838C124.445 133.827 127.229 132.99 127.83 132.246Z" fill="white"/>
  <path d="M123.489 133.982H104.737C104.04 133.982 103.607 133.489 103.488 133.001C103.369 132.513 103.526 131.877 104.145 131.555L107.317 129.909C108.097 129.471 108.772 128.883 109.318 128.167L150.557 73.7698C150.611 73.6988 150.713 73.6849 150.784 73.739C150.855 73.7925 150.869 73.8943 150.815 73.9653L109.575 128.362C109.002 129.114 108.294 129.73 107.471 130.193L104.294 131.842C103.798 132.099 103.719 132.586 103.802 132.925C103.884 133.264 104.179 133.659 104.737 133.659H123.489C125.392 133.659 127.169 132.81 128.363 131.329C134.377 123.873 154.87 98.324 166.087 82.5757C170.87 75.8596 171.604 67.1218 168.004 59.7701C167.965 59.6903 167.999 59.5936 168.078 59.5548C168.159 59.5153 168.255 59.5482 168.294 59.6288C171.946 67.0859 171.201 75.9504 166.35 82.7624C155.128 98.5188 134.63 124.075 128.614 131.532C127.358 133.089 125.49 133.982 123.489 133.982Z" fill="#141317"/>
  <path d="M123.499 129.958C119.028 129.958 114.546 129.702 110.118 129.194C110.029 129.184 109.965 129.104 109.976 129.016C109.986 128.927 110.064 128.863 110.154 128.874C116.228 129.571 122.403 129.79 128.51 129.527C128.6 129.524 128.675 129.593 128.679 129.681C128.682 129.771 128.613 129.846 128.524 129.85C126.853 129.921 125.176 129.958 123.499 129.958Z" fill="#141317"/>
  <path d="M146.479 48.388C146.479 48.388 134.153 50.2625 123.917 40.5918C126.361 39.194 127.861 36.6905 128.659 33.3639C128.659 33.3639 132.83 37.4242 136.814 37.4264C140.271 37.4278 147.746 33.7637 155.488 33.2445C155.64 33.7337 159.764 47.2516 159.764 47.2516C159.764 47.2516 164.435 33.5975 164.438 33.577C170.033 34.0222 173.548 34.7639 176.504 38.3702C180.313 43.0163 183.487 51.7578 182.562 57.2767C181.637 62.7956 179.098 64.5032 175.858 65.5664L176 68.551C176.156 71.857 172.884 74.25 169.778 73.1004L144.928 66.3345C142.093 65.1439 141.986 61.6745 142.416 60.4041L146.479 48.388Z" fill="#764DEF"/>
  <path d="M146.539 48.3105C146.523 48.3105 146.505 48.3084 146.488 48.3025C146.404 48.2739 146.358 48.1824 146.386 48.0982C146.504 47.7475 146.594 47.5087 146.683 47.2774C146.77 47.0496 146.86 46.8139 146.975 46.4697C147.003 46.3855 147.094 46.3394 147.179 46.3679C147.264 46.3965 147.31 46.488 147.281 46.5722C147.164 46.923 147.073 47.1617 146.985 47.3931C146.897 47.6208 146.807 47.8566 146.692 48.2007C146.67 48.2681 146.607 48.3105 146.539 48.3105Z" fill="#141317"/>
  <path d="M128.421 33.268C124.989 30.1355 123.624 28.6915 119.674 26.2458C119.326 26.0306 118.128 25.7684 117.99 26.1528C117.85 26.5424 117.61 27.6803 118.704 28.3862C118.704 28.3862 117.148 28.5941 117.241 30.2959C117.241 30.2959 116.174 30.4855 116.657 32.5431C116.657 32.5431 116.052 34.154 117.495 35.0547C118.532 35.7027 119.215 35.4457 119.215 35.4457C119.215 35.4457 122.683 39.7835 124.944 41.2707C127.204 42.7579 130.269 34.9536 128.421 33.268Z" fill="white"/>
  <path d="M124.328 41.0654C124.29 41.0654 124.252 41.0515 124.221 41.0244C122.305 39.3242 119.611 36.1638 119.157 35.6271C118.906 35.6783 118.266 35.7267 117.409 35.1914C116.018 34.323 116.4 32.8255 116.49 32.5356C116.292 31.6679 116.338 31.0074 116.625 30.571C116.773 30.3462 116.954 30.2349 117.076 30.1821C117.062 28.9622 117.869 28.4899 118.344 28.3171C117.972 27.992 117.735 27.5666 117.667 27.0921C117.607 26.6762 117.687 26.2566 117.867 26.0472C118.46 25.3581 119.547 25.9776 119.759 26.1087C123.332 28.3208 125.083 29.9478 127.985 32.6432L128.53 33.1492C128.596 33.21 128.6 33.3117 128.539 33.3769C128.478 33.4428 128.376 33.4465 128.311 33.3857L127.766 32.8797C124.878 30.1975 123.135 28.5785 119.589 26.3833C119.483 26.3174 118.542 25.7579 118.112 26.2581C118.012 26.3738 117.935 26.6886 117.986 27.046C118.036 27.3908 118.216 27.8792 118.791 28.2505C118.848 28.2871 118.875 28.3552 118.861 28.4218C118.846 28.4877 118.792 28.5375 118.725 28.5463C118.668 28.5544 117.319 28.7594 117.402 30.2868C117.407 30.3681 117.349 30.4406 117.27 30.4545C117.262 30.456 117.052 30.5021 116.888 30.7584C116.726 31.011 116.582 31.5199 116.814 32.5063C116.822 32.537 116.819 32.57 116.808 32.5993C116.786 32.66 116.269 34.0996 117.579 34.9175C118.526 35.5092 119.133 35.3027 119.159 35.2939C119.223 35.2712 119.295 35.2902 119.338 35.3415C119.368 35.3774 122.365 38.9456 124.435 40.7828C124.502 40.8421 124.508 40.9439 124.449 41.0105C124.417 41.0471 124.372 41.0654 124.328 41.0654Z" fill="#141317"/>
  <path d="M120.029 34.3042C119.796 34.3042 119.558 34.2493 119.344 34.1387C118.924 33.9227 118.608 33.558 118.329 33.197C117.974 32.7357 117.536 32.1133 117.307 31.3847C117.238 31.1643 117.094 30.6086 117.075 30.3245C117.069 30.2351 117.136 30.1583 117.225 30.1524C117.313 30.1473 117.391 30.2139 117.397 30.3032C117.411 30.528 117.536 31.0369 117.615 31.2881C117.829 31.9683 118.245 32.56 118.585 32.9993C118.841 33.3318 119.128 33.6649 119.492 33.8517C119.846 34.034 120.277 34.0245 120.588 33.8268C120.729 33.7367 120.808 33.5837 120.822 33.3706C120.855 32.869 120.526 32.2202 120.335 32.0591C120.267 32.002 120.258 31.9002 120.315 31.8321C120.373 31.764 120.475 31.7553 120.543 31.8124C120.81 32.0364 121.185 32.7811 121.144 33.3918C121.123 33.7089 120.991 33.9535 120.761 34.0992C120.547 34.2354 120.291 34.3042 120.029 34.3042Z" fill="#141317"/>
  <path d="M123.232 33.4102C123.075 33.4102 122.919 33.3809 122.781 33.3238C122.429 33.1788 122.163 32.913 121.906 32.6552C121.864 32.6142 121.823 32.5725 121.782 32.5322C121.538 32.2935 121.211 32.0167 120.843 31.994C120.63 31.9816 120.422 32.0489 120.198 32.12C119.933 32.2034 119.659 32.2906 119.365 32.251C119.059 32.2093 118.79 32.0277 118.606 31.7377C118.385 31.3906 118.323 30.9389 118.443 30.5603C118.689 29.7826 119.454 29.3697 119.887 29.1932C120.645 28.8849 121.473 28.7919 122.28 28.9237C122.368 28.9384 122.428 29.0211 122.413 29.109C122.399 29.1969 122.315 29.2562 122.228 29.2422C121.479 29.12 120.712 29.2064 120.01 29.4927C119.627 29.6479 118.957 30.0052 118.751 30.6577C118.659 30.9484 118.708 31.2954 118.878 31.5649C119.01 31.7729 119.198 31.9025 119.408 31.931C119.631 31.9611 119.859 31.8886 120.101 31.8117C120.343 31.7355 120.595 31.6565 120.862 31.6718C121.338 31.7004 121.724 32.0233 122.008 32.3016C122.05 32.3433 122.093 32.385 122.134 32.4275C122.38 32.6728 122.611 32.9049 122.904 33.025C123.208 33.1502 123.63 33.096 123.773 32.817C123.814 32.7372 123.912 32.7065 123.991 32.7467C124.07 32.787 124.101 32.8844 124.061 32.9642C123.903 33.2725 123.567 33.4102 123.232 33.4102Z" fill="#141317"/>
  <path d="M119.506 35.1777C119.353 35.1777 119.194 35.1521 119.035 35.1008C118.734 35.0035 118.47 34.8292 118.251 34.6725C117.61 34.2104 116.832 33.3193 116.516 32.6859C116.476 32.6061 116.509 32.5087 116.588 32.4692C116.668 32.4296 116.766 32.4619 116.805 32.5417C117.096 33.126 117.845 33.9813 118.44 34.4104C118.638 34.5524 118.875 34.7098 119.134 34.7933C119.393 34.8775 119.647 34.8761 119.849 34.7889C120.064 34.6967 120.22 34.4902 120.228 34.2866C120.231 34.1973 120.308 34.127 120.395 34.1314C120.484 34.1343 120.553 34.2097 120.55 34.2983C120.538 34.6271 120.307 34.9434 119.976 35.0855C119.833 35.147 119.673 35.1777 119.506 35.1777Z" fill="#141317"/>
  <path d="M119.258 35.5288C119.216 35.5288 119.175 35.5127 119.144 35.4812C119.081 35.4182 119.081 35.3157 119.144 35.2528C119.217 35.1795 119.278 35.0909 119.319 34.9957C119.354 34.9145 119.449 34.8771 119.531 34.9123C119.613 34.9474 119.651 35.0426 119.615 35.1246C119.557 35.2586 119.475 35.3787 119.372 35.4812C119.34 35.5127 119.299 35.5288 119.258 35.5288Z" fill="#141317"/>
  <path d="M119.495 29.5547C119.441 29.0092 118.295 21.3492 118.595 21.1281C118.895 20.9077 120.777 20.6909 120.982 20.8535C121.186 21.016 121.739 29.0458 121.739 29.0458C121.739 29.0458 120.672 28.9235 119.495 29.5547Z" fill="#141317"/>
  <path d="M118.354 28.3163C118.354 28.3163 119.032 29.307 119.721 29.2938C120.41 29.2799 120.94 28.6802 120.758 27.893C120.577 27.1052 119.972 26.3363 119.723 26.0405C119.473 25.7447 118.85 25.1969 118.2 25.6575C117.55 26.1174 117.437 27.0041 118.354 28.3163Z" fill="white"/>
  <path d="M118.724 25.6438C118.586 25.6438 118.44 25.6848 118.293 25.7888C117.643 26.2493 117.711 27.1148 118.486 28.2242C118.486 28.2249 118.486 28.2249 118.486 28.2256C118.661 28.479 119.217 29.1322 119.707 29.1322C119.711 29.1322 119.714 29.1322 119.718 29.1322C120.008 29.1263 120.271 28.9989 120.439 28.7829C120.618 28.5552 120.674 28.2513 120.6 27.9291C120.436 27.2152 119.902 26.5049 119.599 26.1454C119.48 26.004 119.135 25.6438 118.724 25.6438ZM119.707 29.4551C118.95 29.4551 118.256 28.4607 118.221 28.4087C116.971 26.6184 117.725 25.7961 118.106 25.5259C118.749 25.0704 119.426 25.4395 119.845 25.9367C120.168 26.3189 120.736 27.076 120.915 27.8566C121.012 28.2762 120.933 28.6752 120.694 28.9813C120.466 29.275 120.112 29.4478 119.725 29.4551C119.719 29.4551 119.713 29.4551 119.707 29.4551Z" fill="#141317"/>
  <path d="M122.082 32.5765L122.742 40.5308L120.64 40.8193L119.984 34.957C119.984 34.957 120.382 34.7403 120.4 34.09C120.4 34.09 120.942 34.0542 120.978 33.4032C121.015 32.753 120.526 31.8501 120.526 31.8501C120.526 31.8501 120.888 31.7593 121.303 31.9585C121.719 32.1569 122.082 32.5765 122.082 32.5765Z" fill="#141317"/>
  <path d="M120.781 40.7397L122.14 43.564L122.58 40.5369L120.781 40.7397Z" fill="white"/>
  <path d="M121.026 40.8742L122.057 43.0175L122.391 40.7205L121.026 40.8742ZM122.14 43.7256C122.079 43.7256 122.022 43.6904 121.995 43.6341L120.636 40.8091C120.613 40.7622 120.615 40.7066 120.641 40.6612C120.665 40.615 120.712 40.585 120.764 40.5791L122.563 40.3763C122.615 40.3705 122.663 40.3888 122.697 40.4246C122.733 40.4605 122.749 40.5103 122.741 40.5601L122.3 43.5872C122.29 43.6575 122.235 43.7124 122.165 43.7234C122.157 43.7249 122.148 43.7256 122.14 43.7256Z" fill="#141317"/>
  <path d="M121.998 43.3074L122.169 43.3023L122.208 44.3164H122.103L121.998 43.3074Z" fill="white"/>
  <path d="M122.208 44.4775H122.104C122.021 44.4775 121.951 44.4153 121.943 44.3326L121.838 43.3243C121.833 43.2796 121.847 43.2357 121.877 43.202C121.906 43.1676 121.949 43.1478 121.993 43.1463L122.165 43.1412C122.167 43.1405 122.168 43.1405 122.17 43.1405C122.257 43.1405 122.328 43.2093 122.331 43.2957L122.37 44.3099C122.372 44.3538 122.356 44.3963 122.325 44.4277C122.295 44.46 122.252 44.4775 122.208 44.4775Z" fill="#141317"/>
  <path d="M146.084 39.4152H159.125C159.311 39.4152 159.475 39.5375 159.528 39.7162L164.482 56.3959C164.562 56.6653 164.36 56.9355 164.079 56.9355H151.038C150.852 56.9355 150.688 56.8133 150.635 56.6346L145.681 39.9556C145.601 39.6862 145.803 39.4152 146.084 39.4152Z" fill="#141317"/>
  <path d="M155.756 39.1688L149.14 39.2083C149.14 39.2083 149.124 40.0841 149.235 40.2877C149.345 40.4912 150.085 40.429 150.325 40.5147C150.566 40.6011 150.679 40.9503 150.894 41.066C151.11 41.181 154.711 41.1598 154.872 41.0419C155.033 40.924 154.983 40.5747 155.183 40.4854C155.382 40.3968 156.149 40.4509 156.165 40.2459C156.18 40.0416 155.756 39.1688 155.756 39.1688Z" fill="white"/>
  <path d="M149.301 39.3696C149.302 39.7328 149.328 40.1216 149.377 40.211C149.431 40.263 149.748 40.2857 149.919 40.2981C150.107 40.312 150.269 40.3237 150.38 40.3633C150.555 40.4255 150.668 40.5764 150.768 40.7089C150.837 40.8004 150.902 40.8876 150.97 40.9234C151.242 41.012 154.417 40.9967 154.786 40.9022C154.811 40.8714 154.833 40.7968 154.85 40.7352C154.89 40.5932 154.94 40.4167 155.117 40.3384C155.216 40.2944 155.375 40.2805 155.559 40.2644C155.687 40.2534 155.913 40.2337 156 40.1992C155.973 40.0579 155.816 39.6728 155.655 39.3308L149.301 39.3696ZM152.607 41.3086C151.744 41.3086 150.946 41.2771 150.818 41.2083C150.687 41.138 150.597 41.0186 150.51 40.9029C150.43 40.7968 150.355 40.6972 150.271 40.6671C150.202 40.6423 150.039 40.6305 149.896 40.6203C149.54 40.5947 149.204 40.5705 149.093 40.3647C148.972 40.1414 148.975 39.4209 148.979 39.2056C148.981 39.1185 149.052 39.0482 149.139 39.0474L155.755 39.0079H155.756C155.817 39.0079 155.875 39.043 155.901 39.0987C156.034 39.3725 156.342 40.0345 156.326 40.2586C156.306 40.5236 155.957 40.5544 155.588 40.5859C155.458 40.5976 155.298 40.6115 155.248 40.6335C155.21 40.6503 155.183 40.7426 155.161 40.8238C155.125 40.9461 155.086 41.0853 154.967 41.1724C154.847 41.2603 153.677 41.3086 152.607 41.3086Z" fill="#141317"/>
  <path d="M152.78 52.405C152.22 51.8661 151.878 51.2796 152.235 50.7048C152.593 50.13 153.492 49.996 154.003 50.4419C153.625 50.1446 153.237 49.8356 153.007 49.4131C152.777 48.9913 152.746 48.4224 153.063 48.0614C153.341 47.7436 153.818 47.6638 154.231 47.7553C154.435 47.8007 154.627 47.8805 154.811 47.9779C154.632 47.7092 154.583 47.3299 154.735 47.0355C154.993 46.5339 155.626 46.3201 156.187 46.3831C156.749 46.4461 157.258 46.7295 157.749 47.0077C161.039 48.8581 167.541 52.6181 167.541 52.6181C167.712 53.5532 164.286 61.0843 162.99 62.3423C162.151 62.0904 155.866 57.0584 153.484 55.0169C153.084 54.675 152.673 54.3125 152.47 53.8271C152.267 53.3416 152.343 52.6979 152.78 52.405Z" fill="white"/>
  <path d="M158.671 50.6367C158.642 50.6367 158.613 50.6294 158.587 50.6133C157.381 49.8715 156.174 49.0968 154.999 48.3097C154.925 48.2599 154.906 48.1596 154.955 48.0856C155.004 48.0116 155.105 47.9919 155.179 48.0417C156.35 48.8259 157.553 49.5991 158.756 50.338C158.831 50.3848 158.855 50.4844 158.808 50.5598C158.778 50.6096 158.725 50.6367 158.671 50.6367Z" fill="#141317"/>
  <path d="M157.148 52.8921C157.115 52.8921 157.082 52.8818 157.054 52.8621L153.948 50.6426C153.876 50.5914 153.859 50.4903 153.911 50.4179C153.963 50.3454 154.064 50.3285 154.136 50.3805L157.241 52.5992C157.314 52.6512 157.331 52.7515 157.279 52.824C157.248 52.8687 157.198 52.8921 157.148 52.8921Z" fill="#141317"/>
  <path d="M155.691 54.7417C155.66 54.7417 155.629 54.7329 155.601 54.7139C154.651 54.0717 153.721 53.3783 152.837 52.6512C152.767 52.5948 152.758 52.493 152.814 52.4242C152.87 52.3553 152.972 52.3451 153.041 52.4015C153.918 53.122 154.841 53.8103 155.782 54.4466C155.856 54.4964 155.875 54.5967 155.825 54.6707C155.794 54.7168 155.743 54.7417 155.691 54.7417Z" fill="#141317"/>
  <path d="M172.938 66.1196C169.383 66.1196 165.861 64.9869 162.977 62.867C162.905 62.8136 162.89 62.7132 162.942 62.6408C162.995 62.5697 163.096 62.5536 163.169 62.6063C166.703 65.2051 171.213 66.291 175.543 65.5873C175.631 65.5734 175.714 65.6327 175.728 65.7206C175.743 65.8084 175.683 65.8919 175.595 65.9058C174.713 66.0493 173.824 66.1196 172.938 66.1196Z" fill="#141317"/>
  <path d="M174.881 57.0386C174.853 57.0386 174.826 57.0313 174.801 57.0166L167.823 52.9878C167.746 52.9432 167.719 52.8443 167.764 52.7674C167.809 52.6898 167.907 52.6634 167.984 52.7081L174.962 56.7369C175.039 56.7816 175.066 56.8804 175.021 56.9573C174.991 57.0093 174.937 57.0386 174.881 57.0386Z" fill="#141317"/>
  <path d="M172.646 55.2505C172.571 55.2505 172.504 55.1978 172.488 55.1216L170.61 45.9664C170.592 45.8785 170.648 45.7936 170.736 45.7753C170.823 45.7577 170.908 45.8141 170.926 45.9012L172.804 55.0564C172.822 55.1443 172.766 55.2293 172.679 55.2476C172.668 55.2498 172.657 55.2505 172.646 55.2505Z" fill="#141317"/>
  <path d="M152.918 19.5191C152.39 18.7261 151.954 17.7456 152.257 16.8421C152.576 15.8879 153.78 15.3432 154.707 15.7334C154.317 15.0539 154 14.3312 153.764 13.5836C156.304 13.5104 158.916 13.9585 161.088 15.2758C163.259 16.5938 164.932 18.866 165.133 21.3966C165.217 22.4488 165.032 23.5604 164.404 24.4105C163.745 25.3024 162.676 25.8076 161.599 26.0763C160.197 26.4264 158.651 26.4161 157.374 25.741C156.512 25.2855 155.808 24.4903 155.503 23.5604C155.426 23.3239 155.375 23.0786 155.355 22.8303C155.341 22.6509 155.432 22.3214 155.363 22.164C155.281 21.9765 154.932 21.7905 154.778 21.6544C154.559 21.4596 154.348 21.2567 154.145 21.0458C153.692 20.575 153.28 20.0632 152.918 19.5191Z" fill="#141317"/>
  <path d="M155.263 19.668C155.221 19.668 155.179 19.6519 155.148 19.6204C154.585 19.0529 154.168 18.3477 153.943 17.5804C153.918 17.4947 153.967 17.4053 154.052 17.3804C154.139 17.3548 154.227 17.4039 154.252 17.4896C154.463 18.205 154.852 18.8632 155.377 19.3926C155.44 19.4564 155.439 19.5581 155.376 19.6211C155.345 19.6526 155.304 19.668 155.263 19.668Z" fill="#141317"/>
  <path d="M155.496 33.325L156.917 33.1705L156.542 28.3238C156.542 28.3238 157.722 22.4176 162.269 26.8278L163.101 33.4085L164.438 33.5762L159.747 47.3306L155.496 33.325Z" fill="white"/>
  <path d="M164.355 33.7524C164.346 33.7524 164.338 33.7517 164.331 33.751L163.078 33.5679C163.006 33.5569 162.951 33.5005 162.941 33.4281L162.116 26.9045C160.799 25.6385 159.659 25.1435 158.727 25.4335C157.282 25.8831 156.758 28.0951 156.706 28.3346L157.078 33.1579C157.085 33.2465 157.019 33.3233 156.931 33.3314L155.519 33.4544C155.431 33.461 155.352 33.3958 155.344 33.3072C155.337 33.2186 155.402 33.1403 155.491 33.1322L156.744 33.0231L156.382 28.3361C156.38 28.3214 156.381 28.3068 156.384 28.2921C156.405 28.1845 156.93 25.6546 158.631 25.1252C159.694 24.795 160.955 25.3287 162.381 26.7119C162.408 26.7376 162.424 26.7713 162.429 26.8079L163.247 33.2662L164.377 33.431C164.466 33.4442 164.527 33.5262 164.514 33.614C164.502 33.6946 164.433 33.7524 164.355 33.7524Z" fill="#141317"/>
  <path d="M160.164 27.0539C159.483 27.6375 158.672 28.0893 157.791 28.2562C156.909 28.4224 155.955 28.287 155.207 27.7912C153.957 26.9616 153.503 25.2789 153.724 23.7954C153.945 22.3112 154.716 20.9748 155.484 19.6853C155.484 19.6853 158.413 21.9289 161.103 22.2907C161.446 23.1635 161.485 24.0143 161.287 24.8491C161.287 24.8491 161.885 24.3073 162.434 24.6646C163.026 25.0512 163.266 25.886 162.98 26.5333C162.694 27.1806 161.953 27.5782 161.247 27.5086C160.85 27.4691 160.484 27.3922 160.164 27.0539Z" fill="white"/>
  <path d="M155.531 19.9223C154.874 21.028 154.098 22.379 153.883 23.8193C153.688 25.1337 154.049 26.8295 155.296 27.6569C155.973 28.1058 156.871 28.2662 157.76 28.0978C158.548 27.9484 159.343 27.5456 160.059 26.932C160.124 26.8756 160.221 26.8808 160.282 26.9437C160.55 27.2279 160.845 27.3069 161.263 27.3487C161.917 27.4131 162.578 27.0433 162.832 26.4685C163.087 25.89 162.869 25.1424 162.345 24.8005C161.906 24.5142 161.401 24.9645 161.395 24.9689C161.343 25.0165 161.266 25.0245 161.205 24.9887C161.144 24.9528 161.114 24.881 161.13 24.8122C161.323 23.9994 161.276 23.2218 160.986 22.4375C158.622 22.0831 156.154 20.3763 155.531 19.9223ZM157.069 28.4858C156.356 28.4858 155.671 28.2933 155.118 27.9264C153.917 27.1297 153.307 25.499 153.564 23.7717C153.798 22.201 154.656 20.7607 155.345 19.603C155.369 19.5635 155.408 19.5364 155.454 19.5276C155.499 19.5188 155.545 19.5298 155.582 19.5576C155.611 19.5803 158.509 21.7793 161.125 22.1315C161.183 22.1395 161.232 22.1776 161.253 22.2325C161.545 22.975 161.633 23.7387 161.518 24.5069C161.778 24.3802 162.154 24.2901 162.521 24.5303C163.183 24.9616 163.449 25.8703 163.127 26.5989C162.819 27.2974 162.024 27.7477 161.232 27.6694C160.891 27.6364 160.503 27.5735 160.156 27.2711C159.427 27.8686 158.622 28.2632 157.82 28.4148C157.569 28.4624 157.317 28.4858 157.069 28.4858Z" fill="#141317"/>
  <path d="M160.727 26.4253C160.654 26.4253 160.588 26.3748 160.571 26.3001C160.55 26.2137 160.604 26.1265 160.692 26.1068C161.016 26.0321 161.324 25.9061 161.608 25.7341C161.684 25.6879 161.784 25.7121 161.83 25.7882C161.876 25.8644 161.852 25.9632 161.776 26.0101C161.462 26.2005 161.122 26.3389 160.764 26.4209C160.752 26.4238 160.74 26.4253 160.727 26.4253Z" fill="#141317"/>
  <path d="M159.582 33.5452L158.335 35.1942L159.279 36.3035L157.783 40.861L159.747 47.3369L161.956 40.8456L160.045 36.2801L160.829 35.0133L159.582 33.5452Z" fill="#E9E2FF"/>
  <path d="M172.223 107.522V104.966C172.223 104.277 172.783 103.717 173.472 103.717H183.479C184.168 103.717 184.729 104.277 184.729 104.966V107.522H186.272V104.966C186.272 103.427 185.019 102.174 183.479 102.174H173.472C171.933 102.174 170.68 103.427 170.68 104.966V107.522H172.223Z" fill="#141317"/>
  <path d="M172.629 108.667H170.391C169.706 108.667 169.146 108.107 169.146 107.422V106.876C169.146 106.191 169.706 105.631 170.391 105.631H172.629C173.314 105.631 173.874 106.191 173.874 106.876V107.422C173.874 108.107 173.314 108.667 172.629 108.667Z" fill="white"/>
  <path d="M170.391 105.793C169.793 105.793 169.307 106.279 169.307 106.876V107.422C169.307 108.019 169.793 108.506 170.391 108.506H172.629C173.226 108.506 173.712 108.019 173.712 107.422V106.876C173.712 106.279 173.226 105.793 172.629 105.793H170.391ZM172.629 108.829H170.391C169.615 108.829 168.984 108.197 168.984 107.422V106.876C168.984 106.1 169.615 105.47 170.391 105.47H172.629C173.405 105.47 174.035 106.1 174.035 106.876V107.422C174.035 108.197 173.405 108.829 172.629 108.829Z" fill="#141317"/>
  <path d="M186.553 108.667H184.314C183.629 108.667 183.069 108.107 183.069 107.422V106.876C183.069 106.191 183.629 105.631 184.314 105.631H186.553C187.237 105.631 187.797 106.191 187.797 106.876V107.422C187.797 108.107 187.237 108.667 186.553 108.667Z" fill="white"/>
  <path d="M184.314 105.793C183.717 105.793 183.23 106.279 183.23 106.876V107.422C183.23 108.019 183.717 108.506 184.314 108.506H186.553C187.15 108.506 187.636 108.019 187.636 107.422V106.876C187.636 106.279 187.15 105.793 186.553 105.793H184.314ZM186.553 108.829H184.314C183.539 108.829 182.908 108.197 182.908 107.422V106.876C182.908 106.1 183.539 105.47 184.314 105.47H186.553C187.328 105.47 187.959 106.1 187.959 106.876V107.422C187.959 108.197 187.328 108.829 186.553 108.829Z" fill="#141317"/>
  <path d="M200.755 133.814H162.121L164.581 106.865H197.041L200.755 133.814Z" fill="white"/>
  <path d="M162.299 133.652H200.571L196.901 107.027H164.73L162.299 133.652ZM200.756 133.975H162.122C162.077 133.975 162.033 133.956 162.003 133.922C161.973 133.889 161.957 133.844 161.962 133.799L164.422 106.851C164.429 106.768 164.5 106.704 164.582 106.704H197.042C197.122 106.704 197.19 106.764 197.201 106.843L200.916 133.791C200.922 133.838 200.908 133.884 200.877 133.919C200.847 133.955 200.803 133.975 200.756 133.975Z" fill="#141317"/>
  <path d="M198.492 133.975C198.412 133.975 198.343 133.916 198.332 133.834L196.445 118.974C196.434 118.886 196.497 118.805 196.584 118.794C196.673 118.783 196.754 118.846 196.765 118.934L198.652 133.794C198.663 133.881 198.601 133.963 198.512 133.974C198.506 133.974 198.499 133.975 198.492 133.975Z" fill="#141317"/>
  <path d="M196.009 133.814H157.375L160.445 106.865H193.548L196.009 133.814Z" fill="white"/>
  <path d="M157.556 133.652H195.832L193.401 107.027H160.59L157.556 133.652ZM196.009 133.975H157.375C157.329 133.975 157.285 133.955 157.255 133.921C157.224 133.886 157.21 133.841 157.215 133.796L160.285 106.847C160.295 106.766 160.363 106.704 160.446 106.704H193.549C193.632 106.704 193.702 106.768 193.709 106.851L196.17 133.799C196.174 133.844 196.159 133.889 196.128 133.922C196.098 133.956 196.054 133.975 196.009 133.975Z" fill="#141317"/>
  <path d="M192.836 119.66H159.293C159.203 119.66 159.131 119.587 159.131 119.498C159.131 119.409 159.203 119.337 159.293 119.337H192.662L192.249 113.589C192.243 113.5 192.31 113.423 192.399 113.417C192.487 113.41 192.565 113.477 192.572 113.566L192.996 119.486C193 119.531 192.985 119.575 192.954 119.608C192.923 119.641 192.881 119.66 192.836 119.66Z" fill="#141317"/>
  <path d="M179.877 121.826H173.672V118.954H179.877V121.826Z" fill="white"/>
  <path d="M173.834 121.664H179.716V119.116H173.834V121.664ZM179.877 121.987H173.672C173.583 121.987 173.511 121.914 173.511 121.826V118.954C173.511 118.865 173.583 118.793 173.672 118.793H179.877C179.966 118.793 180.039 118.865 180.039 118.954V121.826C180.039 121.914 179.966 121.987 179.877 121.987Z" fill="#141317"/>
  <path d="M20.8965 9.56606C20.8965 10.958 22.0246 12.0864 23.4164 12.0864C24.808 12.0864 25.9363 10.958 25.9363 9.56606C25.9363 8.1748 24.808 7.04642 23.4164 7.04642C22.0246 7.04642 20.8965 8.1748 20.8965 9.56606Z" fill="#E9E2FF"/>
  <path d="M13.543 9.56606C13.543 10.958 14.6712 12.0864 16.0629 12.0864C17.4546 12.0864 18.5828 10.958 18.5828 9.56606C18.5828 8.1748 17.4546 7.04642 16.0629 7.04642C14.6712 7.04642 13.543 8.1748 13.543 9.56606Z" fill="#E9E2FF"/>
  <path d="M6.18945 9.56606C6.18945 10.958 7.31769 12.0864 8.70938 12.0864C10.1011 12.0864 11.2292 10.958 11.2292 9.56606C11.2292 8.1748 10.1011 7.04642 8.70938 7.04642C7.31769 7.04642 6.18945 8.1748 6.18945 9.56606Z" fill="#E9E2FF"/>
  <path d="M67.277 9.72803H28.3177C28.2285 9.72803 28.1562 9.65554 28.1562 9.56621C28.1562 9.4776 28.2285 9.40511 28.3177 9.40511H67.277C67.3663 9.40511 67.4381 9.4776 67.4381 9.56621C67.4381 9.65554 67.3663 9.72803 67.277 9.72803Z" fill="#141317"/>
  <path d="M198.518 37.0879C197.126 37.0879 195.998 38.2163 195.998 39.6083C195.998 40.9996 197.126 42.1279 198.518 42.1279C199.91 42.1279 201.038 40.9996 201.038 39.6083C201.038 38.2163 199.91 37.0879 198.518 37.0879Z" fill="#E9E2FF"/>
  <path d="M198.518 29.7339C197.126 29.7339 195.998 30.8623 195.998 32.2543C195.998 33.6455 197.126 34.7739 198.518 34.7739C199.91 34.7739 201.038 33.6455 201.038 32.2543C201.038 30.8623 199.91 29.7339 198.518 29.7339Z" fill="#E9E2FF"/>
  <path d="M198.518 22.3804C197.126 22.3804 195.998 23.5088 195.998 24.9008C195.998 26.292 197.126 27.4204 198.518 27.4204C199.91 27.4204 201.038 26.292 201.038 24.9008C201.038 23.5088 199.91 22.3804 198.518 22.3804Z" fill="#E9E2FF"/>
  <path d="M198.517 19.9082C198.429 19.9082 198.356 19.8357 198.356 19.7464V7.80793H162.731C162.642 7.80793 162.569 7.73543 162.569 7.64609C162.569 7.55749 162.642 7.485 162.731 7.485H198.517C198.607 7.485 198.679 7.55749 198.679 7.64609V19.7464C198.679 19.8357 198.607 19.9082 198.517 19.9082Z" fill="#141317"/>
</svg>