<svg xmlns="http://www.w3.org/2000/svg" width="183" height="136" viewBox="0 0 183 136" fill="none">
  <path d="M99.226 114.121C96.7378 114.12 96.8027 116.364 94.6709 116.362C92.5378 116.362 91.9608 114.784 91.9612 112.607L91.9657 105.828C91.967 104.651 91.0124 103.695 89.8343 103.695L83.5172 103.672C81.34 103.674 79.7623 103.096 79.7623 100.963C79.7598 98.8308 82.004 98.8962 82.0036 96.408C82.0028 94.0755 80.6241 92.6106 77.514 92.6122C74.4047 92.613 73.028 94.0804 73.0292 96.4121C73.03 98.9007 75.2742 98.8325 75.2742 100.966C75.2751 103.099 73.6985 103.676 71.5205 103.678L62.8272 103.682C61.6487 103.682 60.6937 104.636 60.6937 105.814L60.6807 132.82C60.6807 133.998 61.6361 134.954 62.8129 134.955L89.8196 134.967C90.9973 134.967 91.9518 134.013 91.9531 132.835L91.9567 124.603C91.9576 122.426 92.5354 120.849 94.6693 120.85C96.8003 120.851 96.7345 123.094 99.2219 123.096C101.554 123.097 103.021 121.719 103.022 118.61C103.023 115.499 101.559 114.122 99.226 114.121Z" fill="white"/>
  <path d="M99.226 114.121C96.7378 114.12 96.8027 116.364 94.6709 116.362C92.5378 116.362 91.9608 114.784 91.9612 112.607L91.9657 105.828C91.967 104.651 91.0124 103.695 89.8343 103.695L83.5172 103.672C81.34 103.674 79.7623 103.096 79.7623 100.963C79.7598 98.8308 82.004 98.8962 82.0036 96.408C82.0028 94.0755 80.6241 92.6106 77.514 92.6122C74.4047 92.613 73.028 94.0804 73.0292 96.4121C73.03 98.9007 75.2742 98.8325 75.2742 100.966C75.2751 103.099 73.6985 103.676 71.5205 103.678L62.8272 103.682C61.6487 103.682 60.6937 104.636 60.6937 105.814L60.6807 132.82C60.6807 133.998 61.6361 134.954 62.8129 134.955L89.8196 134.967C90.9973 134.967 91.9518 134.013 91.9531 132.835L91.9567 124.603C91.9576 122.426 92.5354 120.849 94.6693 120.85C96.8003 120.851 96.7345 123.094 99.2219 123.096C101.554 123.097 103.021 121.719 103.022 118.61C103.023 115.499 101.559 114.122 99.226 114.121Z" stroke="#4C30A1" stroke-width="1.52707" stroke-linecap="round" stroke-linejoin="round"/>
  <path d="M123.209 132.835L123.221 105.828C123.221 104.65 122.267 103.696 121.09 103.695L113.951 103.691C111.774 103.69 110.197 103.111 110.199 100.979C110.199 98.8468 112.443 98.9134 112.445 96.4256C112.445 94.0935 111.067 92.6261 107.958 92.6253C104.847 92.6237 103.471 94.0886 103.469 96.4219C103.469 98.9097 105.712 98.8439 105.711 100.977C105.711 103.109 104.132 103.686 101.954 103.686L94.0817 103.682C92.9048 103.68 91.9486 104.635 91.9486 105.814L91.9454 112.616C91.9437 114.793 92.5215 116.37 94.6546 116.371C96.7864 116.372 96.7211 114.129 99.2092 114.13C101.542 114.13 103.008 115.508 103.005 118.619C103.004 121.728 101.537 123.104 99.2052 123.104C96.717 123.104 96.784 120.859 94.6517 120.859C92.5191 120.859 91.9409 122.434 91.9392 124.612L91.9355 132.82C91.9355 133.998 92.8901 134.954 94.0678 134.954L121.074 134.967C122.252 134.967 123.208 134.012 123.209 132.835Z" fill="#F4F1FE"/>
  <path d="M123.209 132.835L123.221 105.828C123.221 104.65 122.267 103.696 121.09 103.695L113.951 103.691C111.774 103.69 110.197 103.111 110.199 100.979C110.199 98.8468 112.443 98.9134 112.445 96.4256C112.445 94.0935 111.067 92.6261 107.958 92.6253C104.847 92.6237 103.471 94.0886 103.469 96.4219C103.469 98.9097 105.712 98.8439 105.711 100.977C105.711 103.109 104.132 103.686 101.954 103.686L94.0817 103.682C92.9048 103.68 91.9486 104.635 91.9486 105.814L91.9454 112.616C91.9437 114.793 92.5215 116.37 94.6546 116.371C96.7864 116.372 96.7211 114.129 99.2092 114.13C101.542 114.13 103.008 115.508 103.005 118.619C103.004 121.728 101.537 123.104 99.2052 123.104C96.717 123.104 96.784 120.859 94.6517 120.859C92.5191 120.859 91.9409 122.434 91.9392 124.612L91.9355 132.82C91.9355 133.998 92.8901 134.954 94.0678 134.954L121.074 134.967C122.252 134.967 123.208 134.012 123.209 132.835Z" stroke="#4C30A1" stroke-width="1.52707" stroke-linecap="round" stroke-linejoin="round"/>
  <path d="M121.088 41.51L94.0811 41.4977C92.903 41.4977 91.9488 42.4519 91.948 43.6292L91.9447 50.768C91.9439 52.9444 91.3649 54.5217 89.2322 54.5197C87.1 54.5197 87.1666 52.2759 84.6788 52.2742C82.3467 52.2742 80.8797 53.6513 80.8789 56.7606C80.8773 59.8716 82.3422 61.2479 84.6755 61.2495C87.1633 61.2499 87.0971 59.0065 89.2298 59.0081C91.3624 59.0081 91.9394 60.5863 91.9394 62.7643L91.9349 70.6371C91.9333 71.8139 92.8883 72.7697 94.0668 72.7697L100.869 72.7734C103.046 72.775 104.623 72.1972 104.624 70.0641C104.626 67.9319 102.382 67.9977 102.383 65.5095C102.384 63.1766 103.762 61.7113 106.872 61.7137C109.981 61.7145 111.358 63.1815 111.358 65.5136C111.357 68.0014 109.112 67.9343 109.112 70.067C109.112 72.1997 110.688 72.7779 112.865 72.7795L121.074 72.7832C122.252 72.7832 123.207 71.8286 123.207 70.651L123.22 43.6443C123.22 42.4666 122.265 41.5104 121.088 41.51Z" fill="#F4F1FE"/>
  <path d="M121.088 41.51L94.0811 41.4977C92.903 41.4977 91.9488 42.4519 91.948 43.6292L91.9447 50.768C91.9439 52.9444 91.3649 54.5217 89.2322 54.5197C87.1 54.5197 87.1666 52.2759 84.6788 52.2742C82.3467 52.2742 80.8797 53.6513 80.8789 56.7606C80.8773 59.8716 82.3422 61.2479 84.6755 61.2495C87.1633 61.2499 87.0971 59.0065 89.2298 59.0081C91.3624 59.0081 91.9394 60.5863 91.9394 62.7643L91.9349 70.6371C91.9333 71.8139 92.8883 72.7697 94.0668 72.7697L100.869 72.7734C103.046 72.775 104.623 72.1972 104.624 70.0641C104.626 67.9319 102.382 67.9977 102.383 65.5095C102.384 63.1766 103.762 61.7113 106.872 61.7137C109.981 61.7145 111.358 63.1815 111.358 65.5136C111.357 68.0014 109.112 67.9343 109.112 70.067C109.112 72.1997 110.688 72.7779 112.865 72.7795L121.074 72.7832C122.252 72.7832 123.207 71.8286 123.207 70.651L123.22 43.6443C123.22 42.4666 122.265 41.5104 121.088 41.51Z" stroke="#4C30A1" stroke-width="1.52707" stroke-linecap="round" stroke-linejoin="round"/>
  <path d="M71.5348 103.65C73.7112 103.651 75.2898 103.073 75.2898 100.941C75.2918 98.808 73.0472 98.873 73.048 96.3853C73.0484 94.0528 74.4275 92.5878 77.5373 92.5894C80.647 92.5907 82.0233 94.0573 82.0228 96.3889C82.022 98.8775 79.7778 98.8097 79.7778 100.944C79.777 103.076 81.3539 103.654 83.5311 103.655H89.8196C90.9973 103.655 91.9518 102.701 91.9531 101.524L91.9567 93.2911C91.9576 91.1147 92.5354 89.5369 94.6693 89.5386C96.8003 89.539 96.7345 91.7824 99.2219 91.7844C101.554 91.7848 103.021 90.4077 103.022 87.2984C103.023 84.1875 101.559 82.8104 99.226 82.8096C96.7378 82.8084 96.8027 85.0522 94.6709 85.051C92.5378 85.0505 91.9608 83.4724 91.9612 81.2948L91.9657 74.5168C91.967 73.3391 91.0124 72.3833 89.8343 72.3833L83.0313 72.3792C80.855 72.378 79.2768 72.9554 79.2768 75.0884C79.2739 77.2207 81.519 77.1557 81.5182 79.6435C81.5174 81.976 80.1386 83.4413 77.0289 83.4393C73.9192 83.4385 72.5425 81.9715 72.5433 79.6402C72.5441 77.1512 74.7884 77.2195 74.7884 75.0856C74.7892 72.9533 73.2131 72.3747 71.0351 72.3739L62.8272 72.3698C61.6487 72.3698 60.6937 73.3244 60.6937 74.5029L60.6807 101.508C60.6807 102.686 61.6361 103.642 62.8129 103.643L71.5348 103.65Z" fill="#7E64CC"/>
  <path d="M71.5348 103.65C73.7112 103.651 75.2898 103.073 75.2898 100.941C75.2918 98.808 73.0472 98.873 73.048 96.3853C73.0484 94.0528 74.4275 92.5878 77.5373 92.5894C80.647 92.5907 82.0232 94.0573 82.0228 96.3889C82.022 98.8775 79.7778 98.8097 79.7778 100.944C79.777 103.076 81.3539 103.654 83.5311 103.655H89.8196C90.9973 103.655 91.9518 102.701 91.9531 101.524L91.9567 93.2911C91.9576 91.1147 92.5354 89.5369 94.6693 89.5386C96.8003 89.539 96.7345 91.7824 99.2219 91.7844C101.554 91.7848 103.021 90.4077 103.022 87.2984C103.023 84.1875 101.559 82.8104 99.226 82.8096C96.7378 82.8084 96.8027 85.0522 94.6709 85.051C92.5378 85.0505 91.9608 83.4724 91.9612 81.2948L91.9657 74.5168C91.967 73.3391 91.0124 72.3833 89.8343 72.3833L83.0313 72.3792C80.855 72.378 79.2768 72.9554 79.2768 75.0884C79.2739 77.2207 81.519 77.1557 81.5182 79.6435C81.5174 81.976 80.1386 83.4413 77.0289 83.4393C73.9192 83.4385 72.5425 81.9715 72.5433 79.6402C72.5441 77.1512 74.7884 77.2195 74.7884 75.0856C74.7892 72.9533 73.2131 72.3747 71.0351 72.3739L62.8272 72.3698C61.6487 72.3698 60.6937 73.3244 60.6937 74.5029L60.6807 101.508C60.6807 102.686 61.6361 103.642 62.8129 103.643L71.5348 103.65Z" stroke="#4C30A1" stroke-width="1.52707" stroke-linecap="round" stroke-linejoin="round"/>
  <path d="M1 134.967H182.161" stroke="#4C30A1" stroke-width="1.52707" stroke-linecap="round" stroke-linejoin="round"/>
  <path d="M124.654 84.9973C125.206 84.4987 125.716 83.6365 125.839 83.4731C125.957 83.3137 126.043 83.1503 126.636 82.8601C126.983 82.693 127.502 82.3616 127.874 82.1082C127.789 82.1327 126.411 82.5332 126.076 82.6395C125.725 82.7498 125.079 83.1016 124.331 83.2361C123.583 83.3709 123.281 82.901 123.461 82.8356C123.751 82.7334 124.434 82.4515 124.993 82.1287C125.369 81.9162 125.532 81.765 125.99 81.5934C126.17 81.528 126.513 81.3972 126.865 81.2628C126.865 81.2628 126.276 81.1847 125.929 81.1929C125.753 81.197 125.328 81.3649 124.646 81.4994C123.963 81.6342 123.681 81.5239 123.546 81.0421C124.323 80.9477 125.676 80.298 125.827 80.298C125.982 80.298 126.722 80.1795 127.224 80.1304C127.727 80.0773 128.323 79.9833 128.43 80.0487C128.507 80.0937 129.897 81.0049 132.271 82.3085C136.128 82.3085 143.279 79.1661 145.314 78.8596L150.713 69.8982L155.837 74.1685C153.168 77.458 148.228 83.0072 147.803 83.2606C147.374 83.5139 134.911 84.8383 132.773 85.0055C131.65 85.5162 130.832 85.3814 130.248 85.0341C129.66 84.6826 128.646 83.9593 128.646 83.9593C128.646 83.9593 127.789 84.3843 127.67 84.5641C127.547 84.7439 127.539 84.9482 127.335 85.4676C127.13 85.9862 126.497 86.0806 126.497 86.0806C126.497 86.0806 126.628 85.2792 126.673 85.1285C126.713 84.9769 126.767 84.5641 126.979 84.2944C127.093 84.1473 127.388 83.7264 127.629 83.3709C127.588 83.3873 127.245 83.5139 126.877 83.7714C126.619 83.9553 126.587 84.2004 126.194 84.6745C125.802 85.1526 125.14 85.2384 124.654 84.9973Z" fill="#E0D8F9"/>
  <path d="M128.009 80.8282C128.009 80.8282 127.424 81.053 126.865 81.2618C126.513 81.3962 126.17 81.527 125.99 81.5924C125.532 81.764 125.369 81.9152 124.993 82.1277C124.434 82.4505 123.751 82.7325 123.461 82.8346C123.281 82.9 123.583 83.3699 124.331 83.2351C125.079 83.1006 125.725 82.7488 126.076 82.6385C126.411 82.5322 127.789 82.1318 127.874 82.1073" stroke="#4C30A1" stroke-width="1.52707" stroke-linecap="round" stroke-linejoin="round"/>
  <path d="M128.34 81.7898C128.34 81.7898 128.148 81.9243 127.878 82.1081H127.874C127.502 82.3615 126.983 82.6929 126.636 82.86C126.043 83.1502 125.957 83.3136 125.839 83.473C125.716 83.6364 125.206 84.4987 124.654 84.9972C125.14 85.2383 125.802 85.1525 126.194 84.6744C126.587 84.2004 126.619 83.9552 126.877 83.7713C127.245 83.5139 127.588 83.3872 127.629 83.3708C127.633 83.3708 127.633 83.3708 127.633 83.3708" stroke="#4C30A1" stroke-width="1.52707" stroke-linecap="round" stroke-linejoin="round"/>
  <path d="M128.009 82.8193C128.009 82.8193 127.837 83.0726 127.628 83.3709C127.387 83.7264 127.093 84.1473 126.978 84.2944C126.766 84.5641 126.713 84.9769 126.672 85.1285C126.627 85.2792 126.496 86.0806 126.496 86.0806C126.496 86.0806 127.13 85.9862 127.334 85.4676C127.538 84.9482 127.546 84.7439 127.669 84.5641C127.788 84.3843 128.646 83.9593 128.646 83.9593C128.646 83.9593 129.659 84.6826 130.248 85.0341C130.832 85.3814 131.649 85.5162 132.773 85.0055C134.91 84.8383 147.373 83.5139 147.802 83.2606C148.227 83.0072 153.168 77.458 155.836 74.1685L150.712 69.8982L145.314 78.8596C143.279 79.1661 136.128 82.3085 132.27 82.3085C129.896 81.0049 128.507 80.0937 128.429 80.0487C128.323 79.9833 127.726 80.0773 127.224 80.1304C126.721 80.1795 125.982 80.298 125.826 80.298C125.675 80.298 124.322 80.9477 123.546 81.0421C123.681 81.5239 123.963 81.6342 124.645 81.4994C125.328 81.3649 125.753 81.197 125.928 81.1929C126.276 81.1847 126.864 81.2628 126.864 81.2628" stroke="#4C30A1" stroke-width="1.52707" stroke-linecap="round" stroke-linejoin="round"/>
  <path d="M155.654 66.3717C155.654 66.3717 153.038 66.4358 151.432 67.3912C149.189 70.0906 146.271 75.4977 146.271 75.4977C146.271 75.4977 149.248 78.5625 151.802 79.9927C151.802 79.9927 155.48 76.7579 157.863 74.2379L155.654 66.3717Z" fill="#CEC1F5"/>
  <path d="M155.006 76.7819L157.818 74.1912C157.844 74.1667 157.885 74.1679 157.909 74.1941C157.933 74.219 157.932 74.2582 157.909 74.2827L155.295 77.0709C155.219 77.1538 155.089 77.1591 155.006 77.0827C154.924 77.0063 154.918 76.8768 154.995 76.7938C154.997 76.7901 155.003 76.7852 155.006 76.7819Z" fill="#4C30A1"/>
  <path d="M155.099 76.7296L158.829 75.8927C158.863 75.8845 158.899 75.9062 158.907 75.9413C158.915 75.9744 158.895 76.0079 158.862 76.0181L155.204 77.1243C155.096 77.1582 154.981 77.0982 154.948 76.9899C154.914 76.8824 154.974 76.7676 155.082 76.7341C155.086 76.7324 155.094 76.7308 155.099 76.7296Z" fill="#4C30A1"/>
  <path d="M151.432 67.3912C149.189 70.0906 146.271 75.4977 146.271 75.4977C146.271 75.4977 149.248 78.5625 151.802 79.9927C151.802 79.9927 153.388 78.598 155.151 76.9271" stroke="#4C30A1" stroke-width="1.52707" stroke-linecap="round" stroke-linejoin="round"/>
  <path d="M155.657 66.4489C155.657 66.4489 155.385 66.4628 154.981 66.5171C154.778 66.5384 154.544 66.5805 154.293 66.6217C154.041 66.663 153.778 66.73 153.513 66.7844C153.383 66.8216 153.254 66.8587 153.126 66.8951C153 66.9343 152.871 66.9621 152.754 67.0079C152.521 67.1003 152.3 67.1791 152.117 67.2576C151.769 67.4431 151.537 67.5669 151.537 67.5669L151.509 67.5816C151.41 67.6343 151.286 67.5967 151.233 67.4974C151.18 67.3977 151.217 67.2739 151.317 67.2208C151.32 67.2192 151.324 67.2171 151.328 67.2159C151.328 67.2159 151.586 67.0966 151.974 66.9176C152.172 66.8453 152.408 66.7758 152.658 66.6945C152.783 66.654 152.916 66.6324 153.049 66.5997C153.182 66.5698 153.318 66.5396 153.454 66.5094C153.728 66.4689 154 66.4166 154.258 66.3896C154.516 66.3623 154.756 66.3337 154.962 66.3238C155.375 66.2928 155.651 66.2944 155.651 66.2944H155.654C155.696 66.2948 155.73 66.3296 155.73 66.3725C155.73 66.4133 155.697 66.4468 155.657 66.4489Z" fill="#4C30A1"/>
  <path d="M141.683 125.234L142.017 130.149L146.171 130.613L145.684 123.26L141.683 125.234Z" fill="white"/>
  <path d="M141.683 125.234L142.017 130.149L146.171 130.613L145.684 123.26L141.683 125.234Z" stroke="#432A8F" stroke-width="1.52707" stroke-linecap="round" stroke-linejoin="round"/>
  <path d="M146.835 133.89H132.41V134.967H146.835V133.89Z" fill="#EAE5F9"/>
  <path d="M146.835 133.89H132.41V134.967H146.835V133.89Z" stroke="#432A8F" stroke-width="1.52707" stroke-linecap="round" stroke-linejoin="round"/>
  <path d="M135.889 131.859C135.889 131.859 135.945 131.104 136.531 130.801C137.117 130.498 140.612 128.534 141.065 128.27C141.518 128.005 141.726 127.645 142.104 127.721C142.482 127.797 143.2 128.742 142.313 129.441C141.424 130.14 136.399 132.54 136.399 132.54L135.889 131.859Z" fill="#CEC1F5"/>
  <path d="M135.889 131.859C135.889 131.859 135.945 131.104 136.531 130.801C137.117 130.498 140.612 128.534 141.065 128.27C141.518 128.005 141.726 127.645 142.104 127.721C142.482 127.797 143.2 128.742 142.313 129.441C141.424 130.14 136.399 132.54 136.399 132.54L135.889 131.859Z" stroke="#432A8F" stroke-width="1.52707" stroke-linecap="round" stroke-linejoin="round"/>
  <path d="M137.054 132.535C136.921 132.1 136.846 131.907 137.356 131.491C137.866 131.076 140.7 129.754 141.361 129.319C142.022 128.884 142.325 128.866 143.137 129.413C143.949 129.961 144.484 129.819 145.391 129.951C146.298 130.084 146.391 129.895 146.581 130.405C146.77 130.915 146.836 132.814 146.836 133.891H136.529L137.054 132.535Z" fill="white"/>
  <path d="M137.054 132.535C136.921 132.1 136.846 131.907 137.356 131.491C137.866 131.076 140.7 129.754 141.361 129.319C142.022 128.884 142.325 128.866 143.137 129.413C143.949 129.961 144.484 129.819 145.391 129.951C146.298 130.084 146.391 129.895 146.581 130.405C146.77 130.915 146.836 132.814 146.836 133.891H136.529L137.054 132.535Z" stroke="#432A8F" stroke-width="1.52707" stroke-linecap="round" stroke-linejoin="round"/>
  <path d="M132.41 133.891C132.41 133.891 132.486 133.069 133.185 132.653C133.884 132.238 135.339 131.727 135.868 131.519C136.397 131.312 137.247 132.445 137.492 133.891H132.41Z" fill="white"/>
  <path d="M132.41 133.891C132.41 133.891 132.486 133.069 133.185 132.653C133.884 132.238 135.339 131.727 135.868 131.519C136.397 131.312 137.247 132.445 137.492 133.891H132.41Z" stroke="#432A8F" stroke-width="1.52707" stroke-linecap="round" stroke-linejoin="round"/>
  <path d="M138.57 131.331C138.681 131.508 138.626 131.74 138.448 131.85C138.27 131.96 138.039 131.905 137.929 131.729L137.069 130.341C136.958 130.163 137.013 129.931 137.191 129.821C137.369 129.712 137.601 129.766 137.711 129.944L138.57 131.331Z" fill="white"/>
  <path d="M138.57 131.331C138.681 131.508 138.626 131.74 138.448 131.85C138.27 131.96 138.039 131.905 137.929 131.729L137.069 130.341C136.958 130.163 137.013 129.931 137.191 129.821C137.369 129.712 137.601 129.766 137.711 129.944L138.57 131.331Z" stroke="#432A8F" stroke-width="1.52707" stroke-linecap="round" stroke-linejoin="round"/>
  <path d="M140.184 130.36C140.294 130.537 140.24 130.77 140.061 130.879C139.884 130.989 139.651 130.935 139.542 130.757L138.682 129.37C138.571 129.192 138.627 128.96 138.804 128.85C138.982 128.741 139.214 128.795 139.325 128.972L140.184 130.36Z" fill="white"/>
  <path d="M140.184 130.36C140.294 130.537 140.24 130.77 140.061 130.879C139.884 130.989 139.651 130.935 139.542 130.757L138.682 129.37C138.571 129.192 138.627 128.96 138.804 128.85C138.982 128.741 139.214 128.795 139.325 128.972L140.184 130.36Z" stroke="#432A8F" stroke-width="1.52707" stroke-linecap="round" stroke-linejoin="round"/>
  <path d="M141.772 129.591C141.872 129.774 141.804 130.004 141.62 130.102C141.437 130.203 141.207 130.135 141.109 129.952L140.328 128.519C140.228 128.334 140.297 128.105 140.479 128.007C140.664 127.906 140.893 127.974 140.992 128.157L141.772 129.591Z" fill="white"/>
  <path d="M141.772 129.591C141.872 129.774 141.804 130.004 141.62 130.102C141.437 130.203 141.207 130.135 141.109 129.952L140.328 128.519C140.228 128.334 140.297 128.105 140.479 128.007C140.664 127.906 140.893 127.974 140.992 128.157L141.772 129.591Z" stroke="#432A8F" stroke-width="1.52707" stroke-linecap="round" stroke-linejoin="round"/>
  <path d="M166.748 125.12L170.295 128.539L173.685 126.093L168.389 120.97L166.748 125.12Z" fill="white"/>
  <path d="M166.748 125.12L170.295 128.539L173.685 126.093L168.389 120.97L166.748 125.12Z" stroke="#432A8F" stroke-width="1.52707" stroke-linecap="round" stroke-linejoin="round"/>
  <path d="M166.898 133.921C166.898 133.921 166.433 133.322 166.664 132.705C166.895 132.087 168.168 128.286 168.326 127.785C168.484 127.285 168.397 126.879 168.728 126.681C169.059 126.484 170.225 126.703 170.037 127.816C169.848 128.931 167.733 134.082 167.733 134.082L166.898 133.921Z" fill="#CEC1F5"/>
  <path d="M166.898 133.921C166.898 133.921 166.433 133.322 166.664 132.705C166.895 132.087 168.168 128.286 168.326 127.785C168.484 127.285 168.397 126.879 168.728 126.681C169.059 126.484 170.225 126.703 170.037 127.816C169.848 128.931 167.733 134.082 167.733 134.082L166.898 133.921Z" stroke="#432A8F" stroke-width="1.52707" stroke-linecap="round" stroke-linejoin="round"/>
  <path d="M168.217 133.638C167.826 133.405 167.641 133.313 167.74 132.663C167.839 132.012 169.053 129.13 169.251 128.364C169.449 127.598 169.662 127.381 170.631 127.241C171.601 127.102 171.902 126.639 172.663 126.128C173.425 125.617 173.366 125.414 173.85 125.666C174.332 125.917 175.655 127.28 176.378 128.078L169.732 134.525L168.217 133.638Z" fill="white"/>
  <path d="M168.217 133.638C167.826 133.405 167.641 133.313 167.74 132.663C167.839 132.012 169.053 129.13 169.251 128.364C169.449 127.598 169.662 127.381 170.631 127.241C171.601 127.102 171.902 126.639 172.663 126.128C173.425 125.617 173.366 125.414 173.85 125.666C174.332 125.917 175.655 127.28 176.378 128.078L169.732 134.525L168.217 133.638Z" stroke="#432A8F" stroke-width="1.52707" stroke-linecap="round" stroke-linejoin="round"/>
  <path d="M163.939 133.919C163.939 133.919 164.016 133.097 164.715 132.681C165.414 132.266 166.432 131.821 166.961 131.613C167.49 131.406 168.468 132.482 168.583 133.919L163.939 133.919Z" fill="white"/>
  <path d="M163.939 133.919C163.939 133.919 164.016 133.097 164.715 132.681C165.414 132.266 166.432 131.821 166.961 131.613C167.49 131.406 168.468 132.482 168.583 133.919L163.939 133.919Z" stroke="#432A8F" stroke-width="1.52707" stroke-linecap="round" stroke-linejoin="round"/>
  <path d="M169.013 130.14C169.213 130.197 169.33 130.406 169.271 130.607C169.213 130.808 169.005 130.923 168.804 130.865L167.236 130.415C167.034 130.357 166.919 130.147 166.977 129.947C167.035 129.746 167.244 129.631 167.445 129.688L169.013 130.14Z" fill="white"/>
  <path d="M169.013 130.14C169.213 130.197 169.33 130.406 169.271 130.607C169.213 130.808 169.005 130.923 168.804 130.865L167.236 130.415C167.034 130.357 166.919 130.147 166.977 129.947C167.035 129.746 167.244 129.631 167.445 129.688L169.013 130.14Z" stroke="#432A8F" stroke-width="1.52707" stroke-linecap="round" stroke-linejoin="round"/>
  <path d="M169.738 128.354C169.935 128.423 170.038 128.638 169.968 128.834C169.9 129.032 169.685 129.136 169.488 129.066L167.948 128.528C167.749 128.458 167.647 128.242 167.716 128.047C167.785 127.848 168.001 127.745 168.198 127.814L169.738 128.354Z" fill="white"/>
  <path d="M169.738 128.354C169.935 128.423 170.038 128.638 169.968 128.834C169.9 129.032 169.685 129.136 169.488 129.066L167.948 128.528C167.749 128.458 167.647 128.242 167.716 128.047C167.785 127.848 168.001 127.745 168.198 127.814L169.738 128.354Z" stroke="#432A8F" stroke-width="1.52707" stroke-linecap="round" stroke-linejoin="round"/>
  <path d="M169.959 133.89L176.378 128.077L177.101 128.876L170.374 134.967H163.939L163.94 133.89C163.94 133.89 169.959 133.89 169.959 133.89Z" fill="#EAE5F9"/>
  <path d="M169.959 133.89L176.378 128.077L177.101 128.876L170.374 134.967H163.939L163.94 133.89C163.94 133.89 169.959 133.89 169.959 133.89Z" stroke="#432A8F" stroke-width="1.52707" stroke-linecap="round" stroke-linejoin="round"/>
  <path d="M151.612 96.9237C151.612 96.9237 148.799 112.082 148.558 113.172C148.316 114.262 148.577 116.219 150.115 117.42C151.652 118.62 168.314 127.374 168.314 127.374C168.314 127.374 170.137 125.36 171.02 122.755C165.631 118.118 157.393 111.95 157.393 111.95C157.393 111.95 165.025 95.9724 165.645 94.4319C166.265 92.8917 166.547 89.7922 165.841 87.8741L151.612 96.9237Z" fill="#F4F1FE"/>
  <path d="M151.612 96.9237C151.612 96.9237 148.799 112.082 148.558 113.172C148.316 114.262 148.577 116.219 150.115 117.42C151.652 118.62 168.314 127.374 168.314 127.374C168.314 127.374 170.137 125.36 171.02 122.755C165.631 118.118 157.393 111.95 157.393 111.95C157.393 111.95 165.025 95.9724 165.645 94.4319C166.265 92.8917 166.547 89.7922 165.841 87.8741L151.612 96.9237Z" stroke="#4C30A1" stroke-width="1.52707" stroke-linecap="round" stroke-linejoin="round"/>
  <path d="M157.817 95.2772L154.97 113.245L170.152 124.708" stroke="#4C30A1" stroke-width="0.763534" stroke-linecap="round" stroke-linejoin="round"/>
  <path d="M167.653 126.971C167.653 126.971 169.718 124.259 170.239 122.078" stroke="#4C30A1" stroke-width="0.763534" stroke-linecap="round" stroke-linejoin="round"/>
  <path d="M149.027 91.7075C149.027 91.7075 137.142 101.527 136.257 102.208C135.372 102.889 134.316 104.558 134.724 106.465C135.133 108.372 141.093 125.943 141.093 125.943C141.093 125.943 143.783 125.569 146.132 124.138C144.975 117.123 143.816 106.942 143.816 106.942C143.816 106.942 159.924 99.5864 161.388 98.8031C162.852 98.0197 165.057 95.8233 165.747 93.8995L149.027 91.7075Z" fill="white"/>
  <path d="M149.027 91.7075C149.027 91.7075 137.142 101.527 136.257 102.208C135.372 102.889 134.316 104.558 134.724 106.465C135.133 108.372 141.093 125.943 141.093 125.943C141.093 125.943 143.783 125.569 146.132 124.138C144.975 117.123 143.816 106.942 143.816 106.942C143.816 106.942 159.924 99.5864 161.388 98.8031C162.852 98.0197 165.057 95.8233 165.747 93.8995L149.027 91.7075Z" stroke="#4C30A1" stroke-width="1.52707" stroke-linecap="round" stroke-linejoin="round"/>
  <path d="M154.843 94.4269L141.128 106.379L144.214 125.079" stroke="#4C30A1" stroke-width="0.763534" stroke-linecap="round" stroke-linejoin="round"/>
  <path d="M140.846 125.211C140.846 125.211 144.169 124.457 145.968 123.118" stroke="#4C30A1" stroke-width="0.763534" stroke-linecap="round" stroke-linejoin="round"/>
  <path d="M147.172 62.571C147.172 62.571 148.773 64.1034 149.283 65.1078C149.709 66.8106 149.794 68.2236 149.794 68.2236L156.452 63.5411L154.016 61.2691L151.037 59.1826L147.172 62.571Z" fill="white"/>
  <path d="M151.037 59.1818L147.172 62.5702C147.172 62.5702 148.773 64.1026 149.283 65.107C149.437 65.7204 149.546 66.2953 149.622 66.7808C151.628 64.6121 152.506 61.7268 152.817 60.4285L151.037 59.1818Z" fill="#E0D8F9"/>
  <path d="M147.172 62.571C147.172 62.571 148.773 64.1034 149.283 65.1078C149.709 66.8106 149.794 68.2236 149.794 68.2236L156.452 63.5411L154.016 61.2691L151.037 59.1826L147.172 62.571Z" stroke="#4C30A1" stroke-width="1.52707" stroke-linecap="round" stroke-linejoin="round"/>
  <path d="M152.332 59.6785C152.324 59.6871 152.32 59.6908 152.312 59.6949C152.148 59.8134 151.972 59.9114 151.784 59.9809C150.473 63.3031 146.166 64.1367 145.545 64.1367C144.924 64.1367 144.956 63.6259 144.858 62.9803C144.752 62.3306 144.311 62.3837 144.106 62.163C143.902 61.9383 143.845 61.3457 143.845 61.3457C143.289 61.403 142.991 61.1414 142.991 61.1414C142.991 61.1414 142.991 61.0107 142.991 60.7655C142.991 60.5207 142.778 60.3405 142.574 60.3491C142.37 60.3569 141.867 60.1771 141.716 59.8828C141.56 59.5927 141.753 59.4501 142.329 58.4812C142.901 57.5091 142.202 57.4723 142.39 54.2151C142.582 50.9583 145.075 48.9519 147.69 48.6086C150.816 48.2 153.28 49.291 154.432 52.7848C155.528 56.103 153.811 58.7513 152.332 59.6785Z" fill="white"/>
  <path d="M144.2 57.0509C144.273 57.3717 144.163 57.6708 143.952 57.7198C143.741 57.7685 143.51 57.5478 143.436 57.227C143.362 56.9067 143.472 56.6075 143.683 56.5585C143.895 56.5095 144.125 56.7301 144.2 57.0509Z" fill="#4C30A1"/>
  <path d="M151.784 59.9809C150.473 63.3031 146.166 64.1367 145.545 64.1367C144.924 64.1367 144.956 63.6259 144.858 62.9803C144.752 62.3306 144.311 62.3837 144.106 62.163C143.902 61.9383 143.845 61.3457 143.845 61.3457C143.289 61.403 142.991 61.1414 142.991 61.1414C142.991 61.1414 142.991 61.0107 142.991 60.7655C142.991 60.5207 142.778 60.3405 142.574 60.3491C142.37 60.3569 141.867 60.1771 141.716 59.8828C141.56 59.5927 141.753 59.4501 142.329 58.4812C142.901 57.5091 142.202 57.4723 142.39 54.2151C142.582 50.9583 145.075 48.9519 147.69 48.6086C150.816 48.2 153.28 49.291 154.432 52.7848C155.528 56.103 153.811 58.7513 152.332 59.6785" stroke="#4C30A1" stroke-width="1.52707" stroke-linecap="round" stroke-linejoin="round"/>
  <path d="M143.765 61.1579C143.765 61.1579 143.795 61.146 143.849 61.1252C143.898 61.1064 143.972 61.0733 144.062 61.0304C144.239 60.9454 144.471 60.8154 144.686 60.6606C144.791 60.5801 144.903 60.5061 144.991 60.4187C145.081 60.3328 145.177 60.263 145.239 60.1841C145.372 60.0345 145.46 59.9348 145.46 59.9348L145.467 59.9262C145.5 59.8903 145.555 59.8866 145.591 59.9189C145.625 59.9491 145.63 59.9994 145.605 60.0358C145.605 60.0358 145.523 60.1502 145.4 60.3226C145.343 60.4133 145.251 60.4967 145.165 60.598C145.08 60.7014 144.971 60.7913 144.868 60.889C144.656 61.0786 144.424 61.2437 144.241 61.3569C144.15 61.4129 144.072 61.4586 144.012 61.4889C143.957 61.5175 143.925 61.5338 143.925 61.5338C143.824 61.5857 143.701 61.5461 143.649 61.4456C143.597 61.345 143.637 61.2216 143.737 61.1697C143.743 61.1665 143.75 61.1636 143.757 61.1611L143.765 61.1579Z" fill="#4C30A1"/>
  <path d="M150.63 58.2652L150.307 56.5534L149.269 56.1852L148.991 54.8371V54.833C148.738 54.7019 148.537 54.5507 148.398 54.3995C148.398 54.3995 148.517 55.0615 148.484 55.2004C147.099 54.2851 147.185 52.6714 147.197 52.5402C146.903 53.2189 146.396 53.9667 145.534 54.5016C145.489 54.1952 145.452 53.7865 145.428 53.4269C144.79 54.755 142.375 55.9482 142.375 55.9482C142.375 55.9482 141.112 54.5834 141.501 52.532C140.626 52.863 140.091 52.2868 140.091 52.2868C140.091 52.2868 141.664 50.6523 144.414 48.3885C146.854 46.378 150.58 46.566 152.501 48.0452L152.546 48.0415C152.526 47.7469 152.571 47.3873 152.758 46.9746C153.253 48.2168 154.937 48.8461 154.442 50.6523C155.807 51.1468 156.162 52.8303 156.146 53.8519C156.13 54.8245 155.774 55.8914 156.167 56.5775L156.13 56.7287C155.934 56.6837 155.492 56.5407 155.112 56.1652C155.219 58.9562 153.559 58.9966 154.017 61.269C152.477 61.1746 151.786 59.9814 151.786 59.9814C151.974 59.912 152.15 59.8139 152.313 59.6954C152.321 59.6913 152.325 59.6876 152.334 59.679C153.47 58.8172 153.98 56.8186 153.094 55.8501C152.313 54.992 151.075 55.9772 151.177 56.962V57.9914L150.63 58.2652Z" fill="#7E64CC"/>
  <path d="M145.223 53.4516C145.223 53.4516 145.217 53.3339 145.208 53.1578C145.209 53.0638 145.218 52.9486 145.224 52.8297C145.236 52.7128 145.257 52.5943 145.274 52.4738C145.361 51.9965 145.526 51.5462 145.526 51.5462C145.542 51.5004 145.593 51.4767 145.639 51.4935C145.681 51.509 145.704 51.5535 145.694 51.596L145.694 51.5989C145.694 51.5989 145.59 52.0521 145.564 52.5089C145.553 52.7414 145.563 52.9564 145.578 53.1141C145.608 53.2882 145.629 53.4038 145.629 53.4038C145.649 53.515 145.576 53.6216 145.465 53.6425C145.354 53.6633 145.247 53.5898 145.226 53.4782C145.225 53.4704 145.224 53.4594 145.223 53.4516Z" fill="#4C30A1"/>
  <path d="M147.196 52.54C146.902 53.2188 146.395 53.9666 145.533 54.5015C145.488 54.195 145.451 53.7864 145.427 53.4268" stroke="#4C30A1" stroke-width="1.52707" stroke-linecap="round" stroke-linejoin="round"/>
  <path d="M147.676 50.8777C147.677 50.8777 147.683 50.9835 147.669 51.1507C147.662 51.2328 147.661 51.3321 147.647 51.4343C147.631 51.5368 147.615 51.6459 147.598 51.755C147.575 51.9773 147.498 52.1861 147.459 52.3496C147.415 52.5118 147.385 52.6197 147.385 52.6197C147.354 52.7292 147.242 52.7938 147.132 52.7635C147.023 52.7337 146.959 52.6205 146.989 52.5114C146.991 52.502 146.994 52.4934 146.998 52.4849L147.008 52.4607C147.008 52.4607 147.05 52.3655 147.112 52.2229C147.168 52.0783 147.272 51.8919 147.322 51.688C147.352 51.5871 147.384 51.4862 147.413 51.3918C147.44 51.297 147.454 51.2075 147.472 51.1306C147.507 50.9782 147.518 50.8683 147.518 50.8683C147.522 50.8246 147.56 50.7923 147.605 50.7964C147.644 50.8001 147.674 50.8323 147.676 50.8712V50.8777Z" fill="#4C30A1"/>
  <path d="M141.501 52.5327C140.626 52.8637 140.091 52.2875 140.091 52.2875C140.091 52.2875 141.664 50.653 144.414 48.3892C146.854 46.3787 150.58 46.5666 152.501 48.0459" stroke="#4C30A1" stroke-width="1.52707" stroke-linecap="round" stroke-linejoin="round"/>
  <path d="M143.006 51.6828C143.006 51.6828 142.927 51.7584 142.81 51.8712C142.751 51.9276 142.683 51.9938 142.61 52.0645C142.537 52.1356 142.438 52.1965 142.349 52.2659C142.257 52.3309 142.167 52.4081 142.074 52.456C141.982 52.5091 141.896 52.5585 141.823 52.6014C141.67 52.675 141.569 52.724 141.569 52.724C141.467 52.7735 141.344 52.731 141.295 52.6288C141.246 52.5266 141.288 52.4041 141.39 52.3546C141.4 52.3497 141.41 52.3456 141.421 52.3428L141.43 52.3399C141.43 52.3399 141.53 52.3105 141.681 52.2663C141.753 52.239 141.838 52.2071 141.93 52.1728C142.025 52.1425 142.109 52.0886 142.204 52.0445C142.295 51.9946 142.392 51.9582 142.475 51.8994C142.559 51.8418 142.637 51.7882 142.704 51.7421C142.839 51.6497 142.928 51.5884 142.928 51.5884C142.956 51.5692 142.994 51.5762 143.013 51.6039C143.03 51.6293 143.027 51.6624 143.006 51.6828Z" fill="#4C30A1"/>
  <path d="M145.427 53.4265C144.789 54.7545 142.374 55.9478 142.374 55.9478C142.374 55.9478 141.112 54.5829 141.5 52.5316" stroke="#4C30A1" stroke-width="1.52707" stroke-linecap="round" stroke-linejoin="round"/>
  <path d="M152.545 48.0416C152.524 47.7469 152.569 47.3873 152.757 46.9746C153.252 48.2169 154.935 48.8462 154.441 50.6523C155.805 51.1468 156.161 52.8304 156.145 53.8519C156.128 54.8245 155.773 55.8914 156.165 56.5775C156.186 56.6143 156.206 56.647 156.23 56.6797" stroke="#4C30A1" stroke-width="1.52707" stroke-linecap="round" stroke-linejoin="round"/>
  <path d="M152.946 49.7373C152.946 49.7373 152.879 49.6453 152.796 49.4995C152.713 49.3536 152.613 49.1513 152.536 48.938C152.501 48.8301 152.458 48.7239 152.437 48.6184C152.415 48.513 152.382 48.4166 152.375 48.3295C152.355 48.1555 152.34 48.0398 152.34 48.0398C152.327 47.9274 152.407 47.8249 152.519 47.8114C152.632 47.7975 152.734 47.8776 152.748 47.9904C152.749 47.9994 152.749 48.0088 152.749 48.0177L152.749 48.0419C152.749 48.0419 152.747 48.1432 152.745 48.2948C152.738 48.3716 152.757 48.4603 152.763 48.5567C152.767 48.654 152.793 48.7545 152.812 48.8575C152.853 49.0622 152.919 49.2637 152.978 49.4108C153.037 49.5591 153.086 49.6511 153.086 49.6511C153.107 49.6911 153.093 49.741 153.053 49.7626C153.016 49.7822 152.971 49.7716 152.948 49.7389L152.946 49.7373Z" fill="#4C30A1"/>
  <path d="M154.96 56.3038C154.96 56.3038 154.94 56.2789 154.904 56.2348C154.869 56.1951 154.816 56.1187 154.755 56.0296C154.695 55.9405 154.638 55.8412 154.576 55.7301C154.518 55.6177 154.454 55.4996 154.404 55.3746C154.347 55.2536 154.305 55.1253 154.265 55.0064C154.222 54.8883 154.203 54.7698 154.177 54.6734C154.157 54.5745 154.153 54.4886 154.144 54.4302C154.137 54.3718 154.133 54.3387 154.133 54.3387C154.128 54.2933 154.161 54.2525 154.206 54.2476C154.247 54.2427 154.285 54.27 154.295 54.3101L154.298 54.3219C154.298 54.3219 154.305 54.3522 154.318 54.4053C154.332 54.458 154.345 54.534 154.374 54.6227C154.41 54.7101 154.439 54.8143 154.491 54.9202C154.542 55.026 154.594 55.1392 154.661 55.2459C154.72 55.3558 154.793 55.4583 154.858 55.5556C154.925 55.6488 154.993 55.7391 155.05 55.8049C155.107 55.8698 155.15 55.9234 155.196 55.9638C155.236 56.0035 155.26 56.0263 155.26 56.0263L155.262 56.0284C155.343 56.1073 155.345 56.2372 155.266 56.3181C155.187 56.399 155.057 56.4007 154.976 56.3218C154.971 56.3165 154.965 56.3099 154.96 56.3038Z" fill="#4C30A1"/>
  <path d="M156.231 56.749C156.231 56.749 156.194 56.7449 156.129 56.7286C155.933 56.6836 155.491 56.5406 155.111 56.1651" stroke="#4C30A1" stroke-width="1.52707" stroke-linecap="round" stroke-linejoin="round"/>
  <path d="M155.112 56.1652C155.218 58.9562 153.559 58.9966 154.016 61.269C152.476 61.1746 151.785 59.9814 151.785 59.9814C151.973 59.912 152.149 59.8139 152.312 59.6954C152.321 59.6913 152.325 59.6876 152.333 59.679C153.469 58.8172 153.98 56.8186 153.093 55.8501C152.312 54.992 151.074 55.9772 151.176 56.962V57.9914L150.629 58.2652L150.306 56.5534L149.268 56.1852L148.99 54.8371" stroke="#4C30A1" stroke-width="1.52707" stroke-linecap="round" stroke-linejoin="round"/>
  <path d="M149.072 54.6503C149.072 54.6503 149.133 54.6797 149.237 54.7312C149.29 54.757 149.353 54.788 149.426 54.824C149.498 54.8579 149.577 54.8771 149.665 54.9094C149.754 54.9359 149.844 54.9809 149.954 54.9964C150.061 55.0181 150.175 55.0414 150.291 55.0651C150.41 55.0818 150.534 55.0822 150.66 55.092C150.786 55.1076 150.913 55.0961 151.041 55.0818C151.168 55.0638 151.301 55.0724 151.421 55.0332C151.544 55.0005 151.666 54.9686 151.783 54.938C151.904 54.9171 152.002 54.846 152.106 54.8056C152.208 54.759 152.305 54.7145 152.393 54.6732C152.715 54.4521 152.932 54.2976 152.932 54.2976L152.937 54.2936C152.957 54.2797 152.984 54.2842 152.998 54.3038C153.011 54.3226 153.007 54.3479 152.99 54.3622C152.99 54.3622 152.785 54.5351 152.466 54.7901C152.377 54.8399 152.281 54.8939 152.179 54.9507C152.073 55.0013 151.973 55.083 151.848 55.1153C151.727 55.1574 151.601 55.2007 151.472 55.2449C151.346 55.2964 151.206 55.2988 151.071 55.3278C150.934 55.3536 150.797 55.3756 150.661 55.3699C150.525 55.3699 150.39 55.3789 150.26 55.3703C150.13 55.3544 150.005 55.3384 149.887 55.3237C149.768 55.3152 149.656 55.2735 149.551 55.2494C149.449 55.2208 149.348 55.1991 149.271 55.1697C149.196 55.1398 149.13 55.1133 149.076 55.0916C148.968 55.0483 148.906 55.0234 148.906 55.0234C148.801 54.9813 148.75 54.8624 148.792 54.7574C148.834 54.6528 148.953 54.6017 149.058 54.6438C149.063 54.6458 149.068 54.6483 149.072 54.6503Z" fill="#4C30A1"/>
  <path d="M147.196 52.5318C147.196 52.5318 147.196 52.5363 147.196 52.54C147.183 52.6712 147.098 54.2849 148.483 55.2002C148.516 55.0613 148.397 54.3993 148.397 54.3993C148.536 54.5505 148.736 54.7017 148.99 54.8328V54.8369" stroke="#4C30A1" stroke-width="1.52707" stroke-linecap="round" stroke-linejoin="round"/>
  <path d="M149.695 53.7094C149.694 53.7073 149.734 53.7376 149.784 53.7629C149.832 53.794 149.919 53.8308 150.024 53.8757C150.076 53.8994 150.138 53.9113 150.2 53.9317C150.264 53.9501 150.33 53.975 150.403 53.9811C150.474 53.9922 150.549 54.0036 150.625 54.015C150.701 54.0306 150.779 54.0183 150.858 54.0216C150.937 54.0212 151.016 54.0208 151.094 54.0204C151.171 54.0069 151.247 53.9942 151.32 53.9811C151.469 53.9595 151.607 53.9346 151.719 53.8855C151.948 53.805 152.102 53.7511 152.102 53.7511L152.111 53.7482C152.14 53.7376 152.174 53.7531 152.185 53.7834C152.194 53.8116 152.181 53.8422 152.155 53.8549C152.155 53.8549 152.003 53.928 151.776 54.0375C151.664 54.1013 151.522 54.1442 151.366 54.185C151.288 54.2075 151.209 54.23 151.127 54.2533C151.043 54.2635 150.957 54.2737 150.872 54.2843C150.785 54.2905 150.699 54.3117 150.613 54.3048C150.527 54.3015 150.442 54.2978 150.36 54.2946C150.277 54.2954 150.199 54.2766 150.124 54.2643C150.049 54.2492 149.977 54.2418 149.913 54.2214C149.785 54.183 149.678 54.1511 149.598 54.1127C149.516 54.0788 149.486 54.0604 149.486 54.0604L149.469 54.0498C149.372 53.9914 149.341 53.8655 149.4 53.7686C149.458 53.6722 149.584 53.6411 149.681 53.6996C149.685 53.7029 149.691 53.7061 149.695 53.7094Z" fill="#4C30A1"/>
  <path d="M150.169 53.0725C150.17 53.0729 150.273 53.097 150.408 53.106C150.477 53.1121 150.559 53.1227 150.647 53.1284C150.737 53.1268 150.833 53.1252 150.928 53.1235C151.025 53.1199 151.125 53.1268 151.212 53.1035C151.301 53.0872 151.384 53.0721 151.455 53.059C151.601 53.0328 151.697 53.0148 151.697 53.0148L151.71 53.0128C151.742 53.0067 151.774 53.0283 151.78 53.0614C151.785 53.0904 151.769 53.1182 151.742 53.1284C151.742 53.1284 151.646 53.1644 151.504 53.2188C151.431 53.2461 151.346 53.2776 151.256 53.3119C151.166 53.3528 151.064 53.3642 150.962 53.3867C150.86 53.4067 150.758 53.4272 150.662 53.446C150.564 53.4574 150.47 53.4627 150.39 53.4693C150.226 53.4852 150.131 53.4795 150.132 53.4795L150.11 53.4782C149.996 53.4713 149.91 53.3736 149.917 53.2604C149.924 53.1468 150.022 53.0606 150.135 53.0676C150.146 53.0684 150.159 53.07 150.169 53.0725Z" fill="#4C30A1"/>
  <path d="M156.231 61.7875C156.231 61.7875 152.467 64.2139 150.654 66.2571C150.654 66.2571 149.326 68.2235 148.662 69.9602C148.943 71.1607 149.249 71.314 149.249 71.314C149.249 71.314 150.169 80.5082 150.552 86.0501C149.556 89.0128 148.228 92.0522 148.228 92.0522C148.228 92.0522 149.939 94.4529 155.736 95.4998C161.534 96.5472 166.795 94.9637 166.795 94.9637C166.795 94.9637 166.744 93.4567 166.438 91.9754C166.361 87.1996 164.896 75.2724 162.206 68.5299C160.231 65.2609 157.081 63.1159 157.081 63.1159C156.755 62.5569 156.231 61.7875 156.231 61.7875Z" fill="#CEC1F5"/>
  <path d="M156.231 61.7875C156.231 61.7875 152.467 64.2139 150.654 66.2571C150.654 66.2571 149.326 68.2235 148.662 69.9602C148.943 71.1607 149.249 71.314 149.249 71.314C149.249 71.314 150.169 80.5082 150.552 86.0502C149.556 89.0128 148.228 92.0522 148.228 92.0522C148.228 92.0522 149.939 94.4529 155.736 95.4998C161.534 96.5472 166.795 94.9637 166.795 94.9637C166.795 94.9637 166.744 93.4567 166.438 91.9754C166.361 87.1996 164.896 75.2724 162.206 68.5299C160.231 65.2609 157.081 63.1159 157.081 63.1159C156.755 62.5569 156.231 61.7875 156.231 61.7875Z" stroke="#4C30A1" stroke-width="1.52707" stroke-linecap="round" stroke-linejoin="round"/>
  <path d="M157.081 63.1157C157.081 63.1157 151.554 65.7927 148.81 70.4985" stroke="#4C30A1" stroke-width="0.763534" stroke-linecap="round" stroke-linejoin="round"/>
  <path d="M152.312 66.3714C152.312 66.3714 154.238 70.1313 155.43 74.9667C156.622 79.802 156.758 85.1143 156.758 85.1143C156.758 85.1143 155.704 90.9672 153.524 94.9873" stroke="#4C30A1" stroke-width="0.763534" stroke-linecap="round" stroke-linejoin="round"/>
  <path d="M150.422 85.8924C150.422 85.8924 150.672 85.693 151.077 85.4171C151.278 85.2786 151.508 85.1111 151.761 84.9431C152.018 84.7817 152.292 84.6093 152.566 84.4372C152.703 84.351 152.84 84.2652 152.974 84.1806C153.106 84.0915 153.249 84.0245 153.381 83.951C153.648 83.8067 153.896 83.6727 154.11 83.5574C154.536 83.3278 154.82 83.1746 154.82 83.1746C154.842 83.1623 154.871 83.1705 154.883 83.1938C154.895 83.2154 154.887 83.2424 154.867 83.2555L154.863 83.2575C154.863 83.2575 154.59 83.4271 154.18 83.6817C153.976 83.8088 153.738 83.9567 153.482 84.1157C153.356 84.197 153.22 84.2713 153.094 84.3674C152.966 84.4597 152.835 84.5529 152.705 84.6469C152.444 84.8336 152.184 85.0204 151.94 85.1953C151.701 85.3759 151.486 85.5536 151.297 85.7012C150.921 85.9929 150.679 86.2099 150.679 86.2099C150.595 86.2859 150.466 86.279 150.39 86.1948C150.315 86.111 150.322 85.9815 150.406 85.9063C150.408 85.9034 150.412 85.901 150.414 85.8981L150.422 85.8924Z" fill="#4C30A1"/>
  <path d="M166.438 91.9756C166.438 91.9756 165.263 91.5927 163.245 91.4395L166.438 91.9756Z" fill="#CEC1F5"/>
  <path d="M166.38 92.1721C166.38 92.1721 166.187 92.101 165.902 92.0242C165.758 91.9866 165.595 91.9298 165.41 91.8934C165.226 91.8526 165.029 91.8084 164.834 91.7651C164.442 91.6695 164.039 91.6323 163.741 91.5784C163.441 91.5314 163.241 91.5003 163.241 91.5003L163.237 91.4999C163.204 91.495 163.181 91.4635 163.186 91.4304C163.191 91.399 163.219 91.3769 163.25 91.379C163.25 91.379 163.453 91.3924 163.758 91.412C164.061 91.4398 164.471 91.4419 164.876 91.5032C165.079 91.5302 165.281 91.5567 165.472 91.5816C165.663 91.6017 165.841 91.6454 165.994 91.6724C166.303 91.7279 166.496 91.7802 166.496 91.7802L166.504 91.7823C166.613 91.8121 166.677 91.9241 166.647 92.0336C166.618 92.1427 166.506 92.2069 166.397 92.1774C166.391 92.1758 166.385 92.1742 166.38 92.1721Z" fill="#4C30A1"/>
  <path d="M112.093 97.4533C114.179 98.0802 115.857 97.9821 116.47 95.9393C117.085 93.8966 114.917 93.3155 115.633 90.9328C116.306 88.6987 118.046 87.6915 121.025 88.5876C124.002 89.4829 124.9 91.2842 124.228 93.5178C123.511 95.9001 121.381 95.1911 120.768 97.2327C120.152 99.2742 121.497 100.282 123.581 100.91L130.404 102.958C131.531 103.298 132.721 102.658 133.061 101.53L140.841 75.669C141.181 74.54 140.541 73.3521 139.414 73.0125L132.577 70.9558C130.493 70.3286 129.15 69.3205 129.764 67.2785C130.378 65.237 132.508 65.946 133.225 63.5632C133.897 61.33 132.999 59.5288 130.021 58.6339C127.043 57.7377 125.303 58.7442 124.63 60.9786C123.914 63.3609 126.082 63.9437 125.468 65.9852C124.853 68.0276 123.176 68.126 121.09 67.5L113.552 65.2309C112.425 64.8909 111.234 65.53 110.896 66.6586L108.936 73.1727C108.307 75.2567 108.407 76.9346 110.45 77.5492C112.491 78.1637 113.074 75.9959 115.457 76.7123C117.691 77.3841 118.697 79.1253 117.801 82.1034C116.905 85.0815 115.104 85.9777 112.872 85.3063C110.489 84.5899 111.199 82.4597 109.156 81.8464C107.114 81.2322 106.106 82.5745 105.479 84.6598L103.115 92.5203C102.775 93.649 103.414 94.8385 104.542 95.1768L112.093 97.4533Z" fill="white"/>
  <path d="M112.093 97.4533C114.179 98.0802 115.857 97.9821 116.47 95.9393C117.085 93.8966 114.917 93.3155 115.633 90.9328C116.306 88.6987 118.046 87.6915 121.025 88.5876C124.002 89.4829 124.9 91.2842 124.228 93.5178C123.511 95.9001 121.381 95.1911 120.768 97.2327C120.152 99.2742 121.497 100.282 123.581 100.91L130.404 102.958C131.531 103.298 132.721 102.658 133.061 101.53L140.841 75.669C141.181 74.54 140.541 73.3521 139.414 73.0125L132.577 70.9558C130.493 70.3286 129.15 69.3205 129.764 67.2785C130.378 65.237 132.508 65.946 133.225 63.5632C133.897 61.33 132.999 59.5288 130.021 58.6339C127.043 57.7377 125.303 58.7442 124.63 60.9786C123.914 63.3609 126.082 63.9437 125.468 65.9852C124.853 68.0276 123.176 68.126 121.09 67.5L113.552 65.2309C112.425 64.8909 111.234 65.53 110.896 66.6586L108.936 73.1727C108.307 75.2567 108.407 76.9346 110.45 77.5492C112.491 78.1637 113.074 75.9959 115.457 76.7123C117.691 77.3841 118.697 79.1253 117.801 82.1034C116.905 85.0815 115.104 85.9777 112.872 85.3063C110.489 84.5899 111.199 82.4597 109.156 81.8464C107.114 81.2322 106.106 82.5745 105.479 84.6598L103.115 92.5203C102.775 93.649 103.414 94.8385 104.542 95.1768L112.093 97.4533Z" stroke="#4C30A1" stroke-width="1.52707" stroke-linecap="round" stroke-linejoin="round"/>
  <path d="M126.512 86.134C127.063 85.6359 127.574 84.7732 127.696 84.6098C127.815 84.4504 127.901 84.287 128.493 83.9968C128.841 83.8297 129.359 83.4983 129.731 83.2449C129.646 83.2699 128.268 83.6699 127.933 83.7762C127.582 83.8865 126.936 84.2383 126.188 84.3728C125.441 84.5076 125.138 84.0381 125.318 83.9723C125.608 83.8702 126.291 83.5882 126.85 83.2654C127.227 83.0529 127.39 82.9017 127.848 82.7301C128.027 82.6647 128.371 82.5339 128.722 82.3995C128.722 82.3995 128.134 82.3214 127.786 82.3296C127.611 82.3341 127.186 82.5016 126.503 82.6361C125.821 82.7709 125.539 82.6606 125.404 82.1788C126.18 82.0844 127.533 81.4347 127.684 81.4347C127.84 81.4347 128.579 81.3162 129.082 81.2672C129.584 81.214 130.181 81.12 130.287 81.1854C130.365 81.2304 131.754 82.1416 134.128 83.4452C137.986 83.4452 145.137 80.3028 147.172 79.9963L152.57 71.0349L157.694 75.3052C155.026 78.5947 150.085 84.1439 149.66 84.3973C149.231 84.6511 136.768 85.975 134.631 86.1422C133.507 86.653 132.69 86.5181 132.106 86.1708C131.517 85.8193 130.504 85.0961 130.504 85.0961C130.504 85.0961 129.646 85.521 129.527 85.7008C129.404 85.8806 129.396 86.085 129.192 86.6043C128.988 87.1229 128.354 87.2173 128.354 87.2173C128.354 87.2173 128.485 86.416 128.53 86.2652C128.571 86.114 128.624 85.7008 128.836 85.4316C128.951 85.284 129.245 84.8631 129.486 84.5076C129.445 84.524 129.102 84.6511 128.734 84.9081C128.477 85.0924 128.444 85.3372 128.052 85.8112C127.66 86.2893 126.998 86.3751 126.512 86.134Z" fill="white"/>
  <path d="M151.828 82.1187C153.605 80.1458 156.07 77.3082 157.694 75.3059L152.57 71.0357L147.393 79.6297C148.507 80.4089 150.071 81.3815 151.828 82.1187Z" fill="#E0D8F9"/>
  <path d="M129.866 81.9654C129.866 81.9654 129.282 82.1902 128.722 82.399C128.371 82.5334 128.027 82.6642 127.848 82.7296C127.39 82.9012 127.227 83.0524 126.85 83.2649C126.291 83.5877 125.608 83.8697 125.318 83.9718C125.138 84.0376 125.441 84.5071 126.188 84.3723C126.936 84.2378 127.582 83.886 127.933 83.7757C128.268 83.6694 129.646 83.2694 129.731 83.2445" stroke="#4C30A1" stroke-width="1.52707" stroke-linecap="round" stroke-linejoin="round"/>
  <path d="M130.197 82.927C130.197 82.927 130.005 83.0615 129.735 83.2454H129.731C129.359 83.4987 128.841 83.8301 128.493 83.9972C127.901 84.2874 127.815 84.4508 127.696 84.6102C127.574 84.7736 127.063 85.6363 126.512 86.1344C126.998 86.3755 127.66 86.2897 128.052 85.8116C128.444 85.3376 128.477 85.0928 128.734 84.9085C129.102 84.6515 129.445 84.5244 129.486 84.508C129.49 84.508 129.49 84.508 129.49 84.508" stroke="#4C30A1" stroke-width="1.52707" stroke-linecap="round" stroke-linejoin="round"/>
  <path d="M129.867 83.956C129.867 83.956 129.695 84.2093 129.487 84.5076C129.245 84.8631 128.951 85.284 128.837 85.4316C128.624 85.7008 128.571 86.114 128.53 86.2652C128.485 86.416 128.355 87.2173 128.355 87.2173C128.355 87.2173 128.988 87.1229 129.192 86.6043C129.397 86.085 129.405 85.8806 129.527 85.7008C129.646 85.521 130.504 85.0961 130.504 85.0961C130.504 85.0961 131.518 85.8193 132.106 86.1708C132.69 86.5181 133.508 86.653 134.631 86.1422C136.768 85.975 149.232 84.6511 149.661 84.3973C150.086 84.1439 155.026 78.5947 157.695 75.3052L152.57 71.0349L147.172 79.9963C145.137 80.3028 137.986 83.4452 134.129 83.4452C131.754 82.1416 130.365 81.2304 130.287 81.1854C130.181 81.12 129.585 81.214 129.082 81.2672C128.579 81.3162 127.84 81.4347 127.684 81.4347C127.534 81.4347 126.181 82.0844 125.404 82.1788C125.539 82.6606 125.821 82.7709 126.504 82.6361C127.186 82.5016 127.611 82.3341 127.787 82.3296C128.134 82.3214 128.722 82.3995 128.722 82.3995" stroke="#4C30A1" stroke-width="1.52707" stroke-linecap="round" stroke-linejoin="round"/>
  <path d="M157.512 67.5084C157.512 67.5084 154.895 67.5729 153.29 68.5279C151.046 71.2274 148.128 76.6344 148.128 76.6344C148.128 76.6344 151.106 79.6992 153.66 81.1294C153.66 81.1294 157.337 77.8946 159.721 75.3746L157.512 67.5084Z" fill="#CEC1F5"/>
  <path d="M156.863 77.9195L159.674 75.3287C159.7 75.3042 159.742 75.3054 159.766 75.3316C159.79 75.3565 159.789 75.3958 159.766 75.4207L157.152 78.2084C157.075 78.2913 156.946 78.2971 156.863 78.2202C156.78 78.1438 156.774 78.0143 156.851 77.9313C156.854 77.9277 156.859 77.9228 156.863 77.9195Z" fill="#4C30A1"/>
  <path d="M156.956 77.8661L160.686 77.0292C160.721 77.0211 160.756 77.0427 160.765 77.0779C160.772 77.111 160.752 77.1445 160.72 77.1547L157.061 78.2613C156.954 78.2948 156.839 78.2343 156.805 78.1268C156.771 78.0189 156.832 77.9041 156.939 77.8706C156.944 77.869 156.951 77.8673 156.956 77.8661Z" fill="#4C30A1"/>
  <path d="M153.29 68.5279C151.046 71.2274 148.128 76.6344 148.128 76.6344C148.128 76.6344 151.106 79.6992 153.66 81.1294C153.66 81.1294 155.245 79.7347 157.008 78.0638" stroke="#4C30A1" stroke-width="1.52707" stroke-linecap="round" stroke-linejoin="round"/>
  <path d="M157.514 67.5859C157.514 67.5859 157.242 67.5998 156.837 67.6542C156.634 67.6758 156.4 67.7179 156.149 67.7588C155.898 67.8 155.635 67.8671 155.37 67.9218C155.24 67.9586 155.11 67.9958 154.983 68.0326C154.856 68.0714 154.728 68.0996 154.611 68.1449C154.377 68.2373 154.157 68.3162 153.974 68.3946C153.625 68.5801 153.393 68.7039 153.393 68.7039L153.366 68.7187C153.266 68.7718 153.142 68.7338 153.089 68.6345C153.037 68.5348 153.074 68.4109 153.174 68.3578C153.177 68.3562 153.181 68.3546 153.184 68.3529C153.184 68.3529 153.443 68.2336 153.831 68.0546C154.029 67.9823 154.265 67.9128 154.514 67.8315C154.639 67.7911 154.773 67.7694 154.906 67.7367C155.039 67.7073 155.175 67.6766 155.31 67.6464C155.585 67.6063 155.857 67.5536 156.114 67.5267C156.372 67.4993 156.612 67.4707 156.819 67.4609C157.231 67.4298 157.508 67.4315 157.508 67.4315H157.51C157.552 67.4319 157.587 67.4666 157.587 67.5095C157.586 67.5504 157.554 67.5839 157.514 67.5859Z" fill="#4C30A1"/>
  <path d="M61.1704 38.3327C61.0457 38.5064 59.6229 40.1275 59.392 40.3093C59.1558 40.4907 57.2103 41.3624 56.8221 41.849C56.4347 42.3357 52.1833 51.132 50.9921 52.7453C49.7973 54.3586 48.8353 55.7095 47.7786 56.0585C47.2175 56.2461 37.9473 54.8367 37.9473 54.8367L38.3359 48.793L45.8646 51.4193C45.8646 51.4193 47.2874 48.9572 48.6948 47.2295C50.0976 45.5047 54.376 41.3624 54.9068 39.7062C55.4417 38.0512 55.7278 37.2548 55.8826 37.019C56.042 36.7791 56.7588 36.1772 56.9954 35.7914C57.2369 35.4049 57.3881 34.9864 57.4955 35.0355C57.8053 35.1654 58.1424 35.6374 57.7738 36.4816C58.359 35.9774 59.0365 35.3955 59.2204 35.2484C59.5604 34.9709 60.526 34.0936 60.7597 33.8692C60.9938 33.6502 61.3338 33.4332 61.4062 33.4757C61.4658 33.5092 61.4687 33.9268 61.2627 34.3604L61.2664 34.3608C61.5038 33.982 62.0093 34.0674 62.0485 34.1038C62.0771 34.1291 61.993 34.4944 61.8491 34.8455C61.8491 34.8455 62.1576 35.4748 62.1061 35.6157C62.0604 35.7522 61.8177 36.3439 61.7425 36.5049C61.7163 36.5642 61.6321 36.6913 61.5238 36.8437C61.5238 36.8437 61.4842 37.4587 61.4793 37.5379C61.4744 37.6168 61.2922 38.1583 61.1704 38.3327Z" fill="#E0D8F9"/>
  <path d="M56.8311 37.2953C56.8311 37.2953 57.2679 36.9177 57.7738 36.4809C58.3589 35.9766 59.0365 35.3947 59.2203 35.2476C59.5603 34.9702 60.5259 34.0928 60.7597 33.8685C60.9938 33.6495 61.3338 33.4325 61.4061 33.475C61.4658 33.5085 61.4687 33.9261 61.2627 34.3597C61.2055 34.4884 61.1291 34.6159 61.0265 34.7385C60.5905 35.2713 60.1439 35.9697 59.9722 36.1634C59.8047 36.3571 59.3429 36.7637 59.0732 37.3599" stroke="#4C30A1" stroke-width="1.52707" stroke-linecap="round" stroke-linejoin="round"/>
  <path d="M59.8311 38.1289C59.8311 38.1289 60.4093 36.9725 60.7901 36.581C61.1718 36.1846 61.5306 35.4916 61.739 35.0846C61.7778 35.0073 61.8133 34.9264 61.8489 34.8455C61.9927 34.4945 62.0769 34.1292 62.0483 34.1039C62.0091 34.0675 61.5036 33.9821 61.2662 34.3609" stroke="#4C30A1" stroke-width="1.52707" stroke-linecap="round" stroke-linejoin="round"/>
  <path d="M60.3867 38.5498C60.3867 38.5498 60.6773 37.9855 60.9343 37.6385C61.0957 37.4212 61.3446 37.0963 61.5235 36.8425C61.6318 36.6901 61.716 36.563 61.7422 36.5038C61.8174 36.3428 62.0601 35.7511 62.1058 35.6146C62.1573 35.4736 61.8488 34.8443 61.8488 34.8443" stroke="#4C30A1" stroke-width="1.52707" stroke-linecap="round" stroke-linejoin="round"/>
  <path d="M61.5238 36.8437C61.5238 36.8437 61.4842 37.4587 61.4793 37.5379C61.4744 37.6168 61.2922 38.1583 61.1704 38.3327C61.0458 38.5064 59.6229 40.1275 59.392 40.3093C59.1558 40.4907 57.2103 41.3624 56.8221 41.849C56.4347 42.3357 52.1833 51.132 50.9921 52.7453C49.7973 54.3586 48.8353 55.7095 47.7786 56.0585C47.2176 56.2461 37.9473 54.8367 37.9473 54.8367L38.3359 48.793L45.8646 51.4193C45.8646 51.4193 47.2874 48.9572 48.6948 47.2295C50.0976 45.5047 54.376 41.3624 54.9068 39.7062C55.4417 38.0512 55.7278 37.2548 55.8827 37.019C56.042 36.7791 56.7588 36.1772 56.9954 35.7914C57.2369 35.4049 57.3881 34.9864 57.4955 35.0355C57.8053 35.1654 58.1424 35.6374 57.7738 36.4816" stroke="#4C30A1" stroke-width="1.52707" stroke-linecap="round" stroke-linejoin="round"/>
  <path d="M37.5067 47.3725C35.9891 47.433 34.3333 47.594 34.3333 47.594L33.9463 53.6124C35.6572 54.5097 37.2101 55.3875 39.5274 56.0576C40.0685 54.6397 41.998 49.6649 41.998 49.6649C41.998 49.6649 39.8147 48.5224 37.5067 47.3725Z" fill="#CEC1F5"/>
  <path d="M37.3678 55.5203C37.3678 55.5203 36.4929 55.0847 35.6185 54.6487C34.762 54.1698 33.9055 53.6909 33.9055 53.6909C33.863 53.6672 33.8479 53.6133 33.8716 53.5703C33.8948 53.5295 33.9459 53.5144 33.988 53.5344C33.988 53.5344 34.8641 53.9585 35.7402 54.3823C36.6388 54.7656 37.5378 55.1489 37.5378 55.1489C37.642 55.1922 37.6915 55.3119 37.6477 55.4161C37.604 55.5203 37.4843 55.5698 37.3801 55.5261C37.3768 55.5244 37.3711 55.522 37.3678 55.5203Z" fill="#4C30A1"/>
  <path d="M37.448 55.5396C37.448 55.5396 36.7537 55.4943 36.059 55.4489C35.3639 55.3705 34.6684 55.2916 34.6684 55.2916C34.6198 55.2859 34.5851 55.2421 34.5904 55.1935C34.5957 55.1478 34.6361 55.1138 34.6815 55.1151C34.6815 55.1151 35.3733 55.1359 36.0651 55.1563C36.7606 55.1437 37.4561 55.131 37.4561 55.131C37.5689 55.1281 37.6629 55.2176 37.6658 55.3304C37.6686 55.4432 37.5795 55.5372 37.4668 55.54C37.461 55.54 37.4537 55.54 37.448 55.5396Z" fill="#4C30A1"/>
  <path d="M37.0107 47.3954C37.1762 47.3864 37.3417 47.3786 37.5064 47.3725C39.8144 48.5224 41.9977 49.6649 41.9977 49.6649C41.9977 49.6649 40.0681 54.6397 39.5271 56.0576C38.7634 55.837 38.083 55.5934 37.4521 55.3343" stroke="#4C30A1" stroke-width="1.52707" stroke-linecap="round" stroke-linejoin="round"/>
  <path d="M34.3244 47.467L36.9968 47.192C37.1092 47.1805 37.2093 47.2618 37.2212 47.3742C37.2326 47.4866 37.1509 47.5871 37.0385 47.5985C37.0348 47.5989 37.0291 47.5994 37.0254 47.5994L34.3423 47.7215C34.2721 47.7248 34.2124 47.6705 34.2091 47.6002C34.2059 47.5323 34.2578 47.4743 34.3244 47.467Z" fill="#4C30A1"/>
  <path d="M46.9067 26.6536L57.3694 51.5505C57.827 52.6367 59.0766 53.1462 60.1611 52.6898L66.7434 49.9241C68.7494 49.0811 70.4281 49.0027 71.2535 50.969C72.0802 52.9337 69.9864 53.7428 70.9503 56.0369C71.8542 58.1867 73.6927 59.0048 76.5588 57.7998C79.4266 56.5939 80.1274 54.7097 79.2235 52.5586C78.2592 50.2658 76.2164 51.1962 75.391 49.2299C74.5639 47.2643 75.7951 46.1206 77.8023 45.2759L85.0601 42.2267C86.1454 41.7715 86.6566 40.5202 86.1993 39.4337L83.5641 33.1632C82.721 31.1555 81.5773 29.926 79.6105 30.7522C77.6446 31.5785 78.575 33.6208 76.2822 34.5852C74.1315 35.4891 72.2461 34.7875 71.0419 31.9197C69.8368 29.0531 70.6549 27.2163 72.8039 26.3116C75.098 25.3468 75.9062 27.4419 77.8718 26.6144C79.8385 25.7881 79.7605 24.1115 78.9163 22.1035L75.7363 14.536C75.279 13.4506 74.0286 12.9403 72.9432 13.3971L48.0455 23.8602C46.9602 24.3171 46.4498 25.5679 46.9067 26.6536Z" fill="#CEC1F5"/>
  <path d="M46.9067 26.6536L57.3694 51.5505C57.827 52.6367 59.0766 53.1462 60.1611 52.6898L66.7434 49.9241C68.7494 49.0811 70.4281 49.0027 71.2535 50.969C72.0802 52.9337 69.9864 53.7428 70.9503 56.0369C71.8542 58.1867 73.6927 59.0048 76.5588 57.7998C79.4266 56.5939 80.1274 54.7097 79.2235 52.5586C78.2592 50.2658 76.2164 51.1962 75.391 49.2299C74.5639 47.2643 75.7951 46.1206 77.8023 45.2759L85.0601 42.2267C86.1454 41.7715 86.6566 40.5202 86.1993 39.4337L83.5641 33.1632C82.721 31.1555 81.5773 29.926 79.6105 30.7522C77.6446 31.5785 78.575 33.6208 76.2822 34.5852C74.1315 35.4891 72.2461 34.7875 71.0419 31.9197C69.8368 29.0531 70.6549 27.2163 72.8039 26.3116C75.098 25.3468 75.9062 27.4419 77.8718 26.6144C79.8385 25.7881 79.7605 24.1115 78.9163 22.1035L75.7363 14.536C75.279 13.4506 74.0286 12.9403 72.9432 13.3971L48.0455 23.8602C46.9602 24.3171 46.4498 25.5679 46.9067 26.6536Z" stroke="#4C30A1" stroke-width="1.52707" stroke-linecap="round" stroke-linejoin="round"/>
  <path d="M39.5461 117.853L39.021 130.149L34.8664 130.613L34.6318 117.853H39.5461Z" fill="white"/>
  <path d="M39.5461 117.853L39.021 130.149L34.8664 130.613L34.6318 117.853H39.5461Z" stroke="#432A8F" stroke-width="1.52707" stroke-linecap="round" stroke-linejoin="round"/>
  <path d="M34.2012 133.89H48.626V134.967H34.2012V133.89Z" fill="#EAE5F9"/>
  <path d="M34.2012 133.89H48.626V134.967H34.2012V133.89Z" stroke="#432A8F" stroke-width="1.52707" stroke-linecap="round" stroke-linejoin="round"/>
  <path d="M45.1501 131.859C45.1501 131.859 45.0929 131.104 44.5081 130.801C43.9217 130.498 40.4267 128.534 39.9735 128.27C39.5207 128.005 39.3123 127.645 38.9343 127.721C38.5563 127.797 37.8388 128.742 38.7259 129.441C39.6143 130.14 44.6397 132.54 44.6397 132.54L45.1501 131.859Z" fill="#CEC1F5"/>
  <path d="M45.1501 131.859C45.1501 131.859 45.0929 131.104 44.5081 130.801C43.9217 130.498 40.4267 128.534 39.9735 128.27C39.5207 128.005 39.3123 127.645 38.9343 127.721C38.5563 127.797 37.8388 128.742 38.7259 129.441C39.6143 130.14 44.6397 132.54 44.6397 132.54L45.1501 131.859Z" stroke="#432A8F" stroke-width="1.52707" stroke-linecap="round" stroke-linejoin="round"/>
  <path d="M43.9831 132.535C44.1159 132.1 44.1915 131.907 43.6811 131.491C43.1711 131.076 40.3368 129.754 39.6757 129.319C39.0149 128.884 38.7117 128.866 37.8997 129.413C37.0878 129.961 36.5533 129.819 35.6461 129.951C34.7385 130.084 34.6462 129.895 34.4562 130.405C34.267 130.915 34.2012 132.814 34.2012 133.891H44.5078L43.9831 132.535Z" fill="white"/>
  <path d="M43.9831 132.535C44.1159 132.1 44.1915 131.907 43.6811 131.491C43.1711 131.076 40.3368 129.754 39.6757 129.319C39.0149 128.884 38.7117 128.866 37.8997 129.413C37.0878 129.961 36.5533 129.819 35.6461 129.951C34.7385 130.084 34.6462 129.895 34.4562 130.405C34.267 130.915 34.2012 132.814 34.2012 133.891H44.5078L43.9831 132.535Z" stroke="#432A8F" stroke-width="1.52707" stroke-linecap="round" stroke-linejoin="round"/>
  <path d="M48.6265 133.891C48.6265 133.891 48.5505 133.069 47.8518 132.653C47.1522 132.238 45.6979 131.727 45.1687 131.519C44.6399 131.312 43.7895 132.445 43.5439 133.891H48.6265Z" fill="white"/>
  <path d="M48.6265 133.891C48.6265 133.891 48.5505 133.069 47.8518 132.653C47.1522 132.238 45.6979 131.727 45.1687 131.519C44.6399 131.312 43.7895 132.445 43.5439 133.891H48.6265Z" stroke="#432A8F" stroke-width="1.52707" stroke-linecap="round" stroke-linejoin="round"/>
  <path d="M42.4684 131.331C42.3577 131.508 42.4124 131.74 42.5906 131.85C42.7683 131.96 43 131.905 43.1099 131.729L43.9701 130.341C44.0805 130.163 44.0253 129.931 43.8475 129.821C43.6702 129.712 43.4381 129.766 43.3278 129.944L42.4684 131.331Z" fill="white"/>
  <path d="M42.4684 131.331C42.3577 131.508 42.4124 131.74 42.5906 131.85C42.7683 131.96 43 131.905 43.1099 131.729L43.9701 130.341C44.0805 130.163 44.0253 129.931 43.8475 129.821C43.6702 129.712 43.4381 129.766 43.3278 129.944L42.4684 131.331Z" stroke="#432A8F" stroke-width="1.52707" stroke-linecap="round" stroke-linejoin="round"/>
  <path d="M40.8529 130.36C40.7425 130.537 40.7973 130.77 40.9755 130.879C41.1528 130.989 41.3853 130.935 41.4944 130.757L42.3546 129.37C42.4653 129.192 42.4102 128.96 42.2328 128.85C42.0547 128.741 41.8226 128.795 41.7122 128.972L40.8529 130.36Z" fill="white"/>
  <path d="M40.8529 130.36C40.7425 130.537 40.7973 130.77 40.9755 130.879C41.1528 130.989 41.3853 130.935 41.4944 130.757L42.3546 129.37C42.4653 129.192 42.4102 128.96 42.2328 128.85C42.0547 128.741 41.8226 128.795 41.7122 128.972L40.8529 130.36Z" stroke="#432A8F" stroke-width="1.52707" stroke-linecap="round" stroke-linejoin="round"/>
  <path d="M39.2678 129.591C39.1677 129.774 39.2359 130.004 39.4202 130.102C39.6033 130.203 39.8321 130.135 39.9314 129.952L40.7119 128.519C40.8116 128.334 40.743 128.105 40.5607 128.007C40.376 127.906 40.1472 127.974 40.0475 128.157L39.2678 129.591Z" fill="white"/>
  <path d="M39.2678 129.591C39.1677 129.774 39.2359 130.004 39.4202 130.102C39.6033 130.203 39.8321 130.135 39.9314 129.952L40.7119 128.519C40.8116 128.334 40.743 128.105 40.5607 128.007C40.376 127.906 40.1472 127.974 40.0475 128.157L39.2678 129.591Z" stroke="#432A8F" stroke-width="1.52707" stroke-linecap="round" stroke-linejoin="round"/>
  <path d="M21.7716 115.88L17.0364 128.539L13.6455 126.093L17.502 113.884L21.7716 115.88Z" fill="white"/>
  <path d="M21.7716 115.88L17.0364 128.539L13.6455 126.093L17.502 113.884L21.7716 115.88Z" stroke="#432A8F" stroke-width="1.52707" stroke-linecap="round" stroke-linejoin="round"/>
  <path d="M20.4319 133.921C20.4319 133.921 20.8969 133.322 20.6661 132.705C20.4351 132.087 19.1624 128.286 19.0041 127.785C18.846 127.285 18.9326 126.879 18.6018 126.681C18.2706 126.484 17.1046 126.703 17.2929 127.816C17.4821 128.931 19.5971 134.082 19.5971 134.082L20.4319 133.921Z" fill="#CEC1F5"/>
  <path d="M20.4319 133.921C20.4319 133.921 20.8969 133.322 20.6661 132.705C20.4351 132.087 19.1624 128.286 19.0041 127.785C18.846 127.285 18.9326 126.879 18.6018 126.681C18.2706 126.484 17.1046 126.703 17.2929 127.816C17.4821 128.931 19.5971 134.082 19.5971 134.082L20.4319 133.921Z" stroke="#432A8F" stroke-width="1.52707" stroke-linecap="round" stroke-linejoin="round"/>
  <path d="M19.1138 133.638C19.5044 133.405 19.6899 133.313 19.5906 132.663C19.4917 132.012 18.2777 129.13 18.0793 128.364C17.8819 127.598 17.6691 127.381 16.6999 127.241C15.7301 127.102 15.4293 126.639 14.6679 126.128C13.906 125.617 13.9647 125.414 13.4811 125.666C12.999 125.917 11.6757 127.28 10.9531 128.078L17.5989 134.525L19.1138 133.638Z" fill="white"/>
  <path d="M19.1138 133.638C19.5044 133.405 19.6899 133.313 19.5906 132.663C19.4917 132.012 18.2777 129.13 18.0793 128.364C17.8819 127.598 17.6691 127.381 16.6999 127.241C15.7301 127.102 15.4293 126.639 14.6679 126.128C13.906 125.617 13.9647 125.414 13.4811 125.666C12.999 125.917 11.6757 127.28 10.9531 128.078L17.5989 134.525L19.1138 133.638Z" stroke="#432A8F" stroke-width="1.52707" stroke-linecap="round" stroke-linejoin="round"/>
  <path d="M23.3912 133.919C23.3912 133.919 23.3148 133.097 22.6162 132.681C21.9167 132.266 20.8989 131.821 20.37 131.613C19.8408 131.406 18.8631 132.482 18.748 133.919L23.3912 133.919Z" fill="white"/>
  <path d="M23.3912 133.919C23.3912 133.919 23.3148 133.097 22.6162 132.681C21.9167 132.266 20.8989 131.821 20.37 131.613C19.8408 131.406 18.8631 132.482 18.748 133.919L23.3912 133.919Z" stroke="#432A8F" stroke-width="1.52707" stroke-linecap="round" stroke-linejoin="round"/>
  <path d="M18.3167 130.14C18.1164 130.197 18.0003 130.406 18.0593 130.607C18.1164 130.808 18.3254 130.923 18.5258 130.865L20.0941 130.415C20.2957 130.357 20.4109 130.147 20.3531 129.947C20.2944 129.746 20.0861 129.631 19.885 129.688L18.3167 130.14Z" fill="white"/>
  <path d="M18.3167 130.14C18.1164 130.197 18.0003 130.406 18.0593 130.607C18.1164 130.808 18.3254 130.923 18.5258 130.865L20.0941 130.415C20.2957 130.357 20.4109 130.147 20.3531 129.947C20.2944 129.746 20.0861 129.631 19.885 129.688L18.3167 130.14Z" stroke="#432A8F" stroke-width="1.52707" stroke-linecap="round" stroke-linejoin="round"/>
  <path d="M17.593 128.354C17.3959 128.423 17.2929 128.638 17.3626 128.834C17.431 129.032 17.6465 129.136 17.8431 129.066L19.3835 128.528C19.5814 128.458 19.6845 128.242 19.6149 128.047C19.5455 127.848 19.3305 127.745 19.1333 127.814L17.593 128.354Z" fill="white"/>
  <path d="M17.593 128.354C17.3959 128.423 17.2929 128.638 17.3626 128.834C17.431 129.032 17.6465 129.136 17.8431 129.066L19.3835 128.528C19.5814 128.458 19.6845 128.242 19.6149 128.047C19.5455 127.848 19.3305 127.745 19.1333 127.814L17.593 128.354Z" stroke="#432A8F" stroke-width="1.52707" stroke-linecap="round" stroke-linejoin="round"/>
  <path d="M17.3725 133.89L10.9537 128.077L10.2305 128.876L16.9577 134.967H23.3921L23.3919 133.89C23.3919 133.89 17.3725 133.89 17.3725 133.89Z" fill="#EAE5F9"/>
  <path d="M17.3725 133.89L10.9537 128.077L10.2305 128.876L16.9577 134.967H23.3921L23.3919 133.89C23.3919 133.89 17.3725 133.89 17.3725 133.89Z" stroke="#432A8F" stroke-width="1.52707" stroke-linecap="round" stroke-linejoin="round"/>
  <path d="M29.3399 69.826L28.3048 75.3761C28.2414 77.4773 28.533 82.056 28.6759 82.736C28.8188 83.416 32.7265 98.5228 32.8859 100.454C33.046 102.386 33.9655 118.993 33.9655 118.993C33.9655 118.993 38.0383 120.029 40.1264 119.802C40.5956 106.527 41.7737 96.2079 42.0621 92.3806C42.3502 88.5525 42.1046 76.3135 42.0891 75.987C42.0736 75.6605 39.6716 67.402 39.6716 67.402L29.3399 69.826Z" fill="#F4F1FE"/>
  <path d="M29.3399 69.826L28.3048 75.3761C28.2414 77.4773 28.533 82.056 28.6759 82.736C28.8188 83.416 32.7265 98.5228 32.8859 100.454C33.046 102.386 33.9655 118.993 33.9655 118.993C33.9655 118.993 38.0383 120.029 40.1264 119.802C40.5956 106.527 41.7737 96.2079 42.0621 92.3806C42.3502 88.5525 42.1046 76.3135 42.0891 75.987C42.0736 75.6605 39.6716 67.402 39.6716 67.402L29.3399 69.826Z" stroke="#4C30A1" stroke-width="1.52707" stroke-linecap="round" stroke-linejoin="round"/>
  <path d="M32.8525 69.2956C32.8525 69.2956 33.87 78.255 34.2975 81.3312C34.7249 84.4078 36.0178 96.5213 36.0354 98.0329C36.0526 99.5444 36.35 119.498 36.35 119.498" stroke="#4C30A1" stroke-width="0.763534" stroke-linecap="round" stroke-linejoin="round"/>
  <path d="M33.9023 117.852C33.9023 117.852 37.1538 118.757 40.163 118.812" stroke="#4C30A1" stroke-width="0.763534" stroke-linecap="round" stroke-linejoin="round"/>
  <path d="M35.1638 68.8105C35.1638 68.8105 35.5769 74.4504 35.487 75.452C35.0514 77.6386 34.2754 81.1655 34.2754 81.1655" stroke="#4C30A1" stroke-width="0.763534" stroke-linecap="round" stroke-linejoin="round"/>
  <path d="M29.3404 67.3038L28.3783 71.901C27.493 73.8081 25.9604 78.1323 25.8244 78.8135C25.6882 79.4947 23.3385 94.9206 22.7256 96.7595C22.1126 98.5983 16.4258 114.229 16.4258 114.229C16.4258 114.229 19.7627 116.783 21.7719 117.396C27.4249 105.375 32.5671 96.3512 34.3377 92.9457C36.1084 89.5401 41.9751 76.2938 42.0895 75.9873C42.2036 75.6809 41.9653 69.0405 41.9653 69.0405L29.3404 67.3038Z" fill="white"/>
  <path d="M29.3403 67.3038L28.3783 71.901C27.493 73.8081 25.9604 78.1323 25.8244 78.8135C25.6882 79.4947 23.3385 94.9206 22.7256 96.7595C22.1126 98.5983 16.4258 114.229 16.4258 114.229C16.4258 114.229 19.7627 116.783 21.7719 117.396C27.4249 105.375 32.5671 96.3512 34.3377 92.9457C36.1084 89.5401 41.9751 76.2938 42.0895 75.9873C42.2036 75.6809 41.9653 69.0405 41.9653 69.0405L29.3403 67.3038Z" stroke="#4C30A1" stroke-width="1.52707" stroke-linecap="round" stroke-linejoin="round"/>
  <path d="M34.9507 68.0997C34.9507 68.0997 32.3624 76.737 31.5451 79.7335C30.7278 82.7301 27.1519 94.3757 26.5733 95.772C25.9946 97.1683 18.4189 115.631 18.4189 115.631" stroke="#4C30A1" stroke-width="0.763534" stroke-linecap="round" stroke-linejoin="round"/>
  <path d="M16.8164 113.154C16.8164 113.154 19.4502 115.265 22.1944 116.5" stroke="#4C30A1" stroke-width="0.763534" stroke-linecap="round" stroke-linejoin="round"/>
  <path d="M37.2666 68.5619C37.2666 68.5619 35.4281 73.9097 34.9513 74.7953C33.691 76.6341 31.5898 79.5718 31.5898 79.5718" stroke="#4C30A1" stroke-width="0.763534" stroke-linecap="round" stroke-linejoin="round"/>
  <path d="M37.4027 39.9939C37.4027 39.9939 36.3983 41.0265 36.3983 42.7689C36.3983 44.1194 36.5515 46.7363 36.5515 46.7363L30.4902 44.063L32.193 37.6781L37.4027 39.9939Z" fill="white"/>
  <path d="M32.193 37.6781L31.5723 40.0053C32.5019 41.1152 34.1916 42.8711 36.4273 44.1011C36.4101 43.6152 36.3982 43.1432 36.3982 42.7689C36.3982 41.0265 37.4027 39.9939 37.4027 39.9939L32.193 37.6781Z" fill="#E0D8F9"/>
  <path d="M37.4027 39.9939C37.4027 39.9939 36.3983 41.0265 36.3983 42.7689C36.3983 44.1194 36.5515 46.7363 36.5515 46.7363L30.4902 44.063L32.193 37.6781L37.4027 39.9939Z" stroke="#4C30A1" stroke-width="1.52707" stroke-linecap="round" stroke-linejoin="round"/>
  <path d="M29.5471 66.2101L29.3408 67.3036C32.6101 69.0661 39.7865 69.679 42.09 69.3456L41.8052 67.3768L29.5471 66.2101Z" fill="white"/>
  <path d="M29.5471 66.2101L29.3408 67.3036C32.6101 69.0661 39.7865 69.679 42.09 69.3456L41.8052 67.3768L29.5471 66.2101Z" stroke="#4C30A1" stroke-width="1.52707" stroke-linecap="round" stroke-linejoin="round"/>
  <path d="M40.4756 67.5701C40.4756 67.5701 40.5859 68.8553 40.6031 69.1025C40.6202 69.3493 40.6627 69.8262 40.9946 69.8262C41.3268 69.8262 42.0844 69.6901 42.3144 69.6476L42.0247 67.298L40.4756 67.5701Z" fill="white"/>
  <path d="M40.4756 67.5701C40.4756 67.5701 40.5859 68.8553 40.6031 69.1025C40.6202 69.3493 40.6627 69.8262 40.9946 69.8262C41.3268 69.8262 42.0844 69.6901 42.3144 69.6476L42.0247 67.298L40.4756 67.5701Z" stroke="#4C30A1" stroke-width="1.52707" stroke-linecap="round" stroke-linejoin="round"/>
  <path d="M38.331 46.7364C38.331 46.7364 42.6727 52.6702 43.0556 53.4106C43.4642 55.9135 42.3152 60.1531 42.0087 61.2004C42.3405 63.32 43.1426 66.4869 43.1426 66.4869C43.1426 66.4869 42.5705 67.5343 41.9829 67.9429C37.1815 68.658 30.6691 66.717 29.6217 66.3084C29.1365 65.6954 28.83 65.0825 28.8555 64.9292C28.8811 64.776 29.5707 63.8308 29.5707 63.5501C29.5707 63.2689 28.9742 58.7135 28.4142 55.9973C27.4509 54.3558 26.9145 52.4148 27.553 50.1415C28.1915 47.8687 31.282 44.5739 31.282 44.5739L38.331 46.7364Z" fill="#CEC1F5"/>
  <path d="M38.331 46.7364C38.331 46.7364 42.6727 52.6702 43.0556 53.4106C43.4642 55.9135 42.3152 60.1531 42.0087 61.2004C42.3405 63.32 43.1426 66.4869 43.1426 66.4869C43.1426 66.4869 42.5705 67.5343 41.9829 67.9429C37.1815 68.658 30.6691 66.717 29.6217 66.3084C29.1365 65.6954 28.83 65.0825 28.8555 64.9292C28.8811 64.776 29.5707 63.8308 29.5707 63.5501C29.5707 63.2689 28.9742 58.7135 28.4142 55.9973C27.4509 54.3558 26.9145 52.4148 27.553 50.1415C28.1915 47.8687 31.282 44.5739 31.282 44.5739L38.331 46.7364Z" stroke="#4C30A1" stroke-width="1.52707" stroke-linecap="round" stroke-linejoin="round"/>
  <path d="M36.0839 45.8743C36.0839 45.8743 36.0071 49.2721 36.0839 49.6807C36.1604 50.0893 36.9266 65.0302 36.9266 65.3367C36.9266 65.6432 36.0533 67.8208 36.0533 67.8208" stroke="#4C30A1" stroke-width="0.763534" stroke-linecap="round" stroke-linejoin="round"/>
  <path d="M30.6183 42.9912C30.6183 42.9912 33.6078 43.8077 34.488 44.1019C35.3686 44.3961 38.842 46.3625 38.842 46.3625L37.8458 49.6826C37.8458 49.6826 33.2646 46.1328 32.9503 45.8774C32.6357 45.622 29.8008 44.6258 29.8008 44.6258L30.6183 42.9912Z" fill="#CEC1F5"/>
  <path d="M34.64 44.1592C34.5857 44.1372 34.5313 44.1155 34.488 44.1012C33.6078 43.807 30.6183 42.9905 30.6183 42.9905L29.8008 44.6251C29.8008 44.6251 32.6279 45.6185 32.9483 45.8755L34.64 44.1592Z" fill="#B9A6F0"/>
  <path d="M30.6183 42.9912C30.6183 42.9912 33.6078 43.8077 34.488 44.1019C35.3686 44.3961 38.842 46.3625 38.842 46.3625L37.8458 49.6826C37.8458 49.6826 33.2646 46.1328 32.9503 45.8774C32.6357 45.622 29.8008 44.6258 29.8008 44.6258L30.6183 42.9912Z" stroke="#4C30A1" stroke-width="1.52707" stroke-linecap="round" stroke-linejoin="round"/>
  <path d="M31.4018 38.3772C31.4116 38.3837 31.4169 38.3866 31.4255 38.3886C31.6131 38.4642 31.8072 38.5174 32.0062 38.5398C34.0763 41.4501 38.4577 41.2258 39.0612 41.0771C39.6636 40.9275 39.5095 40.4396 39.4499 39.789C39.3971 39.1332 39.8381 39.0788 39.9835 38.8157C40.1282 38.5484 40.0411 37.9596 40.0411 37.9596C40.5948 37.8815 40.8216 37.5563 40.8216 37.5563C40.8216 37.5563 40.7902 37.4292 40.7317 37.1913C40.6725 36.9535 40.8351 36.7275 41.0358 36.6871C41.236 36.6454 41.681 36.35 41.757 36.0284C41.8387 35.7096 41.6173 35.6169 40.8257 34.8151C40.0371 34.0081 40.7068 33.805 39.7428 30.6879C38.7744 27.5725 35.8735 26.2228 33.2525 26.5174C30.1194 26.8705 27.9888 28.5209 27.7088 32.1892C27.4418 35.6733 29.7432 37.8321 31.4018 38.3772Z" fill="white"/>
  <path d="M38.6661 33.8747C38.6714 34.2037 38.85 34.4681 39.0666 34.4648C39.2836 34.4615 39.4548 34.1918 39.4495 33.8625C39.4446 33.5339 39.2656 33.2696 39.049 33.2728C38.8324 33.2761 38.6612 33.5454 38.6661 33.8747Z" fill="#4C30A1"/>
  <path d="M32.0062 38.5398C34.0763 41.4501 38.4577 41.2258 39.0612 41.0771C39.6636 40.9275 39.5095 40.4396 39.4499 39.789C39.3971 39.1332 39.8381 39.0788 39.9835 38.8157C40.1282 38.5484 40.0411 37.9596 40.0411 37.9596C40.5948 37.8815 40.8216 37.5563 40.8216 37.5563C40.8216 37.5563 40.7902 37.4292 40.7317 37.1913C40.6725 36.9535 40.8351 36.7275 41.0358 36.6871C41.236 36.6454 41.681 36.35 41.757 36.0284C41.8387 35.7096 41.6173 35.6169 40.8257 34.8151C40.0371 34.0081 40.7068 33.805 39.7428 30.6879C38.7744 27.5725 35.8735 26.2228 33.2525 26.5174C30.1194 26.8705 27.9888 28.5209 27.7088 32.1892C27.4418 35.6733 29.7432 37.8321 31.4018 38.3772" stroke="#4C30A1" stroke-width="1.52707" stroke-linecap="round" stroke-linejoin="round"/>
  <path d="M40.0072 38.1612C40.0072 38.1612 39.9729 38.1531 39.9116 38.1388C39.8462 38.1236 39.7596 38.0979 39.6578 38.0652C39.4531 37.9994 39.1875 37.8952 38.937 37.7616C38.8132 37.6917 38.6861 37.6304 38.5782 37.5503C38.4707 37.4723 38.3616 37.4138 38.2844 37.3395C38.1238 37.2017 38.0167 37.1098 38.0167 37.1098C37.9804 37.0783 37.9759 37.0228 38.0073 36.986C38.0368 36.9517 38.087 36.9455 38.1234 36.9705L38.1332 36.9774C38.1332 36.9774 38.2431 37.053 38.4078 37.1662C38.4863 37.2279 38.597 37.2729 38.7045 37.3346C38.8111 37.3983 38.9378 37.4433 39.0592 37.496C39.3047 37.5953 39.561 37.6656 39.7534 37.7056C39.8507 37.7256 39.93 37.7403 39.9831 37.7465C40.0399 37.7538 40.0726 37.7579 40.0726 37.7579L40.0812 37.7591C40.1931 37.7734 40.2724 37.876 40.2577 37.9884C40.2434 38.1008 40.1408 38.1796 40.0284 38.1653C40.0215 38.1645 40.0145 38.1629 40.0072 38.1612Z" fill="#4C30A1"/>
  <path d="M36.6189 29.4731C36.2103 31.0913 35.013 34.3767 31.8706 35.4637C31.8624 35.4069 31.8502 35.3493 31.8338 35.2961C31.797 35.1699 31.7398 35.0514 31.6663 34.9447C31.2168 34.2909 30.1909 34.0171 29.7456 34.8426C29.1164 35.9949 29.8888 38.1525 32.0054 38.5411C32.2629 39.5541 33.1782 43.4688 30.6243 46.6358C28.0703 49.8027 27.1509 53.3782 28.4136 55.9976C25.4836 56.2387 21.3646 53.8522 22.7581 48.6789C24.1556 43.5015 25.9617 42.6516 25.7574 38.1893C25.5531 33.727 25.2793 30.1719 28.0376 28.5864C28.5727 26.6985 31.9768 24.7738 36.6189 25.5053C39.8553 26.0161 41.5757 27.8549 41.4899 29.4895C41.4126 30.9197 40.0392 31.7574 40.0392 31.7574C39.0544 31.549 37.4239 30.8665 36.6189 29.4731Z" fill="#7E64CC"/>
  <path d="M31.8706 35.4637C31.8624 35.4069 31.8502 35.3493 31.8338 35.2961C31.797 35.1699 31.7398 35.0514 31.6663 34.9447C31.2168 34.2909 30.1909 34.0171 29.7456 34.8426C29.1164 35.9949 29.8888 38.1525 32.0054 38.5411C32.2629 39.5541 33.1782 43.4688 30.6243 46.6358C28.0703 49.8027 27.1509 53.3782 28.4136 55.9976C25.4836 56.2387 21.3646 53.8522 22.7581 48.6789C24.1556 43.5015 25.9617 42.6516 25.7574 38.1893C25.5531 33.727 25.2793 30.1719 28.0376 28.5864C28.5727 26.6985 31.9768 24.7738 36.6189 25.5053C39.8553 26.0161 41.5757 27.8549 41.4899 29.4895C41.4126 30.9197 40.0392 31.7574 40.0392 31.7574C39.0544 31.549 37.4239 30.8665 36.6189 29.4731C36.6189 29.469 36.6148 29.469 36.6148 29.4653" stroke="#4C30A1" stroke-width="1.52707" stroke-linecap="round" stroke-linejoin="round"/>
  <path d="M36.8064 28.5534C36.8064 28.5534 36.7615 28.913 36.6184 29.4728C36.2098 31.091 35.0125 34.3764 31.8701 35.4634" stroke="#4C30A1" stroke-width="1.52707" stroke-linecap="round" stroke-linejoin="round"/>
  <path d="M31.6839 35.1576C31.6839 35.1576 31.7575 35.0857 31.8572 34.9615C31.9655 34.8442 32.1019 34.6436 32.2719 34.4119C32.3475 34.2889 32.4301 34.1557 32.5167 34.0147C32.6074 33.8753 32.6936 33.7233 32.7705 33.5582C32.8514 33.3956 32.9356 33.2281 33.021 33.0573C33.1011 32.884 33.164 32.6997 33.2367 32.5195C33.3054 32.3376 33.3826 32.1587 33.4435 31.9772C33.495 31.7925 33.5461 31.6107 33.5955 31.435C33.6449 31.2589 33.6928 31.0885 33.7381 30.927C33.781 30.7648 33.7978 30.6063 33.826 30.4628C33.9265 29.8842 33.9935 29.4989 33.9935 29.4989L33.9947 29.4915C34.0013 29.4519 34.0389 29.4257 34.0781 29.4327C34.1165 29.4392 34.1427 29.4752 34.1374 29.5132C34.1374 29.5132 34.0863 29.9059 34.0094 30.4947C33.987 30.6418 33.9763 30.8036 33.9396 30.97C33.9003 31.1359 33.8591 31.3112 33.8166 31.4922C33.7737 31.6736 33.7291 31.8608 33.6842 32.0516C33.6302 32.2396 33.5591 32.4259 33.4966 32.6151C33.4296 32.8027 33.3728 32.9943 33.298 33.1762C33.2175 33.3556 33.1382 33.5321 33.0614 33.7033C32.9891 33.8766 32.9065 34.038 32.8187 34.1867C32.7341 34.3375 32.6544 34.4797 32.5805 34.6109C32.4121 34.863 32.2801 35.0755 32.1608 35.2177C32.0496 35.366 31.9847 35.4347 31.9847 35.4347L31.9757 35.4441C31.898 35.5258 31.7689 35.5295 31.6868 35.4519C31.605 35.3742 31.6014 35.2451 31.679 35.163C31.6806 35.1613 31.6827 35.1593 31.6839 35.1576Z" fill="#4C30A1"/>
  <path d="M31.4741 34.8779C31.4741 34.8779 31.4954 34.8199 31.5334 34.7185C31.5754 34.6168 31.6171 34.4729 31.6694 34.2997C31.7181 34.1252 31.792 33.9266 31.8411 33.7035C31.8889 33.4791 31.9395 33.2401 31.9902 33.001C32.0159 32.8809 32.0413 32.7612 32.0662 32.6431C32.0895 32.5246 32.0932 32.4056 32.1075 32.2916C32.1304 32.0628 32.152 31.8495 32.1704 31.6664C32.2076 31.2991 32.2325 31.0543 32.2325 31.0543L32.2338 31.0445C32.2378 31.0008 32.2771 30.9685 32.3212 30.973C32.3633 30.9771 32.3943 31.0138 32.3927 31.0555C32.3927 31.0555 32.3833 31.3044 32.3694 31.6775C32.3621 31.8646 32.3539 32.0828 32.3449 32.317C32.338 32.4338 32.3408 32.556 32.3253 32.6778C32.3073 32.7996 32.2893 32.923 32.2709 33.0468C32.2346 33.2944 32.1978 33.5425 32.1635 33.775C32.1271 34.0071 32.0634 34.2212 32.0233 34.4067C31.9796 34.5923 31.944 34.7479 31.9093 34.8493C31.8778 34.9527 31.8599 35.0119 31.8599 35.0119C31.8272 35.1202 31.7132 35.1811 31.6049 35.1484C31.497 35.1153 31.4361 35.0013 31.4688 34.8934C31.47 34.8893 31.4708 34.8852 31.4725 34.8816L31.4741 34.8779Z" fill="#4C30A1"/>
  <path d="M62.0765 38.1812C61.954 38.3769 60.5319 40.2244 60.2949 40.4364C60.0538 40.6489 58.0147 41.724 57.6306 42.2753C57.2469 42.827 53.2705 52.6097 52.0977 54.4322C50.9208 56.2547 49.9769 57.7793 48.8613 58.2284C48.2688 58.4695 37.0518 57.3784 37.0518 57.3784V50.8325L46.4749 53.3575C46.4749 53.3575 47.8397 50.6033 49.2372 48.6418C50.6307 46.6845 54.9581 41.9198 55.4158 40.0973C55.8776 38.2748 56.1309 37.3962 56.2821 37.1306C56.4374 36.8609 57.1688 36.1621 57.3977 35.7294C57.6306 35.2958 57.7654 34.8341 57.884 34.8794C58.2272 34.9979 58.6236 35.4838 58.2844 36.4196C58.8814 35.8356 59.5716 35.161 59.7596 34.9893C60.1073 34.6665 61.0876 33.6535 61.3247 33.3957C61.5617 33.1427 61.9131 32.8849 61.9948 32.9257C62.0602 32.9588 62.0929 33.4079 61.9008 33.8905H61.9049C62.1338 33.4655 62.6854 33.5223 62.7304 33.5591C62.7635 33.584 62.6977 33.9841 62.5669 34.3723C62.5669 34.3723 62.9428 35.0302 62.8979 35.1859C62.857 35.3367 62.6364 35.9905 62.5669 36.1703C62.5424 36.2357 62.4607 36.3791 62.3548 36.5507C62.3548 36.5507 62.3548 37.2164 62.3548 37.3022C62.3548 37.388 62.195 37.9846 62.0765 38.1812Z" fill="white"/>
  <path d="M42.0608 52.175L37.0518 50.8326V57.3785C37.0518 57.3785 40.4851 57.7128 43.6533 57.9702C43.3116 55.4583 42.4976 53.2374 42.0608 52.175Z" fill="#E0D8F9"/>
  <path d="M57.3242 37.3638C57.3242 37.3638 57.7696 36.9261 58.2845 36.4194C58.8815 35.8355 59.5717 35.1608 59.7597 34.9892C60.1074 34.6664 61.0877 33.6534 61.3247 33.3955C61.5618 33.1426 61.9132 32.8847 61.9949 32.9256C62.0603 32.9587 62.093 33.4078 61.9009 33.8904C61.8478 34.033 61.7742 34.176 61.6721 34.3149C61.2389 34.9197 60.8058 35.7043 60.6342 35.925C60.4666 36.1456 59.9967 36.616 59.7474 37.2775" stroke="#4C30A1" stroke-width="1.52707" stroke-linecap="round" stroke-linejoin="round"/>
  <path d="M60.6182 38.0542C60.6182 38.0542 61.1612 36.767 61.5454 36.3175C61.9295 35.8639 62.2686 35.0916 62.4648 34.638C62.5016 34.5522 62.5342 34.4623 62.5669 34.3724C62.6977 33.9842 62.7635 33.5841 62.7304 33.5592C62.6854 33.5224 62.1338 33.4656 61.905 33.8906" stroke="#4C30A1" stroke-width="1.52707" stroke-linecap="round" stroke-linejoin="round"/>
  <path d="M61.248 38.4712C61.248 38.4712 61.5218 37.8419 61.7752 37.4496C61.9345 37.204 62.1797 36.8367 62.3559 36.5506C62.4617 36.379 62.5434 36.2355 62.5679 36.1702C62.6374 35.9904 62.8581 35.3365 62.8989 35.1858C62.9439 35.0301 62.5679 34.3722 62.5679 34.3722" stroke="#4C30A1" stroke-width="1.52707" stroke-linecap="round" stroke-linejoin="round"/>
  <path d="M62.3548 36.5507C62.3548 36.5507 62.3548 37.2164 62.3548 37.3022C62.3548 37.388 62.195 37.9846 62.0765 38.1812C61.954 38.3769 60.5319 40.2244 60.2949 40.4364C60.0538 40.6489 58.0147 41.724 57.6306 42.2753C57.2469 42.827 53.2705 52.6097 52.0977 54.4322C50.9208 56.2547 49.9769 57.7793 48.8613 58.2284C48.2688 58.4695 37.0518 57.3784 37.0518 57.3784V50.8325L46.4749 53.3575C46.4749 53.3575 47.8397 50.6033 49.2372 48.6418C50.6307 46.6845 54.9581 41.9198 55.4158 40.0973C55.8776 38.2748 56.1309 37.3962 56.2821 37.1306C56.4374 36.8609 57.1688 36.1621 57.3977 35.7294C57.6306 35.2958 57.7654 34.8341 57.884 34.8794C58.2272 34.9979 58.6236 35.4838 58.2844 36.4196" stroke="#4C30A1" stroke-width="1.52707" stroke-linecap="round" stroke-linejoin="round"/>
  <path d="M36.0595 49.3586C34.427 49.529 32.6523 49.8179 32.6523 49.8179V56.3365C34.5594 57.1856 36.2957 58.0246 38.8415 58.5864C39.3266 57.0197 41.0633 51.5207 41.0633 51.5207C41.0633 51.5207 38.6286 50.4399 36.0595 49.3586Z" fill="#CEC1F5"/>
  <path d="M36.4809 58.1413C36.4809 58.1413 35.5063 57.7339 34.5317 57.3269C33.5743 56.8725 32.6168 56.4177 32.6168 56.4177C32.5727 56.3969 32.5539 56.3441 32.5752 56.3C32.5952 56.2575 32.6454 56.2387 32.6888 56.2563C32.6888 56.2563 33.6625 56.6547 34.6363 57.0535C35.6313 57.4066 36.6264 57.7593 36.6264 57.7593C36.733 57.7964 36.7898 57.9129 36.7526 58.0196C36.7159 58.1262 36.5994 58.183 36.4927 58.1458C36.4895 58.1446 36.4842 58.1426 36.4809 58.1413Z" fill="#4C30A1"/>
  <path d="M36.5616 58.1545C36.5616 58.1545 35.8098 58.1566 35.0575 58.1582C34.3023 58.1239 33.5472 58.0895 33.5472 58.0895C33.4985 58.0875 33.4609 58.0462 33.463 57.9972C33.465 57.951 33.5034 57.9142 33.5488 57.9126C33.5488 57.9126 34.2966 57.8893 35.0444 57.8656C35.7938 57.806 36.5433 57.7463 36.5433 57.7463C36.656 57.7365 36.7553 57.8199 36.7647 57.9322C36.7745 58.045 36.6916 58.1439 36.5788 58.1537C36.5739 58.1541 36.567 58.1545 36.5616 58.1545Z" fill="#4C30A1"/>
  <path d="M35.5273 49.4179C35.7051 49.397 35.8833 49.377 36.0602 49.3586C38.6293 50.4399 41.0639 51.5207 41.0639 51.5207C41.0639 51.5207 39.3272 57.0197 38.8422 58.5864C38.0033 58.4013 37.2522 58.186 36.5538 57.9502" stroke="#4C30A1" stroke-width="1.52707" stroke-linecap="round" stroke-linejoin="round"/>
  <path d="M32.6338 49.6916L35.498 49.2151C35.6091 49.1967 35.7145 49.2719 35.7329 49.3835C35.7513 49.4946 35.6761 49.6 35.565 49.6184C35.5617 49.6192 35.5564 49.6196 35.5531 49.6201L32.6682 49.9445C32.5983 49.9523 32.535 49.902 32.5272 49.8317C32.5194 49.7639 32.5672 49.7026 32.6338 49.6916Z" fill="#4C30A1"/>
  <path d="M59.3351 65.6773H58.4214V64.7644C58.4214 64.4706 58.1836 64.232 57.8889 64.232C57.5951 64.232 57.3565 64.4706 57.3565 64.7644V65.6773H56.4436C56.1498 65.6773 55.9111 65.916 55.9111 66.2098C55.9111 66.5036 56.1498 66.7422 56.4436 66.7422H57.3565V67.6559C57.3565 67.9493 57.5951 68.188 57.8889 68.188C58.1836 68.188 58.4214 67.9493 58.4214 67.6559V66.7422H59.3351C59.6289 66.7422 59.8675 66.5036 59.8675 66.2098C59.8675 65.916 59.6289 65.6773 59.3351 65.6773Z" fill="#CEC1F5"/>
  <path d="M110.066 26.0426H109.152V25.1297C109.152 24.8359 108.914 24.5972 108.619 24.5972C108.326 24.5972 108.087 24.8359 108.087 25.1297V26.0426H107.174C106.88 26.0426 106.642 26.2812 106.642 26.5746C106.642 26.8688 106.88 27.1075 107.174 27.1075H108.087V28.0212C108.087 28.3146 108.326 28.5532 108.619 28.5532C108.914 28.5532 109.152 28.3146 109.152 28.0212V27.1075H110.066C110.359 27.1075 110.598 26.8688 110.598 26.5746C110.598 26.2812 110.359 26.0426 110.066 26.0426Z" fill="#FBCF59"/>
  <path d="M142.246 7.80866L141.599 7.16302L142.245 6.51697C142.453 6.30979 142.453 5.97226 142.245 5.76427C142.038 5.55668 141.7 5.55667 141.492 5.76466L140.847 6.4099L140.201 5.76427C139.994 5.55668 139.656 5.55668 139.449 5.76427C139.24 5.97226 139.24 6.30979 139.448 6.51697L140.094 7.16302L139.448 7.80866C139.24 8.01624 139.24 8.35378 139.448 8.56178C139.656 8.76977 139.993 8.76936 140.201 8.56178L140.846 7.91572L141.492 8.56178C141.7 8.76977 142.038 8.76977 142.246 8.56178C142.453 8.35378 142.453 8.01624 142.246 7.80866Z" fill="#FFD03F"/>
  <path d="M175.482 59.1826C175.482 60.1752 174.678 60.979 173.686 60.979C172.693 60.979 171.89 60.1752 171.89 59.1826C171.89 58.1913 172.693 57.3867 173.686 57.3867C174.678 57.3867 175.482 58.1913 175.482 59.1826Z" stroke="#FFD03F" stroke-width="1.52707" stroke-miterlimit="10"/>
  <path d="M53.2964 114.828C53.2964 115.82 52.4918 116.624 51.4996 116.624C50.5075 116.624 49.7041 115.82 49.7041 114.828C49.7041 113.836 50.5075 113.032 51.4996 113.032C52.4918 113.032 53.2964 113.836 53.2964 114.828Z" stroke="#FFD03F" stroke-width="1.52707" stroke-miterlimit="10"/>
  <path d="M48.8213 0.967474L50.6491 1.89834L48.9292 3.01514L48.8213 0.967474Z" stroke="#6C50C0" stroke-width="1.52707" stroke-miterlimit="10" stroke-linejoin="round"/>
  <path d="M128.953 117.789L130.78 118.72L129.061 119.836L128.953 117.789Z" stroke="#6C50C0" stroke-width="1.52707" stroke-miterlimit="10" stroke-linejoin="round"/>
  <path d="M14.7842 82.4148C16.4123 82.4148 16.4123 83.9468 18.0413 83.9468C19.6702 83.9468 19.6702 82.4148 21.3 82.4148C22.9297 82.4148 22.9297 83.9468 24.5587 83.9468C26.1884 83.9468 26.1884 82.4148 27.8174 82.4148C29.448 82.4148 29.448 83.9468 31.0787 83.9468C32.7083 83.9468 32.7083 82.4148 34.3388 82.4148" stroke="#FFD03F" stroke-width="1.52707" stroke-miterlimit="10"/>
  <path d="M134.98 37.7411C136.609 37.7411 136.609 39.2734 138.239 39.2734C139.867 39.2734 139.867 37.7411 141.496 37.7411C143.126 37.7411 143.126 39.2734 144.756 39.2734C146.385 39.2734 146.385 37.7411 148.014 37.7411C149.645 37.7411 149.645 39.2734 151.276 39.2734C152.905 39.2734 152.905 37.7411 154.536 37.7411" stroke="#6C50C0" stroke-width="1.52707" stroke-miterlimit="10" stroke-linecap="round" stroke-linejoin="round"/>
</svg>