<svg xmlns="http://www.w3.org/2000/svg" width="146" height="134" viewBox="0 0 146 134" fill="none">
  <path d="M15.9792 98.5683C12.9208 98.9841 -0.95375 100.595 0.0520237 103.06C1.37156 106.294 7.04177 106.936 11.7916 107.002C16.0851 107.06 25.9074 106.556 26.2951 107.624C27.0525 109.71 18.3163 110.967 14.0535 111.618C11.9034 111.947 9.65701 112.306 8.08776 113.207C6.51861 114.109 5.92784 115.736 7.42734 116.759C8.59991 117.559 10.5487 117.724 12.3048 117.832C22.7447 118.474 37.9577 117.522 38.7298 119.363C40.1108 122.656 25.1007 123.253 30.5668 128.812C36.8486 135.202 66.6321 133.957 72.4664 133.801C93.9556 133.225 112.018 132.595 132.274 128.661C145.101 126.169 143.153 119.1 136.392 116.155C125.837 111.558 90.0017 115.684 87.4377 110.537C86.7056 109.066 93.6537 105.839 95.078 105.11C96.5024 104.381 97.4588 103.238 97.0081 102.123C96.2188 100.168 92.224 100.14 88.8459 99.8598C84.5868 99.507 73.6762 100.461 68.1276 100.988C63.7306 101.405 48.0362 103.003 47.8124 100.911C47.5294 98.2675 50.2969 99.0089 54.198 97.9769C55.1306 97.7301 56.1345 97.4432 56.5496 96.8943C57.0833 96.189 56.3782 95.295 55.2751 94.8194C54.1721 94.3439 52.7801 94.1959 51.4442 94.1097C41.7091 93.4821 29.3106 96.7558 15.9792 98.5683Z" fill="#DDD1FF"/>
  <path d="M56.5055 62.1408C56.4515 62.1839 56.3987 62.226 56.3459 62.2691C56.2823 62.3219 56.2143 62.3715 56.1583 62.433C56.0213 62.585 55.9049 62.7586 55.7852 62.9246C55.755 62.9667 55.7259 63.0077 55.6957 63.0486C55.6839 63.0648 55.672 63.081 55.6601 63.0972C55.6332 63.1317 55.7022 63.0443 55.6817 63.068C55.6763 63.0745 55.672 63.081 55.6666 63.0875C55.6202 63.1435 55.5879 63.2017 55.5879 63.2772C55.5879 63.3441 55.617 63.4228 55.6666 63.4681C55.7658 63.5597 55.9523 63.5845 56.0483 63.4681C56.169 63.3214 56.2747 63.1608 56.3869 63.0077C56.4149 62.9699 56.4537 62.9322 56.4742 62.8912C56.4753 62.8891 56.4289 62.9494 56.4526 62.9193C56.4559 62.9149 56.4591 62.9106 56.4623 62.9074C56.4688 62.8988 56.4753 62.8912 56.4817 62.8826C56.4947 62.8675 56.5076 62.8513 56.5206 62.8362C56.5723 62.7758 56.6327 62.7284 56.6931 62.6788C56.7567 62.626 56.8214 62.5742 56.8861 62.5225C56.9368 62.4826 56.9659 62.3931 56.9659 62.3316C56.9659 62.2658 56.9357 62.1871 56.8861 62.1408C56.8354 62.0944 56.7675 62.0588 56.6963 62.0621C56.6198 62.0653 56.5648 62.0944 56.5055 62.1408Z" fill="#131716"/>
  <path d="M52.1866 62.9396C52.1866 62.9396 52.8389 63.0927 53.8212 63.0809C54.7075 63.0701 55.5992 62.807 55.7048 62.9267C55.9647 63.221 55.6779 64.0082 55.156 64.5678C54.7096 65.0454 53.8158 65.2417 53.2271 65.2718C51.7715 65.3462 50.9552 65.2363 50.6792 65.1931C50.5175 65.1683 50.1875 65.0821 50.0236 65.0832C49.8878 65.0853 49.477 65.2115 49.477 65.2115C49.477 65.2115 42.1048 68.6208 40.23 67.934C38.7119 67.3776 38.3012 64.2863 38.3012 64.2863L37.4131 58.8607L41.4096 57.955C41.6825 60.4942 41.9924 64.089 42.5526 64.4567C43.0678 64.7942 49.3907 63.5391 49.3907 63.5391L49.5169 63.5208C49.5169 63.5208 49.7562 63.4874 49.9093 63.4291C50.0786 63.3644 50.3601 63.1251 50.5067 63.0194C50.7978 62.8092 51.5116 62.6776 52.0949 62.4835L52.1866 62.9396Z" fill="white"/>
  <path d="M52.0243 62.2237C51.6275 62.3499 51.2177 62.4394 50.8253 62.5785C50.5126 62.6895 50.3012 62.8685 50.0263 63.0464C49.7621 63.2168 49.4818 63.2502 49.1813 63.3063C48.3844 63.4529 47.5892 63.6082 46.7905 63.7462C45.7348 63.9295 44.6733 64.1139 43.6056 64.2088C43.3828 64.2292 42.9201 64.3371 42.7097 64.2292C42.5271 64.1344 42.4165 63.5068 42.3608 63.2545C41.9791 61.5186 41.8682 59.719 41.6796 57.955C41.6431 57.6132 41.1036 57.61 41.1405 57.955C41.3219 59.6511 41.4518 61.3644 41.769 63.0421C41.9038 63.7548 42.0066 64.7522 42.891 64.7835C43.8716 64.818 44.8934 64.6002 45.8569 64.446C46.9084 64.2778 47.9564 64.0891 49.002 63.8885C49.2273 63.8454 49.4537 63.8087 49.678 63.7656C50.0856 63.688 50.3066 63.468 50.643 63.2524C51.0829 62.971 51.6749 62.8998 52.1666 62.7434C52.4965 62.6389 52.3553 62.1181 52.0243 62.2237Z" fill="#131716"/>
  <path d="M55.7053 62.9265C55.5996 62.8069 54.7079 63.0699 53.8216 63.0807C52.8393 63.0926 52.187 62.9395 52.187 62.9395L49.8828 64.5148L50.6796 65.193C50.9557 65.2361 51.7719 65.3461 53.2275 65.2717C53.8162 65.2415 54.7101 65.0453 55.1564 64.5676C55.6783 64.008 55.9651 63.2209 55.7053 62.9265Z" fill="white"/>
  <path d="M38.042 64.3587C38.2211 65.6656 38.748 67.7131 40.1592 68.194C40.7641 68.4 41.4686 68.2738 42.0786 68.1574C43.0278 67.9751 43.9564 67.6797 44.8683 67.3627C46.4143 66.8268 47.9035 66.1702 49.4099 65.5373C49.9447 65.313 50.4547 65.4488 51.0661 65.5114C52.2155 65.6289 53.5827 65.7001 54.6609 65.2159C55.2485 64.9518 55.6852 64.4655 55.9256 63.8671C56.0572 63.5415 56.2157 62.9366 55.8415 62.694C55.4351 62.4298 54.4733 62.7802 54.0635 62.8029C53.4694 62.8352 52.8419 62.8104 52.2586 62.6799C51.9211 62.6045 51.7766 63.1242 52.1163 63.1996C53.0371 63.4056 53.9999 63.3776 54.9283 63.2449C55.0393 63.2288 55.3725 63.1274 55.4599 63.1705C55.6334 63.2579 55.4749 63.0401 55.5332 63.2633C55.5946 63.5016 55.3121 63.9242 55.1827 64.1086C54.7331 64.7523 53.9708 64.9453 53.2279 65.0025C52.2888 65.0747 51.3496 65.0262 50.4245 64.8687C49.9673 64.79 49.5749 64.8763 49.1589 65.0618C47.9282 65.6127 46.683 66.1314 45.4172 66.5961C43.9969 67.1169 42.3416 67.8069 40.7996 67.7552C39.2465 67.7023 38.7326 65.4607 38.5619 64.2153C38.515 63.8735 37.9955 64.0191 38.042 64.3587Z" fill="#131716"/>
  <path d="M19.4204 76.886C19.4204 76.886 21.1856 68.3974 22.454 65.9574C23.3113 64.3077 26.6909 60.2115 26.6909 60.2115L23.9281 56.3374C22.0362 58.6426 20.165 61.5399 19.5213 63.334C18.3917 66.4814 17.8035 76.6566 17.8035 76.6566L17.7536 77.2756C17.7536 77.2756 17.7144 77.5251 17.6881 77.6588C17.6567 77.8189 17.5055 78.1249 17.4481 78.2777C17.35 78.5389 16.7648 79.3543 16.5417 80.7945C16.4514 81.3771 16.7728 82.2547 17.1498 82.7878C17.5915 83.4126 18.3039 83.8537 18.6454 83.6591C18.7833 83.5807 18.7069 82.6533 18.8769 81.7836C19.0653 80.8195 19.3474 80.212 19.3474 80.212C19.3474 80.212 19.5248 80.1565 19.5174 80.7141C19.5125 81.0794 19.8811 81.0599 19.9907 80.9425C20.0833 80.8431 20.2114 80.6027 20.1309 79.9126C20.0595 79.302 19.7575 78.8791 19.611 78.5512C19.5373 78.3858 19.3602 78.0619 19.3313 77.8832C19.3053 77.7211 19.3374 77.4606 19.3374 77.4606L19.4204 76.886Z" fill="white"/>
  <path d="M26.5 60.0215C25.5205 61.2097 24.5654 62.4216 23.6536 63.6627C23.1291 64.3765 22.5803 65.1043 22.1816 65.8989C21.8189 66.6224 21.5654 67.4041 21.323 68.174C20.7013 70.1493 20.2098 72.1667 19.7433 74.183C19.5013 75.2289 19.2073 76.2888 19.0818 77.3579C19.0347 77.7597 19.0885 78.0669 19.2561 78.433C19.3598 78.6597 19.4804 78.8775 19.5881 79.102C19.7358 79.41 20.1014 80.2551 19.8656 80.5782C19.7674 80.7127 19.8451 80.6622 19.7797 80.5116C19.7397 80.4197 19.7605 80.307 19.7132 80.2116C19.6674 80.1187 19.6176 80.0297 19.5182 79.982C19.3022 79.8784 19.1871 79.9894 19.0791 80.1584C18.849 80.5187 18.755 81.0738 18.6656 81.4794C18.5919 81.8135 18.544 82.1499 18.5137 82.4906C18.4953 82.6974 18.4897 82.905 18.474 83.112C18.4576 83.331 18.4887 83.3909 18.3677 83.4267C18.0825 83.511 17.5016 82.8171 17.3823 82.6526C17.1655 82.3536 17.0001 81.9943 16.9 81.641C16.6717 80.834 16.9443 79.9763 17.2743 79.2308C17.5847 78.5297 17.9503 77.9358 18.0327 77.1536C18.0695 76.8049 18.0846 76.4537 18.1074 76.1033C18.2146 74.459 18.3471 72.8158 18.5081 71.1758C18.7305 68.9094 18.9541 66.603 19.4962 64.3851C19.7838 63.2088 20.3104 62.1424 20.9191 61.0997C21.857 59.4932 22.9437 57.9707 24.1183 56.5291C24.3357 56.2628 23.9565 55.8789 23.7372 56.1485C22.6924 57.4294 21.7167 58.7707 20.8454 60.1768C20.1923 61.2302 19.5487 62.3375 19.1729 63.5258C18.5807 65.3986 18.3837 67.4246 18.1606 69.3687C17.9317 71.3645 17.7589 73.3668 17.618 75.3701C17.5884 75.7928 17.5642 76.2144 17.535 76.636C17.4811 77.4113 17.2704 78.0117 16.9297 78.7028C16.3871 79.8032 16.041 80.9929 16.5175 82.1728C16.7431 82.7317 17.0859 83.244 17.5719 83.6084C17.8602 83.8246 18.4202 84.1531 18.7811 83.8929C19.0991 83.6636 19.0132 83.0391 19.0363 82.7126C19.0677 82.2704 19.1293 81.8356 19.2369 81.4051C19.2555 81.3304 19.3074 81.2043 19.3624 81.0666C19.4002 81.125 19.449 81.1768 19.5261 81.2193C19.8203 81.3812 20.1357 81.2422 20.2955 80.9736C20.9423 79.887 19.7609 78.81 19.6074 77.8186C19.5438 77.408 19.6824 76.9429 19.7697 76.5357C20.1593 74.721 20.5808 72.9117 21.0497 71.1154C21.5888 69.0484 22.0948 66.8887 23.298 65.0957C24.393 63.4632 25.6317 61.9181 26.8813 60.4021C27.1003 60.1369 26.721 59.753 26.5 60.0215Z" fill="#131716"/>
  <path d="M41.7096 60.528C41.4712 58.488 41.2927 56.2302 41.0879 55.4819C40.8664 54.6722 41.0835 54.5384 40.5219 53.9142C39.8067 53.1195 37.8151 52.5502 36.6103 51.8979L34.3672 55.7148L31.5214 51.0169C31.4738 51.0762 31.4225 51.1323 31.3672 51.1873C30.9969 51.5518 29.6824 52.1976 29.1947 52.3788C28.23 52.7378 27.2799 52.7292 26.4474 53.3341C24.9424 54.4285 22.8176 56.9871 21.1953 59.4315C21.1967 59.4325 22.2454 60.6499 23.0175 61.107C24.0391 61.7108 25.4225 62.2273 25.4225 62.2273V62.2575C25.5202 62.1313 25.6184 62.0052 25.7119 61.8866L25.7261 62.0893C25.7261 62.0893 25.9817 65.7348 25.9248 66.7117C25.8692 67.6648 25.0999 71.6953 24.8122 73.2436L24.8473 73.2511C24.9995 73.2878 25.1581 74.3995 26.1223 74.6895C27.8499 75.2092 29.9223 73.5401 32.1575 75.3041C34.4265 77.094 36.097 74.9192 36.097 74.9192L36.1221 74.9224L38.2885 64.8388L38.302 64.8399L38.3593 64.5121L38.6375 61.0251L39.5987 61.0725L40.3415 60.9776L41.7096 60.528Z" fill="#764DEF"/>
  <path d="M33.6569 124.977H14.3965V118.672H33.6569V124.977Z" fill="#DDD1FF"/>
  <path d="M33.9265 118.672C33.9265 118.527 33.8031 118.403 33.657 118.403C28.0231 118.403 22.3892 118.403 16.7554 118.403C15.9691 118.403 15.1828 118.403 14.3965 118.403C14.2507 118.403 14.127 118.526 14.127 118.672C14.127 120.774 14.127 122.875 14.127 124.977C14.127 125.123 14.2505 125.247 14.3965 125.247C20.0304 125.247 25.6642 125.247 31.2981 125.247C32.0845 125.247 32.8706 125.247 33.657 125.247C33.7308 125.247 33.7855 125.219 33.828 125.18C33.8343 125.176 33.8409 125.172 33.8468 125.166C33.8516 125.161 33.855 125.155 33.8592 125.15C33.8985 125.107 33.9265 125.052 33.9265 124.977C33.9265 122.875 33.9265 120.774 33.9265 118.672ZM16.7554 124.707C16.0589 124.707 15.3625 124.707 14.6661 124.707C14.6661 122.786 14.6661 120.864 14.6661 118.942C20.2101 118.942 25.7542 118.942 31.2981 118.942C31.9945 118.942 32.691 118.942 33.3874 118.942C33.3874 120.864 33.3874 122.786 33.3874 124.707C27.8433 124.707 22.2994 124.707 16.7554 124.707Z" fill="#131716"/>
  <path d="M40.5172 118.88L33.6582 124.977V118.672L40.5172 112.576V118.88Z" fill="#764DEF"/>
  <path d="M40.7854 118.853C40.7854 116.761 40.7854 114.668 40.7854 112.575C40.7854 112.332 40.4956 112.233 40.3252 112.385C38.618 113.902 36.9108 115.42 35.2036 116.937C34.7853 117.309 34.3671 117.681 33.9488 118.053C33.799 118.186 33.5169 118.35 33.4241 118.536C33.3138 118.758 33.3873 119.142 33.3873 119.376C33.3873 120.049 33.3873 120.723 33.3873 121.396C33.3873 122.59 33.3873 123.783 33.3873 124.977C33.3873 125.221 33.677 125.319 33.8475 125.168C36.1319 123.137 38.4165 121.106 40.7009 119.076C40.701 119.076 40.7011 119.075 40.7013 119.075C40.703 119.074 40.7047 119.072 40.7064 119.071C40.7812 119.004 40.7987 118.926 40.7854 118.853ZM34.1894 118.559C34.5745 118.217 34.9596 117.874 35.3448 117.532C36.4266 116.57 37.5085 115.609 38.5904 114.647C39.1424 114.156 39.6943 113.666 40.2462 113.175C40.2462 115.037 40.2462 116.898 40.2462 118.76C38.1397 120.632 36.0331 122.505 33.9264 124.377C33.9264 123.608 33.9264 122.839 33.9264 122.07C33.9264 121.354 33.9264 120.638 33.9264 119.922C33.9264 119.677 33.9264 119.432 33.9264 119.186C33.9264 119.119 33.9563 118.908 33.9422 118.79C34.0266 118.741 34.1315 118.61 34.1894 118.559Z" fill="#131716"/>
  <path d="M33.6569 118.672H14.3965L21.2554 112.576H40.5159L33.6569 118.672Z" fill="white"/>
  <path d="M40.516 112.306C36.529 112.306 32.542 112.306 28.5549 112.306C26.4002 112.306 24.2453 112.306 22.0905 112.306C21.7728 112.306 21.3461 112.226 21.0631 112.387C20.4795 112.718 19.9454 113.38 19.447 113.823C17.7 115.376 15.953 116.929 14.206 118.482C14.0276 118.64 14.1723 118.942 14.3966 118.942C20.0305 118.942 25.6643 118.942 31.2982 118.942C32.0845 118.942 32.8707 118.942 33.657 118.942C33.7354 118.942 33.7936 118.912 33.8367 118.869C33.8401 118.867 33.8441 118.866 33.8477 118.863C36.1339 116.831 38.4203 114.798 40.7066 112.766C40.885 112.608 40.7403 112.306 40.516 112.306ZM16.7554 118.403C16.2052 118.403 15.655 118.403 15.1049 118.403C16.4202 117.234 17.7355 116.064 19.0509 114.895C19.7839 114.244 20.5733 113.623 21.2648 112.927C21.2904 112.902 21.321 112.879 21.3507 112.855C21.4852 112.883 21.7028 112.845 21.8192 112.845C26.453 112.845 31.0866 112.845 35.7204 112.845C37.0828 112.845 38.4452 112.845 39.8077 112.845C37.7236 114.698 35.6395 116.55 33.5552 118.403C27.9553 118.403 22.3553 118.403 16.7554 118.403Z" fill="#131716"/>
  <path d="M124.91 124.977H44.0889V107.629H124.91V124.977Z" fill="#DDD1FF"/>
  <path d="M124.91 107.359C122.223 107.359 119.535 107.359 116.847 107.359C110.395 107.359 103.944 107.359 97.4918 107.359C89.7372 107.359 81.9836 107.359 74.229 107.359C67.489 107.359 60.75 107.359 54.0111 107.359C51.7932 107.359 49.5753 107.359 47.3582 107.359C46.3237 107.359 45.2644 107.293 44.2314 107.359C44.1843 107.362 44.1361 107.359 44.0889 107.359C43.9432 107.359 43.8193 107.483 43.8193 107.629C43.8193 112.685 43.8193 117.742 43.8193 122.798C43.8193 123.524 43.8193 124.25 43.8193 124.977C43.8193 125.123 43.9428 125.246 44.0889 125.246C46.7767 125.246 49.4642 125.246 52.1522 125.246C58.6044 125.246 65.0554 125.246 71.5075 125.246C79.2622 125.246 87.0157 125.246 94.7704 125.246C101.51 125.246 108.249 125.246 114.988 125.246C117.206 125.246 119.424 125.246 121.641 125.246C122.676 125.246 123.735 125.313 124.768 125.246C124.815 125.243 124.864 125.246 124.91 125.246C124.985 125.246 125.04 125.219 125.082 125.18C125.088 125.176 125.095 125.172 125.101 125.166C125.105 125.161 125.109 125.155 125.113 125.15C125.152 125.107 125.18 125.052 125.18 124.977C125.18 119.921 125.18 114.864 125.18 109.808C125.18 109.082 125.18 108.355 125.18 107.629C125.18 107.483 125.057 107.359 124.91 107.359ZM116.847 124.707C110.395 124.707 103.944 124.707 97.4918 124.707C89.7372 124.707 81.9836 124.707 74.229 124.707C67.489 124.707 60.75 124.707 54.0111 124.707C51.7932 124.707 49.5753 124.707 47.3582 124.707C46.6758 124.707 45.9934 124.707 45.3109 124.707C45.0261 124.707 44.6596 124.654 44.3585 124.691C44.3585 119.73 44.3585 114.769 44.3585 109.808C44.3585 109.172 44.3585 108.535 44.3585 107.898C46.9564 107.898 49.5548 107.898 52.1522 107.898C58.6044 107.898 65.0554 107.898 71.5075 107.898C79.2622 107.898 87.0157 107.898 94.7704 107.898C101.51 107.898 108.249 107.898 114.988 107.898C117.206 107.898 119.424 107.898 121.641 107.898C122.323 107.898 123.006 107.898 123.689 107.898C123.973 107.898 124.34 107.952 124.641 107.915C124.641 112.876 124.641 117.837 124.641 122.798C124.641 123.434 124.641 124.071 124.641 124.707C122.043 124.707 119.445 124.707 116.847 124.707Z" fill="#131716"/>
  <path d="M131.769 118.88L124.909 124.977V107.629L131.769 101.532V118.88Z" fill="#764DEF"/>
  <path d="M132.038 118.853C132.038 113.806 132.038 108.759 132.038 103.711C132.038 102.985 132.038 102.259 132.038 101.532C132.038 101.288 131.748 101.19 131.578 101.342C130.203 102.564 128.828 103.786 127.454 105.008C126.673 105.701 125.893 106.395 125.113 107.088C124.847 107.324 124.66 107.434 124.639 107.79C124.546 109.419 124.639 111.082 124.639 112.713C124.639 115.249 124.639 117.784 124.639 120.32C124.639 121.872 124.639 123.425 124.639 124.977C124.639 125.221 124.929 125.319 125.1 125.168C127.385 123.137 129.669 121.106 131.953 119.076C131.954 119.076 131.954 119.075 131.954 119.075C131.955 119.074 131.957 119.072 131.958 119.071C132.034 119.004 132.051 118.926 132.038 118.853ZM127.212 105.942C128.641 104.672 130.069 103.402 131.499 102.132C131.499 106.988 131.499 111.845 131.499 116.701C131.499 117.387 131.499 118.074 131.499 118.76C129.392 120.632 127.285 122.505 125.178 124.377C125.178 120.869 125.178 117.36 125.178 113.852C125.178 111.966 125.178 110.08 125.178 108.195C125.178 108.085 125.215 107.874 125.19 107.743C125.21 107.723 125.228 107.702 125.247 107.688C125.95 107.205 126.575 106.508 127.212 105.942Z" fill="#131716"/>
  <path d="M124.91 107.629H44.0889L50.9478 101.533H131.77L124.91 107.629Z" fill="white"/>
  <path d="M131.77 101.263C128.462 101.263 125.155 101.263 121.848 101.263C114.23 101.263 106.613 101.263 98.996 101.263C90.4069 101.263 81.8187 101.263 73.2306 101.263C66.9898 101.263 60.7501 101.263 54.5093 101.263C53.7233 101.263 52.9373 101.263 52.1512 101.263C51.7889 101.263 51.3835 101.212 51.0234 101.263C50.8994 101.28 50.8218 101.308 50.7107 101.383C50.2233 101.716 49.791 102.201 49.3511 102.592C47.8478 103.928 46.3448 105.264 44.842 106.6C44.5275 106.879 44.2129 107.159 43.8983 107.439C43.72 107.597 43.8647 107.899 44.089 107.899C46.7768 107.899 49.4643 107.899 52.1523 107.899C58.6044 107.899 65.0555 107.899 71.5076 107.899C79.2623 107.899 87.0158 107.899 94.7705 107.899C101.51 107.899 108.249 107.899 114.988 107.899C117.206 107.899 119.424 107.899 121.641 107.899C122.676 107.899 123.735 107.965 124.768 107.899C124.815 107.896 124.864 107.899 124.91 107.899C124.989 107.899 125.047 107.869 125.09 107.826C125.094 107.823 125.098 107.823 125.101 107.82C127.388 105.788 129.674 103.755 131.96 101.723C132.139 101.565 131.994 101.263 131.77 101.263ZM116.847 107.36C110.395 107.36 103.944 107.36 97.4919 107.36C89.7373 107.36 81.9837 107.36 74.2291 107.36C67.4891 107.36 60.7501 107.36 54.0112 107.36C51.7932 107.36 49.5753 107.36 47.3583 107.36C46.6759 107.36 45.9935 107.36 45.3109 107.36C45.1655 107.36 44.9963 107.344 44.8259 107.334C45.7038 106.554 46.5816 105.774 47.4595 104.993C48.2443 104.296 49.0289 103.598 49.8136 102.901C50.0886 102.656 50.3646 102.411 50.6396 102.166C50.742 102.076 50.977 101.932 51.0633 101.802C51.0687 101.802 51.073 101.801 51.0784 101.802C51.2142 101.833 51.3943 101.802 51.5334 101.802C52.1588 101.802 52.7841 101.802 53.4084 101.802C59.1576 101.802 64.9067 101.802 70.6558 101.802C79.1253 101.802 87.5948 101.802 96.0643 101.802C103.957 101.802 111.85 101.802 119.742 101.802C122.4 101.802 125.059 101.802 127.717 101.802C128.564 101.802 129.413 101.802 130.26 101.802C130.498 101.802 130.764 101.825 131.026 101.833C128.954 103.675 126.881 105.517 124.809 107.36C122.155 107.36 119.501 107.36 116.847 107.36Z" fill="#131716"/>
  <path d="M57.6079 103.947C57.4667 103.591 56.9858 103.443 56.6569 103.333C56.1415 103.161 55.6002 103.068 55.0935 102.868C53.7694 102.345 52.5596 101.812 51.8146 100.538C51.6593 100.273 51.2776 100.455 51.3143 100.709L48.8572 101.027C48.8564 100.722 48.3611 100.734 48.321 101.062C48.2315 101.789 48.073 102.504 47.8309 103.197C47.7036 103.561 47.5095 103.923 47.4274 104.301C47.3721 104.556 47.4018 104.789 47.625 104.948C48.1077 105.293 48.9039 105.361 49.4651 105.479C49.5762 105.503 49.7142 105.465 49.7692 105.355C49.8295 105.233 49.891 105.111 49.9514 104.989C52.0679 105.469 54.1608 106.705 56.3722 105.969C56.8607 105.806 57.361 105.669 57.5777 105.147C57.7168 104.813 57.7438 104.29 57.6079 103.947Z" fill="#131716"/>
  <path d="M29.76 113.87C29.6176 113.516 29.1349 113.37 28.806 113.263C28.301 113.1 27.772 113.013 27.2744 112.826C25.9363 112.325 24.697 111.783 23.938 110.511C23.7804 110.247 23.3979 110.431 23.4377 110.684L20.984 111.024C20.9781 110.721 20.4856 110.734 20.4483 111.061C20.3651 111.79 20.2135 112.505 19.9772 113.2C19.853 113.566 19.6627 113.929 19.5834 114.308C19.53 114.563 19.56 114.796 19.784 114.955C20.2673 115.297 21.0676 115.357 21.6281 115.47C21.7384 115.492 21.8784 115.457 21.9325 115.346C21.9926 115.223 22.0526 115.099 22.1127 114.976C24.2317 115.438 26.3363 116.656 28.5392 115.901C29.0263 115.735 29.5265 115.594 29.7394 115.071C29.8762 114.735 29.8982 114.214 29.76 113.87Z" fill="#131716"/>
  <path d="M24.2718 111.645C24.2547 111.666 24.2348 111.684 24.2136 111.701C24.2318 111.687 24.2499 111.673 24.2681 111.658C24.1643 111.738 24.0408 111.792 23.921 111.842C23.9426 111.833 23.9639 111.824 23.9855 111.815C23.8545 111.87 23.7211 111.919 23.5877 111.968C23.5207 111.992 23.4637 112.028 23.4266 112.091C23.3928 112.149 23.3786 112.234 23.3994 112.299C23.4414 112.429 23.5892 112.539 23.731 112.487C23.907 112.423 24.0823 112.358 24.2538 112.282C24.3259 112.25 24.3974 112.216 24.465 112.175C24.5323 112.134 24.6033 112.088 24.653 112.026C24.6994 111.969 24.732 111.912 24.732 111.836C24.732 111.769 24.7025 111.69 24.653 111.645C24.6016 111.598 24.5342 111.563 24.4624 111.566C24.3953 111.569 24.3159 111.59 24.2718 111.645Z" fill="white"/>
  <path d="M25.4406 112.383C25.4237 112.404 25.4036 112.422 25.3825 112.439C25.4007 112.425 25.4188 112.411 25.4369 112.397C25.3331 112.476 25.2096 112.53 25.09 112.581C25.1114 112.572 25.1329 112.563 25.1543 112.553C25.0233 112.608 24.8901 112.657 24.7567 112.706C24.6895 112.73 24.6327 112.766 24.5956 112.83C24.5617 112.887 24.5474 112.973 24.5684 113.037C24.6104 113.167 24.7582 113.277 24.9 113.226C25.076 113.161 25.2513 113.096 25.4226 113.02C25.4947 112.988 25.5662 112.954 25.6338 112.913C25.7011 112.873 25.7722 112.826 25.8219 112.765C25.8683 112.707 25.9009 112.651 25.9009 112.574C25.9009 112.508 25.8715 112.429 25.8219 112.383C25.7706 112.336 25.7031 112.301 25.6314 112.304C25.5642 112.307 25.4848 112.329 25.4406 112.383Z" fill="white"/>
  <path d="M52.1114 100.193C51.4871 95.7546 50.8002 91.2983 49.805 86.9265C49.5721 85.9032 49.336 84.8617 48.9581 83.8804C48.6809 83.1614 48.3134 82.7807 47.6728 82.3463C45.2818 80.7246 42.4442 79.667 39.775 78.6042C38.4089 78.0603 37.032 77.5418 35.65 77.0373L36.108 74.9195L36.0976 74.9184C36.0976 74.9184 34.4271 77.0932 32.1581 75.3034C29.9229 73.5394 27.8505 75.2085 26.1229 74.6888C25.4963 74.5012 25.212 73.9685 25.0464 73.6062C25.059 73.5448 25.0718 73.4822 25.0842 73.4197C25.4578 71.5565 25.8227 69.6847 26.0773 67.801C26.3326 65.9109 26.1285 63.983 25.9963 62.0886C25.9721 61.7446 25.4329 61.7414 25.4572 62.0886C25.578 63.8191 25.7976 65.6165 25.5963 67.3471C25.3694 69.2976 24.9729 71.2363 24.5877 73.1609C24.25 74.8494 23.9243 76.5509 23.7598 78.266C23.6583 79.3262 23.7525 80.3385 24.001 81.3757C24.2174 82.2787 24.5347 82.9568 25.117 83.5303C25.3096 86.9499 25.4268 90.4266 25.143 93.8419C25.07 94.7203 24.9985 95.6603 24.6443 96.4782C24.1298 97.6662 23.2968 98.6926 22.7963 99.8875C22.4622 100.685 22.2901 101.565 22.0967 102.404C21.8388 103.523 21.6079 104.649 21.3851 105.775C21.0615 107.412 20.7551 109.052 20.4699 110.696C20.4462 110.833 20.505 110.994 20.6582 111.027C21.2992 111.167 22.0504 111.481 22.7024 111.344C23.2693 111.226 23.8822 111.25 24.1735 110.72C25.1352 108.971 26.0804 107.213 27.009 105.446C28.2085 103.163 29.4227 100.871 30.4392 98.4997C31.3365 96.4062 31.8705 94.1558 32.4357 91.9558C32.9304 90.0298 33.4008 88.097 33.8479 86.1592C35.4338 86.4518 37.0177 86.755 38.5952 87.0893C39.5665 87.2951 40.5373 87.5081 41.4982 87.7588C41.9583 87.8789 42.6956 87.9661 43.0751 88.2798C43.3005 88.4661 43.4459 88.9906 43.556 89.3049C43.7819 89.9504 43.9693 90.609 44.1617 91.265C44.4504 92.2498 44.789 93.1899 45.2084 94.127C46.1812 96.3008 47.2865 98.4188 48.4077 100.519C48.4722 100.64 48.5383 100.848 48.6575 100.931C48.9223 101.115 49.5053 101.034 49.8093 101.055C50.1522 101.077 50.3883 101.111 50.7053 100.996C51.114 100.849 51.5173 100.682 51.9227 100.525C52.0725 100.467 52.134 100.351 52.1114 100.193Z" fill="#131716"/>
  <path d="M39.1831 46.2755C39.1245 45.9596 38.3286 45.4474 38.247 45.1401C38.0024 44.2204 38.0501 43.2457 37.5141 43.0247C36.5002 42.6074 34.6222 42.3249 33.9295 42.5211C33.1173 42.7519 31.953 43.1508 31.6413 44.8727C31.5095 45.6016 31.7325 46.6885 31.8778 47.205C32.1018 48.0007 32.2924 48.3576 32.1285 49.3798C31.9978 50.196 31.9558 50.6068 31.3672 51.1869L31.71 51.3238L34.3672 55.7144L36.5103 52.1228L36.0024 51.4974C35.608 51.1588 36.4354 49.369 36.4354 49.369L36.5103 49.3862C37.2579 49.5534 38.1014 49.5684 38.4254 49.4045C38.89 49.2762 38.9701 48.1344 38.8037 46.8287C38.7751 46.6044 39.2255 46.5052 39.1831 46.2755Z" fill="white"/>
  <path d="M32.3881 49.4523C32.4513 49.0264 32.485 48.6091 32.4157 48.1821C32.3536 47.8004 32.2176 47.436 32.118 47.0629C31.9067 46.2726 31.7565 45.3981 31.9803 44.5959C32.3399 43.3064 33.5712 42.6691 34.8455 42.736C35.637 42.778 36.4447 42.9301 37.1937 43.191C37.5748 43.3247 37.66 43.5684 37.7404 43.9436C37.8325 44.3716 37.8403 44.8536 38.0052 45.2623C38.1145 45.5329 38.362 45.7302 38.5668 45.9275C38.6286 45.9868 38.921 46.2111 38.9086 46.306C38.9075 46.3146 38.6519 46.5012 38.6154 46.5562C38.5253 46.6942 38.5377 46.8095 38.5506 46.968C38.5723 47.2333 38.6026 47.4974 38.6102 47.7638C38.6213 48.1519 38.6468 48.6361 38.4708 48.9962C38.3522 49.2377 38.0413 49.2399 37.801 49.2485C37.3992 49.2614 36.9935 49.2172 36.6013 49.131C35.8724 48.9703 35.3074 48.6716 35.0775 47.9147C34.9769 47.5837 34.4564 47.725 34.5576 48.0581C34.7665 48.745 35.2161 49.2366 35.8862 49.4857C36.595 49.7499 37.4847 49.8879 38.2349 49.7434C39.0227 49.5924 39.1322 48.8215 39.1505 48.1261C39.1578 47.8533 39.1455 47.5805 39.1232 47.3088C39.1143 47.1999 39.0355 46.9217 39.0729 46.8289C39.0535 46.8775 39.1614 46.7686 39.1888 46.7448C39.4589 46.5098 39.5273 46.2553 39.316 45.947C39.1019 45.6353 38.7078 45.4369 38.5272 45.1081C38.4128 44.8989 38.3992 44.5841 38.3592 44.3522C38.3162 44.101 38.2806 43.8476 38.2137 43.6029C38.1138 43.2352 37.9435 42.9236 37.5854 42.7651C37.1823 42.5872 36.7364 42.4837 36.3068 42.3953C34.8765 42.0987 33.2225 42.0243 32.1394 43.1964C31.4116 43.9835 31.2526 45.0703 31.3832 46.099C31.5223 47.1934 32.0342 48.1907 31.8682 49.3089C31.8179 49.6485 32.3372 49.7952 32.3881 49.4523Z" fill="#131716"/>
  <path d="M32.2316 48.5379C32.1519 48.5649 30.9874 45.1782 30.9104 44.8568C30.7007 43.9824 30.2902 41.8852 31.1269 41.0863C31.5751 40.6593 33.0741 40.2021 34.9105 40.931C35.6799 41.2372 37.2259 40.9396 38.5329 41.6847C40.0603 42.5559 40.3946 45.4822 34.7815 43.9522C34.7815 43.9522 35.4756 45.4607 34.5976 45.3485C34.2717 45.3075 33.5956 44.8396 33.342 44.9701C32.9646 45.1641 33.7614 48.0107 32.2316 48.5379Z" fill="#131716"/>
  <path d="M87.7803 103.415C87.5592 103.09 87.3091 102.784 87.0525 102.486C86.9619 102.38 86.8703 102.274 86.7754 102.172C86.7581 102.153 86.7398 102.134 86.7225 102.114C86.3807 101.565 86.0864 100.98 85.7705 100.416C85.7413 100.364 85.7036 100.257 85.6583 100.196C85.6605 100.141 85.6508 100.074 85.6486 100.031C85.6368 99.7232 85.6249 99.415 85.613 99.1068C85.6033 98.8604 85.3295 98.7922 85.1753 98.8971L82.829 98.8957L82.8183 99.0458C82.6867 99.0508 82.5519 99.1355 82.5379 99.3024C82.4905 99.8441 82.4441 100.386 82.3967 100.928C82.3783 101.137 82.3341 101.362 82.3417 101.571C82.3481 101.768 82.4193 101.975 82.4603 102.166C82.5185 102.431 82.5325 102.789 82.649 103.034C82.6479 103.039 82.6468 103.04 82.6457 103.046C82.6177 103.202 82.6048 103.363 82.5886 103.521C82.5487 103.902 82.512 104.296 82.5552 104.679C82.6015 105.087 82.8398 105.408 83.1105 105.707C83.4048 106.032 83.7488 106.333 84.1725 106.468C84.6071 106.607 85.0933 106.647 85.5473 106.646C85.9829 106.646 86.3732 106.575 86.7711 106.394C87.1646 106.214 87.6455 105.955 87.8859 105.577C88.1016 105.239 88.1695 104.754 88.1544 104.36C88.1404 104 87.9798 103.708 87.7803 103.415Z" fill="#131716"/>
  <path d="M68.8104 100.712C68.736 100.037 68.778 99.3457 68.7791 98.6668C68.7802 98.4934 68.6454 98.4065 68.5106 98.4065C68.5106 98.4063 68.5106 98.4045 68.5106 98.4045L66.2032 98.4649C66.2377 98.4232 66.2733 98.3812 66.3067 98.3398C66.5267 98.074 66.1472 97.6906 65.9261 97.9585C65.0894 98.973 64.2182 100.041 63.0925 100.74C62.2666 101.252 61.3857 101.716 60.6406 102.346C60.3323 102.606 60.1123 102.892 60.0476 103.3C59.9905 103.665 60.1252 103.962 60.2719 104.285C60.5026 104.79 60.8714 104.956 61.4073 105.031C61.8472 105.092 62.3205 105.164 62.7637 105.114C63.2273 105.062 63.6802 104.918 64.1169 104.759C64.4964 104.621 64.9126 104.48 65.2619 104.273C65.6199 104.062 65.9067 103.713 66.1903 103.416C66.3757 103.222 66.5612 103.028 66.7564 102.844C66.8426 102.762 66.9289 102.681 67.0205 102.606C67.124 102.523 67.0173 102.495 67.1629 102.61C67.5198 102.895 67.6761 102.83 68.0319 102.547C68.2885 102.342 68.7414 102.042 68.8923 101.727C69.0142 101.472 68.8384 100.969 68.8104 100.712Z" fill="#131716"/>
  <path d="M92.197 66.5073C92.1647 66.3477 92.0622 66.0221 92.0568 65.8592C92.0515 65.7223 92.0515 65.47 92.0515 65.47L90.4578 65.4064C90.4578 65.4064 90.4492 65.6684 90.3985 65.8247C90.3425 65.9962 90.1171 66.2895 90.0179 66.4404C89.8227 66.7423 89.4583 67.1132 89.2923 67.7052C89.1057 68.3737 89.1952 68.6314 89.2707 68.7435C89.3602 68.8772 89.7214 68.9538 89.7742 68.5926C89.8529 68.0405 90.0201 68.1224 90.0201 68.1224C90.0201 68.1224 90.2044 68.7662 90.24 69.7484C90.2724 70.6337 90.0524 71.5383 90.1764 71.6375C90.4837 71.8822 91.2557 71.5577 91.7894 71.0089C92.2455 70.5409 92.6995 69.7247 92.7006 69.1349C92.7049 67.6771 92.2531 66.7811 92.197 66.5073Z" fill="white"/>
  <path d="M90.4268 71.4524C90.4257 71.4423 90.4224 71.4355 90.4167 71.4321C90.4145 71.44 90.4134 71.449 90.4111 71.4546C90.4167 71.4535 90.4201 71.4535 90.4268 71.4524Z" fill="#131716"/>
  <path d="M92.7602 67.4159C92.5931 66.755 92.3214 66.1663 92.3214 65.4708C92.3214 65.1236 91.7823 65.1236 91.7823 65.4708C91.7823 66.3528 92.1726 67.114 92.33 67.968C92.4583 68.6581 92.5069 69.3416 92.1823 69.9821C91.8847 70.5708 91.406 71.0992 90.7882 71.3763C90.3763 71.5617 90.4248 71.1887 90.4313 71.1197C90.4496 70.9266 90.4712 70.7336 90.4863 70.5396C90.5412 69.8452 90.496 69.1476 90.3709 68.4629C90.3288 68.2365 90.3094 67.8537 90 67.8494C89.8458 67.8472 89.7239 67.9507 89.6485 68.0758C89.587 68.1772 89.5579 68.2979 89.5331 68.4122C89.5169 68.4812 89.5169 68.6063 89.49 68.5869C89.3595 68.4952 89.4964 67.9971 89.5223 67.8914C89.6129 67.5324 89.7822 67.2272 89.9967 66.9297C90.345 66.4488 90.7019 66.0239 90.7278 65.4072C90.7429 65.06 90.2038 65.0611 90.1887 65.4072C90.1682 65.9107 89.7897 66.2967 89.5083 66.6903C89.1589 67.1776 88.8937 67.7933 88.9131 68.4047C88.9239 68.7486 89.077 69.0883 89.4619 69.1206C89.6388 69.1357 89.7983 69.0645 89.9062 68.9341C89.9795 69.4667 89.9892 70.0134 89.9471 70.5396C89.9213 70.8749 89.7854 71.3342 89.8922 71.6663C89.9946 71.9844 90.3946 72.0178 90.6739 71.9671C91.5861 71.8 92.3128 70.9655 92.6912 70.1665C93.1031 69.2964 92.991 68.326 92.7602 67.4159Z" fill="#131716"/>
  <path d="M75.9097 43.5188L78.6635 38.9126C78.7066 38.9525 78.7509 38.9902 78.7972 39.0236C80.186 40.0436 83.9609 40.104 85.3701 41.0949C87.6258 42.6821 90.5316 47.5718 92.0465 49.876C92.4562 50.5003 93.2531 51.778 93.5097 52.4789C93.8073 53.2897 93.8331 54.8823 93.8482 55.747C93.8881 58.1018 92.701 65.1815 92.701 65.1815C92.701 65.1815 91.8406 65.4004 91.5797 65.4004C91.2077 65.4004 90.2297 65.0856 90.2297 65.0856L89.7693 55.2542L84.542 48.3061C84.542 48.3061 83.8412 54.2267 83.8358 56.2106C83.8347 56.877 83.9889 58.448 84.087 59.3709L84.1647 60.0826C84.1647 60.0826 79.3514 60.7209 77.1961 60.8815C75.472 61.0098 70.4215 60.1311 70.4215 60.1311L70.5196 59.3591C70.6501 58.3035 70.8647 56.4522 70.8647 55.6737C70.8647 54.2536 70.2997 50.0227 70.2997 50.0227C70.2997 50.0227 68.4538 55.8268 67.2181 57.3978C66.6844 58.076 65.1695 58.9925 64.4319 59.4432C62.5429 60.598 56.5102 63.4078 56.5102 63.4078C56.5102 63.4078 56.5436 62.3415 56.4175 62.018C56.2687 61.6406 55.3975 60.7586 55.3975 60.7586C55.3975 60.7586 62.4189 56.5406 63.9489 54.3507C65.4627 52.1834 65.9264 46.6424 66.9917 44.2229C67.2095 43.7269 67.8737 42.8352 68.2856 42.4837C69.2053 41.6998 72.8098 40.8556 73.5344 39.8873C73.5646 39.8463 73.584 39.7913 73.5937 39.7256L75.9097 43.5188Z" fill="#DDD1FF"/>
  <path d="M77.6903 36.9446C77.5512 35.9181 77.8024 35.9062 77.9092 35.0857C77.9782 34.5531 78.0429 33.4468 77.8078 32.7438C77.2504 31.0855 76.0406 30.858 75.2039 30.7469C74.4901 30.652 72.6722 31.203 71.7298 31.7615C71.2306 32.057 71.4182 33.0144 71.3093 33.9611C71.2727 34.276 70.5589 34.8981 70.547 35.2194C70.5373 35.4534 70.9977 35.4857 71.002 35.7111C71.0247 37.0276 71.2694 38.1457 71.7471 38.2061C72.0932 38.3215 72.9332 38.1835 73.6523 37.9074L73.6782 37.9689C73.6782 37.9689 74.3036 39.1625 73.9931 39.5787L73.7655 39.927L75.9091 43.5186L78.5658 39.1291L78.6607 38.9134C77.8671 38.2137 77.6903 36.9446 77.6903 36.9446Z" fill="white"/>
  <path d="M73.9108 37.8328C73.7523 37.5234 73.2865 37.7962 73.445 38.1045C73.6132 38.4312 73.9539 39.089 73.7523 39.448C73.5668 39.7779 72.9759 40.0044 72.6622 40.1618C71.6217 40.6826 70.523 41.0751 69.4587 41.543C68.5207 41.957 67.8878 42.3937 67.2764 43.2391C66.6176 44.1469 66.3265 45.2058 66.0591 46.2829C65.4499 48.737 65.2138 51.5199 63.9878 53.7691C63.5619 54.5508 62.8891 55.1524 62.2173 55.7207C61.3429 56.4603 60.4135 57.1353 59.4732 57.7898C58.1007 58.7462 56.6946 59.6627 55.2606 60.5253C55.1107 60.6148 55.0838 60.8229 55.2056 60.9479C55.5118 61.2595 55.9205 61.6207 56.1103 62.0154C56.3054 62.4197 56.2515 62.9653 56.2396 63.4074C56.2332 63.6273 56.4693 63.7222 56.645 63.6403C58.9891 62.548 61.3386 61.4439 63.6147 60.2147C64.9226 59.5096 66.5216 58.7171 67.45 57.5332C68.3374 56.401 68.8366 54.8861 69.3434 53.5588C69.6399 52.7814 69.9181 51.9954 70.1855 51.2072C70.3548 52.5162 70.5068 53.8316 70.5769 55.146C70.6642 56.8 70.3677 58.495 70.151 60.1306C70.1046 60.4735 70.6448 60.4703 70.6901 60.1306C70.9068 58.495 71.2033 56.8 71.116 55.146C71.0243 53.4337 70.7947 51.7215 70.5682 50.0222C70.5305 49.7343 70.138 49.6405 70.0388 49.95C69.7531 50.846 69.4436 51.7355 69.1213 52.6186C68.5918 54.0645 68.0635 55.587 67.2376 56.8959C66.4419 58.1564 64.7911 58.9586 63.508 59.6605C62.1451 60.4045 60.7466 61.0838 59.3493 61.7598C58.4985 62.1706 57.6456 62.575 56.7906 62.9761C56.7992 62.5847 56.7831 62.1717 56.6278 61.8375C56.4521 61.4612 56.1318 61.1183 55.8256 60.8078C57.0246 60.0778 58.2042 59.3144 59.3622 58.5208C61 57.3973 62.9441 56.1908 64.129 54.5583C64.7911 53.6461 65.1253 52.5011 65.4175 51.4282C65.7906 50.0578 66.0623 48.6626 66.3782 47.2781C66.6489 46.0856 66.8915 44.7702 67.5826 43.7394C67.9126 43.2466 68.2845 42.7603 68.8032 42.4595C69.3013 42.1716 69.8458 41.9549 70.3752 41.7349C71.5128 41.2616 72.8034 40.8616 73.8008 40.1187C74.6235 39.5062 74.3259 38.6415 73.9108 37.8328Z" fill="#131716"/>
  <path d="M93.952 53.182C93.7428 51.8687 92.9179 50.7225 92.2063 49.6303C91.499 48.5456 90.8122 47.4469 90.0951 46.3676C89.2703 45.1276 88.4163 43.8995 87.4567 42.7576C86.7375 41.9026 85.9278 40.9742 84.8754 40.5311C83.4716 39.9381 81.9017 39.8227 80.4407 39.4227C79.7398 39.2308 78.9947 38.9989 78.544 38.3876C78.226 37.9552 78.0297 37.4032 77.9499 36.8727C77.8993 36.5309 77.3796 36.6764 77.4302 37.0161C77.579 38.0156 78.116 39.013 79.0357 39.4831C80.2379 40.0966 81.6623 40.2421 82.9648 40.5333C83.6408 40.6842 84.3557 40.8362 84.9703 41.1683C85.5116 41.4605 85.9687 41.9242 86.3892 42.3673C87.5095 43.5458 88.453 44.8925 89.3609 46.2382C90.162 47.4275 90.9211 48.6437 91.7038 49.8459C92.5621 51.1646 93.3751 52.3949 93.5077 53.9971C93.7137 56.5148 93.3514 59.0184 92.9967 61.507C92.8392 62.6068 92.671 63.7044 92.491 64.801C92.4866 64.8301 92.4694 64.8873 92.4554 64.9444C92.34 64.9617 92.1556 65.0339 92.0899 65.0479C91.5227 65.1665 91.0224 65.0468 90.4898 64.8829C90.3636 62.2025 90.2385 59.522 90.1124 56.8415C90.0844 56.2291 90.2159 55.4279 89.8461 54.9125C88.9878 53.7146 88.0724 52.5534 87.1861 51.3759C86.3817 50.3074 85.5784 49.2389 84.7741 48.1704C84.608 47.9493 84.304 48.0324 84.2716 48.3062C84.0441 50.2341 83.836 52.1663 83.6807 54.1017C83.519 56.1234 83.6656 58.0685 83.8942 60.0827C83.933 60.4234 84.4722 60.4266 84.4333 60.0827C84.2048 58.0685 84.0581 56.1234 84.2199 54.1017C84.3568 52.4003 84.5368 50.702 84.7331 49.006C86.1995 50.9565 87.6669 52.906 89.1333 54.8554C89.2336 54.9891 89.3339 55.1746 89.4579 55.2878C89.4827 55.3093 89.4902 55.3147 89.5032 55.3233C89.5528 55.7083 89.5398 56.1137 89.5571 56.5008C89.6358 58.1656 89.7134 59.8314 89.7911 61.4962C89.8471 62.692 89.9032 63.8888 89.9593 65.0857C89.9657 65.2086 90.0401 65.3078 90.1577 65.3455C90.5771 65.4792 91.0321 65.6409 91.4742 65.6636C91.9066 65.6862 92.3551 65.5461 92.7724 65.4415C92.8554 65.421 92.946 65.3423 92.96 65.2539C93.2393 63.588 93.4883 61.9178 93.7094 60.2444C94.0167 57.9165 94.3261 55.5228 93.952 53.182Z" fill="#131716"/>
  <path d="M74.8526 36.2114C74.7481 36.9014 74.3674 37.3058 73.7453 37.5796C73.2278 37.8071 72.4385 38.1047 71.8638 37.9592C71.6169 37.8966 71.5425 37.6282 71.4767 37.4039C71.3355 36.923 71.2945 36.413 71.2772 35.9138C71.2654 35.5925 71.1985 35.3531 70.874 35.2172C70.7651 35.1719 70.819 35.2291 70.8211 35.2162C70.8255 35.1666 70.874 35.1083 70.8988 35.0674C71.0034 34.8948 71.1403 34.7428 71.2611 34.5832C71.4476 34.3396 71.563 34.1401 71.5921 33.8317C71.6363 33.3551 71.5802 32.857 71.6708 32.3858C71.7452 31.9987 72.0277 31.892 72.3555 31.7399C72.7652 31.5491 73.1922 31.3971 73.6245 31.2698C74.2488 31.0844 74.8645 30.9442 75.5114 31.065C76.1109 31.1782 76.6695 31.4186 77.0641 31.9028C77.7003 32.6823 77.7509 33.7066 77.6819 34.6673C77.655 35.0382 77.5816 35.3833 77.4824 35.7402C77.3714 36.1434 77.3703 36.5294 77.421 36.9446C77.463 37.2842 78.0032 37.2885 77.9601 36.9446C77.9073 36.5165 77.9256 36.1639 78.041 35.7531C78.151 35.366 78.2027 34.9714 78.2275 34.5692C78.2857 33.5945 78.1984 32.5928 77.6302 31.7669C77.1978 31.1383 76.5595 30.7458 75.8209 30.5798C75.1017 30.418 74.444 30.4892 73.7334 30.6779C73.2666 30.803 72.8072 30.9625 72.3619 31.1512C72.0137 31.2989 71.55 31.4542 71.329 31.782C71.081 32.1475 71.0961 32.6543 71.0853 33.0759C71.0788 33.3368 71.1069 33.6301 71.0465 33.8856C71.0001 34.0808 70.8502 34.2404 70.7284 34.3967C70.5451 34.6328 70.2551 34.9315 70.282 35.255C70.296 35.421 70.3866 35.5299 70.516 35.6259C70.5645 35.6615 70.6583 35.6917 70.695 35.7369C70.7705 35.8329 70.7424 36.0475 70.7511 36.1779C70.791 36.8281 70.8276 38.1047 71.5479 38.425C72.2336 38.7312 73.2633 38.3646 73.9006 38.095C74.6834 37.7651 75.2408 37.226 75.3724 36.3537C75.4241 36.0151 74.9044 35.8685 74.8526 36.2114Z" fill="#131716"/>
  <path d="M77.7511 36.455C77.8342 36.4712 78.4983 32.9519 78.5275 32.623C78.6094 31.727 78.7129 29.5921 77.7705 28.9225C77.2648 28.5645 76.1478 28.1699 75.4157 29.5781C75.4157 29.5781 74.3148 28.0384 73.0608 29.5651C71.8058 31.093 70.3361 29.8412 69.9868 29.4929C69.9868 29.4929 69.2331 34.608 74.5671 32.2855C74.5671 32.2855 74.097 33.8781 74.9499 33.6408C75.2669 33.5524 75.8685 32.9928 76.1381 33.0856C76.5392 33.2225 76.1618 36.1542 77.7511 36.455Z" fill="#131716"/>
  <path d="M78.3333 38.9927C77.558 40.2747 76.7827 41.5556 76.0064 42.8376C75.9752 42.8905 75.9428 42.9433 75.9105 42.9961C75.3627 42.0775 74.815 41.1599 74.2672 40.2413C74.1777 40.0914 74.0883 39.9415 73.9988 39.7916C73.8209 39.494 73.3551 39.7647 73.533 40.0634C74.1583 41.1103 74.7826 42.1583 75.408 43.2053C75.4975 43.3552 75.587 43.5051 75.6765 43.656C75.7811 43.8307 76.0366 43.8296 76.1423 43.656C76.9175 42.374 77.6928 41.0931 78.468 39.811C78.5791 39.6299 78.6891 39.4477 78.799 39.2655C78.9791 38.9679 78.5133 38.6962 78.3333 38.9927Z" fill="#131716"/>
  <path d="M77.0101 60.6585C76.815 58.6777 76.6392 56.696 76.4872 54.712C76.2845 52.0768 76.2392 49.4578 76.2133 46.8172C76.2014 45.7174 76.1907 44.6187 76.1788 43.5189C76.1745 43.1728 75.6354 43.1717 75.6397 43.5189C75.6645 45.849 75.6763 48.179 75.7098 50.5091C75.7475 53.1022 76.016 55.7008 76.2489 58.282C76.32 59.0745 76.3934 59.867 76.471 60.6585C76.5044 61.0003 77.0435 61.0035 77.0101 60.6585Z" fill="#131716"/>
  <path d="M36.2776 51.9861C35.6527 53.0341 35.0278 54.0811 34.403 55.128C34.3905 55.1496 34.378 55.1701 34.3655 55.1916C33.6682 54.039 32.9708 52.8875 32.2734 51.7348C32.1632 51.5526 32.053 51.3704 31.9428 51.1882C31.7634 50.8917 31.2969 51.1623 31.4772 51.461C32.2528 52.7419 33.0284 54.0228 33.8038 55.3048C33.914 55.4871 34.0242 55.6682 34.1345 55.8504C34.2394 56.024 34.4953 56.0262 34.5999 55.8504C35.2248 54.8035 35.8497 53.7565 36.4745 52.7085C36.5641 52.5586 36.6536 52.4087 36.7431 52.2588C36.9213 51.9602 36.4554 51.6885 36.2776 51.9861Z" fill="#131716"/>
  <path d="M31.8685 49.3084C31.7677 49.9424 31.676 50.5387 31.1766 50.9958C30.8091 51.3312 30.3198 51.5576 29.878 51.7775C28.7393 52.3425 27.3566 52.3663 26.3112 53.1005C25.3096 53.8046 24.4636 54.7599 23.6745 55.685C22.6977 56.8312 21.7977 58.0421 20.9621 59.2939C20.8843 59.4114 20.9157 59.5225 20.991 59.5979C20.9965 59.6055 20.9978 59.613 21.0042 59.6206C21.5306 60.2309 22.1192 60.853 22.8005 61.2886C23.5835 61.79 24.4813 62.1609 25.3507 62.4865C25.4202 62.5124 25.479 62.5049 25.5289 62.4833C25.5701 62.4714 25.6083 62.452 25.6356 62.4175C26.1644 61.7393 26.7 61.0654 27.2473 60.4012C27.3399 60.2891 27.3572 60.1306 27.2473 60.0206C27.152 59.9247 26.9592 59.9074 26.8662 60.0206C26.3524 60.6428 25.8506 61.2757 25.3535 61.9118C24.5711 61.6153 23.7753 61.2735 23.0725 60.8228C22.4946 60.453 21.9924 59.929 21.5357 59.4093C22.401 58.1251 23.3325 56.883 24.3556 55.7196C25.2143 54.7438 26.22 53.5254 27.4996 53.1199C28.1379 52.9172 28.8031 52.8267 29.4265 52.5743C29.8866 52.3878 30.3351 52.1614 30.7667 51.9177C31.1677 51.6902 31.5331 51.4487 31.8206 51.0821C32.2005 50.599 32.294 50.0448 32.3884 49.4518C32.4424 49.1122 31.9231 48.9666 31.8685 49.3084Z" fill="#131716"/>
  <path d="M79.0309 39.4784C78.9608 40.4704 78.8907 41.4624 78.8206 42.4554C78.2341 42.0338 77.5214 41.691 76.8227 41.7406C76.4787 41.7643 76.4755 42.3034 76.8227 42.2797C77.3154 42.2452 77.7866 42.4587 78.2017 42.7045C78.3721 42.8048 78.536 42.9158 78.6945 43.0334C78.7365 43.0636 78.7937 43.1078 78.8637 43.1682C79.0449 43.3245 79.3069 43.2156 79.3231 42.9773C79.3953 41.9573 79.4676 40.9384 79.5398 39.9184C79.5495 39.7717 79.5603 39.6251 79.57 39.4784C79.5948 39.1313 79.0557 39.1334 79.0309 39.4784Z" fill="#131716"/>
  <path d="M74.9568 41.8011C74.366 41.8259 73.7794 42.0706 73.2813 42.4189C73.3427 41.7925 73.4031 41.1649 73.4635 40.5374C73.4754 40.4177 73.4861 40.298 73.498 40.1773C73.512 40.0328 73.3643 39.9077 73.2284 39.9077C73.071 39.9077 72.9729 40.0317 72.9589 40.1773C72.8791 41.0118 72.7982 41.8464 72.7174 42.6809C72.7055 42.8017 72.6936 42.9214 72.6829 43.0411C72.6591 43.2826 72.988 43.385 73.1433 43.2319C73.3212 43.0551 73.4721 42.9451 73.677 42.8114C74.0598 42.5602 74.4932 42.3596 74.9568 42.3402C75.303 42.3262 75.304 41.786 74.9568 41.8011Z" fill="#131716"/>
  <path d="M33.4418 53.9172C32.8071 53.8719 32.1589 54.1512 31.5995 54.4196C31.3805 54.5242 31.1656 54.6396 30.9542 54.7614C30.894 53.9096 30.8338 53.0578 30.7737 52.2049C30.7634 52.0605 30.7533 51.916 30.743 51.7715C30.7188 51.4275 30.1795 51.4243 30.2039 51.7715C30.2749 52.7753 30.3458 53.7802 30.4167 54.7851C30.4269 54.9296 30.4372 55.0741 30.4473 55.2186C30.4608 55.4105 30.6701 55.5712 30.8529 55.4515C31.1546 55.2542 31.4736 55.0795 31.797 54.921C32.2947 54.6763 32.8744 54.4153 33.4418 54.4563C33.7879 54.4822 33.7862 53.943 33.4418 53.9172Z" fill="#131716"/>
  <path d="M36.8187 52.5195C36.8058 52.3868 36.7929 52.2553 36.7799 52.1227C36.7657 51.9771 36.6662 51.8531 36.5104 51.8531C36.3755 51.8531 36.2265 51.976 36.2408 52.1227C36.3199 52.9313 36.3988 53.74 36.4778 54.5498C36.0992 54.2748 35.64 54.1077 35.1769 54.0872C34.83 54.0721 34.8307 54.6123 35.1769 54.6263C35.5639 54.6436 35.9385 54.7977 36.2309 55.0436C36.333 55.1298 36.4284 55.2237 36.5148 55.3261C36.527 55.3401 36.5388 55.3541 36.5506 55.3692C36.5545 55.3746 36.5585 55.3789 36.561 55.3822C36.5696 55.394 36.5782 55.4059 36.5863 55.4188C36.7199 55.6226 37.1165 55.5676 37.0886 55.283C36.9986 54.3621 36.9087 53.4413 36.8187 52.5195ZM36.55 55.3681C36.5301 55.3444 36.5384 55.3541 36.55 55.3681V55.3681Z" fill="#131716"/>
  <path d="M82.3329 47.621C82.3318 47.4366 82.1614 47.3256 81.9911 47.3611C81.4045 47.483 80.8093 47.593 80.212 47.6512C79.5597 47.7148 78.8922 47.6965 78.2378 47.6523C78.145 47.6458 78.0793 47.6814 78.0361 47.7353C77.993 47.7784 77.9639 47.8399 77.9682 47.9218C78.0307 49.1176 78.0933 50.3133 78.1569 51.5102C78.1634 51.6342 78.2367 51.7301 78.3542 51.77C78.8922 51.949 79.4303 52.128 79.9683 52.3081C80.1419 52.3663 80.2551 52.3404 80.4244 52.2811C80.75 52.169 81.0757 52.0558 81.4013 51.9436C81.6525 51.8563 81.9037 51.769 82.155 51.6827C82.2682 51.6439 82.3534 51.5468 82.3534 51.4228C82.3458 50.1548 82.3394 48.8879 82.3329 47.621ZM80.4298 51.7107C80.3457 51.7398 80.2411 51.7625 80.1581 51.8034C80.157 51.8024 80.1538 51.8024 80.1527 51.8024C79.8702 51.6892 79.5705 51.6072 79.2815 51.5112C79.082 51.4444 78.8836 51.3786 78.6852 51.3129C78.6313 50.2767 78.5763 49.2416 78.5224 48.2065C79.1057 48.2377 79.6945 48.2442 80.2735 48.1838C80.7835 48.131 81.2913 48.0437 81.7948 47.9445C81.8013 49.041 81.8067 50.1354 81.8132 51.232C81.3517 51.3916 80.8913 51.5511 80.4298 51.7107Z" fill="#131716"/>
  <path d="M41.9763 60.5589C41.9763 60.5481 41.9806 60.5395 41.9792 60.5277C41.8007 58.9826 41.706 57.417 41.4452 55.8826C41.3629 55.3974 41.3077 54.8368 41.1411 54.3764C40.9757 53.9192 40.5885 53.5623 40.1953 53.296C39.1402 52.5833 37.8644 52.2738 36.7518 51.6668C36.5869 51.5773 36.253 51.4457 36.1734 51.2635C36.0932 51.0791 36.2281 50.7244 36.2807 50.5422C36.3826 50.1874 36.5148 49.8392 36.6683 49.5049C36.8118 49.1911 36.3473 48.9173 36.2027 49.2321C35.9328 49.8219 35.4151 50.816 35.6742 51.4716C35.8332 51.8727 36.4136 52.1067 36.7702 52.2814C37.4066 52.593 38.0713 52.8431 38.7179 53.131C39.2625 53.3747 39.8744 53.6324 40.2967 54.068C40.7277 54.5133 40.729 55.0977 40.8575 55.6735C41.1975 57.1959 41.2533 58.8014 41.4228 60.353C40.9679 60.533 40.489 60.6991 40.0117 60.7735C39.6603 60.8274 39.2885 60.8155 38.9276 60.7832C38.946 60.5492 38.9636 60.3152 38.9823 60.0823C39.01 59.7362 38.4707 59.7373 38.4432 60.0823C38.4182 60.3961 38.3932 60.7099 38.368 61.0247C38.2923 61.9725 38.2168 62.9202 38.1411 63.868C38.092 64.4837 38.0072 64.8665 37.851 65.5878C37.2058 68.5702 36.5607 71.5526 35.9156 74.535C35.7231 75.4245 35.5306 76.314 35.3381 77.2041C35.2649 77.5424 35.7845 77.6868 35.8579 77.3474C36.356 75.045 36.854 72.7429 37.3519 70.4409C37.6675 68.9821 37.9831 67.5243 38.2987 66.0654C38.4243 65.4843 38.5936 64.8988 38.6454 64.3058C38.7323 63.3095 38.809 62.3132 38.8861 61.3169C39.296 61.3525 39.7138 61.3601 40.1182 61.2986C40.6844 61.2134 41.2524 61.0042 41.7813 60.7875C41.7898 60.7843 41.7965 60.7778 41.8046 60.7746C41.8997 60.753 41.9723 60.684 41.9756 60.5676C41.9761 60.5643 41.976 60.5622 41.9763 60.5589Z" fill="#131716"/>
  <path d="M27.0442 80.1745C27.707 79.9601 28.2787 79.4837 28.7306 78.9658C29.1922 78.4366 29.6214 77.7846 29.7356 77.0783C29.7589 76.9348 29.6984 76.7883 29.5473 76.7467C29.4187 76.7115 29.2391 76.7905 29.2158 76.935C29.1158 77.5527 28.7542 78.1205 28.3493 78.5846C27.9609 79.0299 27.4738 79.4694 26.9009 79.6546C26.5722 79.761 26.7128 80.2817 27.0442 80.1745Z" fill="white"/>
  <path d="M118.657 22.8241L120.124 31.4834L121.834 22.8888L118.657 22.8241Z" fill="#764DEF"/>
  <path d="M134.432 27.6975L132.119 34.2251L137.126 29.4496L134.432 27.6975Z" fill="#764DEF"/>
  <path d="M144.156 39.7579L140.791 42.6831L145.11 41.593L144.156 39.7579Z" fill="#764DEF"/>
  <path d="M96.9738 39.9624L96.1543 41.8612L100.539 42.6396L96.9738 39.9624Z" fill="#764DEF"/>
  <path d="M106.651 27.1744L103.956 28.9266L108.962 33.7031L106.651 27.1744Z" fill="#764DEF"/>
  <path d="M116.724 95.0556C118.58 96.611 116.964 97.7228 121.071 97.2726C123.408 97.0166 122.75 97.5848 124.721 94.6564L116.724 95.0556Z" fill="#DDD1FF"/>
  <path d="M116.532 95.2466C117.039 95.6792 117.317 96.1742 117.627 96.7479C117.877 97.2134 118.244 97.4873 118.769 97.5824C119.752 97.7607 120.772 97.5528 121.754 97.4811C122.26 97.4444 122.821 97.4666 123.243 97.1444C123.499 96.9497 123.688 96.6769 123.87 96.4163C124.242 95.8832 124.591 95.3328 124.953 94.7928C125.147 94.5039 124.681 94.2338 124.488 94.5206C124.029 95.2038 123.619 96.0289 123.031 96.6151C122.725 96.9209 122.302 96.9039 121.895 96.9322C120.953 96.9974 119.986 97.1905 119.04 97.0805C118.566 97.0251 118.291 96.8548 118.072 96.4379C117.757 95.8378 117.438 95.3131 116.914 94.8654C116.651 94.6412 116.268 95.0208 116.532 95.2466Z" fill="#131716"/>
  <path d="M128.95 87.2992L128.804 87.3045C128.939 87.2573 129.342 86.8058 129.442 86.6924C129.974 86.0821 129.735 85.1119 128.715 84.4147L112.56 84.5871C110.505 86.1301 112.15 87.7728 112.484 87.8834C112.504 87.8899 112.528 87.8961 112.549 87.9025L112.372 87.9089C110.317 89.718 112.15 91.1345 112.484 91.2642C113.488 91.6536 113.891 92.0619 113.891 92.0619C112.785 93.0544 113.663 94.4925 113.954 94.5919C115.086 94.9765 118.005 95.1285 121.022 95.0068C124.966 94.8476 126.453 94.9118 128.309 93.541C128.96 93.0614 128.676 91.9271 127.771 91.2638C127.771 91.2638 128.919 90.5888 129.217 90.2676C129.725 89.7224 130.145 88.6943 128.95 87.2992Z" fill="#DDD1FF"/>
  <path d="M129.28 87.2933C130.01 86.6631 130.199 85.6731 129.566 84.8426C129.175 84.3307 128.883 84.1432 128.308 84.1492C126.761 84.1658 125.213 84.1823 123.666 84.1988C120.056 84.2373 116.446 84.2759 112.836 84.3144C112.058 84.3227 111.462 85.1696 111.312 85.8868C111.182 86.5152 111.452 87.3998 111.987 87.8743C111.641 88.1561 111.377 88.6287 111.252 88.9922C111.07 89.5213 111.129 90.0865 111.406 90.5716C111.907 91.4474 112.803 91.5363 113.516 92.0998C112.955 92.8762 112.863 94.1854 113.745 94.7802C114.172 95.068 114.878 95.0799 115.373 95.1392C116.344 95.2556 117.326 95.2963 118.304 95.3116C120.298 95.3428 122.317 95.2797 124.306 95.1257C125.481 95.0347 126.645 94.8429 127.688 94.2639C128.206 93.9764 128.804 93.6453 128.913 93.0122C129.023 92.3683 128.674 91.7567 128.224 91.3102C128.81 90.9675 129.427 90.5827 129.748 89.9868C130.256 89.0451 129.869 88.0815 129.28 87.2933ZM129.062 90.0361C128.69 90.4538 128.113 90.7476 127.635 91.0307C127.5 91.1109 127.44 91.3433 127.581 91.4541C127.934 91.7356 128.261 92.085 128.361 92.5425C128.472 93.0501 128.207 93.3008 127.821 93.5534C127.366 93.8513 126.879 94.0887 126.358 94.2474C124.991 94.6632 123.502 94.6426 122.088 94.696C120.073 94.7722 118.054 94.8384 116.041 94.6675C115.62 94.6317 115.198 94.5876 114.782 94.5134C114.569 94.4754 114.231 94.4634 114.047 94.3377C113.357 93.8662 113.611 92.7217 114.081 92.2522C114.183 92.1504 114.186 91.9727 114.081 91.8711C113.574 91.3781 112.838 91.2693 112.315 90.8294C112.017 90.5792 111.768 90.2276 111.699 89.8398C111.641 89.5103 111.727 89.1733 111.89 88.8857C112.011 88.6717 112.291 88.1811 112.548 88.1718C112.849 88.1608 112.917 87.7298 112.619 87.6422C112.334 87.5585 112.096 87.1722 111.979 86.9282C111.626 86.2008 111.926 85.6687 112.386 85.087C112.619 84.7915 112.72 84.8547 113.112 84.8506C114.405 84.8368 115.696 84.823 116.988 84.8092C120.406 84.7727 123.825 84.7362 127.243 84.6998C127.645 84.6954 128.175 84.5979 128.57 84.6856C128.862 84.7504 129.027 84.9875 129.209 85.2649C129.653 85.9403 129.327 86.6819 128.667 87.0714C128.443 87.2038 128.532 87.5838 128.803 87.5738C128.81 87.5736 128.815 87.5733 128.821 87.5731C129.384 88.3015 129.756 89.2561 129.062 90.0361Z" fill="#131716"/>
  <path d="M129.454 83.4365V80.7573C129.454 72.192 141.405 66.7384 141.405 53.4804C141.405 43.5747 133.508 34.248 117.894 34.7192C105.182 35.1031 98.5216 46.0158 99.1168 55.9043C99.9179 69.2161 111.056 71.4729 111.056 80.0376C111.056 80.0376 111.645 82.4945 111.763 83.6662C111.798 84.0071 111.841 84.0967 111.894 84.1275C111.985 84.1803 112.084 84.3729 112.187 84.421C114.576 85.5299 120.123 85.4187 128.733 84.5104C128.971 84.4854 129.328 84.0524 129.328 84.0524L129.454 83.4365Z" fill="white"/>
  <path d="M139.827 45.4499C137.608 40.9267 133.515 37.6813 128.818 36.0014C125.893 34.9566 122.776 34.4951 119.678 34.4379C116.592 34.3819 113.532 34.7668 110.669 35.968C105.809 38.009 102.122 42.0966 100.242 46.9842C98.3215 51.9743 98.301 57.7385 100.369 62.6887C101.287 64.8861 102.616 66.8549 104.126 68.6858C105.475 70.3225 106.971 71.8385 108.262 73.5238C109.438 75.0581 110.405 76.7736 110.692 78.7101C110.761 79.1757 110.731 79.6519 110.797 80.1137C110.852 80.4949 110.973 80.877 111.055 81.2534C111.195 81.8955 111.329 82.5401 111.43 83.1896C111.508 83.7013 111.48 84.1636 111.894 84.5261C112.438 85.0017 113.421 85.1234 114.109 85.234C115.189 85.4075 116.286 85.4673 117.378 85.486C120.73 85.5435 124.092 85.2456 127.425 84.9141C128.109 84.8462 128.84 84.9232 129.358 84.4156C129.627 84.1533 129.64 83.8691 129.713 83.5082C129.714 83.4994 129.712 83.4924 129.713 83.4839C129.715 83.4677 129.723 83.4545 129.723 83.4365C129.723 81.7741 129.603 80.0764 130.019 78.4515C130.551 76.3725 131.704 74.5115 132.919 72.768C135.772 68.6739 139.051 64.8678 140.632 60.0459C142.193 55.2909 142.046 49.972 139.827 45.4499ZM140.626 58.0577C139.498 62.9873 136.486 66.9811 133.548 70.9727C132.315 72.6494 131.081 74.3648 130.225 76.2722C129.495 77.9007 129.184 79.5425 129.184 81.3187C129.184 82.0221 129.184 82.7255 129.184 83.429C129.159 83.582 129.14 83.7535 129.088 83.8958C129.064 83.9248 129.005 84.0162 128.978 84.0343C128.815 84.1411 128.667 84.2234 128.467 84.2689C127.503 84.4875 126.42 84.4754 125.436 84.5622C123.766 84.7095 122.092 84.8326 120.417 84.9013C118.137 84.9947 115.73 85.0883 113.489 84.5664C113.164 84.4906 112.786 84.4187 112.488 84.2607C111.927 83.9626 111.996 83.304 111.898 82.7356C111.736 81.7971 111.423 80.8471 111.324 79.9057C111.226 78.9617 111.174 78.0721 110.882 77.1569C110.611 76.3089 110.221 75.5024 109.758 74.7433C107.62 71.2358 104.32 68.6092 102.187 65.0791C99.4623 60.5667 98.7022 55.0365 99.9022 49.9181C101.079 44.9 104.113 40.324 108.56 37.6403C113.778 34.4908 120.434 34.3732 126.226 35.789C131.145 36.9923 135.699 39.745 138.444 44.0806C141.066 48.2253 141.713 53.3091 140.626 58.0577Z" fill="#131716"/>
  <path d="M117.691 88.2673C118.507 88.1862 119.304 88.1467 120.101 88.1055L122.48 87.9795L124.856 87.8478C125.651 87.8001 126.448 87.7476 127.267 87.7264C126.524 88.0756 125.737 88.306 124.941 88.473C124.145 88.6452 123.334 88.7363 122.523 88.7866C121.711 88.8215 120.896 88.8168 120.087 88.7339C119.277 88.6559 118.472 88.5192 117.691 88.2673Z" fill="white"/>
  <path d="M115.251 90.7844C117.056 90.8315 118.803 90.8534 120.568 90.8181C122.332 90.7969 124.077 90.7035 125.886 90.6375C125.05 90.994 124.168 91.2193 123.277 91.374C122.387 91.5334 121.484 91.6041 120.581 91.6263C119.677 91.6329 118.771 91.5924 117.876 91.4602C116.983 91.3325 116.09 91.1333 115.251 90.7844Z" fill="white"/>
  <path d="M126.715 83.7705C126.292 82.0976 126.062 80.3842 126.005 78.6409C125.955 76.9001 126.086 75.1187 126.491 73.359L126.642 72.6981L126.834 72.0457C126.954 71.608 127.115 71.1831 127.263 70.7508C127.599 69.9087 127.959 69.0666 128.383 68.2816C129.218 66.6934 130.174 65.2744 130.978 63.9299C131.785 62.5832 132.443 61.285 132.909 59.8854C133.399 58.4988 133.695 57.0098 133.902 55.4636C134.008 54.6916 134.07 53.9023 134.141 53.1055C134.173 52.3033 134.24 51.5 134.339 50.7022C134.423 49.901 134.501 49.1053 134.53 48.3031C134.54 47.9063 134.55 47.4976 134.516 47.0987C134.474 46.7008 134.45 46.2814 134.202 45.9126C134.67 45.9967 135.053 46.3666 135.365 46.7127C135.684 47.075 135.928 47.4739 136.159 47.8837C136.593 48.7063 136.923 49.5722 137.151 50.4391C137.277 50.8725 137.37 51.3092 137.452 51.7459C137.511 52.1804 137.553 52.616 137.604 53.0527C137.685 53.9304 137.73 54.8167 137.722 55.7148C137.71 57.5079 137.493 59.356 136.956 61.161C136.708 62.0678 136.336 62.9379 135.952 63.7886C135.559 64.6372 135.082 65.4211 134.613 66.1791C133.652 67.681 132.642 68.9814 131.782 70.2839C130.906 71.5799 130.163 72.9051 129.535 74.337C128.91 75.7667 128.386 77.2866 127.951 78.8716C127.505 80.456 127.142 82.0943 126.715 83.7705Z" fill="#DDD1FF"/>
  <path d="M117.61 38.5631C114.256 38.4444 110.937 39.3329 108.241 41.3686C105.82 43.1973 104.045 45.784 103.066 48.6456C102.518 50.2489 102.232 51.932 102.203 53.6249C102.198 53.9721 102.737 53.9721 102.742 53.6249C102.843 47.7366 106.363 41.9584 112.024 39.9195C113.817 39.2736 115.71 39.0353 117.61 39.1022C117.956 39.114 117.956 38.5749 117.61 38.5631Z" fill="#131716"/>
  <path d="M120.27 42.6937C113.7 42.6807 108.364 47.9921 108.349 54.5628C108.334 61.1325 114.119 66.4697 120.688 66.4848C127.255 66.4978 132.123 60.7141 132.137 54.1434C132.151 47.5737 126.837 42.7099 120.27 42.6937Z" fill="#764DEF"/>
  <path d="M124.311 48.5042L118.952 56.6912L115.307 53.6959L113.362 56.0616L119.643 61.2241L126.873 50.1809L124.311 48.5042Z" fill="white"/>
  <path fill-rule="evenodd" clip-rule="evenodd" d="M34.2766 19.6929C33.7676 19.6918 33.2674 20.1684 33.165 20.7528C33.165 20.7528 33.0616 21.3415 33.0586 22.1976C33.0586 23.0527 33.161 23.6435 33.161 23.6435C33.2622 24.2279 33.7598 24.7078 34.267 24.7088C34.7741 24.711 35.2988 25.0312 35.4332 25.4226C35.5675 25.814 35.7469 27.0691 35.3898 27.4238C35.0328 27.7786 35.0409 28.4503 35.4079 28.9161L37.436 30.9561C37.8975 31.3292 38.5691 31.341 38.9284 30.9841C39.2876 30.6272 39.8814 30.4817 40.248 30.6617C40.6146 30.8418 41.64 31.6117 41.6387 32.1217C41.6373 32.6306 42.1141 33.1309 42.6983 33.2333C42.6983 33.2333 43.2913 33.3368 44.1437 33.3368C45.0014 33.3401 45.593 33.2387 45.593 33.2387C46.1774 33.1384 46.6566 32.6403 46.6577 32.1314C46.6589 31.6224 46.9796 31.0974 47.3705 30.9626C47.7613 30.8278 49.0188 30.652 49.3771 31.0133C49.7361 31.3745 50.4273 31.3906 50.9125 31.051C50.9125 31.051 51.4052 30.7049 52.0112 30.1032C52.6172 29.4983 52.9643 29.0088 52.9643 29.0088C53.3072 28.5258 53.2943 27.8335 52.9352 27.4723C52.5762 27.1122 52.4295 26.5159 52.6107 26.1483C52.7908 25.7817 53.5606 24.7563 54.0685 24.7574C54.5774 24.7595 55.0777 24.2829 55.179 23.6985C55.179 23.6985 55.2825 23.1077 55.2836 22.2526C55.2869 21.3976 55.1844 20.8046 55.1844 20.8046C55.0831 20.2202 54.5838 19.7403 54.0771 19.7393C53.5692 19.7382 53.0441 19.4169 52.9104 19.0266C52.7767 18.6362 52.5967 17.3801 52.9536 17.0254C53.3105 16.6706 53.3018 15.9989 52.9342 15.5331L50.9082 13.4931C50.4467 13.1211 49.7749 13.1081 49.4159 13.4661C49.0569 13.823 48.4629 13.9675 48.096 13.7864C47.7292 13.6063 46.7035 12.8364 46.7053 12.3264C46.7071 11.8175 46.2304 11.3183 45.6461 11.2169C45.6461 11.2169 45.051 11.1134 44.1992 11.1123C43.3432 11.1102 42.752 11.2105 42.752 11.2105C42.1674 11.3097 41.6879 11.8067 41.6865 12.3156C41.6852 12.8256 41.3646 13.3518 40.9742 13.4866C40.5838 13.6214 39.3246 13.7971 38.9659 13.4359C38.6072 13.0747 37.9161 13.0575 37.4302 13.3982C37.4302 13.3982 36.9378 13.7421 36.3322 14.347C35.727 14.9519 35.3798 15.4393 35.3798 15.4393C35.036 15.9223 35.0488 16.6135 35.4084 16.9747C35.7679 17.337 35.9144 17.9321 35.7339 18.2998C35.5535 18.6664 34.7856 19.6929 34.2766 19.6929Z" fill="#764DEF"/>
  <path fill-rule="evenodd" clip-rule="evenodd" d="M39.384 19.2867C41.3293 16.6321 44.9499 16.3431 47.707 18.1707C50.4644 19.9994 51.3152 23.6438 49.3722 26.2984C47.4199 28.9563 43.4115 29.6183 40.6522 27.7886C37.8955 25.962 37.4335 21.9435 39.384 19.2867Z" fill="#DDD1FF"/>
  <path fill-rule="evenodd" clip-rule="evenodd" d="M55.5059 8.90969C55.0455 8.95174 54.6293 9.46929 54.5818 10.0602C54.5818 10.0602 54.5452 10.5012 54.6153 11.2753C54.6864 12.0473 54.8018 12.4765 54.8018 12.4765C54.956 13.049 55.4574 13.4846 55.9156 13.4437C56.3739 13.4027 56.8752 13.6485 57.0284 13.9903C57.1825 14.3321 57.4499 15.4513 57.1567 15.8017C56.8645 16.1522 56.9583 16.7916 57.3669 17.2218L59.2161 18.768C59.7099 19.0968 60.3547 19.0763 60.6501 18.7237C60.9445 18.3712 61.4685 18.1911 61.8146 18.3226C62.1618 18.4553 63.1527 19.0645 63.1937 19.5249C63.2346 19.9853 63.7522 20.4015 64.3431 20.4489C64.3431 20.4489 64.7884 20.4856 65.5582 20.4155C66.3335 20.3454 66.7626 20.2311 66.7626 20.2311C67.3352 20.0769 67.7708 19.5755 67.7287 19.1162C67.6877 18.6558 67.9336 18.1544 68.2754 18.0003C68.6172 17.8461 69.7385 17.583 70.0922 17.8784C70.4469 18.1749 71.1068 18.1038 71.5586 17.7199C71.5586 17.7199 71.8982 17.4309 72.3964 16.8358C72.8934 16.2395 73.1156 15.8556 73.1156 15.8556C73.4132 15.3424 73.3657 14.6793 73.011 14.3828C72.6562 14.0874 72.4751 13.5612 72.6077 13.214C72.7393 12.8679 73.3495 11.877 73.8089 11.836C74.2682 11.795 74.6844 11.2786 74.7318 10.6866C74.7318 10.6866 74.7685 10.2435 74.6984 9.47145C74.6294 8.69835 74.5129 8.26706 74.5129 8.26706C74.3588 7.69452 73.8563 7.25999 73.3981 7.30096C72.9387 7.34193 72.4384 7.0961 72.2842 6.75538C72.1311 6.41358 71.8637 5.29438 72.157 4.94395C72.4492 4.59352 72.3543 3.95522 71.9457 3.525L70.0976 1.97774C69.6038 1.64888 68.959 1.66936 68.6646 2.02194C68.3703 2.37453 67.8452 2.55459 67.4991 2.42196C67.1519 2.28934 66.161 1.68014 66.12 1.21974C66.079 0.759333 65.5615 0.344217 64.9706 0.296776C64.9706 0.296776 64.5242 0.261206 63.7544 0.331291C62.9802 0.400297 62.5521 0.514589 62.5521 0.514589C61.9796 0.6677 61.544 1.16799 61.585 1.62839C61.6259 2.08772 61.3801 2.59017 61.0394 2.74543C60.6976 2.89962 59.5751 3.16272 59.2215 2.86621C58.8667 2.57077 58.2069 2.64193 57.754 3.0247C57.754 3.0247 57.4133 3.31258 56.9173 3.90992C56.4202 4.50618 56.1981 4.89004 56.1981 4.89004C55.9005 5.4022 55.9469 6.06531 56.3016 6.36075C56.6564 6.65726 56.8386 7.18344 56.706 7.53063C56.5733 7.87782 55.9652 8.86872 55.5059 8.90969Z" fill="#764DEF"/>
  <path d="M54.5449 19.5744C54.2042 19.4278 53.8095 19.5033 53.4893 19.2963C53.0849 19.0342 53.0494 18.5318 53.0213 18.094C52.9965 17.6832 53.0634 17.4072 53.2704 17.06C53.4224 16.8045 53.5001 16.5306 53.4796 16.2308C53.4214 15.3251 52.4218 14.6361 51.8385 14.0485C51.2175 13.4231 50.4702 12.5541 49.4847 13.0889C49.0327 13.3336 48.7193 13.7466 48.1503 13.5105C47.8324 13.3778 47.5054 13.0673 47.2789 12.8182C46.8157 12.3104 46.9576 11.6311 46.3167 11.2041C45.8467 10.8904 45.2211 10.8796 44.6766 10.8537C44.0263 10.8246 43.322 10.8127 42.6802 10.9508C42.0108 11.0952 41.547 11.5664 41.4256 12.2317C41.3311 12.7503 41.1997 13.1633 40.6411 13.2948C40.2758 13.3811 39.8245 13.4339 39.4529 13.352C39.1552 13.2851 38.9605 13.0533 38.6714 12.9584C38.3274 12.8463 37.9519 12.87 37.617 13.0005C37.0865 13.2086 36.628 13.6819 36.2304 14.0701C35.8033 14.4863 35.2755 14.979 35.0182 15.5365C34.891 15.8114 34.8383 16.1144 34.8752 16.4174C34.9292 16.8584 35.2035 17.0525 35.4034 17.4191C35.6377 17.8493 35.5073 18.2094 35.2473 18.5663C35.0424 18.8477 34.6586 19.376 34.2764 19.4235C32.7332 19.5777 32.7562 21.3913 32.7956 22.5611C32.8139 23.1035 32.8152 23.7493 33.0985 24.2324C33.2464 24.4858 33.4589 24.7004 33.7197 24.8351C34.1422 25.0529 34.6288 24.93 34.993 25.2847C35.5048 25.7829 35.3999 26.8417 35.0726 27.3895C34.7465 27.9361 34.8155 28.6132 35.2173 29.1071C35.7438 29.754 36.4221 30.319 37.0101 30.911C37.3087 31.2107 37.6166 31.4458 38.0581 31.4986C38.8745 31.5978 39.4312 30.622 40.1934 30.939C40.492 31.063 40.7866 31.3433 41.0075 31.573C41.3127 31.8889 41.3076 32.18 41.4579 32.5596C41.67 33.0955 42.1878 33.4168 42.7363 33.5106C43.5104 33.6421 44.3274 33.6367 45.107 33.5656C45.6409 33.5181 46.1396 33.4286 46.5318 33.0264C47.1303 32.4129 46.7547 31.3606 47.7664 31.1417C48.0823 31.0738 48.4617 31.0328 48.7845 31.0792C49.1612 31.1342 49.392 31.4242 49.7554 31.5191C51.0514 31.8587 52.3129 30.2673 52.9944 29.4111C53.3329 28.9852 53.5604 28.5033 53.4526 27.9415C53.389 27.6094 53.2111 27.4293 53.0321 27.1555C52.6892 26.6282 52.8272 26.2314 53.1712 25.7872C53.4073 25.4821 53.6898 25.1457 54.0683 25.0271C54.3724 24.9332 54.602 24.9386 54.8705 24.7208C55.2975 24.3736 55.4355 23.8874 55.4926 23.3666C55.6145 22.2582 55.8538 20.1394 54.5449 19.5744ZM54.9298 23.5585C54.8144 24.0717 54.5826 24.3564 54.0683 24.4879C53.8451 24.5462 53.6855 24.5764 53.486 24.7111C53.0655 24.9947 52.6558 25.4821 52.4208 25.9306C52.1469 26.4568 52.286 26.9797 52.5771 27.4639C52.8078 27.8455 53.0548 28.0979 52.8801 28.5906C52.7712 28.9011 52.5059 29.1696 52.2935 29.4101C51.8547 29.9082 51.3544 30.4441 50.7905 30.8074C50.2794 31.1385 49.9753 31.0102 49.4847 30.7579C49.2529 30.6382 49.0511 30.5648 48.7845 30.54C48.3193 30.498 47.7427 30.5347 47.2987 30.7029C46.6441 30.9498 46.5248 31.5288 46.3879 32.1315C46.1882 33.0103 45.3526 33.0286 44.6235 33.0588C43.9483 33.0868 42.7678 33.2141 42.206 32.7051C41.927 32.4528 41.9602 32.1466 41.8482 31.8339C41.7689 31.6129 41.6035 31.4188 41.4458 31.2495C41.1042 30.8818 40.6002 30.4311 40.0908 30.3384C39.2121 30.1778 38.5326 31.3131 37.7327 30.8344C37.4289 30.6522 37.1774 30.3136 36.9302 30.0656C36.5456 29.6785 36.1498 29.3001 35.7751 28.9033C35.684 28.8063 35.5997 28.734 35.5316 28.6176C35.2123 28.0709 35.5805 27.7701 35.7652 27.3097C35.9742 26.7889 35.8817 26.0826 35.7476 25.5489C35.5805 24.8836 35.0841 24.6119 34.457 24.4545C33.8917 24.3133 33.5623 24.1979 33.4179 23.5553C33.3382 23.2005 33.3388 22.8059 33.3308 22.4458C33.3141 21.6932 33.1969 20.0704 34.2764 19.9626C35.1209 19.858 36.1373 18.6838 36.0744 17.8148C36.0118 16.95 35.0276 16.4821 35.6124 15.5753C35.9761 15.0114 36.5278 14.5024 37.0269 14.0658C37.1976 13.917 37.3734 13.7531 37.5661 13.6302C38.1163 13.283 38.407 13.4835 38.9129 13.7337C39.3835 13.9666 39.9219 13.9418 40.4312 13.8738C40.9638 13.8027 41.4127 13.6603 41.7089 13.1784C41.8378 12.9681 41.8823 12.7428 41.941 12.5066C42.0898 11.9093 42.2334 11.6042 42.8919 11.4597C43.5827 11.3087 44.3782 11.3605 45.0763 11.4198C45.2988 11.4381 45.5512 11.4457 45.7644 11.5244C46.3833 11.754 46.313 12.1918 46.5224 12.6792C46.9037 13.5655 48.1293 14.3946 49.0732 14.0054C49.7133 13.7412 50.0907 13.173 50.7991 13.7671C51.1484 14.0593 51.4557 14.427 51.776 14.7504C52.0563 15.0318 52.3539 15.3025 52.6181 15.5979C52.7658 15.7629 52.8682 15.8729 52.921 16.1198C53.0246 16.5964 52.6892 16.8088 52.5588 17.2002C52.2558 18.1048 52.5027 19.4774 53.4483 19.8763C53.858 20.0489 54.3325 19.9486 54.657 20.3109C54.8964 20.5783 54.932 20.8791 54.9654 21.208C55.0419 21.9487 55.0958 22.8231 54.9298 23.5585Z" fill="#131716"/>
  <path fill-rule="evenodd" clip-rule="evenodd" d="M39.0302 20.235C40.1258 17.3971 43.3208 15.9824 46.1604 17.0812C49.0006 18.1788 50.4122 21.3725 49.3189 24.2115C48.2176 27.0537 45.0266 28.4662 42.1846 27.3664C39.3457 26.2699 37.9305 23.0772 39.0302 20.235Z" fill="white"/>
  <path d="M49.8653 21.2069C49.447 18.8358 47.5142 16.9187 45.1379 16.522C42.414 16.068 39.7878 17.625 38.7699 20.1642C37.9266 22.4296 38.5625 25.0637 40.4279 26.6325C42.2684 28.1798 44.9225 28.4407 47.0206 27.259C49.141 26.0654 50.2858 23.5973 49.8653 21.2069ZM47.3399 26.4072C45.5875 27.7291 43.1524 27.811 41.3101 26.6207C39.2178 25.2675 38.4324 22.6107 39.2898 20.3076C40.1127 18.2547 42.1603 16.8972 44.3785 16.9824C46.5591 17.0665 48.508 18.5523 49.1687 20.6311C49.834 22.7261 49.0991 25.081 47.3399 26.4072Z" fill="#131716"/>
  <path d="M73.9927 7.17384C73.68 7.0078 73.4083 7.08543 73.0751 7.01103C72.5683 6.89566 72.44 6.47191 72.3559 6.03199C72.2718 5.59207 72.302 5.34408 72.4734 4.95269C72.5705 4.73057 72.6082 4.51816 72.5845 4.27772C72.4907 3.34613 71.4631 2.77034 70.814 2.22691C70.0927 1.62418 69.3423 1.16163 68.4743 1.83121C68.1336 2.09322 67.8802 2.29161 67.4359 2.09645C67.1405 1.96706 66.775 1.72661 66.5723 1.47861C66.3653 1.22307 66.3609 0.915791 66.169 0.650545C65.9879 0.402554 65.7086 0.218163 65.4218 0.120045C64.8299 -0.0837421 64.1085 0.0197735 63.5101 0.0866222C62.9386 0.150238 62.3122 0.20199 61.8475 0.578293C61.6351 0.750809 61.4464 0.982645 61.3655 1.24789C61.2027 1.77838 61.4183 2.29052 60.7606 2.56224C60.4242 2.70133 59.8614 2.81779 59.5056 2.70565C59.1799 2.60322 58.9837 2.40698 58.6128 2.41453C58.0726 2.42639 57.6445 2.73692 57.2801 3.1046C56.8035 3.58657 56.2914 4.15156 55.9657 4.75429C55.6822 5.27831 55.6239 5.94789 56.0045 6.44065C56.3528 6.89242 56.6051 7.15767 56.314 7.71835C56.1372 8.05799 55.8299 8.55613 55.4342 8.64993C54.0465 8.93351 54.2621 10.7137 54.398 11.7391C54.453 12.1553 54.5026 12.6006 54.7193 12.9704C54.8616 13.213 55.0708 13.4384 55.322 13.571C55.7069 13.7748 56.1738 13.6152 56.535 13.8513C57.1162 14.233 57.0677 15.2746 56.8412 15.7921C56.5986 16.3453 56.7582 16.9825 57.1766 17.4116C57.7006 17.9508 58.3626 18.4543 58.9632 18.9061C59.2899 19.1519 59.6759 19.3039 60.0943 19.2651C60.8663 19.194 61.1703 18.2818 62.0027 18.7163C62.3057 18.8737 62.7187 19.1293 62.8804 19.4398C62.999 19.6684 62.9872 19.8754 63.1457 20.0943C63.4594 20.5256 63.977 20.6981 64.487 20.7261C65.4498 20.7779 67.1319 20.7617 67.7648 19.856C67.933 19.6145 67.974 19.3988 67.9988 19.1163C68.0516 18.5287 68.2726 18.2386 68.8387 18.106C69.1277 18.0392 69.5148 17.9464 69.8091 18.0392C70.1348 18.1416 70.331 18.3378 70.7019 18.3303C71.8071 18.3066 72.7656 16.9448 73.2735 16.1135C73.5269 15.6962 73.6724 15.1948 73.5226 14.7107C73.4557 14.495 73.3306 14.3656 73.2023 14.1931C72.8346 13.6993 72.757 13.4168 73.0805 12.8939C73.2907 12.5531 73.515 12.2609 73.8816 12.096C74.1339 11.9817 74.3517 11.9407 74.5587 11.7251C74.8973 11.3714 75.0008 10.9056 75.0116 10.4344C75.0332 9.44243 75.0385 7.7259 73.9927 7.17384ZM74.4639 10.6705C74.3948 11.1493 74.1684 11.393 73.7382 11.5763C73.5657 11.6496 73.4384 11.6841 73.2843 11.8059C72.9036 12.1078 72.5101 12.6491 72.3613 13.1106C72.2254 13.5311 72.3365 13.9613 72.5899 14.315C72.8616 14.6934 73.1419 14.894 73.0039 15.4255C72.9435 15.6595 72.8045 15.8525 72.6686 16.0455C72.3193 16.5458 71.8772 17.1442 71.3812 17.5184C70.9855 17.8171 70.662 17.8214 70.2296 17.6456C70.0075 17.5561 69.8447 17.4839 69.5935 17.4753C69.1482 17.4602 68.6058 17.5497 68.2036 17.7405C67.6236 18.0155 67.5265 18.5395 67.4597 19.1163C67.3777 19.8193 66.7329 19.9865 66.1442 20.077C65.562 20.1654 64.8148 20.2905 64.2217 20.16C63.4713 19.9951 63.5026 19.2328 63.0066 18.7724C62.6723 18.4629 62.2087 18.1125 61.7504 18.0284C61.4906 17.9809 61.2221 18.0381 60.986 18.147C60.6927 18.2828 60.4867 18.6031 60.1859 18.7055C59.6252 18.8964 59.1616 18.3723 58.7853 18.0575C58.4165 17.7491 58.0111 17.458 57.6672 17.1227C57.4839 16.9437 57.3254 16.7679 57.2747 16.4962C57.2035 16.1124 57.4785 15.8827 57.5389 15.5269C57.623 15.0309 57.5044 14.3732 57.2887 13.9193C57.017 13.3467 56.4865 13.24 55.9161 13.1742C55.0029 13.0675 54.95 11.986 54.8853 11.2754C54.8217 10.5908 54.6535 9.35833 55.5776 9.16964C56.3399 8.98958 57.1485 7.79166 56.99 7.01426C56.8434 6.29508 56.0466 5.98887 56.3711 5.17265C56.604 4.58609 57.1205 4.05452 57.5464 3.60597C57.9896 3.13802 58.4349 2.82425 59.0861 3.09921C59.5972 3.31593 60.0738 3.28789 60.6194 3.15958C61.0474 3.05823 61.4076 2.91267 61.6437 2.52128C61.772 2.30886 61.8248 2.07057 61.8561 1.82689C61.9262 1.27052 62.0513 0.951368 62.64 0.770226C63.2459 0.58477 63.9522 0.561056 64.5786 0.557823C64.7479 0.556744 64.9269 0.55027 65.093 0.585852C65.659 0.706614 65.7194 1.03008 65.9135 1.46461C66.2704 2.26466 67.4866 2.98814 68.3298 2.5989C68.9045 2.33258 69.2355 1.74711 69.9364 2.19242C70.2555 2.3962 70.5423 2.70026 70.8313 2.94179C71.1159 3.179 71.4276 3.40326 71.6928 3.66203C71.8588 3.82484 71.9947 4.01138 72.0389 4.24967C72.109 4.62813 71.8362 4.86858 71.7758 5.219C71.6098 6.19372 72.0357 7.43909 73.129 7.56201C73.5722 7.6116 73.8838 7.62562 74.1307 8.04613C74.2363 8.22619 74.2655 8.39332 74.3086 8.5874C74.4444 9.21601 74.5598 10.0182 74.4639 10.6705Z" fill="#131716"/>
  <path fill-rule="evenodd" clip-rule="evenodd" d="M60.2141 7.50521C61.991 4.98539 65.3184 4.72554 67.8609 6.47874C70.4034 8.23195 71.2013 11.7071 69.4265 14.2269C67.6442 16.75 63.962 17.3635 61.4174 15.6081C58.8749 13.8571 58.4328 10.0272 60.2141 7.50521Z" fill="#DDD1FF"/>
  <path fill-rule="evenodd" clip-rule="evenodd" d="M59.7323 8.97197C60.5032 6.25375 63.3357 4.67415 66.0561 5.44724C68.7754 6.21925 70.3539 9.05283 69.5841 11.77C68.8099 14.4936 65.9795 16.0721 63.2581 15.2969C60.5377 14.5249 58.957 11.6945 59.7323 8.97197Z" fill="white"/>
  <path d="M69.8597 8.95932C69.2667 6.78669 67.341 5.19954 65.1036 5.00114C62.545 4.77471 60.1977 6.46861 59.4731 8.90109C58.8887 11.0662 59.6629 13.3822 61.4743 14.7214C63.2976 16.0681 65.8756 16.0994 67.7324 14.8001C69.5805 13.5073 70.4549 11.1417 69.8597 8.95932ZM68.0149 13.8771C66.5355 15.295 64.2518 15.6271 62.4307 14.6826C60.3831 13.6205 59.3966 11.2538 59.9928 9.04451C60.5675 7.11555 62.269 5.67935 64.295 5.53379C66.3069 5.38823 68.2359 6.53115 69.0748 8.3663C69.9222 10.2187 69.4845 12.4679 68.0149 13.8771Z" fill="#131716"/>
  <path d="M34.0158 86.1908C32.2795 85.9023 30.5402 85.6018 28.8302 85.1807C27.8502 84.9392 26.8368 84.6726 25.9346 84.2082C24.8742 83.6625 24.3115 82.3928 23.8952 81.3349C23.6165 80.6269 23.376 79.8944 23.202 79.1531C23.1227 78.8155 22.6027 78.9584 22.682 79.2965C23.0297 80.7766 23.5717 82.363 24.4729 83.5986C25.4885 84.9907 27.3535 85.3843 28.9432 85.7625C30.5711 86.1498 32.2224 86.4365 33.8725 86.7106C34.2119 86.7669 34.3578 86.2476 34.0158 86.1908Z" fill="white"/>
  <path d="M51.3129 64.7048C51.3582 64.5765 51.658 63.8875 52.3146 64.115C53.1901 64.4202 54.3277 64.5614 54.3331 65.0391C54.3352 65.2418 54.2522 65.3366 54.0915 65.4596C53.7875 65.6925 52.9648 65.7248 52.5831 65.714C52.2704 65.7043 51.5663 65.6687 51.3636 65.4305C51.2461 65.2924 51.2526 64.8762 51.3129 64.7048Z" fill="white"/>
  <path d="M51.5736 64.7771C51.5973 64.7102 51.5585 64.8051 51.5758 64.7695C51.5898 64.7404 51.6027 64.7113 51.6189 64.6822C51.662 64.6035 51.6976 64.5506 51.7364 64.5086C51.8442 64.3921 51.9542 64.3188 52.1246 64.3436C52.2669 64.3641 52.4103 64.432 52.5483 64.473C52.696 64.5172 52.8448 64.5582 52.9936 64.5992C53.2513 64.6703 53.5155 64.7361 53.7624 64.8396C53.8487 64.8752 53.9403 64.9183 54.0147 64.9776C53.9802 64.9507 54.0762 65.0391 54.0514 65.0143C54.0266 64.9884 54.0751 65.0412 54.0686 65.0456C54.0697 65.0445 54.0611 65.0315 54.0632 65.0164C54.0514 65.1243 54.0471 65.1544 53.9543 65.2278C53.8767 65.2871 53.8109 65.3097 53.7193 65.3367C53.2783 65.465 52.7898 65.4628 52.3348 65.4326C52.103 65.4175 51.8205 65.3971 51.621 65.2914C51.5714 65.2644 51.5833 65.2806 51.5682 65.2504C51.5671 65.2483 51.5499 65.1717 51.5456 65.1383C51.5305 65.0154 51.538 64.8914 51.5736 64.7771C51.6782 64.445 51.1585 64.3037 51.0539 64.6337C50.9666 64.9108 50.9612 65.3194 51.1315 65.5663C51.3084 65.823 51.6728 65.892 51.9585 65.9319C52.5505 66.0149 53.1899 66.0192 53.7732 65.8801C54.0913 65.8035 54.4363 65.63 54.5592 65.3043C54.6724 65.0024 54.5581 64.7135 54.3091 64.528C54.0697 64.3501 53.7646 64.2606 53.4821 64.1776C53.1316 64.0741 52.7769 63.9857 52.4286 63.8703C52.0739 63.7528 51.7224 63.798 51.4367 64.0471C51.2598 64.2013 51.1326 64.4148 51.0539 64.6337C50.9364 64.9604 51.4571 65.1016 51.5736 64.7771Z" fill="#131716"/>
  <path d="M55.3903 61.259C55.22 61.3226 54.5202 61.3754 54.228 61.4013C53.8711 61.4337 53.5843 61.5857 53.0182 61.8251C52.3777 62.0957 52.0521 62.6726 51.9605 62.7728C51.7556 63.0014 51.8807 63.6839 52.5265 63.3324C53.0161 63.0661 53.5983 62.8591 53.5983 62.8591L55.7548 61.0455C55.7548 61.0455 55.5434 61.2018 55.3903 61.259Z" fill="white"/>
  <path d="M55.6178 60.8127C55.4539 60.9324 55.3051 61.0144 55.1045 61.0446C54.85 61.0834 54.5913 61.1006 54.3336 61.1233C54.0802 61.1448 53.8441 61.1912 53.6058 61.285C53.2952 61.4058 52.9621 61.5287 52.6731 61.6958C52.4262 61.8392 52.2052 62.0344 52.0219 62.2522C51.9539 62.333 51.8892 62.4172 51.8267 62.5023C51.8073 62.5304 51.7879 62.5573 51.7674 62.5854C51.7372 62.6263 51.7728 62.5789 51.7782 62.5724C51.7555 62.6015 51.7318 62.6252 51.7113 62.6565C51.4827 62.9983 51.6121 63.559 52.0337 63.6776C52.3744 63.7746 52.686 63.5428 52.9782 63.4059C53.2036 63.2991 53.4343 63.2032 53.6683 63.1191C53.9929 63.0037 53.8538 62.4829 53.5249 62.5994C53.3729 62.6544 53.223 62.7147 53.0731 62.7773C52.9405 62.8334 52.8079 62.8916 52.6774 62.9541C52.5491 63.0145 52.423 63.1018 52.2882 63.1439C52.2375 63.1601 52.1512 63.1514 52.1825 63.1665C52.1545 63.1525 52.148 63.1212 52.1383 63.0716C52.134 63.0512 52.1426 62.9908 52.1534 62.9627C52.1566 62.9541 52.1534 62.9606 52.1588 62.9541C52.1825 62.9207 52.2084 62.8894 52.2332 62.8571C52.5038 62.4926 52.796 62.2112 53.2198 62.0301C53.4581 61.9266 53.6963 61.8123 53.9454 61.7346C54.1384 61.6742 54.3314 61.6624 54.532 61.6451C54.7961 61.6214 55.0635 61.5999 55.3245 61.5524C55.5336 61.5136 55.7191 61.4036 55.8895 61.2785C56.1666 61.0748 55.897 60.6068 55.6178 60.8127Z" fill="#131716"/>
  <path d="M86.0108 79.4075C86.0151 78.4791 86.069 77.5383 85.9989 76.6118C85.8178 74.2041 85.6927 71.7867 85.4339 69.3866C85.1008 66.2845 84.7676 63.1835 84.4344 60.0825C84.3978 59.7407 83.8576 59.7364 83.8953 60.0825C83.8975 60.103 83.8996 60.1246 83.9018 60.1462L77.3321 61.7592L70.6816 60.3575C70.7269 60.0319 70.2277 59.896 70.1608 60.2313C69.2077 65.0586 68.0669 69.8783 67.4275 74.7583C67.0242 77.8366 66.5196 80.9187 66.2156 84.0081C65.9633 86.5751 65.9395 89.1851 65.8048 91.7606C65.711 93.5367 65.6171 95.3129 65.5244 97.0889C65.5093 97.3801 65.4069 97.7837 65.5632 98.0436C66.1541 99.0244 67.8954 98.7987 68.8292 98.7428C68.9532 98.7353 69.0502 98.6634 69.089 98.5449C69.7327 96.5891 70.3764 94.6332 71.0202 92.6772C71.3469 91.6848 71.694 90.6968 72.0013 89.6982C72.1836 89.1056 72.2116 88.4668 72.2914 87.8531C72.4348 86.7633 72.4833 85.6078 72.7259 84.5356C72.7022 84.6437 72.7949 84.3585 72.823 84.2744C72.9297 83.9597 73.0364 83.6451 73.1432 83.3305C73.9626 80.9184 74.781 78.5063 75.6005 76.0943C76.1353 74.519 76.6701 72.9426 77.2049 71.3673C77.9683 75.2543 78.7317 79.1409 79.495 83.0277C79.6201 83.6676 79.7829 84.3114 79.8735 84.9573C79.8757 84.9731 79.8767 84.9767 79.8778 84.9847C79.8929 85.1796 79.8843 85.3793 79.8886 85.5745C79.8994 86.2331 79.9112 86.8918 79.9231 87.5504C79.9511 89.1726 80.4525 90.7874 80.7835 92.3696C81.2526 94.6184 81.7216 96.867 82.1906 99.1157C82.21 99.2057 82.2931 99.2805 82.3793 99.3041C83.6419 99.6474 84.7277 99.6248 85.889 98.9977C85.972 98.9531 86.0227 98.8573 86.0227 98.7649C86.0108 93.8409 85.9752 88.9162 85.9892 83.9921C85.9935 82.4639 86.0033 80.9356 86.0108 79.4075Z" fill="#131716"/>
  <path d="M84.5042 67.5574C84.4784 67.5488 84.4525 67.5402 84.4266 67.5305C84.4137 67.5261 84.3899 67.5154 84.4158 67.5272C84.3705 67.5067 84.3263 67.483 84.2832 67.4582C84.1915 67.4054 84.1366 67.3644 84.0686 67.3062C83.8789 67.1434 83.7107 66.9558 83.5511 66.7649C83.2675 66.4263 83.0314 66.0339 82.9613 65.6004C82.9376 65.457 82.7586 65.3761 82.6292 65.4117C82.4772 65.4538 82.4179 65.5993 82.4416 65.7438C82.5257 66.2668 82.8362 66.7477 83.1705 67.1466C83.4972 67.5369 83.8638 67.9165 84.3608 68.0771C84.4999 68.1224 84.6552 68.0254 84.6929 67.8884C84.7328 67.7429 84.6433 67.6027 84.5042 67.5574Z" fill="white"/>
  <path d="M76.3574 70.3957C76.213 70.3774 76.0879 70.5327 76.0879 70.6653C76.0879 70.826 76.2119 70.9165 76.3574 70.9349C76.3089 70.9284 76.3219 70.9295 76.3564 70.9392C76.3715 70.9435 76.3779 70.9456 76.3812 70.9478C76.3898 70.9521 76.3984 70.9564 76.4071 70.9607C76.4124 70.964 76.4178 70.9683 76.4232 70.9715C76.4469 70.9942 76.4707 71.019 76.4933 71.0427C76.4965 71.0459 76.4987 71.0502 76.5009 71.0535C76.5138 71.074 76.5278 71.0934 76.5397 71.1149C76.5591 71.1494 76.5763 71.1861 76.5936 71.2227C76.5957 71.2292 76.5979 71.2335 76.6011 71.2411C76.6108 71.267 76.6195 71.2918 76.6281 71.3176C76.6604 71.4168 76.6852 71.5171 76.7057 71.6195C76.7165 71.6702 76.7251 71.722 76.7327 71.7726C76.7348 71.7867 76.7391 71.8125 76.7402 71.819C76.7424 71.8427 76.7456 71.8665 76.7489 71.8902C76.7607 71.9958 76.7683 72.1026 76.7747 72.2083C76.7812 72.343 76.7812 72.4789 76.7812 72.6147C76.9214 72.1996 77.0626 71.7856 77.2028 71.3705C77.1564 71.1753 77.0928 70.9866 76.9904 70.8195C76.8448 70.579 76.6356 70.4313 76.3574 70.3957Z" fill="white"/>
  <path d="M77.1962 60.8813C75.4721 61.0096 70.4217 60.1309 70.4217 60.1309L70.2061 62.0415C70.2061 62.0415 75.3568 62.9375 77.0809 62.8092C79.2362 62.6485 84.0495 62.0092 84.0495 62.0092L84.1648 60.0824C84.1648 60.0824 79.3516 60.7207 77.1962 60.8813Z" fill="white"/>
  <path d="M84.434 60.0825C84.42 59.952 84.3208 59.7913 84.1644 59.8129C81.8484 60.1191 79.5259 60.4329 77.1958 60.6119C74.9887 60.7488 72.6608 60.2474 70.4925 59.8711C70.3599 59.8485 70.1884 59.9056 70.1604 60.0598C70.0472 60.6949 69.9329 61.3289 69.8186 61.964C69.7949 62.0966 69.8531 62.2702 70.0062 62.2961C72.2575 62.6788 74.6534 63.1791 76.9435 63.0864C79.4192 62.9851 81.912 62.5624 84.3672 62.2368C84.4987 62.2195 84.654 62.1279 84.6367 61.9672C84.5688 61.3386 84.5009 60.7111 84.434 60.0825ZM72.9282 62.2001C72.0807 62.0837 71.2343 61.9532 70.3911 61.813C70.4741 61.3537 70.5561 60.8944 70.6391 60.4361C71.4791 60.5774 72.3222 60.7089 73.1665 60.8243C74.4862 61.0054 75.861 61.234 77.1958 61.151C79.4461 60.9785 81.6899 60.6798 83.9272 60.3833C83.9758 60.8351 84.0243 61.2868 84.0728 61.7386C81.7395 62.0524 79.3857 62.4136 77.0363 62.5419C75.6745 62.6163 74.2728 62.3845 72.9282 62.2001Z" fill="#131716"/>
  <path d="M78.006 63.1035L75.0215 63.0162L75.0905 60.6818L78.074 60.7691L78.006 63.1035Z" fill="#DDD1FF"/>
  <path d="M78.3436 60.769C78.348 60.6202 78.2164 60.5038 78.0741 60.4994C77.204 60.4746 76.3338 60.4488 75.4637 60.4229C75.3386 60.4197 75.2146 60.4164 75.0895 60.4121C74.9418 60.4078 74.8243 60.5393 74.82 60.6817C74.7973 61.4601 74.7747 62.2376 74.7521 63.016C74.7477 63.1648 74.8793 63.2813 75.0216 63.2856C75.8917 63.3104 76.7619 63.3363 77.6331 63.3621C77.7571 63.3654 77.8811 63.3697 78.0062 63.3729C78.1237 63.3762 78.197 63.3147 78.2358 63.2338C78.2574 63.1972 78.2736 63.1562 78.2757 63.1034C78.2984 62.3249 78.321 61.5475 78.3436 60.769ZM75.3947 62.7573C75.3634 62.7562 75.3311 62.7551 75.2987 62.754C75.316 62.1556 75.3343 61.5572 75.3516 60.9588C76.1344 60.9825 76.9182 61.0051 77.701 61.0278C77.7334 61.0289 77.7646 61.0299 77.797 61.031C77.7797 61.6294 77.7614 62.2279 77.7441 62.8263C76.9614 62.8025 76.1786 62.7799 75.3947 62.7573Z" fill="#131716"/>
  <path d="M84.3943 47.5372C84.3199 47.8467 84.2714 48.168 84.2552 48.4861C84.2476 48.6273 84.3846 48.7621 84.5247 48.7556C84.6768 48.7492 84.7867 48.637 84.7943 48.4861C84.8008 48.3578 84.8159 48.2295 84.8331 48.1011C84.8299 48.1249 84.8266 48.1497 84.8234 48.1734C84.8461 48.0073 84.8752 47.8435 84.914 47.6806C84.9463 47.5437 84.8709 47.383 84.7253 47.3496C84.5873 47.3183 84.4288 47.3906 84.3943 47.5372Z" fill="#131716"/>
  <path d="M84.9164 100.961C84.9045 100.97 84.8927 100.977 84.8808 100.984C84.8571 100.997 84.8032 101.014 84.8927 100.982C84.8582 100.994 84.8247 101.006 84.7902 101.016C84.7051 101.04 84.6177 101.056 84.5304 101.07C84.5078 101.073 84.4862 101.076 84.4646 101.08C84.4301 101.084 84.5315 101.071 84.484 101.077C84.4722 101.079 84.4592 101.08 84.4474 101.082C84.3999 101.087 84.3536 101.093 84.3061 101.097C84.2156 101.107 84.125 101.115 84.0344 101.123C83.9611 101.129 83.8964 101.148 83.8436 101.202C83.7972 101.248 83.7616 101.325 83.7649 101.392C83.7713 101.528 83.8835 101.675 84.0344 101.662C84.2479 101.643 84.4614 101.623 84.6727 101.59C84.7633 101.576 84.8528 101.559 84.939 101.534C85.0242 101.51 85.1159 101.479 85.1881 101.427C85.2463 101.385 85.2927 101.338 85.3121 101.266C85.3294 101.201 85.3218 101.115 85.2852 101.058C85.2118 100.945 85.0382 100.873 84.9164 100.961Z" fill="white"/>
  <path d="M85.4027 102.247C85.3909 102.256 85.379 102.263 85.3672 102.27C85.3434 102.283 85.2884 102.3 85.379 102.268C85.3445 102.28 85.3111 102.292 85.2766 102.302C85.1914 102.326 85.1041 102.342 85.0156 102.356C84.9941 102.359 84.9725 102.362 84.9499 102.365C84.9165 102.37 85.0178 102.357 84.9704 102.363C84.9574 102.364 84.9456 102.366 84.9326 102.367C84.8863 102.373 84.8388 102.378 84.7925 102.383C84.7019 102.392 84.6113 102.4 84.5207 102.408C84.4474 102.415 84.3827 102.434 84.3299 102.487C84.2825 102.534 84.248 102.611 84.2512 102.678C84.2566 102.813 84.3698 102.961 84.5207 102.947C84.7342 102.929 84.9477 102.909 85.1591 102.876C85.2486 102.862 85.338 102.845 85.4254 102.82C85.5106 102.796 85.6022 102.765 85.6745 102.713C85.7327 102.671 85.778 102.624 85.7984 102.552C85.8157 102.487 85.8082 102.401 85.7715 102.344C85.6982 102.231 85.5246 102.159 85.4027 102.247Z" fill="white"/>
  <path d="M65.824 100.375C65.6482 100.317 65.4714 100.258 65.3 100.188C65.2935 100.186 65.2881 100.184 65.2827 100.182C65.2633 100.173 65.245 100.165 65.2267 100.156C65.1889 100.139 65.1512 100.121 65.1145 100.101C65.0854 100.084 65.0563 100.066 65.0272 100.046C65.0175 100.037 65.0078 100.027 64.9981 100.017C64.9064 99.9092 64.7102 99.9148 64.6175 100.017C64.5118 100.131 64.5193 100.283 64.6175 100.398C64.6735 100.464 64.7522 100.515 64.8277 100.558C64.9248 100.613 65.0272 100.655 65.1307 100.698C65.3108 100.772 65.4962 100.833 65.6806 100.895C65.8143 100.94 65.9814 100.844 66.0127 100.707C66.0461 100.558 65.9674 100.423 65.824 100.375Z" fill="white"/>
  <path d="M63.2821 101.069C63.3392 101.135 63.4169 101.186 63.4923 101.229C63.5894 101.284 63.6929 101.327 63.7953 101.369C63.9754 101.444 64.1608 101.505 64.3452 101.567C64.48 101.611 64.6461 101.515 64.6773 101.378C64.7107 101.23 64.632 101.095 64.4886 101.047C64.3129 100.988 64.136 100.93 63.9646 100.86C63.9538 100.856 63.943 100.851 63.9323 100.847C63.9031 100.835 63.9991 100.876 63.9528 100.855C63.9323 100.846 63.9118 100.837 63.8913 100.828C63.8536 100.811 63.8158 100.792 63.7802 100.772C63.7468 100.754 63.7145 100.734 63.6832 100.712C63.6422 100.684 63.7414 100.762 63.694 100.72C63.6832 100.71 63.6735 100.699 63.6638 100.688C63.5711 100.581 63.3759 100.586 63.2821 100.688C63.1775 100.802 63.184 100.955 63.2821 101.069Z" fill="white"/>
  <path d="M52.1381 101.678C52.1208 101.699 52.1004 101.717 52.0788 101.733C52.0971 101.719 52.1154 101.705 52.1338 101.691C52.0389 101.763 51.9268 101.812 51.8179 101.858C51.8394 101.849 51.861 101.84 51.8825 101.831C51.7402 101.891 51.5957 101.942 51.4502 101.994C51.3833 102.018 51.3262 102.055 51.2895 102.118C51.255 102.175 51.241 102.261 51.2615 102.325C51.3046 102.456 51.4513 102.564 51.5936 102.514C51.7704 102.451 51.9451 102.386 52.1176 102.312C52.1898 102.281 52.2621 102.247 52.33 102.207C52.3979 102.167 52.4691 102.12 52.5187 102.059C52.5651 102.003 52.5974 101.945 52.5974 101.869C52.5974 101.803 52.5683 101.724 52.5187 101.678C52.4669 101.631 52.4001 101.596 52.3279 101.599C52.261 101.602 52.1823 101.624 52.1381 101.678Z" fill="white"/>
  <path d="M53.2982 102.426C53.2809 102.447 53.2615 102.464 53.2399 102.481C53.2583 102.467 53.2766 102.453 53.2949 102.439C53.199 102.51 53.0879 102.56 52.979 102.606C53.0006 102.597 53.0221 102.588 53.0437 102.579C52.9014 102.638 52.7569 102.69 52.6113 102.741C52.5445 102.765 52.4873 102.802 52.4496 102.865C52.4162 102.923 52.4022 103.008 52.4226 103.073C52.4658 103.204 52.6124 103.312 52.7547 103.261C52.9316 103.198 53.1062 103.134 53.2788 103.059C53.351 103.028 53.4232 102.995 53.4912 102.955C53.558 102.915 53.6292 102.868 53.6799 102.807C53.7262 102.75 53.7586 102.693 53.7586 102.616C53.7586 102.55 53.7295 102.471 53.6799 102.426C53.6281 102.379 53.5613 102.344 53.489 102.347C53.4222 102.35 53.3434 102.371 53.2982 102.426Z" fill="white"/>
</svg>