<svg xmlns="http://www.w3.org/2000/svg" width="32" height="32" viewBox="0 0 32 32" fill="none">
  <path fill-rule="evenodd" clip-rule="evenodd" d="M13.1119 3.9499C11.8453 2.68337 9.79166 2.68337 8.52513 3.9499C7.25854 5.21649 7.25859 7.27011 8.52513 8.53671C9.79166 9.80324 11.8453 9.80324 13.1119 8.53671C14.3785 7.27011 14.3785 5.21644 13.1119 3.9499ZM12.392 12.7347C11.2596 11.6023 9.42329 11.6022 8.29085 12.7347C7.15841 13.8671 7.15841 15.7033 8.29085 16.8358C9.42324 17.9682 11.2595 17.9682 12.392 16.8358C13.5244 15.7034 13.5243 13.8671 12.392 12.7347ZM10.3414 11.3322C12.2484 11.3322 13.7945 12.8782 13.7945 14.7852C13.7945 16.1255 13.0266 17.3114 11.8679 17.8834C13.311 18.2657 14.5632 19.1801 15.3761 20.4258V18.121L14.5489 17.2938C14.2915 17.0364 14.6826 16.6453 14.94 16.9027L18.2753 20.238C18.955 20.9177 20.0688 20.9176 20.7484 20.238C21.4281 19.5584 21.4281 18.4445 20.7484 17.7649L14.7223 11.7392L14.7228 11.7388C14.179 11.1789 13.6407 10.7838 12.9389 10.479C10.2994 9.33259 7.25057 10.5003 6.00035 13.0645L5.9998 13.0642C5.99725 13.0694 5.9946 13.0745 5.99172 13.0796L3.2023 17.9637C2.78563 18.6933 3.03225 19.6338 3.76152 20.0549L5.0742 20.8127C5.51941 20.0039 6.14457 19.3076 6.8978 18.7773L5.98475 18.1406C5.86006 18.0535 5.82958 17.8818 5.91671 17.7571C6.00384 17.6324 6.17555 17.6019 6.30024 17.6891L7.40286 18.458C7.84243 18.2096 8.31591 18.015 8.81428 17.8831C6.70269 16.8401 6.22285 14.0206 7.89974 12.3436C8.52463 11.7187 9.38789 11.3322 10.3414 11.3322ZM15.9293 20.8331V18.6742L17.8842 20.6291C17.9584 20.7033 18.0364 20.7712 18.1177 20.8331H15.9293ZM12.9045 27.5068H21.3803C21.5758 27.5068 21.785 27.3307 21.832 27.1408L23.1995 21.6205C23.2054 21.5967 23.2083 21.5725 23.2083 21.5485H23.2094C23.2094 21.4389 23.1395 21.3863 23.0336 21.3863H14.5601C14.3646 21.3863 14.1554 21.5624 14.1084 21.7523L12.7408 27.2726C12.7078 27.4059 12.7608 27.5059 12.9045 27.5068ZM9.58001 25.8394C9.5554 25.9386 9.51684 26.0359 9.46351 26.1284L9.46307 26.1282C9.153 26.6652 8.45498 26.852 7.91888 26.5425L5.96224 25.4128C5.95278 25.4073 5.9431 25.4025 5.9333 25.3983C5.62025 25.2381 5.35655 24.9939 5.17194 24.6958C4.99177 24.4047 4.8876 24.0608 4.8876 23.6922C4.8876 22.1926 5.50126 20.8292 6.48987 19.8406C8.99656 17.3339 13.1296 17.8478 14.9804 20.8331H14.5602C14.1134 20.8331 13.6807 21.1841 13.5726 21.6205L12.5853 25.6059H10.1648C10.1791 25.0022 9.86867 24.42 9.32538 24.1063L9.3251 24.1068L6.81819 22.6595C6.68631 22.5837 6.51798 22.6291 6.44219 22.761C6.3664 22.8929 6.41187 23.0612 6.54375 23.137L9.04906 24.5835L9.04878 24.5839C9.31774 24.7392 9.4988 24.9907 9.57387 25.2709C9.63583 25.5024 9.61586 25.6272 9.58001 25.8394ZM9.15195 27.1053C9.25877 27.3453 9.49759 27.5068 9.76909 27.5068H12.1962C12.17 27.3867 12.1742 27.2651 12.205 27.1408L12.4482 26.1591H10.0567L9.94014 26.4044L9.94058 26.4047C9.75355 26.7286 9.4728 26.967 9.15195 27.1053ZM10.3064 27.1113H10.5457C10.9098 27.1113 10.9098 26.5581 10.5457 26.5581H10.3064C9.94219 26.5581 9.94219 27.1113 10.3064 27.1113ZM11.389 27.1113H11.6283C11.9925 27.1113 11.9925 26.5581 11.6283 26.5581H11.389C11.0248 26.5581 11.0248 27.1113 11.389 27.1113ZM22.8377 7.92974C22.2136 7.92974 21.7039 8.4394 21.7039 9.06357V10.2132H20.3186C20.2478 10.2132 20.177 10.2403 20.1231 10.2943L19.0121 11.4052V10.4898C19.0121 10.3371 18.8882 10.2132 18.7355 10.2132H17.813C17.472 10.2132 17.192 9.93319 17.192 9.59226V5.254C17.192 4.91301 17.472 4.63304 17.813 4.63304H23.5474C23.8883 4.63304 24.1683 4.91301 24.1683 5.254V7.92969L22.8377 7.92974ZM28.3144 8.48294C26.4888 8.48294 24.6633 8.48294 22.8377 8.48294C22.519 8.48294 22.2572 8.74476 22.2572 9.06357V13.2068C22.2572 13.5255 22.519 13.7873 22.8377 13.7873H23.7188C23.8715 13.7873 23.9954 13.9112 23.9954 14.0639V14.9082L25.0352 13.8684C25.0892 13.8144 25.16 13.7874 25.2307 13.7874V13.7873H28.3144C28.6331 13.7873 28.8949 13.5255 28.8949 13.2068V9.06351C28.895 8.74476 28.6332 8.48294 28.3144 8.48294ZM23.7828 10.051H25.4922C25.8564 10.051 25.8564 9.49783 25.4922 9.49783H23.7828C23.4186 9.49783 23.4186 10.051 23.7828 10.051ZM27.5334 10.9112H23.7828C23.4186 10.9112 23.4186 11.4644 23.7828 11.4644H27.5334C27.8976 11.4644 27.8976 10.9112 27.5334 10.9112ZM27.5334 12.0895C27.8976 12.0895 27.8976 12.6427 27.5334 12.6427H23.7828C23.4186 12.6427 23.4186 12.0895 23.7828 12.0895H27.5334ZM22.9184 5.70413H18.442C18.0778 5.70413 18.0778 6.25733 18.442 6.25733H22.9184C23.2826 6.25733 23.2826 5.70413 22.9184 5.70413ZM20.8577 7.05382H18.442C18.0778 7.05382 18.0778 7.60701 18.442 7.60701H20.8577C21.2219 7.60701 21.2219 7.05382 20.8577 7.05382ZM20.8577 8.3994H18.442C18.0778 8.3994 18.0778 8.9526 18.442 8.9526H20.8577C21.2219 8.9526 21.2219 8.3994 20.8577 8.3994ZM14.9296 28.06H21.3803C21.8271 28.06 22.2598 27.709 22.3679 27.2726L23.1193 24.2396H25.0575C25.1796 24.2396 25.2846 24.2621 25.3554 24.2983C25.3706 24.3061 25.3801 24.242 25.3801 24.2695V28.9701C25.3801 28.9977 25.3706 28.9336 25.3554 28.9413C25.2846 28.9775 25.1796 29 25.0575 29H4.6317C4.50961 29 4.40467 28.9775 4.33386 28.9413C4.31859 28.9335 4.30913 28.9976 4.30913 28.9701V24.2695C4.30913 24.2415 4.31848 24.3068 4.33347 24.299C4.35421 24.2883 4.37767 24.2788 4.40339 24.2706C4.46546 24.5262 4.56769 24.7668 4.70295 24.9853C4.94043 25.3689 5.28043 25.6833 5.68431 25.8896L7.64218 27.02C7.94682 27.1959 8.2851 27.2649 8.61259 27.239C8.78363 27.7226 9.24505 28.06 9.76904 28.06H14.9296Z" fill="#764DEF"/>
</svg>