<svg xmlns="http://www.w3.org/2000/svg" width="295" height="92" viewBox="0 0 295 92" fill="none">
  <path d="M294.264 11.2215C294.499 11.0756 294.57 10.7673 294.425 10.5328L292.048 6.71175C291.902 6.47727 291.594 6.40543 291.359 6.55129C291.125 6.69714 291.053 7.00547 291.199 7.23995L293.311 10.6364L289.915 12.7492C289.68 12.8951 289.609 13.2034 289.754 13.4379C289.9 13.6724 290.209 13.7442 290.443 13.5983L294.264 11.2215ZM1.38902 91.6108C2.62377 90.0815 3.9351 88.5211 5.32249 86.9351L4.56982 86.2767C3.17404 87.8723 1.85424 89.4427 0.610975 90.9826L1.38902 91.6108ZM13.7054 77.9965C16.4736 75.2312 19.4493 72.422 22.6302 69.5933L21.9657 68.846C18.7706 71.6874 15.7808 74.5098 12.9987 77.289L13.7054 77.9965ZM31.9901 61.7062C35.0964 59.2239 38.3572 56.744 41.7708 54.2829L41.186 53.4718C37.7589 55.9426 34.485 58.4324 31.3659 60.925L31.9901 61.7062ZM51.8791 47.355C55.2362 45.1684 58.7178 43.0099 62.3225 40.8917L61.8159 40.0296C58.1978 42.1556 54.7032 44.3222 51.3333 46.5171L51.8791 47.355ZM73.0187 34.9264C76.5742 33.0467 80.2344 31.2114 83.9981 29.4302L83.5704 28.5263C79.7931 30.3139 76.1198 32.1558 72.5514 34.0424L73.0187 34.9264ZM95.2044 24.4244C98.912 22.8644 102.71 21.3599 106.596 19.9188L106.249 18.9811C102.348 20.4273 98.5373 21.9371 94.8165 23.5027L95.2044 24.4244ZM118.184 15.9024C122.024 14.6627 125.943 13.4866 129.941 12.3807L129.674 11.4169C125.663 12.5265 121.73 13.7068 117.877 14.9508L118.184 15.9024ZM141.841 9.35613C145.777 8.44288 149.783 7.59869 153.859 6.82926L153.673 5.84662C149.584 6.61863 145.564 7.46566 141.615 8.38201L141.841 9.35613ZM165.947 4.80154C169.94 4.21479 173.995 3.70029 178.112 3.26288L178.006 2.26847C173.876 2.7073 169.808 3.22349 165.802 3.81216L165.947 4.80154ZM190.331 2.20758C194.36 1.93894 198.445 1.74436 202.585 1.62803L202.556 0.628429C198.404 0.745119 194.307 0.940306 190.264 1.2098L190.331 2.20758ZM214.854 1.51487C218.895 1.55324 222.985 1.66617 227.124 1.85727L227.17 0.858339C223.019 0.666669 218.917 0.553398 214.864 0.514915L214.854 1.51487ZM239.378 2.64329C243.407 2.97359 247.479 3.37788 251.596 3.85927L251.712 2.86603C247.584 2.38331 243.5 1.97788 239.459 1.64664L239.378 2.64329ZM263.741 5.48699C267.731 6.08946 271.759 6.7642 275.827 7.51387L276.008 6.53043C271.93 5.77882 267.891 5.10229 263.89 4.4982L263.741 5.48699ZM287.848 9.92555C289.852 10.3601 291.865 10.8128 293.887 11.2839L294.113 10.3099C292.087 9.83768 290.069 9.38389 288.06 8.94827L287.848 9.92555ZM294.528 11.646C294.997 11.3543 295.141 10.7377 294.849 10.2687L290.095 2.6266C289.804 2.15764 289.187 2.01396 288.718 2.30567C288.249 2.59738 288.105 3.21403 288.397 3.68299L292.623 10.476L285.83 14.7015C285.361 14.9932 285.217 15.6099 285.509 16.0788C285.8 16.5478 286.417 16.6915 286.886 16.3998L294.528 11.646ZM1.77805 91.9249C3.00854 90.4009 4.31562 88.8456 5.69883 87.2643L4.19348 85.9475C2.79352 87.5479 1.46948 89.1234 0.22195 90.6684L1.77805 91.9249ZM14.0588 78.3502C16.82 75.5919 19.7887 72.7893 22.9625 69.9669L21.6334 68.4724C18.4312 71.3201 15.4343 74.1492 12.6453 76.9352L14.0588 78.3502ZM32.3023 62.0968C35.4021 59.6196 38.6563 57.1448 42.0632 54.6885L40.8936 53.0662C37.4598 55.5418 34.1793 58.0367 31.0537 60.5345L32.3023 62.0968ZM52.152 47.774C55.5027 45.5915 58.9778 43.4371 62.5758 41.3228L61.5626 39.5985C57.9378 41.7285 54.4367 43.8991 51.0604 46.0981L52.152 47.774ZM73.2524 35.3685C76.8015 33.4921 80.455 31.6601 84.212 29.8821L83.3565 28.0743C79.5725 29.8651 75.8925 31.7103 72.3177 33.6004L73.2524 35.3685ZM95.3983 24.8853C99.0994 23.328 102.89 21.8262 106.77 20.3876L106.075 18.5123C102.168 19.961 98.35 21.4735 94.6226 23.0418L95.3983 24.8853ZM118.338 16.3783C122.171 15.1407 126.084 13.9666 130.074 12.8626L129.541 10.935C125.523 12.0465 121.583 13.2288 117.723 14.475L118.338 16.3783ZM141.954 9.8432C145.883 8.93149 149.883 8.08873 153.951 7.32058L153.58 5.3553C149.484 6.12859 145.458 6.97705 141.502 7.89495L141.954 9.8432ZM166.02 5.29623C170.006 4.71045 174.055 4.19678 178.164 3.76008L177.953 1.77127C173.817 2.21081 169.742 2.72783 165.729 3.31748L166.02 5.29623ZM190.364 2.70648C194.387 2.43826 198.466 2.24399 202.599 2.12784L202.542 0.128626C198.384 0.245497 194.28 0.440987 190.231 0.710907L190.364 2.70648ZM214.85 2.01485C218.884 2.05316 222.968 2.16592 227.101 2.35674L227.193 0.358871C223.036 0.16692 218.928 0.0534784 214.869 0.0149371L214.85 2.01485ZM239.337 3.14162C243.36 3.47145 247.427 3.87517 251.538 4.35588L251.77 2.36942C247.637 1.88603 243.546 1.48003 239.5 1.14831L239.337 3.14162ZM263.666 5.98138C267.651 6.58305 271.674 7.25689 275.736 8.00559L276.099 6.03871C272.015 5.28612 267.971 4.60871 263.965 4.0038L263.666 5.98138ZM287.742 10.4142C289.743 10.8482 291.754 11.3003 293.773 11.7708L294.227 9.82299C292.198 9.35015 290.177 8.89579 288.166 8.45963L287.742 10.4142Z" fill="#B5AECB"/>
</svg>