<svg xmlns="http://www.w3.org/2000/svg" width="185" height="170" viewBox="0 0 185 170" fill="none">
  <path d="M20.2722 125.049C16.3921 125.576 -1.20998 127.62 0.0660003 130.747C1.74004 134.85 8.93359 135.665 14.9595 135.748C20.4065 135.822 32.8675 135.183 33.3595 136.538C34.3204 139.184 23.2371 140.779 17.8291 141.605C15.1013 142.021 12.2514 142.477 10.2606 143.621C8.26987 144.764 7.5204 146.828 9.42274 148.127C10.9103 149.142 13.3827 149.351 15.6106 149.488C28.8552 150.302 48.1553 149.095 49.1348 151.43C50.8868 155.607 31.8442 156.365 38.7788 163.418C46.7482 171.524 84.5333 169.945 91.9351 169.747C119.197 169.016 142.113 168.217 167.81 163.226C184.084 160.065 181.612 151.096 173.034 147.36C159.644 141.528 114.181 146.763 110.928 140.233C110 138.367 118.814 134.272 120.621 133.348C122.428 132.423 123.642 130.973 123.07 129.558C122.069 127.078 117.001 127.042 112.715 126.687C107.312 126.24 93.4699 127.45 86.4306 128.118C80.8523 128.648 60.9415 130.675 60.6575 128.021C60.2986 124.667 63.8096 125.608 68.7586 124.299C69.9419 123.985 71.2154 123.621 71.742 122.925C72.4192 122.03 71.5246 120.896 70.1252 120.293C68.7258 119.69 66.9598 119.502 65.265 119.392C52.9146 118.596 37.1851 122.749 20.2722 125.049Z" fill="#DDD1FF"/>
  <path d="M71.6856 78.8349C71.6172 78.8896 71.5501 78.943 71.4831 78.9977C71.4024 79.0647 71.3162 79.1277 71.2451 79.2056C71.0714 79.3985 70.9236 79.6187 70.7718 79.8294C70.7335 79.8827 70.6966 79.9347 70.6583 79.9867C70.6432 80.0072 70.6282 80.0277 70.6131 80.0482C70.5789 80.092 70.6665 79.9812 70.6405 80.0113C70.6336 80.0195 70.6282 80.0277 70.6213 80.0359C70.5625 80.1071 70.5215 80.1809 70.5215 80.2767C70.5215 80.3615 70.5584 80.4614 70.6213 80.5188C70.7472 80.6351 70.9838 80.6665 71.1056 80.5188C71.2588 80.3328 71.3928 80.129 71.5351 79.9347C71.5707 79.8868 71.6199 79.839 71.6459 79.787C71.6473 79.7842 71.5884 79.8608 71.6185 79.8225C71.6226 79.8171 71.6267 79.8116 71.6309 79.8075C71.6391 79.7966 71.6473 79.787 71.6555 79.776C71.6719 79.7569 71.6883 79.7364 71.7047 79.7172C71.7704 79.6406 71.847 79.5804 71.9236 79.5175C72.0043 79.4505 72.0864 79.3848 72.1684 79.3192C72.2327 79.2685 72.2697 79.155 72.2697 79.077C72.2697 78.9936 72.2314 78.8937 72.1684 78.8349C72.1041 78.7761 72.018 78.731 71.9277 78.7351C71.8306 78.7392 71.7608 78.7761 71.6856 78.8349Z" fill="#131716"/>
  <path d="M66.2073 79.8487C66.2073 79.8487 67.0349 80.0429 68.2811 80.0279C69.4055 80.0142 70.5368 79.6804 70.6708 79.8323C71.0005 80.2057 70.6366 81.2043 69.9746 81.9142C69.4082 82.5202 68.2742 82.7692 67.5274 82.8075C65.6807 82.9019 64.6452 82.7623 64.295 82.7076C64.0898 82.6762 63.6712 82.5667 63.4633 82.5681C63.291 82.5708 62.7698 82.7309 62.7698 82.7309C62.7698 82.7309 53.417 87.0562 51.0385 86.1848C49.1126 85.479 48.5916 81.5572 48.5916 81.5572L47.4648 74.6739L52.535 73.5249C52.8812 76.7463 53.2745 81.3069 53.9851 81.7733C54.6387 82.2015 62.6604 80.6092 62.6604 80.6092L62.8204 80.586C62.8204 80.586 63.1241 80.5436 63.3183 80.4697C63.5331 80.3876 63.8901 80.084 64.0761 79.9499C64.4455 79.6832 65.351 79.5163 66.0911 79.2701L66.2073 79.8487Z" fill="white"/>
  <path d="M66.0005 78.9403C65.4971 79.1004 64.9773 79.2139 64.4794 79.3904C64.0827 79.5313 63.8146 79.7583 63.4658 79.9841C63.1306 80.2002 62.775 80.2426 62.3937 80.3137C61.3827 80.4998 60.3739 80.6967 59.3607 80.8718C58.0214 81.1044 56.6747 81.3383 55.3202 81.4587C55.0374 81.4846 54.4504 81.6214 54.1836 81.4846C53.9518 81.3643 53.8115 80.5681 53.7409 80.2481C53.2567 78.0457 53.1159 75.7627 52.8767 73.5248C52.8304 73.0912 52.1459 73.0871 52.1927 73.5248C52.4229 75.6765 52.5876 77.8501 52.9901 79.9786C53.1611 80.8828 53.2916 82.1481 54.4135 82.1878C55.6576 82.2315 56.9539 81.9552 58.1762 81.7596C59.5102 81.5462 60.8398 81.3068 62.1662 81.0524C62.4521 80.9977 62.7394 80.9512 63.0239 80.8964C63.541 80.798 63.8214 80.5189 64.2482 80.2453C64.8063 79.8883 65.5573 79.798 66.181 79.5997C66.5996 79.467 66.4204 78.8063 66.0005 78.9403Z" fill="#131716"/>
  <path d="M70.6709 79.8317C70.5368 79.6799 69.4056 80.0137 68.2811 80.0273C67.035 80.0424 66.2074 79.8481 66.2074 79.8481L63.2842 81.8467L64.2951 82.7071C64.6453 82.7618 65.6808 82.9013 67.5274 82.8069C68.2743 82.7686 69.4083 82.5197 69.9746 81.9137C70.6367 81.2037 71.0005 80.2052 70.6709 79.8317Z" fill="white"/>
  <path d="M48.2625 81.649C48.4897 83.3069 49.1582 85.9046 50.9485 86.5146C51.7159 86.7759 52.6097 86.6159 53.3835 86.4681C54.5878 86.237 55.7659 85.8621 56.9227 85.46C58.884 84.7801 60.7734 83.9471 62.6845 83.1441C63.363 82.8596 64.01 83.032 64.7856 83.1113C66.2438 83.2604 67.9783 83.3507 69.3462 82.7365C70.0917 82.4013 70.6457 81.7844 70.9507 81.0252C71.1176 80.6121 71.3187 79.8447 70.844 79.537C70.3283 79.2018 69.1082 79.6464 68.5884 79.6751C67.8346 79.7162 67.0385 79.6847 66.2985 79.5192C65.8703 79.4234 65.687 80.0827 66.1179 80.1785C67.2861 80.4398 68.5077 80.4042 69.6854 80.236C69.8263 80.2154 70.249 80.0869 70.3598 80.1416C70.58 80.2524 70.3789 79.9761 70.4528 80.2592C70.5308 80.5615 70.1724 81.0977 70.0082 81.3316C69.4378 82.1483 68.4707 82.3931 67.5282 82.4656C66.3368 82.5573 65.1453 82.4957 63.9717 82.296C63.3917 82.1962 62.8938 82.3056 62.366 82.5409C60.8047 83.2399 59.225 83.8978 57.6191 84.4874C55.8172 85.1481 53.7172 86.0236 51.7609 85.9579C49.7906 85.8909 49.1387 83.047 48.9221 81.4671C48.8626 81.0334 48.2036 81.2181 48.2625 81.649Z" fill="#131716"/>
  <path d="M24.6374 97.5417C24.6374 97.5417 26.8768 86.7725 28.486 83.677C29.5736 81.5841 33.8611 76.3874 33.8611 76.3874L30.356 71.4725C27.9559 74.3971 25.582 78.0727 24.7654 80.3489C23.3322 84.3418 22.5861 97.2507 22.5861 97.2507L22.5227 98.0359C22.5227 98.0359 22.4731 98.3524 22.4397 98.522C22.3999 98.7252 22.208 99.1134 22.1352 99.3072C22.0107 99.6387 21.2683 100.673 20.9853 102.5C20.8707 103.239 21.2785 104.353 21.7567 105.029C22.3171 105.822 23.2209 106.381 23.6541 106.134C23.8291 106.035 23.7322 104.858 23.9478 103.755C24.1869 102.532 24.5448 101.761 24.5448 101.761C24.5448 101.761 24.7698 101.691 24.7605 102.398C24.7542 102.862 25.2219 102.837 25.3608 102.688C25.4784 102.562 25.6409 102.257 25.5387 101.381C25.4481 100.607 25.065 100.07 24.8792 99.6542C24.7856 99.4444 24.561 99.0335 24.5244 98.8068C24.4913 98.6011 24.532 98.2706 24.532 98.2706L24.6374 97.5417Z" fill="white"/>
  <path d="M33.6195 76.1465C32.3767 77.6539 31.165 79.1915 30.0083 80.7659C29.3429 81.6715 28.6466 82.5948 28.1409 83.6029C27.6807 84.5208 27.3591 85.5125 27.0516 86.4892C26.2629 88.9952 25.6392 91.5546 25.0475 94.1125C24.7404 95.4394 24.3675 96.7841 24.2083 98.1405C24.1485 98.6502 24.2168 99.0399 24.4293 99.5044C24.5609 99.792 24.714 100.068 24.8505 100.353C25.0379 100.744 25.5018 101.816 25.2026 102.226C25.078 102.397 25.1766 102.332 25.0936 102.141C25.0428 102.025 25.0692 101.882 25.0093 101.761C24.9512 101.643 24.888 101.53 24.7619 101.47C24.4879 101.338 24.3418 101.479 24.2049 101.693C23.913 102.15 23.7937 102.855 23.6803 103.369C23.5867 103.793 23.526 104.22 23.4875 104.652C23.4641 104.914 23.457 105.178 23.4372 105.44C23.4164 105.718 23.4558 105.794 23.3023 105.84C22.9405 105.947 22.2035 105.066 22.0522 104.858C21.7771 104.478 21.5673 104.022 21.4403 103.574C21.1506 102.55 21.4965 101.462 21.9151 100.517C22.3089 99.627 22.7728 98.8736 22.8773 97.8813C22.924 97.4389 22.9431 96.9934 22.9721 96.5488C23.1081 94.4627 23.2762 92.3781 23.4804 90.2975C23.7626 87.4221 24.0462 84.4962 24.734 81.6824C25.0988 80.19 25.7669 78.8372 26.5392 77.5144C27.729 75.4762 29.1077 73.5447 30.5979 71.7158C30.8737 71.378 30.3926 70.891 30.1144 71.233C28.7889 72.858 27.551 74.5597 26.4456 76.3435C25.6171 77.6799 24.8006 79.0848 24.3239 80.5922C23.5725 82.9682 23.3226 85.5385 23.0395 88.0049C22.7491 90.5368 22.53 93.0771 22.3512 95.6186C22.3136 96.1548 22.283 96.6897 22.2459 97.2245C22.1775 98.2082 21.9102 98.9698 21.4779 99.8467C20.7896 101.243 20.3505 102.752 20.955 104.249C21.2413 104.958 21.6762 105.608 22.2927 106.07C22.6584 106.344 23.3689 106.761 23.8268 106.431C24.2302 106.14 24.1213 105.348 24.1506 104.934C24.1904 104.373 24.2685 103.821 24.405 103.275C24.4287 103.18 24.4944 103.02 24.5642 102.846C24.6122 102.92 24.6741 102.985 24.7719 103.039C25.1452 103.245 25.5453 103.068 25.748 102.727C26.5686 101.349 25.0698 99.9826 24.875 98.7249C24.7944 98.204 24.9702 97.614 25.081 97.0973C25.5752 94.7951 26.1099 92.4998 26.7048 90.2209C27.3888 87.5986 28.0308 84.8587 29.5572 82.5838C30.9463 80.5128 32.5179 78.5526 34.1032 76.6294C34.381 76.2929 33.8998 75.8059 33.6195 76.1465Z" fill="#131716"/>
  <path d="M52.9153 76.7889C52.6128 74.2008 52.3863 71.3364 52.1265 70.3871C51.8456 69.3598 52.1209 69.1902 51.4085 68.3982C50.5011 67.39 47.9744 66.6678 46.446 65.8402L43.6003 70.6826L39.9899 64.7226C39.9295 64.7978 39.8645 64.869 39.7943 64.9387C39.3244 65.4011 37.6568 66.2205 37.0381 66.4503C35.8143 66.9058 34.6089 66.8948 33.5527 67.6622C31.6434 69.0507 28.9478 72.2967 26.8896 75.3977C26.8914 75.3991 28.2219 76.9435 29.2014 77.5235C30.4975 78.2895 32.2525 78.9447 32.2525 78.9447V78.983C32.3765 78.823 32.5011 78.6629 32.6197 78.5125L32.6377 78.7696C32.6377 78.7696 32.9619 83.3945 32.8897 84.6338C32.8192 85.8431 31.8432 90.9563 31.4783 92.9206L31.5227 92.9302C31.7159 92.9767 31.9171 94.387 33.1403 94.7549C35.3321 95.4143 37.9612 93.2968 40.7969 95.5347C43.6755 97.8054 45.7948 95.0463 45.7948 95.0463L45.8267 95.0504L48.575 82.2578L48.5921 82.2591L48.6649 81.8433L49.0178 77.4195L50.2372 77.4797L51.1795 77.3593L52.9153 76.7889Z" fill="#764DEF"/>
  <path d="M42.6995 158.553H18.2646V150.554H42.6995V158.553Z" fill="#DDD1FF"/>
  <path d="M43.0407 150.554C43.0407 150.369 42.8841 150.212 42.6987 150.212C35.5513 150.212 28.4039 150.212 21.2564 150.212C20.2589 150.212 19.2613 150.212 18.2639 150.212C18.0789 150.212 17.9219 150.369 17.9219 150.554C17.9219 153.22 17.9219 155.886 17.9219 158.553C17.9219 158.737 18.0786 158.895 18.2639 158.895C25.4113 158.895 32.5587 158.895 39.7062 158.895C40.7038 158.895 41.7011 158.895 42.6987 158.895C42.7924 158.895 42.8618 158.859 42.9157 158.811C42.9238 158.805 42.9321 158.799 42.9396 158.793C42.9456 158.786 42.95 158.779 42.9554 158.772C43.0052 158.718 43.0407 158.647 43.0407 158.553C43.0407 155.886 43.0407 153.22 43.0407 150.554ZM21.2564 158.211C20.3729 158.211 19.4894 158.211 18.6058 158.211C18.6058 155.772 18.6058 153.334 18.6058 150.896C25.6393 150.896 32.6728 150.896 39.7062 150.896C40.5897 150.896 41.4732 150.896 42.3568 150.896C42.3568 153.334 42.3568 155.772 42.3568 158.211C35.3233 158.211 28.2899 158.211 21.2564 158.211Z" fill="#131716"/>
  <path d="M51.4028 150.818L42.7012 158.553V150.554L51.4028 142.82V150.818Z" fill="#764DEF"/>
  <path d="M51.7422 150.783C51.7422 148.129 51.7422 145.474 51.7422 142.819C51.7422 142.51 51.3747 142.385 51.1584 142.577C48.9926 144.502 46.8268 146.428 44.6609 148.353C44.1303 148.825 43.5996 149.296 43.069 149.768C42.8789 149.937 42.5211 150.145 42.4033 150.381C42.2633 150.662 42.3566 151.15 42.3566 151.446C42.3566 152.301 42.3566 153.155 42.3566 154.009C42.3566 155.524 42.3566 157.038 42.3566 158.552C42.3566 158.862 42.7242 158.986 42.9405 158.794C45.8386 156.218 48.737 153.642 51.6351 151.066C51.6353 151.066 51.6354 151.065 51.6355 151.065C51.6377 151.063 51.6399 151.061 51.6421 151.059C51.7369 150.975 51.7592 150.876 51.7422 150.783ZM43.3742 150.41C43.8628 149.976 44.3513 149.542 44.8401 149.107C46.2125 147.887 47.585 146.667 48.9576 145.447C49.6578 144.825 50.3581 144.202 51.0583 143.58C51.0583 145.942 51.0583 148.303 51.0583 150.665C48.3858 153.04 45.7132 155.416 43.0406 157.792C43.0406 156.816 43.0406 155.84 43.0406 154.864C43.0406 153.956 43.0406 153.048 43.0406 152.14C43.0406 151.828 43.0406 151.517 43.0406 151.206C43.0406 151.121 43.0785 150.853 43.0606 150.704C43.1677 150.641 43.3008 150.475 43.3742 150.41Z" fill="#131716"/>
  <path d="M42.6995 150.554H18.2646L26.9663 142.82H51.4012L42.6995 150.554Z" fill="white"/>
  <path d="M51.4008 142.477C46.3427 142.477 41.2846 142.477 36.2263 142.477C33.4927 142.477 30.7588 142.477 28.0252 142.477C27.6221 142.477 27.0808 142.376 26.7217 142.58C25.9814 143 25.3037 143.84 24.6715 144.402C22.4551 146.372 20.2388 148.342 18.0224 150.312C17.7961 150.513 17.9797 150.896 18.2642 150.896C25.4117 150.896 32.5591 150.896 39.7065 150.896C40.7041 150.896 41.7015 150.896 42.6991 150.896C42.7986 150.896 42.8724 150.858 42.927 150.804C42.9314 150.8 42.9364 150.8 42.941 150.796C45.8415 148.218 48.7421 145.639 51.6426 143.061C51.8689 142.86 51.6853 142.477 51.4008 142.477ZM21.2568 150.212C20.5587 150.212 19.8607 150.212 19.1628 150.212C20.8315 148.729 22.5002 147.245 24.1689 145.762C25.0988 144.936 26.1004 144.148 26.9776 143.266C27.0101 143.233 27.0489 143.204 27.0867 143.174C27.2572 143.209 27.5333 143.161 27.681 143.161C33.5597 143.161 39.4381 143.161 45.3169 143.161C47.0452 143.161 48.7737 143.161 50.5022 143.161C47.8582 145.512 45.2141 147.862 42.57 150.212C35.4656 150.212 28.3611 150.212 21.2568 150.212Z" fill="#131716"/>
  <path d="M158.468 158.553H55.9336V136.544H158.468V158.553Z" fill="#DDD1FF"/>
  <path d="M158.468 136.202C155.059 136.202 151.649 136.202 148.239 136.202C140.054 136.202 131.869 136.202 123.684 136.202C113.846 136.202 104.009 136.202 94.1712 136.202C85.6205 136.202 77.071 136.202 68.5216 136.202C65.7079 136.202 62.8941 136.202 60.0814 136.202C58.769 136.202 57.4251 136.118 56.1146 136.202C56.0548 136.206 55.9937 136.202 55.9338 136.202C55.749 136.202 55.5918 136.358 55.5918 136.544C55.5918 142.958 55.5918 149.373 55.5918 155.788C55.5918 156.709 55.5918 157.631 55.5918 158.552C55.5918 158.737 55.7484 158.894 55.9338 158.894C59.3437 158.894 62.7532 158.894 66.1634 158.894C74.3489 158.894 82.5331 158.894 90.7186 158.894C100.557 158.894 110.393 158.894 120.231 158.894C128.782 158.894 137.331 158.894 145.881 158.894C148.695 158.894 151.508 158.894 154.321 158.894C155.634 158.894 156.977 158.978 158.288 158.894C158.348 158.89 158.409 158.894 158.468 158.894C158.563 158.894 158.632 158.859 158.686 158.81C158.694 158.804 158.702 158.799 158.71 158.792C158.716 158.786 158.72 158.779 158.725 158.771C158.775 158.717 158.81 158.647 158.81 158.552C158.81 152.138 158.81 145.723 158.81 139.308C158.81 138.387 158.81 137.465 158.81 136.544C158.81 136.359 158.654 136.202 158.468 136.202ZM148.239 158.21C140.054 158.21 131.869 158.21 123.684 158.21C113.846 158.21 104.009 158.21 94.1712 158.21C85.6205 158.21 77.071 158.21 68.5216 158.21C65.7079 158.21 62.8941 158.21 60.0814 158.21C59.2157 158.21 58.3499 158.21 57.484 158.21C57.1228 158.21 56.6578 158.142 56.2757 158.19C56.2757 151.896 56.2757 145.602 56.2757 139.308C56.2757 138.501 56.2757 137.693 56.2757 136.886C59.5717 136.886 62.8681 136.886 66.1634 136.886C74.3489 136.886 82.5331 136.886 90.7186 136.886C100.557 136.886 110.393 136.886 120.231 136.886C128.782 136.886 137.331 136.886 145.881 136.886C148.695 136.886 151.508 136.886 154.321 136.886C155.187 136.886 156.053 136.886 156.918 136.886C157.28 136.886 157.745 136.954 158.126 136.906C158.126 143.2 158.126 149.494 158.126 155.788C158.126 156.595 158.126 157.403 158.126 158.21C154.831 158.21 151.534 158.21 148.239 158.21Z" fill="#131716"/>
  <path d="M167.169 150.818L158.467 158.553V136.544L167.169 128.809V150.818Z" fill="#764DEF"/>
  <path d="M167.511 150.783C167.511 144.38 167.511 137.977 167.511 131.573C167.511 130.652 167.511 129.73 167.511 128.809C167.511 128.5 167.143 128.375 166.927 128.567C165.183 130.117 163.438 131.668 161.694 133.218C160.704 134.098 159.715 134.978 158.725 135.858C158.388 136.157 158.15 136.296 158.124 136.748C158.005 138.815 158.124 140.924 158.124 142.994C158.124 146.211 158.124 149.427 158.124 152.644C158.124 154.613 158.124 156.583 158.124 158.552C158.124 158.862 158.492 158.986 158.708 158.794C161.607 156.218 164.505 153.642 167.403 151.066C167.404 151.066 167.404 151.065 167.404 151.065C167.405 151.063 167.408 151.061 167.41 151.059C167.505 150.975 167.527 150.876 167.511 150.783ZM161.388 134.404C163.2 132.793 165.013 131.181 166.827 129.57C166.827 135.731 166.827 141.892 166.827 148.053C166.827 148.924 166.827 149.794 166.827 150.665C164.154 153.04 161.481 155.416 158.808 157.792C158.808 153.341 158.808 148.889 158.808 144.438C158.808 142.046 158.808 139.654 158.808 137.262C158.808 137.122 158.855 136.855 158.823 136.689C158.848 136.663 158.871 136.636 158.896 136.619C159.788 136.006 160.58 135.122 161.388 134.404Z" fill="#131716"/>
  <path d="M158.468 136.544H55.9336L64.6352 128.81H167.171L158.468 136.544Z" fill="white"/>
  <path d="M167.171 128.468C162.974 128.468 158.779 128.468 154.584 128.468C144.919 128.468 135.255 128.468 125.592 128.468C114.696 128.468 103.8 128.468 92.9049 128.468C84.9875 128.468 77.0714 128.468 69.154 128.468C68.1568 128.468 67.1596 128.468 66.1624 128.468C65.7027 128.468 65.1884 128.403 64.7315 128.468C64.5742 128.49 64.4757 128.524 64.3348 128.621C63.7166 129.042 63.168 129.658 62.6099 130.154C60.7028 131.849 58.7961 133.544 56.8895 135.239C56.4905 135.593 56.0913 135.948 55.6923 136.303C55.466 136.504 55.6496 136.886 55.9341 136.886C59.344 136.886 62.7536 136.886 66.1637 136.886C74.3493 136.886 82.5335 136.886 90.719 136.886C100.557 136.886 110.394 136.886 120.232 136.886C128.782 136.886 137.332 136.886 145.881 136.886C148.695 136.886 151.509 136.886 154.321 136.886C155.634 136.886 156.978 136.97 158.288 136.886C158.348 136.883 158.41 136.886 158.469 136.886C158.568 136.886 158.642 136.849 158.697 136.795C158.701 136.791 158.707 136.79 158.711 136.786C161.612 134.208 164.512 131.63 167.412 129.052C167.639 128.85 167.456 128.468 167.171 128.468ZM148.239 136.203C140.054 136.203 131.87 136.203 123.684 136.203C113.846 136.203 104.01 136.203 94.1716 136.203C85.6208 136.203 77.0714 136.203 68.522 136.203C65.7082 136.203 62.8944 136.203 60.0818 136.203C59.216 136.203 58.3503 136.203 57.4844 136.203C57.2999 136.203 57.0852 136.183 56.8691 136.17C57.9828 135.18 59.0965 134.19 60.2102 133.2C61.2058 132.316 62.2012 131.431 63.1967 130.546C63.5456 130.235 63.8958 129.925 64.2446 129.614C64.3745 129.499 64.6727 129.317 64.7822 129.152C64.789 129.152 64.7945 129.15 64.8013 129.152C64.9737 129.191 65.2021 129.152 65.3786 129.152C66.1719 129.152 66.9653 129.152 67.7573 129.152C75.051 129.152 82.3447 129.152 89.6384 129.152C100.383 129.152 111.128 129.152 121.873 129.152C131.886 129.152 141.899 129.152 151.912 129.152C155.284 129.152 158.657 129.152 162.029 129.152C163.104 129.152 164.181 129.152 165.256 129.152C165.557 129.152 165.895 129.181 166.227 129.191C163.598 131.528 160.969 133.865 158.34 136.203C154.974 136.203 151.606 136.203 148.239 136.203Z" fill="#131716"/>
  <path d="M73.0848 131.872C72.9056 131.422 72.2955 131.233 71.8783 131.094C71.2244 130.876 70.5377 130.757 69.8948 130.503C68.215 129.841 66.6803 129.165 65.735 127.548C65.5381 127.212 65.0538 127.443 65.1003 127.764L61.9831 128.168C61.9822 127.782 61.3538 127.797 61.3029 128.212C61.1893 129.136 60.9883 130.043 60.6812 130.921C60.5196 131.383 60.2734 131.842 60.1692 132.322C60.0991 132.645 60.1367 132.941 60.4199 133.143C61.0323 133.581 62.0424 133.667 62.7544 133.816C62.8953 133.846 63.0704 133.799 63.1401 133.659C63.2167 133.504 63.2947 133.349 63.3713 133.195C66.0565 133.803 68.7116 135.371 71.5172 134.438C72.1368 134.232 72.7715 134.057 73.0465 133.395C73.223 132.972 73.2571 132.308 73.0848 131.872Z" fill="#131716"/>
  <path d="M37.7551 144.462C37.5744 144.012 36.962 143.827 36.5448 143.692C35.904 143.484 35.2329 143.374 34.6017 143.138C32.9041 142.502 31.3318 141.814 30.3689 140.201C30.169 139.866 29.6838 140.099 29.7342 140.42L26.6213 140.851C26.6138 140.467 25.989 140.483 25.9417 140.898C25.8361 141.823 25.6438 142.731 25.3441 143.612C25.1865 144.076 24.9451 144.537 24.8444 145.018C24.7767 145.341 24.8147 145.636 25.099 145.838C25.712 146.272 26.7273 146.349 27.4385 146.492C27.5784 146.52 27.756 146.475 27.8246 146.335C27.9008 146.178 27.977 146.021 28.0532 145.865C30.7416 146.451 33.4116 147.996 36.2062 147.039C36.8242 146.827 37.4588 146.648 37.729 145.985C37.9024 145.559 37.9303 144.898 37.7551 144.462Z" fill="#131716"/>
  <path d="M30.7929 141.639C30.7713 141.665 30.746 141.688 30.7192 141.709C30.7422 141.691 30.7652 141.674 30.7883 141.656C30.6565 141.757 30.4999 141.825 30.3479 141.889C30.3753 141.878 30.4024 141.866 30.4297 141.855C30.2635 141.924 30.0943 141.986 29.9251 142.048C29.84 142.079 29.7678 142.125 29.7208 142.205C29.6778 142.278 29.6598 142.386 29.6862 142.469C29.7395 142.633 29.927 142.773 30.1069 142.708C30.3302 142.626 30.5526 142.543 30.7701 142.446C30.8616 142.406 30.9523 142.363 31.0381 142.311C31.1234 142.26 31.2136 142.2 31.2766 142.122C31.3354 142.049 31.3767 141.978 31.3767 141.881C31.3767 141.797 31.3394 141.696 31.2766 141.639C31.2114 141.579 31.1259 141.534 31.0348 141.539C30.9497 141.542 30.8489 141.57 30.7929 141.639Z" fill="white"/>
  <path d="M32.2752 142.575C32.2538 142.602 32.2283 142.625 32.2015 142.646C32.2246 142.628 32.2476 142.61 32.2706 142.593C32.1388 142.693 31.9821 142.761 31.8304 142.826C31.8576 142.814 31.8848 142.803 31.9121 142.791C31.7458 142.861 31.5768 142.923 31.4076 142.984C31.3223 143.016 31.2503 143.061 31.2032 143.142C31.1603 143.215 31.1421 143.323 31.1687 143.405C31.2219 143.57 31.4095 143.71 31.5894 143.644C31.8126 143.563 32.035 143.479 32.2524 143.383C32.3439 143.343 32.4346 143.299 32.5204 143.248C32.6057 143.196 32.6959 143.137 32.7589 143.059C32.8179 142.986 32.8592 142.915 32.8592 142.817C32.8592 142.733 32.8218 142.633 32.7589 142.575C32.6938 142.516 32.6082 142.471 32.5172 142.475C32.432 142.479 32.3313 142.506 32.2752 142.575Z" fill="white"/>
  <path d="M66.1115 127.111C65.3195 121.48 64.4481 115.826 63.1855 110.28C62.89 108.982 62.5905 107.66 62.111 106.415C61.7593 105.503 61.2932 105.02 60.4805 104.469C57.4472 102.412 53.8471 101.07 50.4608 99.7216C48.7277 99.0316 46.9809 98.3738 45.2277 97.7338L45.8087 95.0471L45.7955 95.0457C45.7955 95.0457 43.6762 97.8048 40.7976 95.534C37.9619 93.2961 35.3328 95.4137 33.141 94.7543C32.3461 94.5163 31.9854 93.8406 31.7753 93.381C31.7913 93.303 31.8076 93.2237 31.8233 93.1443C32.2973 90.7806 32.7602 88.4059 33.0831 86.0162C33.407 83.6182 33.1481 81.1724 32.9804 78.769C32.9498 78.3326 32.2657 78.3285 32.2964 78.769C32.4498 80.9645 32.7283 83.2448 32.4729 85.4403C32.1851 87.9148 31.6821 90.3743 31.1934 92.816C30.7649 94.9582 30.3517 97.1167 30.1431 99.2926C30.0142 100.638 30.1338 101.922 30.4491 103.238C30.7236 104.383 31.1262 105.244 31.8649 105.971C32.1092 110.309 32.2579 114.72 31.8978 119.053C31.8052 120.167 31.7145 121.36 31.2652 122.398C30.6124 123.905 29.5557 125.207 28.9207 126.723C28.4968 127.735 28.2785 128.851 28.0331 129.916C27.706 131.336 27.413 132.763 27.1304 134.192C26.7199 136.268 26.3311 138.35 25.9693 140.435C25.9392 140.609 26.0138 140.813 26.2082 140.856C27.0214 141.032 27.9744 141.431 28.8016 141.258C29.5208 141.107 30.2983 141.138 30.668 140.465C31.888 138.246 33.0871 136.016 34.2651 133.775C35.7869 130.879 37.3273 127.971 38.617 124.962C39.7554 122.306 40.4327 119.451 41.1498 116.66C41.7774 114.217 42.3742 111.765 42.9413 109.306C44.9534 109.678 46.9628 110.062 48.9641 110.486C50.1963 110.747 51.428 111.018 52.647 111.336C53.2307 111.488 54.1661 111.599 54.6476 111.997C54.9335 112.233 55.118 112.899 55.2577 113.297C55.5443 114.116 55.782 114.952 56.026 115.784C56.3924 117.033 56.8219 118.226 57.354 119.415C58.5881 122.173 59.9904 124.86 61.4129 127.524C61.4947 127.678 61.5785 127.942 61.7297 128.047C62.0656 128.28 62.8052 128.178 63.191 128.203C63.626 128.232 63.9256 128.275 64.3277 128.13C64.8462 127.942 65.3578 127.731 65.8721 127.531C66.0622 127.458 66.1402 127.311 66.1115 127.111Z" fill="#131716"/>
  <path d="M49.7096 58.7075C49.6353 58.3067 48.6256 57.6569 48.522 57.2671C48.2118 56.1003 48.2722 54.8637 47.5922 54.5833C46.306 54.0539 43.9234 53.6955 43.0446 53.9445C42.0142 54.2372 40.5371 54.7433 40.1417 56.9278C39.9745 57.8525 40.2574 59.2314 40.4418 59.8866C40.7259 60.8961 40.9677 61.3489 40.7598 62.6457C40.594 63.6812 40.5407 64.2024 39.7939 64.9383L40.2288 65.112L43.5999 70.6821L46.3189 66.1256L45.6744 65.3323C45.1741 64.9027 46.2238 62.632 46.2238 62.632L46.3189 62.6539C47.2672 62.8659 48.3373 62.8851 48.7484 62.6771C49.3378 62.5144 49.4395 61.0658 49.2284 59.4092C49.192 59.1247 49.7635 58.9989 49.7096 58.7075Z" fill="white"/>
  <path d="M41.0891 62.7378C41.1693 62.1975 41.2121 61.6681 41.1241 61.1264C41.0453 60.6422 40.8728 60.1798 40.7464 59.7065C40.4783 58.7038 40.2878 57.5944 40.5718 56.5767C41.028 54.9407 42.5901 54.1323 44.2067 54.2171C45.2109 54.2704 46.2356 54.4633 47.1857 54.7944C47.6693 54.964 47.7773 55.2731 47.8794 55.7491C47.9962 56.2922 48.0061 56.9037 48.2153 57.4221C48.3539 57.7654 48.668 58.0158 48.9277 58.2661C49.0061 58.3413 49.3771 58.6259 49.3614 58.7462C49.36 58.7572 49.0357 58.9938 48.9894 59.0636C48.8751 59.2387 48.8908 59.385 48.9072 59.5861C48.9347 59.9226 48.9732 60.2578 48.9829 60.5956C48.997 61.0881 49.0292 61.7023 48.806 62.1592C48.6555 62.4656 48.261 62.4683 47.9563 62.4792C47.4464 62.4957 46.9318 62.4396 46.4342 62.3301C45.5095 62.1263 44.7927 61.7474 44.5011 60.7872C44.3734 60.3672 43.713 60.5464 43.8415 60.9691C44.1064 61.8404 44.6768 62.4642 45.527 62.7802C46.4263 63.1153 47.5549 63.2904 48.5067 63.1071C49.5061 62.9156 49.6451 61.9376 49.6683 61.0553C49.6775 60.7092 49.6619 60.3631 49.6336 60.0184C49.6224 59.8802 49.5224 59.5273 49.5698 59.4097C49.5452 59.4712 49.6821 59.3331 49.7169 59.303C50.0596 59.0048 50.1463 58.6819 49.8783 58.2907C49.6066 57.8954 49.1067 57.6437 48.8775 57.2265C48.7324 56.9611 48.7152 56.5617 48.6644 56.2676C48.6098 55.9489 48.5647 55.6274 48.4798 55.3169C48.3531 54.8504 48.137 54.4551 47.6827 54.254C47.1714 54.0283 46.6056 53.897 46.0606 53.7848C44.2461 53.4087 42.1477 53.3143 40.7737 54.8012C39.8503 55.7998 39.6486 57.1786 39.8142 58.4836C39.9907 59.872 40.6402 61.1373 40.4295 62.5558C40.3658 62.9867 41.0245 63.1728 41.0891 62.7378Z" fill="#131716"/>
  <path d="M40.8913 61.5779C40.7902 61.6121 39.3129 57.3155 39.2152 56.9079C38.9491 55.7985 38.4284 53.1379 39.4899 52.1243C40.0584 51.5826 41.9602 51.0026 44.2899 51.9274C45.266 52.3158 47.2273 51.9383 48.8855 52.8835C50.8232 53.9888 51.2473 57.7013 44.1262 55.7602C44.1262 55.7602 45.0068 57.6739 43.8929 57.5317C43.4795 57.4797 42.6217 56.886 42.2999 57.0515C41.8212 57.2977 42.8321 60.909 40.8913 61.5779Z" fill="#131716"/>
  <path d="M111.363 131.198C111.082 130.786 110.765 130.397 110.439 130.019C110.324 129.885 110.208 129.75 110.088 129.62C110.066 129.596 110.043 129.572 110.021 129.547C109.587 128.85 109.214 128.108 108.813 127.393C108.776 127.327 108.728 127.191 108.671 127.114C108.673 127.045 108.661 126.959 108.658 126.905C108.643 126.514 108.628 126.123 108.613 125.732C108.601 125.419 108.253 125.333 108.058 125.466L105.081 125.464L105.068 125.655C104.901 125.661 104.73 125.769 104.712 125.98C104.652 126.668 104.593 127.355 104.533 128.042C104.51 128.307 104.453 128.593 104.463 128.859C104.471 129.109 104.561 129.37 104.613 129.613C104.687 129.949 104.705 130.403 104.853 130.714C104.851 130.72 104.85 130.723 104.849 130.729C104.813 130.927 104.797 131.132 104.776 131.332C104.726 131.816 104.679 132.316 104.734 132.801C104.793 133.32 105.095 133.727 105.438 134.105C105.812 134.518 106.248 134.9 106.786 135.072C107.337 135.247 107.954 135.298 108.53 135.297C109.082 135.297 109.578 135.207 110.082 134.976C110.582 134.748 111.192 134.42 111.497 133.94C111.77 133.512 111.857 132.896 111.837 132.397C111.82 131.939 111.616 131.569 111.363 131.198Z" fill="#131716"/>
  <path d="M87.2971 127.769C87.2027 126.912 87.256 126.035 87.2574 125.174C87.2588 124.954 87.0878 124.844 86.9168 124.844C86.9168 124.843 86.9168 124.841 86.9168 124.841L83.9895 124.918C84.0333 124.865 84.0784 124.812 84.1208 124.759C84.3999 124.422 83.9184 123.935 83.6379 124.275C82.5764 125.562 81.4712 126.917 80.0431 127.804C78.9953 128.454 77.8777 129.043 76.9325 129.841C76.5412 130.171 76.2622 130.535 76.1801 131.052C76.1076 131.515 76.2786 131.891 76.4646 132.301C76.7574 132.942 77.2252 133.152 77.905 133.247C78.4632 133.325 79.0637 133.417 79.6259 133.353C80.2141 133.287 80.7886 133.105 81.3426 132.903C81.8241 132.728 82.3521 132.548 82.7953 132.286C83.2494 132.018 83.6133 131.575 83.9731 131.199C84.2084 130.953 84.4436 130.707 84.6912 130.473C84.8007 130.37 84.9101 130.266 85.0264 130.172C85.1577 130.066 85.0223 130.03 85.2069 130.177C85.6597 130.539 85.8581 130.455 86.3095 130.096C86.635 129.836 87.2095 129.456 87.401 129.056C87.5556 128.732 87.3327 128.095 87.2971 127.769Z" fill="#131716"/>
  <path d="M116.966 84.3748C116.925 84.1724 116.795 83.7593 116.788 83.5527C116.781 83.379 116.781 83.0589 116.781 83.0589L114.76 82.9782C114.76 82.9782 114.749 83.3106 114.684 83.5089C114.613 83.7264 114.327 84.0985 114.202 84.29C113.954 84.673 113.492 85.1436 113.281 85.8946C113.044 86.7427 113.158 87.0696 113.254 87.2119C113.367 87.3815 113.825 87.4786 113.892 87.0204C113.992 86.32 114.204 86.4239 114.204 86.4239C114.204 86.4239 114.438 87.2406 114.483 88.4868C114.524 89.6098 114.245 90.7575 114.403 90.8833C114.792 91.1938 115.772 90.7821 116.449 90.0858C117.028 89.4922 117.604 88.4567 117.605 87.7084C117.61 85.859 117.037 84.7223 116.966 84.3748Z" fill="white"/>
  <path d="M114.721 90.6481C114.719 90.6357 114.715 90.6274 114.708 90.6232C114.705 90.6329 114.704 90.644 114.701 90.6509C114.708 90.6495 114.712 90.6495 114.721 90.6481Z" fill="#131716"/>
  <path d="M117.681 85.5274C117.469 84.6889 117.124 83.942 117.124 83.0597C117.124 82.6192 116.44 82.6192 116.44 83.0597C116.44 84.1787 116.935 85.1444 117.135 86.2278C117.298 87.1032 117.359 87.9705 116.948 88.783C116.57 89.5299 115.963 90.2002 115.179 90.5517C114.656 90.787 114.718 90.3137 114.726 90.2262C114.749 89.9813 114.777 89.7365 114.796 89.4902C114.866 88.6093 114.808 87.7243 114.65 86.8556C114.596 86.5684 114.572 86.0828 114.179 86.0773C113.983 86.0746 113.829 86.2059 113.733 86.3646C113.655 86.4932 113.618 86.6464 113.587 86.7914C113.566 86.8789 113.566 87.0376 113.532 87.013C113.366 86.8967 113.54 86.2647 113.573 86.1307C113.688 85.6751 113.903 85.288 114.175 84.9105C114.617 84.3004 115.069 83.7615 115.102 82.979C115.121 82.5385 114.437 82.5399 114.418 82.979C114.392 83.6178 113.912 84.1075 113.555 84.6068C113.112 85.2251 112.775 86.0062 112.8 86.7818C112.814 87.2181 113.008 87.649 113.496 87.6901C113.721 87.7092 113.923 87.6189 114.06 87.4534C114.153 88.1292 114.165 88.8227 114.112 89.4902C114.079 89.9157 113.907 90.4984 114.042 90.9197C114.172 91.3232 114.68 91.3656 115.034 91.3013C116.191 91.0893 117.113 90.0306 117.593 89.0169C118.116 87.913 117.974 86.6819 117.681 85.5274Z" fill="#131716"/>
  <path d="M96.3033 55.21L99.7969 49.3663C99.8516 49.4169 99.9077 49.4648 99.9666 49.5072C101.728 50.8012 106.517 50.8778 108.305 52.1349C111.167 54.1485 114.853 60.3519 116.775 63.2751C117.295 64.0671 118.306 65.6881 118.632 66.5772C119.009 67.6059 119.042 69.6263 119.061 70.7234C119.112 73.7109 117.606 82.6925 117.606 82.6925C117.606 82.6925 116.514 82.9702 116.183 82.9702C115.711 82.9702 114.47 82.5708 114.47 82.5708L113.886 70.0982L107.255 61.2835C107.255 61.2835 106.366 68.7946 106.359 71.3116C106.357 72.1569 106.553 74.15 106.677 75.3209L106.776 76.2237C106.776 76.2237 100.67 77.0335 97.9352 77.2373C95.7479 77.4001 89.3407 76.2853 89.3407 76.2853L89.4651 75.3058C89.6307 73.9667 89.9029 71.618 89.9029 70.6303C89.9029 68.8288 89.1861 63.4612 89.1861 63.4612C89.1861 63.4612 86.8442 70.8246 85.2766 72.8176C84.5995 73.678 82.6776 74.8408 81.7419 75.4125C79.3454 76.8776 71.692 80.4423 71.692 80.4423C71.692 80.4423 71.7344 79.0895 71.5743 78.6791C71.3855 78.2003 70.2803 77.0814 70.2803 77.0814C70.2803 77.0814 79.1881 71.7301 81.1291 68.9519C83.0497 66.2024 83.6379 59.1728 84.9894 56.1032C85.2657 55.474 86.1083 54.3427 86.6308 53.8968C87.7977 52.9023 92.3706 51.8312 93.2898 50.6029C93.3281 50.5509 93.3527 50.4811 93.365 50.3977L96.3033 55.21Z" fill="#DDD1FF"/>
  <path d="M98.5626 46.8698C98.3861 45.5676 98.7048 45.5525 98.8402 44.5116C98.9278 43.8358 99.0099 42.4324 98.7117 41.5405C98.0045 39.4367 96.4697 39.148 95.4082 39.0071C94.5026 38.8868 92.1963 39.5857 91.0008 40.2943C90.3674 40.6691 90.6055 41.8838 90.4673 43.0848C90.4208 43.4843 89.5152 44.2736 89.5002 44.6812C89.4879 44.978 90.072 45.0191 90.0775 45.305C90.1062 46.9752 90.4167 48.3937 91.0227 48.4703C91.4618 48.6167 92.5274 48.4416 93.4398 48.0914L93.4726 48.1694C93.4726 48.1694 94.266 49.6836 93.872 50.2116L93.5834 50.6535L96.3028 55.21L99.6733 49.6412L99.7937 49.3676C98.7869 48.4799 98.5626 46.8698 98.5626 46.8698Z" fill="white"/>
  <path d="M93.7672 47.9966C93.5661 47.604 92.9752 47.9501 93.1762 48.3413C93.3896 48.7558 93.8219 49.5902 93.5661 50.0457C93.3308 50.4643 92.5812 50.7516 92.1832 50.9513C90.8631 51.612 89.4692 52.1099 88.1191 52.7036C86.929 53.2288 86.1261 53.7828 85.3505 54.8553C84.5147 56.0071 84.1453 57.3503 83.8061 58.7169C83.0332 61.8302 82.7337 65.3608 81.1784 68.2142C80.638 69.206 79.7845 69.9693 78.9323 70.6902C77.8229 71.6285 76.6437 72.4848 75.4509 73.3152C73.7096 74.5285 71.9258 75.6912 70.1065 76.7855C69.9164 76.8991 69.8822 77.1631 70.0368 77.3218C70.4253 77.7171 70.9437 78.1753 71.1844 78.676C71.432 79.1889 71.3636 79.8811 71.3486 80.4419C71.3404 80.721 71.64 80.8414 71.8629 80.7374C74.8367 79.3517 77.8174 77.951 80.7051 76.3916C82.3643 75.497 84.3929 74.4916 85.5707 72.9896C86.6965 71.5533 87.3298 69.6314 87.9727 67.9475C88.3489 66.9612 88.7018 65.964 89.0411 64.9641C89.2558 66.6247 89.4487 68.2936 89.5376 69.9611C89.6484 72.0594 89.2722 74.2098 88.9973 76.2849C88.9385 76.7199 89.6238 76.7158 89.6812 76.2849C89.9562 74.2098 90.3324 72.0594 90.2216 69.9611C90.1053 67.7888 89.8139 65.6166 89.5267 63.4608C89.4788 63.0955 88.9809 62.9765 88.855 63.3691C88.4925 64.5059 88.0999 65.6344 87.6909 66.7547C87.0193 68.5891 86.349 70.5205 85.3012 72.1812C84.2917 73.7803 82.1974 74.798 80.5696 75.6885C78.8406 76.6323 77.0664 77.4941 75.2936 78.3518C74.2143 78.873 73.1323 79.3859 72.0476 79.8948C72.0585 79.3982 72.038 78.8743 71.841 78.4503C71.6181 77.9729 71.2118 77.5379 70.8233 77.1439C72.3444 76.2179 73.8409 75.2494 75.31 74.2426C77.3879 72.8172 79.8542 71.2866 81.3575 69.2155C82.1974 68.0583 82.6215 66.6056 82.9922 65.2445C83.4655 63.5059 83.8102 61.7358 84.211 59.9795C84.5543 58.4666 84.8621 56.7977 85.739 55.49C86.1575 54.8649 86.6294 54.2479 87.2874 53.8663C87.9194 53.5011 88.6102 53.2261 89.2818 52.9471C90.725 52.3465 92.3623 51.8391 93.6277 50.8966C94.6714 50.1196 94.2938 49.0225 93.7672 47.9966Z" fill="#131716"/>
  <path d="M119.192 67.4692C118.927 65.8031 117.881 64.349 116.978 62.9633C116.08 61.5872 115.209 60.1933 114.299 58.824C113.253 57.2509 112.17 55.6929 110.952 54.2443C110.04 53.1595 109.012 51.9817 107.677 51.4195C105.896 50.6672 103.905 50.5208 102.051 50.0133C101.162 49.7698 100.217 49.4757 99.645 48.7001C99.2415 48.1516 98.9925 47.4512 98.8913 46.7782C98.827 46.3446 98.1677 46.5293 98.2319 46.9602C98.4207 48.2282 99.1019 49.4935 100.269 50.0899C101.794 50.8683 103.601 51.0529 105.253 51.4223C106.111 51.6138 107.018 51.8067 107.798 52.228C108.484 52.5987 109.064 53.1869 109.598 53.7491C111.019 55.2442 112.216 56.9527 113.368 58.6599C114.384 60.1687 115.347 61.7117 116.34 63.2369C117.429 64.9098 118.461 66.4706 118.629 68.5033C118.89 71.6974 118.43 74.8736 117.98 78.0308C117.781 79.426 117.567 80.8186 117.339 82.2097C117.333 82.2467 117.311 82.3191 117.294 82.3916C117.147 82.4135 116.913 82.5052 116.83 82.523C116.11 82.6734 115.476 82.5216 114.8 82.3137C114.64 78.9131 114.481 75.5125 114.321 72.1118C114.286 71.3349 114.453 70.3185 113.983 69.6647C112.895 68.1449 111.733 66.6717 110.609 65.1779C109.588 63.8223 108.569 62.4667 107.549 61.1111C107.338 60.8307 106.952 60.9361 106.911 61.2835C106.623 63.7293 106.359 66.1806 106.162 68.636C105.957 71.2008 106.143 73.6685 106.433 76.2238C106.482 76.656 107.166 76.6601 107.116 76.2238C106.826 73.6685 106.64 71.2008 106.846 68.636C107.019 66.4774 107.248 64.323 107.497 62.1713C109.357 64.6458 111.219 67.119 113.079 69.5922C113.206 69.7618 113.334 69.9971 113.491 70.1407C113.522 70.1681 113.532 70.1749 113.548 70.1858C113.611 70.6742 113.595 71.1885 113.617 71.6796C113.717 73.7916 113.815 75.905 113.914 78.0171C113.985 79.5341 114.056 81.0525 114.127 82.5709C114.135 82.7268 114.23 82.8526 114.379 82.9005C114.911 83.0701 115.488 83.2753 116.049 83.304C116.597 83.3328 117.166 83.1549 117.696 83.0223C117.801 82.9963 117.916 82.8964 117.934 82.7842C118.288 80.6708 118.604 78.5519 118.885 76.429C119.274 73.4756 119.667 70.4389 119.192 67.4692Z" fill="#131716"/>
  <path d="M94.9619 45.9395C94.8292 46.8149 94.3464 47.3279 93.5571 47.6754C92.9005 47.964 91.8992 48.3415 91.1701 48.1569C90.8568 48.0775 90.7624 47.7369 90.679 47.4524C90.4998 46.8423 90.4478 46.1953 90.4259 45.562C90.4109 45.1543 90.3261 44.8506 89.9143 44.6783C89.7762 44.6208 89.8446 44.6933 89.8473 44.6769C89.8528 44.614 89.9143 44.5401 89.9458 44.4881C90.0785 44.2693 90.2522 44.0764 90.4054 43.874C90.6421 43.5648 90.7884 43.3117 90.8254 42.9205C90.8814 42.3159 90.8103 41.6839 90.9252 41.0862C91.0196 40.5951 91.378 40.4597 91.7938 40.2668C92.3136 40.0247 92.8553 39.8318 93.4039 39.6704C94.1959 39.4351 94.977 39.2573 95.7977 39.4105C96.5583 39.5541 97.2668 39.8592 97.7675 40.4733C98.5745 41.4623 98.6388 42.7618 98.5513 43.9806C98.5171 44.4512 98.4241 44.8889 98.2982 45.3417C98.1573 45.8533 98.156 46.343 98.2203 46.8697C98.2736 47.3006 98.9589 47.306 98.9042 46.8697C98.8372 46.3266 98.8604 45.8793 99.0068 45.3581C99.1463 44.8671 99.212 44.3664 99.2434 43.8562C99.3173 42.6196 99.2065 41.3488 98.4856 40.301C97.9371 39.5035 97.1273 39.0056 96.1903 38.7949C95.2779 38.5897 94.4435 38.68 93.542 38.9194C92.9497 39.0781 92.367 39.2805 91.802 39.5199C91.3602 39.7073 90.772 39.9043 90.4916 40.3201C90.177 40.7839 90.1961 41.4268 90.1824 41.9616C90.1742 42.2927 90.2098 42.6647 90.1332 42.9889C90.0744 43.2365 89.8842 43.439 89.7297 43.6373C89.4971 43.9369 89.1292 44.3158 89.1634 44.7262C89.1811 44.9368 89.296 45.075 89.4602 45.1967C89.5218 45.2419 89.6408 45.2802 89.6873 45.3376C89.783 45.4594 89.7475 45.7316 89.7584 45.8971C89.809 46.7219 89.8555 48.3415 90.7693 48.7478C91.6393 49.1363 92.9456 48.6712 93.754 48.3292C94.7471 47.9106 95.4543 47.2267 95.6212 46.1201C95.6869 45.6905 95.0276 45.5045 94.9619 45.9395Z" fill="#131716"/>
  <path d="M98.6399 46.2485C98.7452 46.269 99.5878 41.8041 99.6248 41.3869C99.7287 40.2502 99.86 37.5418 98.6645 36.6923C98.0229 36.2381 96.6058 35.7375 95.677 37.524C95.677 37.524 94.2804 35.5706 92.6895 37.5076C91.0972 39.4459 89.2328 37.8577 88.7896 37.4159C88.7896 37.4159 87.8334 43.9053 94.6004 40.9588C94.6004 40.9588 94.004 42.9792 95.086 42.6782C95.4882 42.5661 96.2515 41.8561 96.5935 41.9738C97.1023 42.1475 96.6236 45.8668 98.6399 46.2485Z" fill="#131716"/>
  <path d="M99.3777 49.4679C98.3942 51.0944 97.4107 52.7194 96.4258 54.3459C96.3861 54.4129 96.3451 54.4799 96.304 54.547C95.6091 53.3815 94.9142 52.2174 94.2193 51.052C94.1058 50.8618 93.9923 50.6717 93.8787 50.4815C93.653 50.104 93.0621 50.4473 93.2878 50.8263C94.0812 52.1545 94.8732 53.4841 95.6666 54.8123C95.7801 55.0025 95.8937 55.1926 96.0072 55.3841C96.1399 55.6057 96.4641 55.6043 96.5981 55.3841C97.5817 53.7577 98.5652 52.1326 99.5487 50.5062C99.6896 50.2764 99.8291 50.0452 99.9686 49.814C100.197 49.4365 99.6062 49.0918 99.3777 49.4679Z" fill="#131716"/>
  <path d="M97.6996 76.9545C97.452 74.4416 97.229 71.9274 97.0362 69.4105C96.779 66.0673 96.7215 62.7447 96.6887 59.3947C96.6737 57.9994 96.66 56.6055 96.6449 55.2103C96.6395 54.7712 95.9555 54.7698 95.961 55.2103C95.9924 58.1663 96.0075 61.1224 96.0499 64.0784C96.0978 67.3682 96.4384 70.6649 96.7338 73.9396C96.8241 74.945 96.9171 75.9504 97.0156 76.9545C97.058 77.3881 97.742 77.3922 97.6996 76.9545Z" fill="#131716"/>
  <path d="M46.0235 65.9522C45.2307 67.2818 44.438 68.6101 43.6453 69.9383C43.6294 69.9657 43.6136 69.9916 43.5977 70.019C42.7131 68.5567 41.8283 67.0958 40.9435 65.6335C40.8037 65.4023 40.6639 65.1711 40.5241 64.94C40.2965 64.5638 39.7048 64.9071 39.9335 65.286C40.9174 66.9111 41.9013 68.5362 42.8851 70.1626C43.0249 70.3938 43.1647 70.6236 43.3047 70.8548C43.4378 71.075 43.7624 71.0778 43.8951 70.8548C44.6879 69.5266 45.4806 68.1983 46.2733 66.8687C46.387 66.6786 46.5005 66.4884 46.614 66.2983C46.8402 65.9194 46.2491 65.5747 46.0235 65.9522Z" fill="#131716"/>
  <path d="M40.4298 62.5551C40.3019 63.3594 40.1857 64.1159 39.5521 64.6959C39.0859 65.1213 38.4651 65.4085 37.9046 65.6876C36.4599 66.4044 34.7058 66.4345 33.3795 67.366C32.1089 68.2593 31.0356 69.4712 30.0344 70.6449C28.7953 72.099 27.6535 73.6351 26.5933 75.2233C26.4947 75.3724 26.5345 75.5133 26.63 75.609C26.637 75.6186 26.6386 75.6282 26.6468 75.6377C27.3146 76.412 28.0614 77.2012 28.9256 77.7539C29.919 78.39 31.058 78.8605 32.161 79.2736C32.2492 79.3065 32.3238 79.2969 32.3871 79.2695C32.4394 79.2545 32.4878 79.2299 32.5224 79.1861C33.1933 78.3257 33.8728 77.4707 34.5671 76.6281C34.6846 76.4858 34.7065 76.2848 34.5671 76.1452C34.4462 76.0235 34.2016 76.0016 34.0836 76.1452C33.4318 76.9345 32.7951 77.7375 32.1645 78.5445C31.172 78.1684 30.1623 77.7347 29.2707 77.1629C28.5375 76.6938 27.9005 76.029 27.3211 75.3696C28.4188 73.7405 29.6005 72.1646 30.8985 70.6887C31.9879 69.4507 33.2638 67.905 34.8872 67.3906C35.697 67.1335 36.5409 67.0186 37.3318 66.6985C37.9155 66.4618 38.4845 66.1746 39.032 65.8654C39.5407 65.5768 40.0043 65.2704 40.3691 64.8053C40.851 64.1925 40.9696 63.4894 41.0894 62.737C41.158 62.3061 40.4991 62.1215 40.4298 62.5551Z" fill="#131716"/>
  <path d="M100.263 50.0842C100.174 51.3427 100.085 52.6012 99.9963 53.861C99.2522 53.3262 98.348 52.8912 97.4616 52.9541C97.0253 52.9842 97.0212 53.6682 97.4616 53.6381C98.0868 53.5943 98.6845 53.8651 99.2112 54.177C99.4273 54.3042 99.6352 54.4451 99.8363 54.5942C99.8897 54.6325 99.9622 54.6886 100.051 54.7652C100.281 54.9636 100.613 54.8254 100.634 54.5231C100.725 53.2291 100.817 51.9364 100.909 50.6424C100.921 50.4563 100.935 50.2703 100.947 50.0842C100.979 49.6438 100.295 49.6465 100.263 50.0842Z" fill="#131716"/>
  <path d="M95.0945 53.0311C94.3448 53.0625 93.6007 53.373 92.9687 53.8149C93.0467 53.0201 93.1233 52.224 93.1999 51.4279C93.215 51.276 93.2286 51.1242 93.2437 50.971C93.2615 50.7877 93.0741 50.629 92.9017 50.629C92.702 50.629 92.5775 50.7863 92.5597 50.971C92.4585 52.0297 92.3559 53.0885 92.2533 54.1473C92.2383 54.3005 92.2232 54.4523 92.2096 54.6041C92.1795 54.9106 92.5967 55.0405 92.7936 54.8463C93.0193 54.6219 93.2108 54.4824 93.4708 54.3128C93.9564 53.994 94.5063 53.7396 95.0945 53.715C95.5336 53.6972 95.5349 53.0119 95.0945 53.0311Z" fill="#131716"/>
  <path d="M42.4261 68.4021C41.6209 68.3447 40.7986 68.6989 40.0889 69.0396C39.8111 69.1722 39.5384 69.3186 39.2702 69.4732C39.1939 68.3925 39.1175 67.3119 39.0412 66.2299C39.0282 66.0466 39.0154 65.8633 39.0024 65.68C38.9716 65.2436 38.2874 65.2395 38.3184 65.68C38.4084 66.9535 38.4984 68.2284 38.5883 69.5033C38.6013 69.6866 38.6143 69.8699 38.6271 70.0532C38.6442 70.2967 38.9098 70.5005 39.1418 70.3486C39.5245 70.0983 39.9291 69.8767 40.3395 69.6756C40.9709 69.3651 41.7063 69.0341 42.4261 69.0861C42.8652 69.1189 42.8631 68.4349 42.4261 68.4021Z" fill="#131716"/>
  <path d="M46.7104 66.6291C46.6941 66.4608 46.6777 66.2939 46.6613 66.1257C46.6432 65.941 46.517 65.7837 46.3193 65.7837C46.1482 65.7837 45.9592 65.9397 45.9773 66.1257C46.0776 67.1516 46.1778 68.1775 46.278 69.2048C45.7976 68.856 45.2152 68.644 44.6276 68.618C44.1874 68.5989 44.1884 69.2842 44.6276 69.302C45.1186 69.3239 45.5938 69.5195 45.9648 69.8313C46.0943 69.9408 46.2154 70.0598 46.3249 70.1897C46.3404 70.2075 46.3553 70.2253 46.3704 70.2444C46.3753 70.2513 46.3803 70.2568 46.3835 70.2609C46.3944 70.2759 46.4054 70.291 46.4156 70.3074C46.5851 70.5659 47.0882 70.4961 47.0529 70.135C46.9387 68.9668 46.8246 67.7986 46.7104 66.6291ZM46.3695 70.2431C46.3444 70.213 46.3549 70.2253 46.3695 70.2431V70.2431Z" fill="#131716"/>
  <path d="M104.452 60.4145C104.451 60.1806 104.234 60.0397 104.018 60.0848C103.274 60.2394 102.519 60.3789 101.761 60.4528C100.934 60.5335 100.087 60.5102 99.2566 60.4542C99.1389 60.446 99.0555 60.4911 99.0008 60.5595C98.9461 60.6142 98.9091 60.6922 98.9146 60.7961C98.9939 62.3131 99.0733 63.8302 99.154 65.3485C99.1622 65.5058 99.2552 65.6276 99.4043 65.6782C100.087 65.9053 100.769 66.1323 101.452 66.3608C101.672 66.4347 101.816 66.4018 102.031 66.3266C102.444 66.1843 102.857 66.0407 103.27 65.8984C103.589 65.7876 103.907 65.6768 104.226 65.5674C104.37 65.5182 104.478 65.395 104.478 65.2377C104.468 63.6291 104.46 62.0218 104.452 60.4145ZM102.038 65.603C101.931 65.6399 101.798 65.6686 101.693 65.7206C101.691 65.7192 101.687 65.7192 101.686 65.7192C101.328 65.5756 100.947 65.4716 100.581 65.3499C100.328 65.2651 100.076 65.1816 99.8243 65.0982C99.7559 63.7836 99.6861 62.4705 99.6177 61.1573C100.358 61.1969 101.105 61.2052 101.839 61.1286C102.486 61.0615 103.13 60.9507 103.769 60.8249C103.778 62.216 103.784 63.6045 103.793 64.9956C103.207 65.1981 102.623 65.4005 102.038 65.603Z" fill="#131716"/>
  <path d="M53.2538 76.8281C53.2538 76.8144 53.2593 76.8035 53.2575 76.7884C53.031 74.8282 52.9109 72.842 52.58 70.8955C52.4756 70.28 52.4056 69.5686 52.1942 68.9845C51.9844 68.4046 51.4932 67.9518 50.9943 67.6139C49.6557 66.7097 48.0372 66.3171 46.6256 65.547C46.4165 65.4335 45.9928 65.2666 45.8919 65.0354C45.7901 64.8015 45.9613 64.3514 46.028 64.1203C46.1573 63.6702 46.325 63.2284 46.5198 62.8044C46.7018 62.4063 46.1125 62.0588 45.9291 62.4583C45.5867 63.2065 44.9299 64.4677 45.2586 65.2994C45.4603 65.8083 46.1967 66.1051 46.649 66.3267C47.4564 66.722 48.2997 67.0394 49.12 67.4046C49.8109 67.7138 50.5872 68.0407 51.1229 68.5933C51.6698 69.1583 51.6714 69.8997 51.8343 70.6301C52.2658 72.5616 52.3365 74.5984 52.5515 76.5668C51.9744 76.7953 51.3669 77.0059 50.7614 77.1003C50.3156 77.1687 49.8439 77.1537 49.3861 77.1126C49.4093 76.8158 49.4318 76.519 49.4554 76.2235C49.4906 75.7844 48.8064 75.7858 48.7715 76.2235C48.7397 76.6216 48.708 77.0196 48.6761 77.419C48.5801 78.6214 48.4842 79.8238 48.3882 81.0262C48.326 81.8073 48.2183 82.2929 48.0202 83.208C47.2017 86.9916 46.3832 90.7753 45.5648 94.5589C45.3207 95.6874 45.0764 96.8159 44.8322 97.9451C44.7393 98.3743 45.3985 98.5576 45.4917 98.1269C46.1235 95.2059 46.7553 92.2854 47.387 89.365C47.7874 87.5142 48.1878 85.6648 48.5882 83.814C48.7475 83.0767 48.9623 82.3339 49.028 81.5816C49.1382 80.3176 49.2356 79.0537 49.3334 77.7898C49.8533 77.8349 50.3834 77.8445 50.8965 77.7665C51.6148 77.6584 52.3354 77.3931 53.0064 77.1181C53.0172 77.114 53.0257 77.1058 53.0359 77.1017C53.1566 77.0743 53.2488 76.9868 53.2529 76.8391C53.2536 76.835 53.2534 76.8322 53.2538 76.8281Z" fill="#131716"/>
  <path d="M34.3097 101.714C35.1506 101.442 35.8758 100.837 36.4491 100.18C37.0347 99.5088 37.5793 98.6816 37.7242 97.7855C37.7537 97.6035 37.677 97.4177 37.4853 97.3649C37.3221 97.3202 37.0942 97.4204 37.0647 97.6037C36.9379 98.3874 36.4791 99.1077 35.9654 99.6965C35.4727 100.261 34.8547 100.819 34.1279 101.054C33.7108 101.189 33.8892 101.85 34.3097 101.714Z" fill="white"/>
  <path d="M150.535 28.9558L152.396 39.9414L154.565 29.0378L150.535 28.9558Z" fill="#764DEF"/>
  <path d="M170.548 35.1381L167.614 43.4194L173.967 37.361L170.548 35.1381Z" fill="#764DEF"/>
  <path d="M182.884 50.4388L178.615 54.1499L184.095 52.7669L182.884 50.4388Z" fill="#764DEF"/>
  <path d="M123.027 50.6982L121.987 53.1071L127.551 54.0947L123.027 50.6982Z" fill="#764DEF"/>
  <path d="M135.303 34.4747L131.885 36.6975L138.236 42.7573L135.303 34.4747Z" fill="#764DEF"/>
  <path d="M148.082 120.593C150.438 122.566 148.387 123.976 153.597 123.405C156.562 123.08 155.727 123.801 158.228 120.086L148.082 120.593Z" fill="#DDD1FF"/>
  <path d="M147.839 120.835C148.482 121.384 148.835 122.012 149.228 122.74C149.545 123.33 150.01 123.678 150.677 123.798C151.924 124.025 153.218 123.761 154.464 123.67C155.106 123.623 155.817 123.651 156.353 123.243C156.678 122.996 156.917 122.65 157.148 122.319C157.62 121.643 158.063 120.944 158.523 120.259C158.769 119.893 158.177 119.55 157.932 119.914C157.351 120.781 156.829 121.827 156.084 122.571C155.695 122.959 155.159 122.938 154.643 122.973C153.448 123.056 152.221 123.301 151.021 123.162C150.419 123.091 150.071 122.875 149.793 122.346C149.393 121.585 148.989 120.919 148.324 120.351C147.99 120.067 147.504 120.549 147.839 120.835Z" fill="#131716"/>
  <path d="M163.593 110.753L163.409 110.759C163.579 110.699 164.091 110.127 164.217 109.983C164.893 109.209 164.589 107.978 163.295 107.093L142.8 107.312C140.192 109.269 142.28 111.353 142.704 111.494C142.729 111.502 142.76 111.51 142.786 111.518L142.562 111.526C139.954 113.821 142.28 115.618 142.704 115.783C143.977 116.277 144.489 116.795 144.489 116.795C143.086 118.054 144.199 119.878 144.568 120.005C146.005 120.493 149.708 120.685 153.535 120.531C158.539 120.329 160.425 120.41 162.781 118.671C163.605 118.063 163.246 116.624 162.098 115.782C162.098 115.782 163.553 114.926 163.932 114.518C164.577 113.827 165.109 112.523 163.593 110.753Z" fill="#DDD1FF"/>
  <path d="M164.012 110.745C164.938 109.945 165.177 108.689 164.374 107.636C163.879 106.986 163.508 106.749 162.779 106.756C160.816 106.777 158.852 106.798 156.889 106.819C152.309 106.868 147.729 106.917 143.15 106.966C142.163 106.976 141.407 108.051 141.217 108.961C141.051 109.758 141.395 110.88 142.073 111.482C141.634 111.84 141.299 112.439 141.14 112.9C140.909 113.571 140.984 114.289 141.336 114.904C141.972 116.015 143.109 116.128 144.013 116.843C143.302 117.828 143.184 119.489 144.303 120.243C144.845 120.608 145.741 120.623 146.368 120.699C147.601 120.846 148.846 120.898 150.086 120.917C152.617 120.957 155.178 120.877 157.702 120.682C159.193 120.566 160.669 120.323 161.993 119.588C162.649 119.224 163.408 118.803 163.547 118C163.686 117.183 163.243 116.407 162.672 115.841C163.415 115.406 164.198 114.918 164.605 114.162C165.25 112.967 164.759 111.745 164.012 110.745ZM163.735 114.225C163.263 114.755 162.532 115.127 161.924 115.486C161.753 115.588 161.678 115.883 161.856 116.024C162.305 116.381 162.719 116.824 162.846 117.404C162.987 118.048 162.651 118.366 162.161 118.687C161.584 119.065 160.965 119.366 160.305 119.567C158.57 120.095 156.681 120.069 154.888 120.136C152.331 120.233 149.77 120.317 147.217 120.1C146.682 120.055 146.147 119.999 145.619 119.905C145.348 119.857 144.92 119.841 144.686 119.682C143.81 119.084 144.133 117.632 144.73 117.036C144.858 116.907 144.862 116.682 144.73 116.553C144.087 115.927 143.152 115.789 142.489 115.231C142.111 114.914 141.796 114.468 141.708 113.976C141.634 113.558 141.744 113.13 141.95 112.765C142.103 112.494 142.459 111.871 142.785 111.859C143.166 111.845 143.252 111.299 142.875 111.188C142.514 111.081 142.211 110.591 142.062 110.282C141.615 109.359 141.995 108.684 142.579 107.946C142.875 107.571 143.003 107.651 143.5 107.646C145.14 107.628 146.779 107.611 148.418 107.593C152.754 107.547 157.091 107.501 161.428 107.455C161.938 107.449 162.61 107.325 163.112 107.437C163.481 107.519 163.69 107.82 163.921 108.172C164.485 109.028 164.072 109.969 163.235 110.463C162.95 110.631 163.062 111.114 163.407 111.101C163.415 111.101 163.422 111.1 163.429 111.1C164.144 112.024 164.616 113.235 163.735 114.225Z" fill="#131716"/>
  <path d="M164.232 105.852V102.453C164.232 91.5864 179.394 84.6676 179.394 67.8478C179.394 55.2809 169.376 43.4485 149.567 44.0463C133.439 44.5332 124.99 58.3778 125.745 70.9229C126.761 87.811 140.892 90.674 140.892 101.54C140.892 101.54 141.638 104.657 141.789 106.143C141.833 106.576 141.887 106.689 141.954 106.728C142.071 106.795 142.195 107.04 142.327 107.101C145.358 108.508 152.394 108.367 163.317 107.214C163.619 107.182 164.072 106.633 164.072 106.633L164.232 105.852Z" fill="white"/>
  <path d="M177.392 57.6603C174.577 51.9219 169.385 47.8045 163.426 45.6733C159.715 44.3478 155.76 43.7624 151.83 43.6899C147.915 43.6187 144.033 44.1071 140.402 45.6309C134.235 48.2204 129.558 53.4061 127.173 59.6068C124.736 65.9375 124.71 73.2503 127.334 79.5303C128.498 82.3181 130.185 84.8159 132.1 87.1386C133.811 89.2151 135.71 91.1384 137.347 93.2764C138.839 95.2229 140.066 97.3993 140.43 99.856C140.518 100.447 140.48 101.051 140.563 101.637C140.633 102.12 140.787 102.605 140.891 103.083C141.068 103.897 141.239 104.715 141.366 105.539C141.466 106.188 141.43 106.775 141.955 107.235C142.645 107.838 143.892 107.992 144.765 108.133C146.136 108.353 147.527 108.429 148.913 108.452C153.165 108.525 157.431 108.147 161.659 107.727C162.526 107.641 163.454 107.738 164.111 107.094C164.452 106.762 164.468 106.401 164.561 105.943C164.563 105.932 164.56 105.923 164.561 105.912C164.564 105.892 164.574 105.875 164.574 105.852C164.574 103.743 164.422 101.589 164.95 99.528C165.624 96.8904 167.087 94.5294 168.628 92.3175C172.248 87.1236 176.408 82.2949 178.414 76.1776C180.394 70.1451 180.208 63.3973 177.392 57.6603ZM178.406 73.6552C176.975 79.9092 173.153 84.976 169.427 90.04C167.862 92.167 166.297 94.3434 165.211 96.7632C164.285 98.8292 163.89 100.912 163.89 103.165C163.89 104.058 163.89 104.95 163.89 105.843C163.858 106.037 163.834 106.254 163.768 106.435C163.738 106.472 163.663 106.588 163.629 106.611C163.422 106.746 163.235 106.851 162.98 106.908C161.757 107.186 160.384 107.17 159.135 107.28C157.016 107.467 154.893 107.623 152.767 107.711C149.876 107.829 146.821 107.948 143.979 107.286C143.567 107.19 143.087 107.098 142.709 106.898C141.997 106.52 142.084 105.684 141.96 104.963C141.754 103.772 141.358 102.567 141.232 101.373C141.107 100.175 141.042 99.0466 140.671 97.8856C140.328 96.8097 139.833 95.7865 139.246 94.8235C136.533 90.3737 132.346 87.0415 129.64 82.563C126.184 76.8383 125.219 69.8223 126.742 63.3289C128.234 56.9626 132.083 51.1572 137.726 47.7525C144.345 43.7569 152.789 43.6078 160.138 45.4038C166.378 46.9304 172.156 50.4227 175.637 55.923C178.964 61.1813 179.785 67.6309 178.406 73.6552Z" fill="#131716"/>
  <path d="M149.31 111.981C150.344 111.878 151.356 111.828 152.367 111.775L155.384 111.616L158.399 111.448C159.407 111.388 160.418 111.321 161.458 111.294C160.515 111.737 159.517 112.03 158.507 112.242C157.496 112.46 156.468 112.576 155.439 112.639C154.409 112.684 153.375 112.678 152.349 112.573C151.322 112.474 150.3 112.3 149.31 111.981Z" fill="white"/>
  <path d="M146.214 115.174C148.504 115.234 150.72 115.261 152.959 115.217C155.197 115.19 157.412 115.071 159.706 114.987C158.645 115.44 157.526 115.726 156.397 115.922C155.267 116.124 154.122 116.214 152.975 116.242C151.829 116.25 150.68 116.199 149.545 116.031C148.411 115.869 147.278 115.616 146.214 115.174Z" fill="white"/>
  <path d="M160.758 106.276C160.222 104.154 159.929 101.98 159.858 99.7682C159.794 97.5597 159.96 95.2997 160.473 93.0673L160.665 92.2287L160.908 91.4012C161.062 90.8458 161.265 90.3068 161.453 89.7583C161.88 88.69 162.336 87.6216 162.874 86.6258C163.933 84.6109 165.146 82.8107 166.167 81.1049C167.19 79.3964 168.024 77.7495 168.617 75.9739C169.238 74.2148 169.614 72.3257 169.876 70.3641C170.01 69.3847 170.088 68.3834 170.179 67.3725C170.22 66.3548 170.305 65.3357 170.43 64.3235C170.537 63.3071 170.636 62.2976 170.673 61.2799C170.685 60.7765 170.699 60.2581 170.655 59.7519C170.601 59.2472 170.571 58.7151 170.257 58.2472C170.85 58.3539 171.336 58.8231 171.731 59.2622C172.136 59.7218 172.447 60.228 172.739 60.7478C173.289 61.7915 173.708 62.8899 173.998 63.9897C174.158 64.5396 174.276 65.0936 174.38 65.6476C174.455 66.1989 174.508 66.7515 174.572 67.3055C174.675 68.419 174.732 69.5434 174.722 70.6829C174.706 72.9577 174.432 75.3023 173.75 77.5922C173.436 78.7426 172.964 79.8465 172.477 80.9257C171.977 82.0023 171.373 82.9967 170.778 83.9584C169.559 85.8639 168.277 87.5136 167.186 89.166C166.075 90.8102 165.132 92.4914 164.335 94.308C163.543 96.1218 162.878 98.05 162.326 100.061C161.761 102.071 161.3 104.149 160.758 106.276Z" fill="#DDD1FF"/>
  <path d="M149.207 48.9232C144.952 48.7727 140.741 49.8999 137.321 52.4825C134.249 54.8025 131.998 58.0841 130.756 61.7145C130.061 63.7486 129.698 65.8839 129.661 68.0315C129.654 68.4719 130.338 68.4719 130.345 68.0315C130.472 60.5613 134.939 53.2307 142.12 50.644C144.395 49.8247 146.797 49.5223 149.207 49.6072C149.646 49.6222 149.646 48.9382 149.207 48.9232Z" fill="#131716"/>
  <path d="M152.581 54.1633C144.246 54.1469 137.476 60.8852 137.457 69.2212C137.438 77.5559 144.778 84.327 153.111 84.3462C161.443 84.3626 167.618 77.0251 167.636 68.6891C167.654 60.3545 160.913 54.1839 152.581 54.1633Z" fill="#764DEF"/>
  <path d="M157.708 61.5347L150.91 71.9212L146.286 68.1212L143.818 71.1223L151.786 77.6719L160.958 63.6618L157.708 61.5347Z" fill="white"/>
  <path fill-rule="evenodd" clip-rule="evenodd" d="M43.4856 24.9834C42.84 24.982 42.2054 25.5866 42.0754 26.328C42.0754 26.328 41.9443 27.0749 41.9404 28.161C41.9404 29.2458 42.0704 29.9954 42.0704 29.9954C42.1987 30.7368 42.83 31.3455 43.4734 31.3469C44.1168 31.3496 44.7825 31.7559 44.953 32.2524C45.1234 32.749 45.351 34.3412 44.898 34.7913C44.4451 35.2413 44.4553 36.0935 44.921 36.6845L47.4938 39.2725C48.0793 39.7458 48.9314 39.7609 49.3872 39.3081C49.8429 38.8553 50.5963 38.6707 51.0613 38.8991C51.5264 39.1275 52.8273 40.1042 52.8257 40.7512C52.8239 41.3969 53.4288 42.0316 54.1699 42.1615C54.1699 42.1615 54.9223 42.2929 56.0036 42.2929C57.0918 42.297 57.8423 42.1684 57.8423 42.1684C58.5837 42.0412 59.1916 41.4092 59.193 40.7635C59.1945 40.1179 59.6014 39.4517 60.0973 39.2807C60.5932 39.1098 62.1884 38.8868 62.643 39.345C63.0985 39.8033 63.9753 39.8238 64.5909 39.3929C64.5909 39.3929 65.216 38.9538 65.9848 38.1905C66.7535 37.4231 67.194 36.8021 67.194 36.8021C67.629 36.1893 67.6126 35.3111 67.1571 34.8528C66.7016 34.396 66.5155 33.6395 66.7453 33.173C66.9738 32.708 67.9505 31.4071 68.5947 31.4084C69.2404 31.4112 69.8751 30.8066 70.0037 30.0652C70.0037 30.0652 70.135 29.3156 70.1364 28.2308C70.1405 27.1461 70.0105 26.3937 70.0105 26.3937C69.8819 25.6523 69.2486 25.0436 68.6057 25.0422C67.9614 25.0408 67.2952 24.6332 67.1256 24.138C66.956 23.6429 66.7275 22.0492 67.1803 21.5992C67.6331 21.1492 67.6222 20.297 67.1557 19.706L64.5854 17.1179C64 16.646 63.1477 16.6296 62.6922 17.0837C62.2369 17.5365 61.4833 17.7198 61.0178 17.49C60.5524 17.2616 59.2511 16.2849 59.2535 15.6379C59.2556 14.9922 58.6509 14.3589 57.9096 14.2303C57.9096 14.2303 57.1547 14.099 56.074 14.0976C54.988 14.0949 54.238 14.2221 54.238 14.2221C53.4964 14.3479 52.888 14.9785 52.8863 15.6242C52.8846 16.2712 52.4779 16.9387 51.9826 17.1097C51.4873 17.2807 49.8899 17.5037 49.4348 17.0454C48.9797 16.5872 48.103 16.5653 47.4865 16.9976C47.4865 16.9976 46.8619 17.4339 46.0935 18.2013C45.3257 18.9687 44.8853 19.587 44.8853 19.587C44.449 20.1998 44.4653 21.0767 44.9215 21.5349C45.3776 21.9945 45.5635 22.7496 45.3345 23.2161C45.1056 23.6811 44.1314 24.9834 43.4856 24.9834Z" fill="#764DEF"/>
  <path fill-rule="evenodd" clip-rule="evenodd" d="M49.9646 24.4681C52.4326 21.1003 57.0259 20.7337 60.5236 23.0523C64.0219 25.3723 65.1012 29.9958 62.6362 33.3636C60.1595 36.7354 55.0741 37.5753 51.5735 35.254C48.0762 32.9368 47.4901 27.8386 49.9646 24.4681Z" fill="#DDD1FF"/>
  <path fill-rule="evenodd" clip-rule="evenodd" d="M70.4178 11.3031C69.8338 11.3565 69.3057 12.0131 69.2456 12.7627C69.2456 12.7627 69.1991 13.3221 69.288 14.3043C69.3782 15.2837 69.5246 15.8281 69.5246 15.8281C69.7202 16.5545 70.3563 17.1071 70.9377 17.0552C71.519 17.0032 72.1551 17.3151 72.3493 17.7487C72.5449 18.1823 72.8842 19.6022 72.5121 20.0468C72.1414 20.4913 72.2604 21.3025 72.7789 21.8483L75.1248 23.8099C75.7513 24.2271 76.5693 24.2011 76.9441 23.7538C77.3176 23.3065 77.9824 23.078 78.4215 23.2449C78.8619 23.4132 80.119 24.1861 80.171 24.7701C80.223 25.3542 80.8796 25.8822 81.6292 25.9424C81.6292 25.9424 82.1941 25.9889 83.1708 25.9C84.1543 25.8111 84.6988 25.6661 84.6988 25.6661C85.4251 25.4705 85.9778 24.8344 85.9244 24.2517C85.8724 23.6676 86.1843 23.0315 86.6179 22.8359C87.0516 22.6403 88.4742 22.3065 88.9229 22.6814C89.3729 23.0575 90.2101 22.9672 90.7832 22.4803C90.7832 22.4803 91.2141 22.1137 91.8461 21.3586C92.4767 20.6021 92.7585 20.1152 92.7585 20.1152C93.136 19.464 93.0758 18.6228 92.6258 18.2466C92.1757 17.8718 91.9459 17.2043 92.1142 16.7638C92.2811 16.3247 93.0553 15.0676 93.638 15.0156C94.2208 14.9636 94.7488 14.3084 94.809 13.5574C94.809 13.5574 94.8555 12.9952 94.7666 12.0158C94.679 11.035 94.5313 10.4878 94.5313 10.4878C94.3357 9.76148 93.6982 9.21021 93.1169 9.26219C92.5341 9.31417 91.8994 9.00229 91.7038 8.57003C91.5096 8.13641 91.1703 6.71652 91.5424 6.27195C91.9131 5.82738 91.7927 5.01759 91.2743 4.4718L88.9297 2.50885C88.3032 2.09164 87.4852 2.11763 87.1118 2.56493C86.7383 3.01224 86.0722 3.24067 85.6331 3.07242C85.1926 2.90417 83.9355 2.1313 83.8835 1.5472C83.8315 0.963108 83.1749 0.43647 82.4253 0.376282C82.4253 0.376282 81.859 0.331158 80.8823 0.420073C79.9002 0.507618 79.3571 0.652615 79.3571 0.652615C78.6308 0.846857 78.0781 1.48155 78.1301 2.06565C78.1821 2.64837 77.8702 3.28581 77.4379 3.48279C77.0043 3.6784 75.5803 4.01218 75.1317 3.63601C74.6816 3.26121 73.8445 3.35148 73.2699 3.83708C73.2699 3.83708 72.8377 4.20231 72.2084 4.96013C71.5778 5.71658 71.296 6.20356 71.296 6.20356C70.9185 6.85331 70.9773 7.69458 71.4274 8.06939C71.8774 8.44556 72.1086 9.1131 71.9403 9.55356C71.7721 9.99403 71.0006 11.2511 70.4178 11.3031Z" fill="#764DEF"/>
  <path d="M69.1987 24.833C68.7664 24.647 68.2657 24.7428 67.8595 24.4801C67.3465 24.1477 67.3014 23.5103 67.2658 22.9549C67.2343 22.4337 67.3191 22.0836 67.5818 21.6431C67.7747 21.3189 67.8732 20.9715 67.8472 20.5912C67.7733 19.4421 66.5052 18.568 65.7652 17.8225C64.9773 17.0291 64.0293 15.9266 62.7791 16.6051C62.2056 16.9156 61.808 17.4395 61.0861 17.1399C60.6829 16.9717 60.268 16.5777 59.9806 16.2618C59.393 15.6175 59.573 14.7557 58.7599 14.214C58.1636 13.8159 57.37 13.8023 56.6792 13.7694C55.8542 13.7325 54.9607 13.7175 54.1465 13.8925C53.2972 14.0758 52.7088 14.6736 52.5548 15.5176C52.435 16.1756 52.2682 16.6995 51.5595 16.8664C51.0961 16.9758 50.5236 17.0428 50.0521 16.9389C49.6744 16.8541 49.4275 16.56 49.0606 16.4396C48.6243 16.2973 48.1478 16.3274 47.723 16.4929C47.0499 16.7569 46.4683 17.3574 45.9638 17.8499C45.422 18.3779 44.7524 19.003 44.426 19.7102C44.2646 20.0591 44.1977 20.4434 44.2446 20.8278C44.313 21.3873 44.661 21.6335 44.9146 22.0986C45.2119 22.6444 45.0465 23.1013 44.7167 23.5541C44.4567 23.9111 43.9698 24.5813 43.4849 24.6415C41.5272 24.8371 41.5563 27.138 41.6062 28.6221C41.6295 29.3102 41.6311 30.1296 41.9906 30.7424C42.1781 31.0639 42.4478 31.3361 42.7787 31.5071C43.3146 31.7834 43.9319 31.6274 44.394 32.0775C45.0434 32.7094 44.9103 34.0527 44.495 34.7476C44.0813 35.4411 44.1689 36.3002 44.6785 36.9267C45.3465 37.7474 46.207 38.4642 46.9531 39.2152C47.3319 39.5955 47.7225 39.8937 48.2826 39.9607C49.3183 40.0866 50.0246 38.8486 50.9916 39.2508C51.3703 39.4081 51.7442 39.7637 52.0243 40.0551C52.4116 40.4559 52.4051 40.8252 52.5958 41.3067C52.8649 41.9866 53.5218 42.3942 54.2176 42.5132C55.1996 42.6801 56.2362 42.6733 57.2252 42.583C57.9026 42.5228 58.5353 42.4092 59.0328 41.899C59.7921 41.1207 59.3155 39.7856 60.599 39.5079C60.9998 39.4217 61.4812 39.3698 61.8908 39.4286C62.3686 39.4984 62.6614 39.8663 63.1224 39.9867C64.7666 40.4176 66.3671 38.3986 67.2316 37.3124C67.6611 36.7721 67.9498 36.1607 67.813 35.448C67.7323 35.0267 67.5066 34.7982 67.2795 34.4508C66.8445 33.7819 67.0196 33.2785 67.4559 32.7149C67.7555 32.3278 68.1139 31.901 68.594 31.7505C68.9798 31.6315 69.2712 31.6384 69.6118 31.3621C70.1535 30.9216 70.3285 30.3047 70.401 29.644C70.5556 28.2378 70.8593 25.5498 69.1987 24.833ZM69.687 29.8875C69.5406 30.5386 69.2465 30.8997 68.594 31.0666C68.3109 31.1405 68.1084 31.1788 67.8554 31.3497C67.3219 31.7095 66.8021 32.3278 66.5039 32.8968C66.1564 33.5644 66.3329 34.2278 66.7022 34.842C66.995 35.3262 67.3082 35.6463 67.0866 36.2715C66.9484 36.6654 66.6119 37.006 66.3425 37.3111C65.7857 37.943 65.151 38.6229 64.4356 39.0839C63.7872 39.5038 63.4015 39.341 62.7791 39.021C62.485 38.8691 62.2289 38.7761 61.8908 38.7446C61.3005 38.6913 60.5691 38.7378 60.0058 38.9512C59.1753 39.2644 59.0239 39.999 58.8503 40.7637C58.5968 41.8785 57.5368 41.9018 56.6119 41.9401C55.7553 41.9756 54.2576 42.137 53.5449 41.4914C53.1909 41.1713 53.233 40.7828 53.0909 40.3861C52.9903 40.1057 52.7805 39.8595 52.5804 39.6447C52.147 39.1783 51.5077 38.6065 50.8613 38.4888C49.7466 38.285 48.8846 39.7254 47.8697 39.1181C47.4844 38.8869 47.1653 38.4574 46.8517 38.1428C46.3638 37.6517 45.8616 37.1715 45.3863 36.6682C45.2707 36.545 45.1637 36.4534 45.0773 36.3057C44.6722 35.6121 45.1394 35.2305 45.3737 34.6464C45.6388 33.9857 45.5214 33.0897 45.3514 32.4126C45.1394 31.5686 44.5096 31.2239 43.714 31.0242C42.9968 30.845 42.5789 30.6986 42.3958 29.8834C42.2947 29.4333 42.2954 28.9327 42.2852 28.4758C42.264 27.521 42.1154 25.4623 43.4849 25.3255C44.5562 25.1928 45.8458 23.7031 45.766 22.6006C45.6865 21.5036 44.4379 20.9099 45.1799 19.7595C45.6413 19.0441 46.3412 18.3984 46.9743 17.8444C47.191 17.6556 47.4139 17.4477 47.6584 17.2918C48.3564 16.8513 48.7252 17.1057 49.367 17.4231C49.9641 17.7186 50.6471 17.6871 51.2932 17.6009C51.9689 17.5106 52.5384 17.3301 52.9142 16.7186C53.0778 16.4519 53.1342 16.166 53.2087 15.8664C53.3974 15.1086 53.5796 14.7215 54.415 14.5382C55.2914 14.3467 56.3007 14.4123 57.1863 14.4876C57.4686 14.5108 57.7888 14.5204 58.0593 14.6203C58.8444 14.9116 58.7552 15.467 59.0209 16.0853C59.5046 17.2097 61.0595 18.2616 62.2569 17.7678C63.0691 17.4327 63.5478 16.7118 64.4465 17.4655C64.8897 17.8362 65.2796 18.3027 65.6859 18.713C66.0415 19.0701 66.4191 19.4134 66.7542 19.7882C66.9416 19.9975 67.0715 20.137 67.1386 20.4503C67.2699 21.0549 66.8445 21.3244 66.679 21.8209C66.2946 22.9686 66.6078 24.7099 67.8075 25.2161C68.3273 25.4349 68.9292 25.3077 69.3409 25.7673C69.6446 26.1066 69.6897 26.4882 69.7321 26.9054C69.8293 27.8452 69.8977 28.9545 69.687 29.8875Z" fill="#131716"/>
  <path fill-rule="evenodd" clip-rule="evenodd" d="M49.5161 25.6709C50.906 22.0706 54.9594 20.2759 58.5619 21.6698C62.1651 23.0623 63.956 27.1141 62.5689 30.7158C61.1718 34.3216 57.1236 36.1135 53.5181 34.7183C49.9164 33.3271 48.121 29.2767 49.5161 25.6709Z" fill="white"/>
  <path d="M63.262 26.9039C62.7313 23.8959 60.2793 21.4637 57.2646 20.9603C53.8089 20.3845 50.4772 22.3597 49.1857 25.5811C48.1159 28.4551 48.9227 31.7969 51.2892 33.7872C53.6242 35.7501 56.9913 36.0812 59.6531 34.5819C62.3431 33.0677 63.7955 29.9365 63.262 26.9039ZM60.0581 33.5013C57.835 35.1783 54.7456 35.2823 52.4084 33.7721C49.754 32.0554 48.7576 28.6849 49.8453 25.7631C50.8893 23.1586 53.487 21.4364 56.3012 21.5444C59.0676 21.6511 61.5401 23.5361 62.3782 26.1734C63.2224 28.8313 62.29 31.8188 60.0581 33.5013Z" fill="#131716"/>
  <path d="M93.8717 9.10075C93.475 8.89009 93.1303 8.98858 92.7076 8.8942C92.0647 8.74783 91.9019 8.21024 91.7952 7.65213C91.6885 7.09402 91.7268 6.77941 91.9443 6.28286C92.0674 6.00107 92.1153 5.7316 92.0852 5.42656C91.9662 4.24469 90.6626 3.51421 89.8391 2.82479C88.924 2.06013 87.9719 1.47331 86.8708 2.32278C86.4385 2.65518 86.1171 2.90687 85.5535 2.65928C85.1787 2.49513 84.7149 2.19007 84.4578 1.87546C84.1951 1.55126 84.1897 1.16143 83.9462 0.824923C83.7164 0.510303 83.3621 0.276377 82.9982 0.151897C82.2473 -0.106638 81.3321 0.0246868 80.5729 0.109497C79.8479 0.190203 79.0532 0.255857 78.4636 0.733255C78.1941 0.952122 77.9548 1.24624 77.8522 1.58275C77.6456 2.25576 77.9192 2.90549 77.0848 3.2502C76.658 3.42666 75.9439 3.57441 75.4925 3.43214C75.0794 3.30219 74.8305 3.05323 74.3599 3.06281C73.6746 3.07786 73.1315 3.47181 72.6692 3.93827C72.0646 4.54972 71.4148 5.2665 71.0017 6.03116C70.6419 6.69596 70.5681 7.54544 71.0509 8.17057C71.4928 8.74372 71.8129 9.08023 71.4435 9.79154C71.2192 10.2224 70.8293 10.8544 70.3273 10.9734C68.5668 11.3332 68.8404 13.5916 69.0128 14.8924C69.0825 15.4205 69.1454 15.9854 69.4204 16.4546C69.601 16.7624 69.8663 17.0483 70.1851 17.2165C70.6734 17.4751 71.2657 17.2726 71.724 17.5722C72.4613 18.0564 72.3997 19.3778 72.1124 20.0344C71.8047 20.7361 72.0071 21.5446 72.5379 22.089C73.2027 22.773 74.0426 23.4118 74.8045 23.9849C75.219 24.2968 75.7087 24.4897 76.2394 24.4404C77.2188 24.3501 77.6046 23.1929 78.6606 23.7442C79.045 23.9439 79.5689 24.2681 79.7741 24.662C79.9245 24.952 79.9095 25.2147 80.1106 25.4924C80.5086 26.0395 81.1652 26.2584 81.8123 26.2939C83.0338 26.3596 85.1677 26.3391 85.9707 25.19C86.1841 24.8836 86.2361 24.6101 86.2675 24.2517C86.3346 23.5062 86.615 23.1382 87.3331 22.9699C87.6997 22.8851 88.1908 22.7675 88.5642 22.8851C88.9773 23.0151 89.2263 23.264 89.6969 23.2545C91.099 23.2244 92.315 21.4967 92.9593 20.442C93.2808 19.9127 93.4654 19.2766 93.2753 18.6624C93.1905 18.3888 93.0318 18.2247 92.869 18.0058C92.4026 17.3793 92.3041 17.0209 92.7145 16.3575C92.9812 15.9252 93.2657 15.5545 93.7308 15.3452C94.0509 15.2002 94.3272 15.1483 94.5899 14.8747C95.0194 14.426 95.1507 13.8351 95.1644 13.2373C95.1917 11.9788 95.1986 9.80112 93.8717 9.10075ZM94.4695 13.5369C94.3819 14.1442 94.0947 14.4534 93.5489 14.6859C93.33 14.7789 93.1686 14.8227 92.973 14.9773C92.4901 15.3603 91.9908 16.047 91.8021 16.6324C91.6297 17.1659 91.7706 17.7117 92.0921 18.1604C92.4368 18.6405 92.7924 18.8949 92.6173 19.5693C92.5407 19.8662 92.3643 20.111 92.1919 20.3559C91.7487 20.9906 91.1879 21.7498 90.5586 22.2244C90.0566 22.6033 89.6462 22.6088 89.0977 22.3858C88.8159 22.2723 88.6094 22.1806 88.2906 22.1697C87.7257 22.1506 87.0377 22.2641 86.5274 22.5062C85.7915 22.855 85.6684 23.5198 85.5836 24.2517C85.4796 25.1435 84.6616 25.3556 83.9147 25.4705C83.1761 25.5826 82.2281 25.7413 81.4757 25.5758C80.5237 25.3665 80.5634 24.3994 79.9341 23.8153C79.5101 23.4227 78.9219 22.9781 78.3405 22.8714C78.0108 22.8112 77.6702 22.8837 77.3707 23.0219C76.9986 23.1943 76.7373 23.6005 76.3557 23.7305C75.6444 23.9726 75.0562 23.3078 74.5788 22.9084C74.111 22.5172 73.5966 22.1478 73.1603 21.7224C72.9277 21.4953 72.7266 21.2724 72.6623 20.9276C72.5721 20.4407 72.9209 20.1493 72.9975 19.6979C73.1042 19.0687 72.9537 18.2342 72.6801 17.6584C72.3354 16.932 71.6624 16.7966 70.9388 16.7131C69.7802 16.5777 69.7131 15.2057 69.6311 14.3043C69.5504 13.4356 69.337 11.8721 70.5093 11.6327C71.4764 11.4043 72.5023 9.88455 72.3012 8.89829C72.1152 7.9859 71.1043 7.59743 71.516 6.56192C71.8115 5.81778 72.4667 5.14339 73.007 4.57434C73.5693 3.98067 74.1342 3.58261 74.9604 3.93143C75.6088 4.20638 76.2134 4.17081 76.9056 4.00803C77.4486 3.87944 77.9055 3.69479 78.2051 3.19824C78.3679 2.92876 78.4349 2.62645 78.4746 2.3173C78.5635 1.61146 78.7222 1.20656 79.469 0.976753C80.2378 0.741474 81.1338 0.711391 81.9285 0.707287C82.1433 0.705919 82.3704 0.697706 82.581 0.742847C83.2992 0.896053 83.3758 1.30643 83.622 1.85769C84.0748 2.87267 85.6178 3.79053 86.6875 3.29671C87.4166 2.95884 87.8365 2.21608 88.7256 2.78103C89.1305 3.03956 89.4944 3.42531 89.861 3.73172C90.2221 4.03266 90.6175 4.31717 90.954 4.64546C91.1646 4.85202 91.337 5.08867 91.3931 5.39097C91.482 5.87111 91.1359 6.17616 91.0593 6.62073C90.8486 7.85731 91.389 9.43725 92.776 9.59319C93.3382 9.65612 93.7335 9.67389 94.0468 10.2074C94.1808 10.4358 94.2178 10.6478 94.2725 10.8941C94.4449 11.6916 94.5912 12.7093 94.4695 13.5369Z" fill="#131716"/>
  <path fill-rule="evenodd" clip-rule="evenodd" d="M76.3915 9.52149C78.6458 6.3247 82.8671 5.99504 86.0927 8.21926C89.3182 10.4435 90.3304 14.8522 88.0789 18.049C85.8177 21.2499 81.1463 22.0283 77.9181 19.8013C74.6925 17.5798 74.1317 12.721 76.3915 9.52149Z" fill="#DDD1FF"/>
  <path fill-rule="evenodd" clip-rule="evenodd" d="M75.7794 11.3818C76.7574 7.93336 80.3509 5.92939 83.8021 6.91018C87.252 7.8896 89.2546 11.4844 88.2779 14.9316C87.2958 18.3869 83.705 20.3895 80.2524 19.406C76.8012 18.4266 74.7959 14.8358 75.7794 11.3818Z" fill="white"/>
  <path d="M88.6284 11.366C87.8761 8.60965 85.433 6.5961 82.5946 6.3444C79.3486 6.05714 76.3707 8.20611 75.4514 11.2921C74.71 14.0389 75.6922 16.9771 77.9902 18.6761C80.3034 20.3846 83.574 20.4242 85.9296 18.7759C88.2742 17.1358 89.3835 14.1346 88.6284 11.366ZM86.288 17.605C84.4112 19.4038 81.514 19.8251 79.2036 18.6268C76.6059 17.2794 75.3543 14.2769 76.1108 11.474C76.8398 9.02686 78.9984 7.20482 81.5687 7.02015C84.1212 6.83548 86.5684 8.28545 87.6326 10.6136C88.7078 12.9637 88.1524 15.8171 86.288 17.605Z" fill="#131716"/>
  <path d="M43.1546 109.346C40.9519 108.98 38.7453 108.599 36.576 108.065C35.3327 107.759 34.047 107.42 32.9025 106.831C31.5571 106.139 30.8432 104.528 30.3151 103.186C29.9616 102.288 29.6564 101.358 29.4356 100.418C29.3351 99.9896 28.6754 100.171 28.776 100.6C29.2171 102.478 29.9047 104.49 31.048 106.058C32.3364 107.824 34.7025 108.323 36.7193 108.803C38.7846 109.294 40.8795 109.658 42.9728 110.006C43.4035 110.077 43.5885 109.418 43.1546 109.346Z" fill="white"/>
  <path d="M65.0987 82.088C65.1562 81.9252 65.5365 81.0511 66.3695 81.3397C67.4803 81.7269 68.9234 81.906 68.9302 82.512C68.933 82.7692 68.8277 82.8896 68.6238 83.0455C68.2381 83.341 67.1944 83.382 66.7101 83.3683C66.3134 83.356 65.4202 83.3109 65.163 83.0086C65.0139 82.8335 65.0221 82.3055 65.0987 82.088Z" fill="white"/>
  <path d="M65.4295 82.1797C65.4596 82.0949 65.4103 82.2152 65.4322 82.1701C65.45 82.1331 65.4664 82.0962 65.4869 82.0593C65.5416 81.9594 65.5868 81.8924 65.636 81.8391C65.7728 81.6913 65.9123 81.5983 66.1285 81.6298C66.309 81.6558 66.491 81.7419 66.6661 81.7939C66.8535 81.85 67.0422 81.902 67.231 81.954C67.5579 82.0442 67.8931 82.1277 68.2063 82.259C68.3157 82.3041 68.432 82.3589 68.5264 82.4341C68.4826 82.3999 68.6044 82.5121 68.5729 82.4806C68.5415 82.4478 68.603 82.5148 68.5948 82.5203C68.5962 82.5189 68.5852 82.5025 68.588 82.4833C68.5729 82.6201 68.5674 82.6584 68.4498 82.7514C68.3513 82.8267 68.2679 82.8554 68.1516 82.8896C67.5921 83.0524 66.9725 83.0496 66.3952 83.0113C66.1011 82.9922 65.7427 82.9662 65.4897 82.8322C65.4267 82.798 65.4418 82.8185 65.4226 82.7802C65.4213 82.7774 65.3994 82.6803 65.3939 82.6379C65.3748 82.482 65.3843 82.3247 65.4295 82.1797C65.5622 81.7583 64.9028 81.5792 64.7701 81.9977C64.6593 82.3493 64.6525 82.8677 64.8686 83.181C65.093 83.5065 65.5553 83.5941 65.9178 83.6447C66.6688 83.75 67.48 83.7555 68.22 83.579C68.6235 83.4819 69.0613 83.2617 69.2172 82.8486C69.3608 82.4656 69.2158 82.099 68.8998 81.8637C68.5962 81.638 68.209 81.5244 67.8507 81.4191C67.4061 81.2878 66.9561 81.1756 66.5142 81.0293C66.0642 80.8802 65.6182 80.9376 65.2558 81.2536C65.0314 81.4492 64.87 81.72 64.7701 81.9977C64.621 82.4122 65.2817 82.5914 65.4295 82.1797Z" fill="#131716"/>
  <path d="M70.2716 77.7164C70.0555 77.7971 69.1677 77.8642 68.797 77.897C68.3442 77.938 67.9803 78.1309 67.2622 78.4346C66.4497 78.7779 66.0366 79.5098 65.9203 79.637C65.6604 79.927 65.8191 80.7929 66.6384 80.3469C67.2595 80.009 67.9981 79.7464 67.9981 79.7464L70.7339 77.4456C70.7339 77.4456 70.4658 77.6439 70.2716 77.7164Z" fill="white"/>
  <path d="M70.5596 77.1502C70.3516 77.302 70.1629 77.406 69.9084 77.4443C69.5856 77.4935 69.2573 77.5154 68.9304 77.5441C68.6089 77.5715 68.3093 77.6303 68.007 77.7493C67.6131 77.9025 67.1904 78.0585 66.8238 78.2705C66.5106 78.4524 66.2301 78.7 65.9976 78.9763C65.9114 79.0789 65.8293 79.1856 65.75 79.2937C65.7254 79.3292 65.7008 79.3634 65.6748 79.399C65.6365 79.451 65.6816 79.3908 65.6884 79.3826C65.6597 79.4195 65.6296 79.4496 65.6036 79.4893C65.3136 79.9229 65.4778 80.6342 66.0126 80.7847C66.4449 80.9078 66.8402 80.6137 67.2109 80.44C67.4968 80.3045 67.7896 80.1828 68.0864 80.0761C68.4981 79.9297 68.3217 79.269 67.9044 79.4168C67.7116 79.4865 67.5214 79.5631 67.3313 79.6425C67.1631 79.7136 66.9948 79.7875 66.8293 79.8668C66.6665 79.9434 66.5065 80.0542 66.3355 80.1076C66.2712 80.1281 66.1617 80.1172 66.2014 80.1363C66.1658 80.1185 66.1576 80.0788 66.1453 80.0159C66.1399 79.9899 66.1508 79.9133 66.1645 79.8778C66.1686 79.8668 66.1645 79.875 66.1713 79.8668C66.2014 79.8244 66.2342 79.7848 66.2657 79.7437C66.609 79.2814 66.9797 78.9243 67.5173 78.6945C67.8196 78.5632 68.1219 78.4182 68.4379 78.3197C68.6828 78.2431 68.9276 78.2281 69.1821 78.2062C69.5172 78.1761 69.8565 78.1487 70.1875 78.0886C70.4529 78.0393 70.6881 77.8998 70.9043 77.7411C71.2558 77.4826 70.9138 76.8889 70.5596 77.1502Z" fill="#131716"/>
  <path d="M109.118 100.74C109.123 99.5627 109.192 98.3692 109.103 97.1937C108.873 94.1392 108.714 91.0723 108.386 88.0274C107.964 84.0919 107.541 80.1578 107.118 76.2237C107.072 75.7901 106.386 75.7846 106.434 76.2237C106.437 76.2497 106.44 76.2771 106.442 76.3044L98.1078 78.3508L89.6705 76.5726C89.728 76.1595 89.0946 75.9871 89.0098 76.4125C87.8006 82.5366 86.3534 88.6512 85.5422 94.8423C85.0306 98.7475 84.3904 102.658 84.0047 106.577C83.6846 109.834 83.6545 113.145 83.4835 116.412C83.3645 118.666 83.2455 120.919 83.1278 123.172C83.1087 123.541 82.9787 124.054 83.1771 124.383C83.9267 125.628 86.1359 125.341 87.3205 125.27C87.4778 125.261 87.6009 125.17 87.6501 125.019C88.4668 122.538 89.2834 120.057 90.1 117.575C90.5145 116.316 90.955 115.063 91.3448 113.796C91.576 113.044 91.6116 112.234 91.7128 111.455C91.8947 110.072 91.9563 108.607 92.2641 107.246C92.234 107.383 92.3516 107.022 92.3872 106.915C92.5226 106.516 92.658 106.117 92.7934 105.717C93.833 102.657 94.8713 99.5971 95.9109 96.5371C96.5894 94.5386 97.2679 92.5387 97.9463 90.5402C98.9148 95.4715 99.8833 100.402 100.852 105.333C101.01 106.145 101.217 106.962 101.332 107.781C101.335 107.801 101.336 107.806 101.337 107.816C101.357 108.063 101.346 108.317 101.351 108.564C101.365 109.4 101.38 110.235 101.395 111.071C101.43 113.129 102.066 115.178 102.486 117.185C103.081 120.038 103.676 122.891 104.272 125.743C104.296 125.858 104.401 125.953 104.511 125.982C106.113 126.418 107.49 126.389 108.963 125.594C109.069 125.537 109.133 125.416 109.133 125.298C109.118 119.051 109.073 112.804 109.091 106.557C109.096 104.618 109.108 102.679 109.118 100.74Z" fill="#131716"/>
  <path d="M107.207 85.7068C107.174 85.6958 107.142 85.6849 107.109 85.6726C107.092 85.6671 107.062 85.6534 107.095 85.6685C107.038 85.6425 106.981 85.6124 106.927 85.5809C106.811 85.5139 106.741 85.4619 106.655 85.388C106.414 85.1815 106.2 84.9435 105.998 84.7013C105.638 84.2718 105.339 83.7739 105.25 83.224C105.22 83.0421 104.993 82.9395 104.828 82.9846C104.636 83.038 104.56 83.2226 104.59 83.4059C104.697 84.0694 105.091 84.6794 105.515 85.1856C105.93 85.6808 106.395 86.1623 107.025 86.3661C107.202 86.4235 107.399 86.3004 107.447 86.1267C107.497 85.942 107.384 85.7642 107.207 85.7068Z" fill="white"/>
  <path d="M96.8713 89.3079C96.688 89.2846 96.5293 89.4816 96.5293 89.6499C96.5293 89.8537 96.6866 89.9686 96.8713 89.9919C96.8097 89.9836 96.8261 89.985 96.8699 89.9973C96.8891 90.0028 96.8973 90.0055 96.9014 90.0083C96.9123 90.0137 96.9233 90.0192 96.9342 90.0247C96.941 90.0288 96.9479 90.0343 96.9547 90.0384C96.9848 90.0671 97.0149 90.0986 97.0436 90.1286C97.0477 90.1327 97.0505 90.1382 97.0532 90.1423C97.0696 90.1683 97.0874 90.1929 97.1025 90.2203C97.1271 90.2641 97.149 90.3106 97.1708 90.3571C97.1736 90.3653 97.1763 90.3708 97.1804 90.3803C97.1927 90.4132 97.2037 90.4446 97.2146 90.4775C97.2557 90.6033 97.2871 90.7305 97.3131 90.8605C97.3268 90.9248 97.3377 90.9904 97.3473 91.0547C97.3501 91.0725 97.3555 91.1053 97.3569 91.1135C97.3596 91.1436 97.3637 91.1737 97.3678 91.2038C97.3829 91.3379 97.3924 91.4733 97.4007 91.6073C97.4089 91.7783 97.4089 91.9507 97.4089 92.123C97.5867 91.5964 97.7659 91.0711 97.9437 90.5445C97.8849 90.2969 97.8042 90.0575 97.6742 89.8455C97.4896 89.5404 97.2242 89.353 96.8713 89.3079Z" fill="white"/>
  <path d="M97.9355 77.2375C95.7482 77.4002 89.341 76.2854 89.341 76.2854L89.0674 78.7093C89.0674 78.7093 95.6019 79.846 97.7892 79.6833C100.524 79.4794 106.63 78.6683 106.63 78.6683L106.776 76.2238C106.776 76.2238 100.67 77.0336 97.9355 77.2375Z" fill="white"/>
  <path d="M107.118 76.2236C107.1 76.0581 106.974 75.8543 106.776 75.8816C103.838 76.2701 100.891 76.6682 97.935 76.8952C95.1349 77.0689 92.1816 76.4329 89.4308 75.9555C89.2625 75.9267 89.045 75.9992 89.0094 76.1949C88.8658 77.0006 88.7208 77.8049 88.5758 78.6106C88.5457 78.7788 88.6196 78.9991 88.8138 79.0319C91.67 79.5175 94.7095 80.1522 97.6149 80.0346C100.756 79.906 103.918 79.3698 107.033 78.9567C107.2 78.9348 107.397 78.8185 107.375 78.6147C107.289 77.8172 107.203 77.0211 107.118 76.2236ZM92.5209 78.9101C91.4457 78.7624 90.3719 78.5969 89.3022 78.4191C89.4075 77.8363 89.5115 77.2536 89.6168 76.6723C90.6824 76.8515 91.7521 77.0183 92.8232 77.1647C94.4975 77.3945 96.2416 77.6845 97.935 77.5792C100.79 77.3603 103.636 76.9814 106.475 76.6052C106.536 77.1784 106.598 77.7515 106.66 78.3247C103.699 78.7227 100.713 79.181 97.7326 79.3438C96.0049 79.4382 94.2266 79.1441 92.5209 78.9101Z" fill="#131716"/>
  <path d="M98.9631 80.0566L95.1768 79.9458L95.2643 76.9843L99.0493 77.0951L98.9631 80.0566Z" fill="#DDD1FF"/>
  <path d="M99.3916 77.0948C99.3971 76.906 99.2302 76.7583 99.0496 76.7528C97.9457 76.7214 96.8418 76.6885 95.7379 76.6557C95.5792 76.6516 95.4219 76.6475 95.2632 76.642C95.0758 76.6365 94.9267 76.8034 94.9213 76.984C94.8925 77.9716 94.8638 78.9579 94.8351 79.9455C94.8296 80.1343 94.9965 80.282 95.1771 80.2875C96.281 80.3189 97.3849 80.3518 98.4901 80.3846C98.6474 80.3887 98.8047 80.3942 98.9634 80.3983C99.1125 80.4024 99.2056 80.3244 99.2548 80.2218C99.2822 80.1753 99.3027 80.1233 99.3054 80.0563C99.3341 79.0687 99.3629 78.0824 99.3916 77.0948ZM95.6504 79.6172C95.6107 79.6158 95.5697 79.6145 95.5286 79.6131C95.5505 78.8539 95.5738 78.0947 95.5957 77.3356C96.5888 77.3656 97.5832 77.3944 98.5763 77.4231C98.6173 77.4245 98.657 77.4258 98.6981 77.4272C98.6762 78.1864 98.6529 78.9456 98.631 79.7048C97.6379 79.6747 96.6448 79.6459 95.6504 79.6172Z" fill="#131716"/>
  <path d="M107.067 60.308C106.973 60.7006 106.912 61.1082 106.891 61.5117C106.881 61.6909 107.055 61.8619 107.233 61.8537C107.426 61.8455 107.565 61.7033 107.575 61.5117C107.583 61.349 107.602 61.1862 107.624 61.0234C107.62 61.0535 107.616 61.085 107.612 61.1151C107.641 60.9044 107.678 60.6965 107.727 60.4899C107.768 60.3162 107.672 60.1124 107.487 60.07C107.312 60.0303 107.111 60.122 107.067 60.308Z" fill="#131716"/>
  <path d="M107.73 128.085C107.715 128.096 107.7 128.105 107.685 128.114C107.655 128.13 107.586 128.152 107.7 128.111C107.656 128.126 107.613 128.142 107.57 128.154C107.462 128.185 107.351 128.205 107.24 128.223C107.211 128.227 107.184 128.231 107.157 128.235C107.113 128.241 107.241 128.224 107.181 128.232C107.166 128.234 107.15 128.236 107.135 128.237C107.075 128.245 107.016 128.251 106.956 128.258C106.841 128.269 106.726 128.279 106.611 128.29C106.518 128.298 106.436 128.322 106.369 128.39C106.31 128.449 106.265 128.546 106.269 128.632C106.277 128.803 106.419 128.99 106.611 128.974C106.882 128.95 107.152 128.924 107.421 128.882C107.535 128.865 107.649 128.843 107.758 128.812C107.867 128.781 107.983 128.742 108.074 128.676C108.148 128.622 108.207 128.563 108.232 128.471C108.254 128.389 108.244 128.28 108.198 128.208C108.105 128.065 107.884 127.973 107.73 128.085Z" fill="white"/>
  <path d="M108.347 129.716C108.332 129.727 108.317 129.736 108.302 129.745C108.272 129.761 108.202 129.783 108.317 129.742C108.273 129.758 108.231 129.773 108.187 129.785C108.079 129.816 107.968 129.836 107.856 129.854C107.828 129.858 107.801 129.862 107.772 129.866C107.73 129.872 107.859 129.855 107.798 129.863C107.782 129.864 107.767 129.867 107.751 129.868C107.692 129.876 107.632 129.882 107.573 129.888C107.458 129.9 107.343 129.91 107.228 129.92C107.135 129.929 107.053 129.953 106.986 130.021C106.926 130.08 106.882 130.177 106.886 130.262C106.893 130.434 107.036 130.621 107.228 130.604C107.499 130.58 107.77 130.555 108.038 130.513C108.151 130.496 108.265 130.474 108.376 130.443C108.484 130.412 108.6 130.373 108.692 130.307C108.766 130.253 108.823 130.194 108.849 130.103C108.871 130.021 108.861 129.912 108.815 129.839C108.722 129.696 108.502 129.604 108.347 129.716Z" fill="white"/>
  <path d="M83.5085 127.342C83.2856 127.267 83.0612 127.193 82.8437 127.105C82.8355 127.102 82.8287 127.099 82.8218 127.096C82.7972 127.085 82.774 127.075 82.7507 127.064C82.7028 127.042 82.655 127.019 82.6084 126.993C82.5715 126.972 82.5346 126.949 82.4976 126.924C82.4853 126.912 82.473 126.9 82.4607 126.886C82.3444 126.75 82.0955 126.757 81.9778 126.886C81.8438 127.032 81.8534 127.225 81.9778 127.37C82.049 127.454 82.1488 127.519 82.2446 127.573C82.3677 127.643 82.4976 127.697 82.629 127.751C82.8574 127.845 83.0927 127.923 83.3266 128.001C83.4962 128.058 83.7082 127.936 83.7479 127.762C83.7903 127.573 83.6905 127.402 83.5085 127.342Z" fill="white"/>
  <path d="M80.283 128.222C80.3555 128.305 80.454 128.37 80.5497 128.425C80.6728 128.494 80.8042 128.549 80.9341 128.602C81.1625 128.697 81.3978 128.775 81.6317 128.853C81.8027 128.909 82.0134 128.787 82.0531 128.614C82.0955 128.425 81.9956 128.254 81.8137 128.193C81.5907 128.119 81.3664 128.045 81.1489 127.956C81.1352 127.951 81.1215 127.945 81.1078 127.94C81.0709 127.925 81.1926 127.977 81.1338 127.95C81.1078 127.939 81.0818 127.927 81.0559 127.916C81.008 127.894 80.9601 127.87 80.915 127.845C80.8726 127.821 80.8315 127.796 80.7918 127.769C80.7399 127.733 80.8657 127.832 80.8055 127.778C80.7918 127.766 80.7795 127.752 80.7672 127.738C80.6496 127.602 80.402 127.609 80.283 127.738C80.1503 127.883 80.1585 128.076 80.283 128.222Z" fill="white"/>
  <path d="M66.1457 128.994C66.1238 129.021 66.0978 129.043 66.0705 129.064C66.0937 129.046 66.117 129.029 66.1402 129.011C66.0198 129.101 65.8776 129.164 65.7394 129.223C65.7668 129.211 65.7941 129.2 65.8215 129.188C65.6409 129.264 65.4576 129.329 65.273 129.395C65.1881 129.425 65.1157 129.472 65.0691 129.552C65.0254 129.625 65.0076 129.733 65.0336 129.815C65.0883 129.981 65.2743 130.118 65.4549 130.054C65.6792 129.974 65.9008 129.893 66.1197 129.798C66.2113 129.758 66.303 129.716 66.3892 129.665C66.4753 129.614 66.5656 129.555 66.6286 129.478C66.6874 129.406 66.7284 129.333 66.7284 129.236C66.7284 129.152 66.6915 129.052 66.6286 128.994C66.5629 128.934 66.4781 128.89 66.3864 128.894C66.3016 128.898 66.2018 128.925 66.1457 128.994Z" fill="white"/>
  <path d="M67.617 129.943C67.5951 129.97 67.5705 129.992 67.5431 130.013C67.5664 129.995 67.5896 129.977 67.6129 129.96C67.4912 130.05 67.3503 130.113 67.2121 130.171C67.2395 130.16 67.2668 130.148 67.2942 130.137C67.1136 130.213 66.9303 130.278 66.7457 130.343C66.6608 130.374 66.5883 130.421 66.5405 130.501C66.4981 130.574 66.4803 130.682 66.5063 130.764C66.561 130.93 66.747 131.067 66.9276 131.003C67.1519 130.923 67.3735 130.841 67.5924 130.747C67.684 130.707 67.7757 130.665 67.8619 130.614C67.9467 130.563 68.037 130.504 68.1012 130.427C68.1601 130.355 68.2011 130.282 68.2011 130.185C68.2011 130.101 68.1642 130.001 68.1012 129.943C68.0356 129.883 67.9508 129.839 67.8591 129.843C67.7743 129.847 67.6745 129.874 67.617 129.943Z" fill="white"/>
</svg>