<svg xmlns="http://www.w3.org/2000/svg" width="213" height="136" viewBox="0 0 213 136" fill="none">
  <mask id="mask0_677_12206" style="mask-type:luminance" maskUnits="userSpaceOnUse" x="0" y="0" width="213" height="136">
    <path d="M108.255 135.975C95.8356 135.975 83.3777 135.162 71.5564 133.329C71.648 132.013 70.8229 130.678 69.0823 129.673C67.4278 128.719 65.2607 128.242 63.0924 128.242C60.9242 128.242 58.757 128.719 57.1026 129.673C56.7805 129.86 56.4897 130.057 56.2312 130.263C32.3033 124.28 12.6888 113.147 4.08453 94.7911C4.35144 94.9096 4.67156 94.9688 4.99168 94.9688C5.37373 94.9688 5.75589 94.8848 6.04747 94.7157C6.63051 94.3797 6.63051 93.8336 6.04725 93.4964C5.75579 93.3284 5.37362 93.2444 4.99157 93.2444C4.60941 93.2444 4.22736 93.3284 3.93589 93.4964C3.79727 93.5772 3.69171 93.6688 3.61901 93.7668C2.50333 91.2313 1.5936 88.5622 0.907259 85.753C1.46413 85.4148 1.4554 84.8806 0.881194 84.5488C0.794917 84.4993 0.700777 84.4562 0.600929 84.4217C0.54675 84.1708 0.493757 83.9155 0.443132 83.6624C0.193565 82.4161 0.0590324 81.2119 0.0302734 80.0465C0.34156 80.0217 0.641967 79.9409 0.881194 79.8031C1.46424 79.4659 1.46424 78.9198 0.881194 78.5838C0.650584 78.4502 0.363211 78.3705 0.0640963 78.3425C1.38873 58.0744 35.3848 50.037 47.3131 37.2559C57.9287 25.8827 57.7995 0.82254 77.291 0.82254C78.6126 0.82254 80.0257 0.93779 81.5391 1.18123C110.387 5.81282 86.133 38.7855 180.86 42.9733C205.999 44.0849 218.563 69.5382 210.546 93.2024L210.454 93.1485C210.133 92.9633 209.704 92.8728 209.255 92.8728C208.712 92.8728 208.14 93.0053 207.692 93.2627L203.447 95.7142C202.629 96.186 202.541 96.9001 203.249 97.3083L207.697 99.8762C200.011 114.666 183.567 127.703 156.26 132.12C145.993 133.779 134.938 134.985 123.607 135.572C122.874 135.15 122.142 134.726 121.41 134.304L122.544 132.245L108.729 124.269C108.738 124.273 108.748 124.278 108.758 124.283L108.856 124.34C108.823 124.319 108.791 124.3 108.758 124.283L108.068 123.885C111.541 120.282 110.627 115.647 105.325 112.587C104.294 111.992 103.159 111.492 101.955 111.089C101.473 110.68 100.919 110.291 100.291 109.928C97.6021 108.376 94.0799 107.6 90.5567 107.6C89.2997 107.6 88.0427 107.699 86.8234 107.896L92.5181 104.609H65.5515C65.7831 104.209 65.9026 103.785 65.9026 103.348C65.894 103.229 65.8121 103.108 65.7012 103.042C65.8337 102.733 65.9026 102.411 65.894 102.082C65.894 101.964 65.8121 101.842 65.7012 101.776C65.8337 101.467 65.9026 101.145 65.9026 100.815C65.8983 100.72 65.8423 100.62 65.7615 100.552C65.8843 100.256 65.9457 99.9548 65.9436 99.6532C65.9468 99.2202 66.1547 97.75 66.9754 96.9292C68.9832 94.9699 70.2359 92.2297 70.2359 89.1934C70.2359 83.8422 66.3464 79.4002 61.2409 78.5385V74.4466H31.7699V87.7328H48.7194C48.6548 88.21 48.6214 88.6979 48.6214 89.1934C48.6214 92.2297 49.8741 94.9699 51.8894 96.9335C52.7069 97.7543 52.9115 99.2364 52.9137 99.6597C52.9126 99.9376 52.9654 100.214 53.0699 100.486C53.0785 100.507 53.0871 100.53 53.0957 100.552C53.0171 100.62 52.9632 100.72 52.9632 100.815C52.9632 101.144 53.0311 101.464 53.1636 101.772C53.0494 101.837 52.9632 101.961 52.9632 102.082C52.9632 102.41 53.0311 102.729 53.1625 103.036C53.0494 103.102 52.9632 103.227 52.9632 103.348C52.9632 103.822 53.1043 104.282 53.3758 104.709C53.5384 105.459 54.1179 106.185 55.1153 106.761C56.2808 107.434 57.8016 107.778 59.329 107.792L59.4292 108.879H83.0632C82.2705 109.177 81.5186 109.526 80.8228 109.928C78.9012 111.037 77.6669 112.392 77.1197 113.817C72.529 117.534 73.1225 122.729 78.8991 126.065C82.1186 127.923 86.3376 128.853 90.5567 128.853C91.3861 128.853 92.2165 128.816 93.0384 128.745C93.2689 128.75 93.4983 128.753 93.7288 128.753C95.2755 128.753 96.8234 128.628 98.3205 128.377C102.034 130.521 107.283 133.553 110.781 135.573C111.002 135.701 111.224 135.829 111.446 135.956C110.383 135.968 109.319 135.975 108.255 135.975ZM163.297 122.048V124.439H176.306V122.048H163.297ZM169.3 118.598V120.988H182.306V118.598H169.3ZM45.6524 115.642L49.6457 117.947L45.6524 120.252H51.9432L55.935 117.947L51.9432 115.642H45.6524ZM137.835 108.879L142.558 111.605L137.835 114.331H145.275L149.997 111.605L145.275 108.879H137.835ZM110.098 105.367H137.358L166.418 88.5891L138.257 72.3344L139.159 71.813L124.631 63.4277V63.4234L110.101 55.038L95.5728 63.4234V76.2755L88.7719 80.2005L74.2438 71.813V88.5891L88.7719 96.9787H95.5696L110.098 105.367ZM9.52913 95.2866V95.5699C9.20147 95.6733 8.89202 95.8047 8.61542 95.9652C7.04488 96.8786 7.05393 98.3585 8.63448 99.2719C8.90667 99.4292 9.20912 99.5574 9.52913 99.6597V99.9548H11.6006C12.597 99.9387 13.584 99.7125 14.3422 99.2719C15.913 98.3585 15.905 96.8786 14.3233 95.9652C13.5334 95.5096 12.4998 95.2834 11.4673 95.2834C11.3969 95.2834 11.3266 95.2844 11.2563 95.2866H9.52913ZM158.885 80.2447L173.339 88.5891L158.885 96.9346H181.657L189.694 92.2933L192.977 94.1879L189.633 96.1181H194.901L198.244 94.1879L194.901 92.2577H189.756L196.109 88.5891L181.657 80.2447H158.885ZM10.1577 90.2619C9.77569 90.2619 9.39363 90.3459 9.10206 90.5139C8.51912 90.851 8.51912 91.3971 9.10206 91.7332C9.39363 91.9023 9.77569 91.9863 10.1577 91.9863C10.5399 91.9863 10.922 91.9023 11.2135 91.7332C11.7965 91.3971 11.7965 90.851 11.2135 90.5139C10.922 90.3459 10.5399 90.2619 10.1577 90.2619ZM15.3239 87.2793C14.9419 87.2793 14.5597 87.3633 14.2681 87.5314C13.6851 87.8685 13.6851 88.4146 14.2681 88.7507C14.5597 88.9187 14.9419 89.0038 15.3239 89.0038C15.7061 89.0038 16.0881 88.9187 16.3797 88.7507C16.9627 88.4146 16.9627 87.8685 16.3797 87.5314C16.0881 87.3633 15.7061 87.2793 15.3239 87.2793ZM4.99157 87.2793C4.60941 87.2793 4.22736 87.3633 3.93589 87.5314C3.35285 87.8685 3.35285 88.4135 3.93589 88.7507C4.22736 88.9187 4.60941 89.0038 4.99157 89.0038C5.37362 89.0038 5.75579 88.9187 6.04725 88.7507C6.63051 88.4135 6.63051 87.8685 6.04725 87.5314C5.75579 87.3633 5.37362 87.2793 4.99157 87.2793ZM20.4893 84.2968C20.1075 84.2968 19.7256 84.3808 19.4344 84.5499C18.8513 84.886 18.8513 85.431 19.4344 85.7681C19.7259 85.9362 20.1079 86.0202 20.4901 86.0202C20.8721 86.0202 21.2543 85.9362 21.5457 85.7681C22.1288 85.431 22.1288 84.886 21.5457 84.5499C21.2541 84.3808 20.8716 84.2968 20.4893 84.2968ZM10.1577 84.2968C9.77569 84.2968 9.39363 84.3808 9.10206 84.5499C8.5188 84.886 8.5188 85.431 9.10206 85.7681C9.39363 85.9362 9.77569 86.0202 10.1577 86.0202C10.5399 86.0202 10.922 85.9362 11.2135 85.7681C11.7965 85.431 11.7965 84.886 11.2135 84.5499C10.922 84.3808 10.5399 84.2968 10.1577 84.2968ZM25.6562 81.3132C25.2741 81.3132 24.892 81.3983 24.6003 81.5663C24.0174 81.9024 24.0174 82.4485 24.6003 82.7856C24.892 82.9536 25.2741 83.0376 25.6562 83.0376C26.0383 83.0376 26.4203 82.9536 26.712 82.7856C27.295 82.4485 27.295 81.9024 26.712 81.5663C26.4203 81.3983 26.0383 81.3132 25.6562 81.3132ZM15.3239 81.3132C14.9419 81.3132 14.5597 81.3983 14.2681 81.5663C13.6851 81.9024 13.6851 82.4485 14.2681 82.7856C14.5597 82.9536 14.9419 83.0376 15.3239 83.0376C15.7061 83.0376 16.0881 82.9536 16.3797 82.7856C16.9627 82.4485 16.9627 81.9024 16.3795 81.5663C16.088 81.3983 15.706 81.3132 15.3239 81.3132ZM4.99157 81.3132C4.60941 81.3132 4.22736 81.3983 3.93589 81.5663C3.35285 81.9024 3.35285 82.4485 3.93589 82.7856C4.22736 82.9536 4.60941 83.0376 4.99157 83.0376C5.37362 83.0376 5.75579 82.9536 6.04725 82.7856C6.63051 82.4485 6.63051 81.9024 6.04725 81.5663C5.75579 81.3983 5.37362 81.3132 4.99157 81.3132ZM20.4901 78.3317C20.1079 78.3317 19.7259 78.4157 19.4344 78.5838C18.8511 78.9198 18.8511 79.4659 19.4344 79.8031C19.7259 79.9711 20.1079 80.0551 20.4901 80.0551C20.8721 80.0551 21.2543 79.9711 21.5457 79.8031C22.1288 79.4659 22.1288 78.9198 21.5457 78.5838C21.2543 78.4157 20.8721 78.3317 20.4901 78.3317ZM10.1577 78.3317C9.77558 78.3317 9.39352 78.4157 9.10184 78.5838C8.5188 78.9198 8.5188 79.4659 9.10184 79.8031C9.39352 79.9711 9.77558 80.0551 10.1577 80.0551C10.5399 80.0551 10.922 79.9711 11.2135 79.8031C11.7965 79.4659 11.7965 78.9198 11.2135 78.5838C10.922 78.4157 10.5399 78.3317 10.1577 78.3317ZM15.3238 75.3492C14.9417 75.3492 14.5596 75.4332 14.2681 75.6012C13.6851 75.9373 13.6851 76.4834 14.2681 76.8205C14.5596 76.9886 14.9417 77.0726 15.3238 77.0726C15.706 77.0726 16.088 76.9886 16.3795 76.8205C16.9627 76.4834 16.9627 75.9373 16.3795 75.6012C16.088 75.4332 15.706 75.3492 15.3238 75.3492ZM4.99157 75.3492C4.60941 75.3492 4.22736 75.4332 3.93589 75.6012C3.35285 75.9373 3.35285 76.4834 3.93589 76.8205C4.22736 76.9886 4.60941 77.0726 4.99157 77.0726C5.37362 77.0726 5.75579 76.9886 6.04725 76.8205C6.63051 76.4834 6.63051 75.9373 6.04725 75.6012C5.75579 75.4332 5.37362 75.3492 4.99157 75.3492ZM10.1576 72.3656C9.77558 72.3656 9.39352 72.4507 9.10184 72.6187C8.5188 72.9548 8.5188 73.5009 9.10184 73.838C9.39352 74.006 9.77558 74.09 10.1576 74.09C10.5398 74.09 10.9218 74.006 11.2135 73.838C11.7965 73.5009 11.7965 72.9548 11.2135 72.6187C10.9218 72.4507 10.5398 72.3656 10.1576 72.3656ZM68.8571 74.0653C70.9909 72.8331 73.1247 71.6008 75.2584 70.3686C77.361 69.1547 79.4624 67.9419 81.5639 66.728C78.9443 65.2157 76.3237 63.7024 73.7042 62.1901C74.7145 61.0074 75.6333 59.7009 76.4293 58.3222C78.3918 54.9228 79.6068 51.0893 79.6068 47.6296C79.6068 44.171 78.3918 41.74 76.4293 40.6058C75.6063 40.1318 74.6531 39.8841 73.6029 39.8841C73.4801 39.8841 73.3563 39.8873 73.2302 39.8938L69.3731 39.6795C68.1732 39.743 66.8408 40.1609 65.4362 40.972C62.8048 42.4907 60.4223 45.0984 58.6967 48.0853C57.3094 50.4894 56.3465 53.1391 56.0244 55.6671L50.2715 56.2153L47.5179 57.1233L49.6813 58.3728L51.7224 58.2931C50.0249 59.2733 48.3281 60.2523 46.6311 61.2325C50.3222 63.3641 54.0134 65.4947 57.7047 67.6252C61.4218 69.7719 65.14 71.9186 68.8571 74.0653ZM163.807 56.3273V73.2262H201.291V56.3273H163.807ZM144.166 43.6562V44.0105C143.755 44.1398 143.369 44.3046 143.022 44.506C141.056 45.6488 141.067 47.5015 143.046 48.6454C143.387 48.8425 143.765 49.003 144.166 49.1311V49.5006H146.759C148.006 49.4801 149.242 49.1968 150.191 48.6454C152.158 47.5015 152.147 45.6488 150.167 44.506C149.179 43.9351 147.885 43.6519 146.591 43.6519C146.504 43.6519 146.416 43.654 146.328 43.6562H144.166ZM52.9191 30.2806C52.2179 30.2806 51.7181 31.0195 52.0283 31.6883L56.0793 40.4173C56.2484 40.7813 56.6071 40.9914 56.9787 40.9914C57.1468 40.9914 57.3159 40.9494 57.4731 40.8589L68.5415 34.4684C69.3515 34.0009 69.1221 32.7752 68.198 32.6319L53.0774 30.2924C53.0236 30.2849 52.9708 30.2806 52.9191 30.2806ZM77.6744 32.535L78.5092 34.5718H89.9934V32.535H77.6744ZM67.4892 132.654C65.0075 132.213 62.5571 131.725 60.1476 131.188C60.9888 130.762 62.0401 130.549 63.0924 130.549C64.2374 130.549 65.3824 130.801 66.2559 131.305C66.9173 131.688 67.3287 132.159 67.4892 132.654ZM90.5567 127.282C88.0718 127.282 85.5869 126.896 83.396 126.124C83.311 126.077 83.2269 126.03 83.1429 125.981C80.4781 124.443 78.9228 122.507 78.4736 120.505C79.093 121.166 79.8868 121.788 80.8551 122.346C83.5425 123.898 87.0647 124.674 90.5869 124.674C94.109 124.674 97.6312 123.898 100.319 122.346C102.408 121.141 103.686 119.643 104.151 118.08C104.521 119.429 104.29 120.822 103.456 122.114L103.354 122.055C103 122.306 102.619 122.549 102.213 122.784C101.808 123.018 101.386 123.238 100.951 123.441L101.792 123.928C101.349 124.288 100.85 124.632 100.29 124.954C97.6021 126.506 94.0789 127.282 90.5567 127.282ZM110.098 105.367V88.5902L110.099 88.5891H110.101L124.629 96.9787L110.098 105.367ZM124.629 96.9787V80.2027L139.159 88.5891L124.629 96.9787Z" fill="white"/>
  </mask>
  <g mask="url(#mask0_677_12206)">
    <path d="M108.255 135.975C95.8356 135.975 83.3777 135.162 71.5564 133.329C71.648 132.013 70.8229 130.678 69.0823 129.673C67.4278 128.719 65.2607 128.242 63.0924 128.242C60.9242 128.242 58.757 128.719 57.1026 129.673C56.7805 129.86 56.4897 130.057 56.2312 130.263C32.3033 124.28 12.6888 113.147 4.08453 94.7911C4.35144 94.9096 4.67156 94.9688 4.99168 94.9688C5.37373 94.9688 5.75589 94.8848 6.04747 94.7157C6.63051 94.3797 6.63051 93.8336 6.04725 93.4964C5.75579 93.3284 5.37362 93.2444 4.99157 93.2444C4.60941 93.2444 4.22736 93.3284 3.93589 93.4964C3.79727 93.5772 3.69171 93.6688 3.61901 93.7668C2.50333 91.2313 1.5936 88.5622 0.907259 85.753C1.46413 85.4148 1.4554 84.8806 0.881194 84.5488C0.794917 84.4993 0.700777 84.4562 0.600929 84.4217C0.54675 84.1708 0.493757 83.9155 0.443132 83.6624C0.193565 82.4161 0.0590324 81.2119 0.0302734 80.0465C0.34156 80.0217 0.641967 79.9409 0.881194 79.8031C1.46424 79.4659 1.46424 78.9198 0.881194 78.5838C0.650584 78.4502 0.363211 78.3705 0.0640963 78.3425C1.38873 58.0744 35.3848 50.037 47.3131 37.2559C57.9287 25.8827 57.7995 0.82254 77.291 0.82254C78.6126 0.82254 80.0257 0.93779 81.5391 1.18123C110.387 5.81282 86.133 38.7855 180.86 42.9733C205.999 44.0849 218.563 69.5382 210.546 93.2024L210.454 93.1485C210.133 92.9633 209.704 92.8728 209.255 92.8728C208.712 92.8728 208.14 93.0053 207.692 93.2627L203.447 95.7142C202.629 96.186 202.541 96.9001 203.249 97.3083L207.697 99.8762C200.011 114.666 183.567 127.703 156.26 132.12C145.993 133.779 134.938 134.985 123.607 135.572C122.874 135.15 122.142 134.726 121.41 134.304L122.544 132.245L108.729 124.269C108.738 124.273 108.748 124.278 108.758 124.283L108.856 124.34C108.823 124.319 108.791 124.3 108.758 124.283L108.068 123.885C111.541 120.282 110.627 115.647 105.325 112.587C104.294 111.992 103.159 111.492 101.955 111.089C101.473 110.68 100.919 110.291 100.291 109.928C97.6021 108.376 94.0799 107.6 90.5567 107.6C89.2997 107.6 88.0427 107.699 86.8234 107.896L92.5181 104.609H65.5515C65.7831 104.209 65.9026 103.785 65.9026 103.348C65.894 103.229 65.8121 103.108 65.7012 103.042C65.8337 102.733 65.9026 102.411 65.894 102.082C65.894 101.964 65.8121 101.842 65.7012 101.776C65.8337 101.467 65.9026 101.145 65.9026 100.815C65.8983 100.72 65.8423 100.62 65.7615 100.552C65.8843 100.256 65.9457 99.9548 65.9436 99.6532C65.9468 99.2202 66.1547 97.75 66.9754 96.9292C68.9832 94.9699 70.2359 92.2297 70.2359 89.1934C70.2359 83.8422 66.3464 79.4002 61.2409 78.5385V74.4466H31.7699V87.7328H48.7194C48.6548 88.21 48.6214 88.6979 48.6214 89.1934C48.6214 92.2297 49.8741 94.9699 51.8894 96.9335C52.7069 97.7543 52.9115 99.2364 52.9137 99.6597C52.9126 99.9376 52.9654 100.214 53.0699 100.486C53.0785 100.507 53.0871 100.53 53.0957 100.552C53.0171 100.62 52.9632 100.72 52.9632 100.815C52.9632 101.144 53.0311 101.464 53.1636 101.772C53.0494 101.837 52.9632 101.961 52.9632 102.082C52.9632 102.41 53.0311 102.729 53.1625 103.036C53.0494 103.102 52.9632 103.227 52.9632 103.348C52.9632 103.822 53.1043 104.282 53.3758 104.709C53.5384 105.459 54.1179 106.185 55.1153 106.761C56.2808 107.434 57.8016 107.778 59.329 107.792L59.4292 108.879H83.0632C82.2705 109.177 81.5186 109.526 80.8228 109.928C78.9012 111.037 77.6669 112.392 77.1197 113.817C72.529 117.534 73.1225 122.729 78.8991 126.065C82.1186 127.923 86.3376 128.853 90.5567 128.853C91.3861 128.853 92.2165 128.816 93.0384 128.745C93.2689 128.75 93.4983 128.753 93.7288 128.753C95.2755 128.753 96.8234 128.628 98.3205 128.377C102.034 130.521 107.283 133.553 110.781 135.573C111.002 135.701 111.224 135.829 111.446 135.956C110.383 135.968 109.319 135.975 108.255 135.975ZM163.297 122.048V124.439H176.306V122.048H163.297ZM169.3 118.598V120.988H182.306V118.598H169.3ZM45.6524 115.642L49.6457 117.947L45.6524 120.252H51.9432L55.935 117.947L51.9432 115.642H45.6524ZM137.835 108.879L142.558 111.605L137.835 114.331H145.275L149.997 111.605L145.275 108.879H137.835ZM110.098 105.367H137.358L166.418 88.5891L138.257 72.3344L139.159 71.813L124.631 63.4277V63.4234L110.101 55.038L95.5728 63.4234V76.2755L88.7719 80.2005L74.2438 71.813V88.5891L88.7719 96.9787H95.5696L110.098 105.367ZM9.52913 95.2866V95.5699C9.20147 95.6733 8.89202 95.8047 8.61542 95.9652C7.04488 96.8786 7.05393 98.3585 8.63448 99.2719C8.90667 99.4292 9.20912 99.5574 9.52913 99.6597V99.9548H11.6006C12.597 99.9387 13.584 99.7125 14.3422 99.2719C15.913 98.3585 15.905 96.8786 14.3233 95.9652C13.5334 95.5096 12.4998 95.2834 11.4673 95.2834C11.3969 95.2834 11.3266 95.2844 11.2563 95.2866H9.52913ZM158.885 80.2447L173.339 88.5891L158.885 96.9346H181.657L189.694 92.2933L192.977 94.1879L189.633 96.1181H194.901L198.244 94.1879L194.901 92.2577H189.756L196.109 88.5891L181.657 80.2447H158.885ZM10.1577 90.2619C9.77569 90.2619 9.39363 90.3459 9.10206 90.5139C8.51912 90.851 8.51912 91.3971 9.10206 91.7332C9.39363 91.9023 9.77569 91.9863 10.1577 91.9863C10.5399 91.9863 10.922 91.9023 11.2135 91.7332C11.7965 91.3971 11.7965 90.851 11.2135 90.5139C10.922 90.3459 10.5399 90.2619 10.1577 90.2619ZM15.3239 87.2793C14.9419 87.2793 14.5597 87.3633 14.2681 87.5314C13.6851 87.8685 13.6851 88.4146 14.2681 88.7507C14.5597 88.9187 14.9419 89.0038 15.3239 89.0038C15.7061 89.0038 16.0881 88.9187 16.3797 88.7507C16.9627 88.4146 16.9627 87.8685 16.3797 87.5314C16.0881 87.3633 15.7061 87.2793 15.3239 87.2793ZM4.99157 87.2793C4.60941 87.2793 4.22736 87.3633 3.93589 87.5314C3.35285 87.8685 3.35285 88.4135 3.93589 88.7507C4.22736 88.9187 4.60941 89.0038 4.99157 89.0038C5.37362 89.0038 5.75579 88.9187 6.04725 88.7507C6.63051 88.4135 6.63051 87.8685 6.04725 87.5314C5.75579 87.3633 5.37362 87.2793 4.99157 87.2793ZM20.4893 84.2968C20.1075 84.2968 19.7256 84.3808 19.4344 84.5499C18.8513 84.886 18.8513 85.431 19.4344 85.7681C19.7259 85.9362 20.1079 86.0202 20.4901 86.0202C20.8721 86.0202 21.2543 85.9362 21.5457 85.7681C22.1288 85.431 22.1288 84.886 21.5457 84.5499C21.2541 84.3808 20.8716 84.2968 20.4893 84.2968ZM10.1577 84.2968C9.77569 84.2968 9.39363 84.3808 9.10206 84.5499C8.5188 84.886 8.5188 85.431 9.10206 85.7681C9.39363 85.9362 9.77569 86.0202 10.1577 86.0202C10.5399 86.0202 10.922 85.9362 11.2135 85.7681C11.7965 85.431 11.7965 84.886 11.2135 84.5499C10.922 84.3808 10.5399 84.2968 10.1577 84.2968ZM25.6562 81.3132C25.2741 81.3132 24.892 81.3983 24.6003 81.5663C24.0174 81.9024 24.0174 82.4485 24.6003 82.7856C24.892 82.9536 25.2741 83.0376 25.6562 83.0376C26.0383 83.0376 26.4203 82.9536 26.712 82.7856C27.295 82.4485 27.295 81.9024 26.712 81.5663C26.4203 81.3983 26.0383 81.3132 25.6562 81.3132ZM15.3239 81.3132C14.9419 81.3132 14.5597 81.3983 14.2681 81.5663C13.6851 81.9024 13.6851 82.4485 14.2681 82.7856C14.5597 82.9536 14.9419 83.0376 15.3239 83.0376C15.7061 83.0376 16.0881 82.9536 16.3797 82.7856C16.9627 82.4485 16.9627 81.9024 16.3795 81.5663C16.088 81.3983 15.706 81.3132 15.3239 81.3132ZM4.99157 81.3132C4.60941 81.3132 4.22736 81.3983 3.93589 81.5663C3.35285 81.9024 3.35285 82.4485 3.93589 82.7856C4.22736 82.9536 4.60941 83.0376 4.99157 83.0376C5.37362 83.0376 5.75579 82.9536 6.04725 82.7856C6.63051 82.4485 6.63051 81.9024 6.04725 81.5663C5.75579 81.3983 5.37362 81.3132 4.99157 81.3132ZM20.4901 78.3317C20.1079 78.3317 19.7259 78.4157 19.4344 78.5838C18.8511 78.9198 18.8511 79.4659 19.4344 79.8031C19.7259 79.9711 20.1079 80.0551 20.4901 80.0551C20.8721 80.0551 21.2543 79.9711 21.5457 79.8031C22.1288 79.4659 22.1288 78.9198 21.5457 78.5838C21.2543 78.4157 20.8721 78.3317 20.4901 78.3317ZM10.1577 78.3317C9.77558 78.3317 9.39352 78.4157 9.10184 78.5838C8.5188 78.9198 8.5188 79.4659 9.10184 79.8031C9.39352 79.9711 9.77558 80.0551 10.1577 80.0551C10.5399 80.0551 10.922 79.9711 11.2135 79.8031C11.7965 79.4659 11.7965 78.9198 11.2135 78.5838C10.922 78.4157 10.5399 78.3317 10.1577 78.3317ZM15.3238 75.3492C14.9417 75.3492 14.5596 75.4332 14.2681 75.6012C13.6851 75.9373 13.6851 76.4834 14.2681 76.8205C14.5596 76.9886 14.9417 77.0726 15.3238 77.0726C15.706 77.0726 16.088 76.9886 16.3795 76.8205C16.9627 76.4834 16.9627 75.9373 16.3795 75.6012C16.088 75.4332 15.706 75.3492 15.3238 75.3492ZM4.99157 75.3492C4.60941 75.3492 4.22736 75.4332 3.93589 75.6012C3.35285 75.9373 3.35285 76.4834 3.93589 76.8205C4.22736 76.9886 4.60941 77.0726 4.99157 77.0726C5.37362 77.0726 5.75579 76.9886 6.04725 76.8205C6.63051 76.4834 6.63051 75.9373 6.04725 75.6012C5.75579 75.4332 5.37362 75.3492 4.99157 75.3492ZM10.1576 72.3656C9.77558 72.3656 9.39352 72.4507 9.10184 72.6187C8.5188 72.9548 8.5188 73.5009 9.10184 73.838C9.39352 74.006 9.77558 74.09 10.1576 74.09C10.5398 74.09 10.9218 74.006 11.2135 73.838C11.7965 73.5009 11.7965 72.9548 11.2135 72.6187C10.9218 72.4507 10.5398 72.3656 10.1576 72.3656ZM68.8571 74.0653C70.9909 72.8331 73.1247 71.6008 75.2584 70.3686C77.361 69.1547 79.4624 67.9419 81.5639 66.728C78.9443 65.2157 76.3237 63.7024 73.7042 62.1901C74.7145 61.0074 75.6333 59.7009 76.4293 58.3222C78.3918 54.9228 79.6068 51.0893 79.6068 47.6296C79.6068 44.171 78.3918 41.74 76.4293 40.6058C75.6063 40.1318 74.6531 39.8841 73.6029 39.8841C73.4801 39.8841 73.3563 39.8873 73.2302 39.8938L69.3731 39.6795C68.1732 39.743 66.8408 40.1609 65.4362 40.972C62.8048 42.4907 60.4223 45.0984 58.6967 48.0853C57.3094 50.4894 56.3465 53.1391 56.0244 55.6671L50.2715 56.2153L47.5179 57.1233L49.6813 58.3728L51.7224 58.2931C50.0249 59.2733 48.3281 60.2523 46.6311 61.2325C50.3222 63.3641 54.0134 65.4947 57.7047 67.6252C61.4218 69.7719 65.14 71.9186 68.8571 74.0653ZM163.807 56.3273V73.2262H201.291V56.3273H163.807ZM144.166 43.6562V44.0105C143.755 44.1398 143.369 44.3046 143.022 44.506C141.056 45.6488 141.067 47.5015 143.046 48.6454C143.387 48.8425 143.765 49.003 144.166 49.1311V49.5006H146.759C148.006 49.4801 149.242 49.1968 150.191 48.6454C152.158 47.5015 152.147 45.6488 150.167 44.506C149.179 43.9351 147.885 43.6519 146.591 43.6519C146.504 43.6519 146.416 43.654 146.328 43.6562H144.166ZM52.9191 30.2806C52.2179 30.2806 51.7181 31.0195 52.0283 31.6883L56.0793 40.4173C56.2484 40.7813 56.6071 40.9914 56.9787 40.9914C57.1468 40.9914 57.3159 40.9494 57.4731 40.8589L68.5415 34.4684C69.3515 34.0009 69.1221 32.7752 68.198 32.6319L53.0774 30.2924C53.0236 30.2849 52.9708 30.2806 52.9191 30.2806ZM77.6744 32.535L78.5092 34.5718H89.9934V32.535H77.6744ZM67.4892 132.654C65.0075 132.213 62.5571 131.725 60.1476 131.188C60.9888 130.762 62.0401 130.549 63.0924 130.549C64.2374 130.549 65.3824 130.801 66.2559 131.305C66.9173 131.688 67.3287 132.159 67.4892 132.654ZM90.5567 127.282C88.0718 127.282 85.5869 126.896 83.396 126.124C83.311 126.077 83.2269 126.03 83.1429 125.981C80.4781 124.443 78.9228 122.507 78.4736 120.505C79.093 121.166 79.8868 121.788 80.8551 122.346C83.5425 123.898 87.0647 124.674 90.5869 124.674C94.109 124.674 97.6312 123.898 100.319 122.346C102.408 121.141 103.686 119.643 104.151 118.08C104.521 119.429 104.29 120.822 103.456 122.114L103.354 122.055C103 122.306 102.619 122.549 102.213 122.784C101.808 123.018 101.386 123.238 100.951 123.441L101.792 123.928C101.349 124.288 100.85 124.632 100.29 124.954C97.6021 126.506 94.0789 127.282 90.5567 127.282ZM110.098 105.367V88.5902L110.099 88.5891H110.101L124.629 96.9787L110.098 105.367ZM124.629 96.9787V80.2027L139.159 88.5891L124.629 96.9787Z" fill="url(#paint0_linear_677_12206)"/>
  </g>
  <defs>
    <linearGradient id="paint0_linear_677_12206" x1="169.046" y1="128.603" x2="41.8776" y2="28.2372" gradientUnits="userSpaceOnUse">
      <stop stop-color="#EFEFF3"/>
      <stop offset="0.51729" stop-color="white"/>
      <stop offset="1" stop-color="white"/>
    </linearGradient>
  </defs>
</svg>