 <svg
                      xmlns="http://www.w3.org/2000/svg"
                      width="79"
                      height="32"
                      viewBox="0 0 79 32"
                      fill="none"
                    >
                      <path
                        d="M7.84029 30.8474C8.03555 31.0427 8.35214 31.0427 8.5474 30.8474L11.7294 27.6654C11.9246 27.4702 11.9246 27.1536 11.7294 26.9583C11.5341 26.763 11.2175 26.7631 11.0223 26.9583L8.19385 29.7867L5.36542 26.9583C5.17015 26.7631 4.85357 26.7631 4.65831 26.9583C4.46305 27.1536 4.46305 27.4702 4.65831 27.6654L7.84029 30.8474ZM8.85375 26.1201C8.87545 25.8448 8.66987 25.6041 8.39458 25.5824C8.11929 25.5607 7.87854 25.7662 7.85684 26.0415L8.85375 26.1201ZM9.79002 17.3594C9.6771 17.6114 9.78984 17.9073 10.0418 18.0202C10.2938 18.1331 10.5897 18.0204 10.7026 17.7684L9.79002 17.3594ZM16.5739 12.2169C16.836 12.1299 16.9779 11.8469 16.8908 11.5848C16.8038 11.3228 16.5208 11.1809 16.2587 11.2679L16.5739 12.2169ZM25.1661 10.7307C24.8914 10.7021 24.6456 10.9016 24.617 11.1762C24.5884 11.4509 24.7879 11.6967 25.0626 11.7253L25.1661 10.7307ZM33.6778 13.0824C33.9495 13.1315 34.2096 12.951 34.2587 12.6792C34.3078 12.4075 34.1273 12.1474 33.8556 12.0983L33.6778 13.0824ZM42.4909 13.4867C42.2168 13.4527 41.9671 13.6473 41.9331 13.9214C41.8991 14.1954 42.0937 14.4451 42.3678 14.4791L42.4909 13.4867ZM51.1927 14.9751C51.4687 14.9678 51.6866 14.7381 51.6793 14.4621C51.672 14.186 51.4423 13.9681 51.1662 13.9754L51.1927 14.9751ZM59.7111 12.7825C59.4445 12.8546 59.2869 13.1292 59.359 13.3957C59.4311 13.6623 59.7057 13.8199 59.9722 13.7478L59.7111 12.7825ZM68.1245 10.2476C68.3602 10.1037 68.4346 9.79596 68.2907 9.56027C68.1469 9.32458 67.8391 9.25016 67.6035 9.39405L68.1245 10.2476ZM74.312 3.96519C74.1201 4.16374 74.1255 4.48028 74.324 4.67219C74.5226 4.86411 74.8391 4.85873 75.031 4.66017L74.312 3.96519ZM8.69385 30.4938C8.69384 28.9148 8.74816 27.4598 8.85375 26.1201L7.85684 26.0415C7.74893 27.4107 7.69384 28.8921 7.69385 30.4938L8.69385 30.4938ZM10.7026 17.7684C12.0688 14.7195 14.0728 13.0477 16.5739 12.2169L16.2587 11.2679C13.4817 12.1902 11.2666 14.0644 9.79002 17.3594L10.7026 17.7684ZM25.0626 11.7253C27.7236 12.0023 30.6117 12.5284 33.6778 13.0824L33.8556 12.0983C30.8002 11.5463 27.8721 11.0123 25.1661 10.7307L25.0626 11.7253ZM42.3678 14.4791C45.2501 14.8366 48.209 15.0539 51.1927 14.9751L51.1662 13.9754C48.2472 14.0526 45.3407 13.8402 42.4909 13.4867L42.3678 14.4791ZM59.9722 13.7478C62.726 13.0028 65.4568 11.8762 68.1245 10.2476L67.6035 9.39405C65.0214 10.9704 62.3788 12.0607 59.7111 12.7825L59.9722 13.7478ZM75.031 4.66017C76.0204 3.63658 76.9939 2.5202 77.9494 1.30405L77.163 0.686262C76.2278 1.87669 75.2767 2.96717 74.312 3.96519L75.031 4.66017ZM7.48674 31.201C7.87726 31.5915 8.51043 31.5915 8.90095 31.201L15.2649 24.837C15.6554 24.4465 15.6554 23.8133 15.2649 23.4228C14.8744 23.0323 14.2412 23.0323 13.8507 23.4228L8.19384 29.0796L2.53699 23.4228C2.14646 23.0323 1.5133 23.0323 1.12277 23.4228C0.732249 23.8133 0.732249 24.4465 1.12277 24.837L7.48674 31.201ZM9.3522 26.1594C9.3956 25.6088 8.98444 25.1273 8.43387 25.0839C7.88329 25.0405 7.40178 25.4517 7.35839 26.0022L9.3522 26.1594ZM9.33374 17.155C9.10789 17.659 9.33338 18.2506 9.83737 18.4765C10.3414 18.7023 10.933 18.4768 11.1589 17.9728L9.33374 17.155ZM16.7315 12.6914C17.2556 12.5174 17.5394 11.9513 17.3653 11.4272C17.1912 10.9031 16.6252 10.6193 16.1011 10.7934L16.7315 12.6914ZM25.2178 10.2334C24.6685 10.1762 24.1769 10.5751 24.1197 11.1245C24.0625 11.6738 24.4615 12.1654 25.0108 12.2226L25.2178 10.2334ZM33.5889 13.5744C34.1324 13.6726 34.6526 13.3116 34.7507 12.7681C34.8489 12.2246 34.488 11.7045 33.9445 11.6063L33.5889 13.5744ZM42.5524 12.9905C42.0043 12.9225 41.5049 13.3117 41.4369 13.8598C41.369 14.4079 41.7582 14.9073 42.3062 14.9753L42.5524 12.9905ZM51.2059 15.4749C51.758 15.4603 52.1937 15.0009 52.1791 14.4488C52.1645 13.8968 51.7051 13.461 51.153 13.4756L51.2059 15.4749ZM59.5805 12.2998C59.0474 12.4441 58.7321 12.9932 58.8763 13.5263C59.0206 14.0594 59.5697 14.3747 60.1028 14.2304L59.5805 12.2998ZM68.3851 10.6743C68.8564 10.3865 69.0053 9.77112 68.7175 9.29974C68.4297 8.82836 67.8143 8.67952 67.3429 8.9673L68.3851 10.6743ZM73.9525 3.6177C73.5687 4.0148 73.5794 4.64788 73.9765 5.03171C74.3736 5.41553 75.0067 5.40477 75.3906 5.00766L73.9525 3.6177ZM9.19385 30.4938C9.19384 28.9261 9.24778 27.4844 9.3522 26.1594L7.35839 26.0022C7.24932 27.3862 7.19384 28.8808 7.19385 30.4938L9.19385 30.4938ZM11.1589 17.9728C12.47 15.0471 14.3683 13.4764 16.7315 12.6914L16.1011 10.7934C13.1862 11.7615 10.8655 13.7368 9.33374 17.155L11.1589 17.9728ZM25.0108 12.2226C27.6494 12.4972 30.5174 13.0195 33.5889 13.5744L33.9445 11.6063C30.8945 11.0552 27.9463 10.5173 25.2178 10.2334L25.0108 12.2226ZM42.3062 14.9753C45.2047 15.3348 48.1899 15.5546 51.2059 15.4749L51.153 13.4756C48.2664 13.5519 45.386 13.342 42.5524 12.9905L42.3062 14.9753ZM60.1028 14.2304C62.8996 13.4738 65.6745 12.3291 68.3851 10.6743L67.3429 8.9673C64.8036 10.5175 62.2053 11.5897 59.5805 12.2998L60.1028 14.2304ZM75.3906 5.00766C76.3923 3.97128 77.377 2.84196 78.3426 1.61294L76.7699 0.37737C75.8447 1.55493 74.9048 2.63247 73.9525 3.6177L75.3906 5.00766Z"
                        fill="#B5AECB"
                      />
                    </svg>