<svg xmlns="http://www.w3.org/2000/svg" width="76" height="126" viewBox="0 0 76 126" fill="none">
  <g opacity="0.5">
    <rect x="-8.05078" y="130.105" width="25.352" height="23.7675" transform="rotate(-105 -8.05078 130.105)" fill="#450DEF"/>
    <rect x="25.8809" y="125.115" width="7.92251" height="8.58272" transform="rotate(-105 25.8809 125.115)" fill="#450DEF"/>
    <rect x="16.4902" y="80.8799" width="7.92251" height="7.92251" transform="rotate(-105 16.4902 80.8799)" fill="#450DEF"/>
    <rect x="3.1543" y="110.699" width="19.014" height="17.8257" transform="rotate(-105 3.1543 110.699)" fill="#6742D7"/>
    <rect x="0.785156" y="49.8193" width="9.50701" height="8.91283" transform="rotate(-105 0.785156 49.8193)" fill="#6742D7"/>
    <rect x="54.9316" y="92.7246" width="9.50701" height="8.91283" transform="rotate(-105 54.9316 92.7246)" fill="#6742D7"/>
    <rect x="71.6172" y="90.7148" width="7.92251" height="7.42736" transform="rotate(-105 71.6172 90.7148)" fill="#6742D7"/>
    <rect x="50.6699" y="113.552" width="9.50701" height="8.91283" transform="rotate(-105 50.6699 113.552)" fill="#6742D7"/>
    <rect x="25.0195" y="108.122" width="25.352" height="23.7675" transform="rotate(-105 25.0195 108.122)" fill="white" fill-opacity="0.58"/>
    <rect x="-1.52148" y="84.0654" width="12.676" height="11.8838" transform="rotate(-105 -1.52148 84.0654)" fill="white" fill-opacity="0.58"/>
    <rect x="11.5" y="69.9141" width="6.33801" height="5.94188" transform="rotate(-105 11.5 69.9141)" fill="white" fill-opacity="0.58"/>
    <rect x="47.209" y="79.21" width="6.33801" height="5.94188" transform="rotate(-105 47.209 79.21)" fill="white" fill-opacity="0.58"/>
    <rect x="63.0469" y="72.5059" width="12.676" height="11.8838" transform="rotate(-105 63.0469 72.5059)" fill="white" fill-opacity="0.58"/>
    <rect x="63.2012" y="115.936" width="12.676" height="11.8838" transform="rotate(-105 63.2012 115.936)" fill="white" fill-opacity="0.58"/>
  </g>
</svg>