<svg width="75" height="61" viewBox="0 0 75 61" fill="none" xmlns="http://www.w3.org/2000/svg">
<path d="M58.7015 31.1377C58.7015 34.277 58.1815 37.3516 57.1983 40.2555C55.289 45.9114 51.6221 50.9068 46.6229 54.4294C43.7988 56.4223 40.4774 57.4737 37.0227 57.4737C33.565 57.4737 30.2475 56.4223 27.4199 54.4294C22.4245 50.9068 18.7573 45.9114 16.8479 40.2593C15.8648 37.3554 15.3447 34.277 15.3447 31.1377V14.4206L37.0227 3.91737L58.7015 14.4206V31.1377ZM37.0227 0L11.8184 12.2076V31.1377C11.8184 34.8767 12.4713 38.5284 13.7011 41.9523C15.8952 48.0712 19.934 53.4652 25.3887 57.3104C27.131 58.5403 29.021 59.4627 30.9877 60.0776C32.9501 60.6926 34.9885 61 37.0227 61C41.0961 61 45.1691 59.7702 48.6537 57.3104H48.6576C54.1123 53.4652 58.1511 48.075 60.3451 41.9561C61.575 38.5284 62.2279 34.8767 62.2279 31.1377V12.2076L37.0227 0Z" fill="white"/>
<path d="M57.6801 15.0581V31.1394C57.6801 40.0609 53.3262 48.4548 46.0343 53.5958C43.3806 55.465 40.2645 56.4531 37.0217 56.4531C33.7758 56.4531 30.6594 55.465 28.0091 53.5958C20.7172 48.4548 16.3633 40.0578 16.3633 31.136V15.0581L16.3697 15.055H57.674L57.6801 15.0581Z" fill="white"/>
<g clip-path="url(#clip0_594_6501)">
<path d="M30.6093 50.1023L31.5104 50.6461L31.2713 49.6212L32.0673 48.9316L31.019 48.8426L30.6093 47.876L30.1997 48.8426L29.1514 48.9316L29.9474 49.6212L29.7083 50.6461L30.6093 50.1023Z" fill="#323232"/>
</g>
<g clip-path="url(#clip1_594_6501)">
<path d="M33.8164 50.1023L34.7174 50.6461L34.4783 49.6212L35.2744 48.9316L34.2261 48.8426L33.8164 47.876L33.4067 48.8426L32.3584 48.9316L33.1545 49.6212L32.9153 50.6461L33.8164 50.1023Z" fill="#323232"/>
</g>
<g clip-path="url(#clip2_594_6501)">
<path d="M37.0234 50.1023L37.9244 50.6461L37.6853 49.6212L38.4814 48.9316L37.4331 48.8426L37.0234 47.876L36.6137 48.8426L35.5654 48.9316L36.3615 49.6212L36.1224 50.6461L37.0234 50.1023Z" fill="#323232"/>
</g>
<g clip-path="url(#clip3_594_6501)">
<path d="M40.2324 50.1023L41.1334 50.6461L40.8943 49.6212L41.6904 48.9316L40.6421 48.8426L40.2324 47.876L39.8227 48.8426L38.7744 48.9316L39.5705 49.6212L39.3314 50.6461L40.2324 50.1023Z" fill="#323232"/>
</g>
<g clip-path="url(#clip4_594_6501)">
<path d="M43.4414 50.1023L44.3424 50.6461L44.1033 49.6212L44.8994 48.9316L43.8511 48.8426L43.4414 47.876L43.0317 48.8426L41.9834 48.9316L42.7795 49.6212L42.5403 50.6461L43.4414 50.1023Z" fill="#323232"/>
</g>
<path d="M57.6809 31.1389C57.6809 40.0593 53.3278 48.4539 46.0358 53.5947C43.3844 55.4642 40.2676 56.4522 37.0229 56.4522C33.7789 56.4522 30.6621 55.4642 28.0103 53.5947C20.7184 48.4543 16.3652 40.0585 16.3652 31.137V15.0587L37.0229 5.05312L57.6809 15.0587V31.1389ZM15.3438 14.4184V31.137C15.3438 40.3903 19.8594 49.0977 27.4219 54.4298C30.2465 56.4207 33.5667 57.4736 37.0229 57.4736C40.4798 57.4736 43.7997 56.4207 46.6238 54.4298C54.1872 49.0977 58.7024 40.391 58.7024 31.1389V14.4184L37.0229 3.91852L15.3438 14.4184Z" fill="#7D4EF0"/>
<path d="M17.7754 39.8232C17.657 39.4683 17.5454 39.1092 17.4414 38.749C17.5454 39.11 17.657 39.4676 17.7758 39.8232H17.7754Z" fill="#929292"/>
<path d="M57.6735 15.0557H16.3691L37.0215 5.05537L57.6735 15.0557Z" fill="white"/>
<path d="M23.927 43.3947C23.927 43.5574 23.8977 43.7001 23.839 43.8227C23.7803 43.9454 23.699 44.0481 23.595 44.1307C23.4937 44.2134 23.3737 44.2761 23.235 44.3187C23.099 44.3587 22.9523 44.3787 22.795 44.3787H22.327V45.2188H21.711V42.4187H22.855C23.023 42.4187 23.1723 42.4427 23.303 42.4907C23.4363 42.5361 23.5483 42.6014 23.639 42.6867C23.7323 42.7721 23.803 42.8747 23.851 42.9947C23.9017 43.1121 23.927 43.2427 23.927 43.3867V43.3947ZM23.303 43.4067V43.3987C23.303 43.2601 23.2577 43.1547 23.167 43.0827C23.079 43.0107 22.9577 42.9747 22.803 42.9747H22.327V43.8307H22.815C22.9697 43.8307 23.0897 43.7907 23.175 43.7107C23.2603 43.6281 23.303 43.5267 23.303 43.4067ZM26.6924 45.2188H25.9724L25.3724 44.3227H24.8884V45.2188H24.2724V42.4187H25.5524C25.8857 42.4187 26.1444 42.5001 26.3284 42.6627C26.515 42.8254 26.6084 43.0521 26.6084 43.3427V43.3507C26.6084 43.5774 26.5524 43.7627 26.4404 43.9067C26.331 44.0481 26.187 44.1521 26.0084 44.2188L26.6924 45.2188ZM25.9844 43.3827V43.3747C25.9844 43.2414 25.9417 43.1414 25.8564 43.0747C25.771 43.0081 25.6524 42.9747 25.5004 42.9747H24.8884V43.7787H25.5124C25.6644 43.7787 25.7804 43.7427 25.8604 43.6707C25.943 43.5987 25.9844 43.5027 25.9844 43.3827ZM29.9045 43.8187C29.9045 44.0187 29.8671 44.2067 29.7925 44.3827C29.7178 44.5561 29.6138 44.7094 29.4805 44.8427C29.3498 44.9734 29.1925 45.0774 29.0085 45.1547C28.8271 45.2294 28.6285 45.2668 28.4125 45.2668C28.1965 45.2668 27.9978 45.2294 27.8165 45.1547C27.6351 45.0774 27.4778 44.9747 27.3445 44.8467C27.2138 44.7161 27.1111 44.5641 27.0365 44.3907C26.9645 44.2147 26.9285 44.0267 26.9285 43.8267V43.8187C26.9285 43.6187 26.9658 43.4321 27.0405 43.2587C27.1151 43.0827 27.2178 42.9294 27.3485 42.7987C27.4818 42.6654 27.6391 42.5614 27.8205 42.4867C28.0045 42.4094 28.2045 42.3707 28.4205 42.3707C28.6365 42.3707 28.8351 42.4094 29.0165 42.4867C29.1978 42.5614 29.3538 42.6641 29.4845 42.7947C29.6178 42.9227 29.7205 43.0747 29.7925 43.2507C29.8671 43.4241 29.9045 43.6107 29.9045 43.8107V43.8187ZM29.2605 43.8267V43.8187C29.2605 43.6987 29.2391 43.5854 29.1965 43.4787C29.1565 43.3721 29.0978 43.2787 29.0205 43.1988C28.9458 43.1187 28.8565 43.0561 28.7525 43.0107C28.6485 42.9627 28.5351 42.9387 28.4125 42.9387C28.2871 42.9387 28.1725 42.9614 28.0685 43.0067C27.9671 43.0521 27.8791 43.1147 27.8045 43.1947C27.7325 43.2747 27.6751 43.3681 27.6325 43.4747C27.5925 43.5787 27.5725 43.6907 27.5725 43.8107V43.8187C27.5725 43.9387 27.5925 44.0521 27.6325 44.1587C27.6751 44.2654 27.7338 44.3587 27.8085 44.4387C27.8858 44.5187 27.9751 44.5827 28.0765 44.6308C28.1805 44.6761 28.2951 44.6987 28.4205 44.6987C28.5431 44.6987 28.6565 44.6761 28.7605 44.6308C28.8645 44.5854 28.9525 44.5227 29.0245 44.4427C29.0991 44.3627 29.1565 44.2707 29.1965 44.1667C29.2391 44.0601 29.2605 43.9467 29.2605 43.8267ZM32.4724 42.9787H30.9564V43.5747H32.2924V44.1347H30.9564V45.2188H30.3404V42.4187H32.4724V42.9787ZM34.9869 45.2188H32.8549V42.4187H34.9669V42.9667H33.4669V43.5347H34.7869V44.0827H33.4669V44.6707H34.9869V45.2188ZM37.4481 44.3907C37.4481 44.5294 37.4227 44.6534 37.3721 44.7627C37.3214 44.8694 37.2507 44.9601 37.1601 45.0347C37.0694 45.1067 36.9614 45.1627 36.8361 45.2027C36.7107 45.2401 36.5721 45.2588 36.4201 45.2588C36.2067 45.2588 35.9974 45.2228 35.7921 45.1507C35.5867 45.0761 35.4001 44.9627 35.2321 44.8107L35.5961 44.3747C35.7241 44.4787 35.8547 44.5614 35.9881 44.6227C36.1241 44.6841 36.2721 44.7147 36.4321 44.7147C36.5601 44.7147 36.6587 44.6921 36.7281 44.6467C36.8001 44.5987 36.8361 44.5334 36.8361 44.4507V44.4427C36.8361 44.4027 36.8281 44.3681 36.8121 44.3387C36.7987 44.3067 36.7707 44.2774 36.7281 44.2507C36.6881 44.2241 36.6307 44.1974 36.5561 44.1707C36.4841 44.1441 36.3894 44.1161 36.2721 44.0867C36.1307 44.0521 36.0027 44.0134 35.8881 43.9707C35.7734 43.9281 35.6761 43.8761 35.5961 43.8147C35.5161 43.7507 35.4534 43.6721 35.4081 43.5787C35.3654 43.4854 35.3441 43.3694 35.3441 43.2307V43.2227C35.3441 43.0947 35.3681 42.9801 35.4161 42.8787C35.4641 42.7747 35.5307 42.6854 35.6161 42.6107C35.7041 42.5361 35.8081 42.4787 35.9281 42.4387C36.0481 42.3987 36.1801 42.3787 36.3241 42.3787C36.5294 42.3787 36.7174 42.4094 36.8881 42.4707C37.0614 42.5321 37.2201 42.6201 37.3641 42.7347L37.0441 43.1988C36.9187 43.1134 36.7961 43.0467 36.6761 42.9987C36.5561 42.9481 36.4361 42.9227 36.3161 42.9227C36.1961 42.9227 36.1054 42.9467 36.0441 42.9947C35.9854 43.0401 35.9561 43.0974 35.9561 43.1667V43.1747C35.9561 43.2201 35.9641 43.2601 35.9801 43.2947C35.9987 43.3267 36.0307 43.3561 36.0761 43.3827C36.1214 43.4094 36.1827 43.4347 36.2601 43.4587C36.3401 43.4827 36.4401 43.5107 36.5601 43.5427C36.7014 43.5801 36.8267 43.6227 36.9361 43.6707C37.0481 43.7161 37.1414 43.7721 37.2161 43.8387C37.2934 43.9027 37.3507 43.9787 37.3881 44.0667C37.4281 44.1547 37.4481 44.2601 37.4481 44.3827V44.3907ZM39.8962 44.3907C39.8962 44.5294 39.8708 44.6534 39.8202 44.7627C39.7695 44.8694 39.6988 44.9601 39.6082 45.0347C39.5175 45.1067 39.4095 45.1627 39.2842 45.2027C39.1588 45.2401 39.0202 45.2588 38.8682 45.2588C38.6548 45.2588 38.4455 45.2228 38.2402 45.1507C38.0348 45.0761 37.8482 44.9627 37.6802 44.8107L38.0442 44.3747C38.1722 44.4787 38.3028 44.5614 38.4362 44.6227C38.5722 44.6841 38.7202 44.7147 38.8802 44.7147C39.0082 44.7147 39.1068 44.6921 39.1762 44.6467C39.2482 44.5987 39.2842 44.5334 39.2842 44.4507V44.4427C39.2842 44.4027 39.2762 44.3681 39.2602 44.3387C39.2468 44.3067 39.2188 44.2774 39.1762 44.2507C39.1362 44.2241 39.0788 44.1974 39.0042 44.1707C38.9322 44.1441 38.8375 44.1161 38.7202 44.0867C38.5788 44.0521 38.4508 44.0134 38.3362 43.9707C38.2215 43.9281 38.1242 43.8761 38.0442 43.8147C37.9642 43.7507 37.9015 43.6721 37.8562 43.5787C37.8135 43.4854 37.7922 43.3694 37.7922 43.2307V43.2227C37.7922 43.0947 37.8162 42.9801 37.8642 42.8787C37.9122 42.7747 37.9788 42.6854 38.0642 42.6107C38.1522 42.5361 38.2562 42.4787 38.3762 42.4387C38.4962 42.3987 38.6282 42.3787 38.7722 42.3787C38.9775 42.3787 39.1655 42.4094 39.3362 42.4707C39.5095 42.5321 39.6682 42.6201 39.8122 42.7347L39.4922 43.1988C39.3668 43.1134 39.2442 43.0467 39.1242 42.9987C39.0042 42.9481 38.8842 42.9227 38.7642 42.9227C38.6442 42.9227 38.5535 42.9467 38.4922 42.9947C38.4335 43.0401 38.4042 43.0974 38.4042 43.1667V43.1747C38.4042 43.2201 38.4122 43.2601 38.4282 43.2947C38.4468 43.3267 38.4788 43.3561 38.5242 43.3827C38.5695 43.4094 38.6308 43.4347 38.7082 43.4587C38.7882 43.4827 38.8882 43.5107 39.0082 43.5427C39.1495 43.5801 39.2748 43.6227 39.3842 43.6707C39.4962 43.7161 39.5895 43.7721 39.6642 43.8387C39.7415 43.9027 39.7988 43.9787 39.8362 44.0667C39.8762 44.1547 39.8962 44.2601 39.8962 44.3827V44.3907ZM40.9643 45.2188H40.3483V42.4187H40.9643V45.2188ZM44.4055 43.8187C44.4055 44.0187 44.3682 44.2067 44.2935 44.3827C44.2188 44.5561 44.1148 44.7094 43.9815 44.8427C43.8508 44.9734 43.6935 45.0774 43.5095 45.1547C43.3282 45.2294 43.1295 45.2668 42.9135 45.2668C42.6975 45.2668 42.4988 45.2294 42.3175 45.1547C42.1362 45.0774 41.9788 44.9747 41.8455 44.8467C41.7148 44.7161 41.6122 44.5641 41.5375 44.3907C41.4655 44.2147 41.4295 44.0267 41.4295 43.8267V43.8187C41.4295 43.6187 41.4668 43.4321 41.5415 43.2587C41.6162 43.0827 41.7188 42.9294 41.8495 42.7987C41.9828 42.6654 42.1402 42.5614 42.3215 42.4867C42.5055 42.4094 42.7055 42.3707 42.9215 42.3707C43.1375 42.3707 43.3362 42.4094 43.5175 42.4867C43.6988 42.5614 43.8548 42.6641 43.9855 42.7947C44.1188 42.9227 44.2215 43.0747 44.2935 43.2507C44.3682 43.4241 44.4055 43.6107 44.4055 43.8107V43.8187ZM43.7615 43.8267V43.8187C43.7615 43.6987 43.7402 43.5854 43.6975 43.4787C43.6575 43.3721 43.5988 43.2787 43.5215 43.1988C43.4468 43.1187 43.3575 43.0561 43.2535 43.0107C43.1495 42.9627 43.0362 42.9387 42.9135 42.9387C42.7882 42.9387 42.6735 42.9614 42.5695 43.0067C42.4682 43.0521 42.3802 43.1147 42.3055 43.1947C42.2335 43.2747 42.1762 43.3681 42.1335 43.4747C42.0935 43.5787 42.0735 43.6907 42.0735 43.8107V43.8187C42.0735 43.9387 42.0935 44.0521 42.1335 44.1587C42.1762 44.2654 42.2348 44.3587 42.3095 44.4387C42.3868 44.5187 42.4762 44.5827 42.5775 44.6308C42.6815 44.6761 42.7962 44.6987 42.9215 44.6987C43.0442 44.6987 43.1575 44.6761 43.2615 44.6308C43.3655 44.5854 43.4535 44.5227 43.5255 44.4427C43.6002 44.3627 43.6575 44.2707 43.6975 44.1667C43.7402 44.0601 43.7615 43.9467 43.7615 43.8267ZM47.3294 45.2188H46.8054L45.4494 43.4387V45.2188H44.8414V42.4187H45.4094L46.7214 44.1427V42.4187H47.3294V45.2188ZM50.6191 45.2188H49.9751L49.7191 44.5907H48.5351L48.2791 45.2188H47.6511L48.8511 42.3987H49.4191L50.6191 45.2188ZM49.4991 44.0467L49.1271 43.1387L48.7551 44.0467H49.4991ZM52.9527 45.2188H50.9407V42.4187H51.5567V44.6587H52.9527V45.2188Z" fill="#141317"/>
<path d="M29.1455 21.4149C29.0645 21.5019 28.979 21.5799 28.889 21.6489C28.802 21.7149 28.7075 21.7734 28.6055 21.8244C28.5035 21.8724 28.391 21.9084 28.268 21.9324C28.148 21.9594 28.0145 21.9729 27.8675 21.9729C27.6365 21.9729 27.4235 21.9309 27.2285 21.8469C27.0335 21.7629 26.864 21.6489 26.72 21.5049C26.579 21.3579 26.468 21.1854 26.387 20.9874C26.306 20.7894 26.2655 20.5764 26.2655 20.3484C26.2655 20.1234 26.3045 19.9119 26.3825 19.7139C26.4635 19.5159 26.576 19.3434 26.72 19.1964C26.864 19.0464 27.035 18.9294 27.233 18.8454C27.431 18.7584 27.65 18.7149 27.89 18.7149C28.034 18.7149 28.1645 18.7269 28.2815 18.7509C28.4015 18.7749 28.511 18.8094 28.61 18.8544C28.709 18.8964 28.8005 18.9474 28.8845 19.0074C28.9685 19.0674 29.048 19.1334 29.123 19.2054L28.7675 19.6149C28.6415 19.4979 28.508 19.4034 28.367 19.3314C28.226 19.2594 28.0655 19.2234 27.8855 19.2234C27.7355 19.2234 27.596 19.2534 27.467 19.3134C27.341 19.3704 27.2315 19.4499 27.1385 19.5519C27.0455 19.6509 26.9735 19.7679 26.9225 19.9029C26.8715 20.0379 26.846 20.1834 26.846 20.3394C26.846 20.4954 26.8715 20.6424 26.9225 20.7804C26.9735 20.9154 27.0455 21.0339 27.1385 21.1359C27.2315 21.2379 27.341 21.3189 27.467 21.3789C27.596 21.4359 27.7355 21.4644 27.8855 21.4644C28.0775 21.4644 28.2425 21.4284 28.3805 21.3564C28.5185 21.2814 28.655 21.1809 28.79 21.0549L29.1455 21.4149ZM31.9425 18.7689V19.2639H30.1605V20.0829H31.74V20.5779H30.1605V21.4239H31.965V21.9189H29.607V18.7689H31.9425ZM35.1744 21.9189H34.5219L33.7479 20.8209H33.0549V21.9189H32.5014V18.7689H33.9054C34.0854 18.7689 34.2474 18.7929 34.3914 18.8409C34.5384 18.8859 34.6614 18.9519 34.7604 19.0389C34.8624 19.1229 34.9404 19.2279 34.9944 19.3539C35.0484 19.4769 35.0754 19.6149 35.0754 19.7679C35.0754 19.8999 35.0559 20.0184 35.0169 20.1234C34.9809 20.2254 34.9299 20.3169 34.8639 20.3979C34.7979 20.4759 34.7184 20.5434 34.6254 20.6004C34.5354 20.6544 34.4349 20.6964 34.3239 20.7264L35.1744 21.9189ZM34.5129 19.7994C34.5129 19.6254 34.4559 19.4949 34.3419 19.4079C34.2279 19.3179 34.0674 19.2729 33.8604 19.2729H33.0549V20.3304H33.8649C34.0629 20.3304 34.2204 20.2824 34.3374 20.1864C34.4544 20.0904 34.5129 19.9614 34.5129 19.7994ZM36.9519 19.2819V21.9189H36.3939V19.2819H35.3949V18.7689H37.9509V19.2819H36.9519ZM38.4491 18.7689H39.0026V21.9189H38.4491V18.7689ZM42.0701 18.7689V19.2729H40.2791V20.1324H41.8676V20.6364H40.2791V21.9189H39.7256V18.7689H42.0701ZM42.5899 18.7689H43.1434V21.9189H42.5899V18.7689ZM46.2019 18.7689V19.2639H44.4199V20.0829H45.9994V20.5779H44.4199V21.4239H46.2244V21.9189H43.8664V18.7689H46.2019ZM49.6093 20.3394C49.6093 20.5614 49.5688 20.7699 49.4878 20.9649C49.4068 21.1569 49.2913 21.3234 49.1413 21.4644C48.9943 21.6054 48.8173 21.7164 48.6103 21.7974C48.4063 21.8784 48.1813 21.9189 47.9353 21.9189H46.7608V18.7689H47.9353C48.1813 18.7689 48.4063 18.8094 48.6103 18.8904C48.8173 18.9684 48.9943 19.0779 49.1413 19.2189C49.2913 19.3599 49.4068 19.5264 49.4878 19.7184C49.5688 19.9104 49.6093 20.1174 49.6093 20.3394ZM49.0288 20.3484C49.0288 20.1924 49.0018 20.0499 48.9478 19.9209C48.8968 19.7889 48.8233 19.6749 48.7273 19.5789C48.6343 19.4829 48.5203 19.4079 48.3853 19.3539C48.2503 19.2999 48.1003 19.2729 47.9353 19.2729H47.3143V21.4149H47.9353C48.1003 21.4149 48.2503 21.3894 48.3853 21.3384C48.5203 21.2844 48.6343 21.2109 48.7273 21.1179C48.8233 21.0219 48.8968 20.9094 48.9478 20.7804C49.0018 20.6484 49.0288 20.5044 49.0288 20.3484Z" fill="black"/>
<path d="M12.8632 23.2758L12.6674 23.2129V21.8315C12.0055 22.3729 10.0389 22.2393 9.87779 22.2076C9.71665 22.1756 9.60295 22.1534 9.60295 22.1534V31.832C8.36422 31.4954 3.29222 29.8007 0 23.9441L2.57799 20.9719C8.04316e-06 15.2192 0 11.0004 0 11.0004C3.77303 17.7121 9.88419 18.9583 9.88419 18.9583C9.88419 18.9583 12.4196 19.3898 12.8285 21.1157C12.8598 21.2479 12.8669 21.3609 12.8568 21.4599L12.8632 21.4512V23.2758Z" fill="#FFD03F"/>
<path d="M61.3242 23.2758L61.5196 23.2129V21.8315C62.1816 22.3729 64.1484 22.2393 64.3092 22.2076C64.4704 22.1756 64.5845 22.1534 64.5845 22.1534V31.832C65.8232 31.4954 70.8948 29.8007 74.1874 23.9441L71.609 20.9719C74.1874 15.2192 74.1874 11.0004 74.1874 11.0004C70.414 17.7121 64.3032 18.9583 64.3032 18.9583C64.3032 18.9583 61.7674 19.3898 61.3589 21.1157C61.3276 21.2479 61.3205 21.3609 61.3299 21.4599L61.3242 21.4512V23.2758Z" fill="#FFD03F"/>
<path d="M64.329 22.4007V35.2733C64.329 35.2733 59.8154 37.2409 50.162 38.3151C46.5256 38.7206 42.1615 39 37.0296 39C31.9019 39 27.5378 38.7206 23.9014 38.3151C14.2484 37.2409 9.73438 35.2733 9.73438 35.2733V22.4007C9.73438 22.4007 12.1233 23.4395 17.1407 24.4196C21.6193 25.2972 28.1914 26.1274 37.0296 26.1274C45.8686 26.1274 52.4406 25.2972 56.9192 24.4196C61.9404 23.4395 64.329 22.4007 64.329 22.4007Z" fill="#FFD03F"/>
<path d="M10.8105 28.9422L11.4164 28.7613H11.7328V30.8862H11.2747V29.2315L10.907 29.3219L10.8105 28.9422Z" fill="black"/>
<path d="M14.8343 28.7764L14.0236 30.0453V30.8862H13.5594V30.0544L12.7486 28.7764H13.2911L13.7945 29.6234L14.3069 28.7764H14.8343Z" fill="black"/>
<path d="M16.6292 30.8862H15.0227V28.7764H16.6141V29.1893H15.4838V29.6173H16.4785V30.0302H15.4838V30.4733H16.6292V30.8862Z" fill="black"/>
<path d="M18.997 30.8862H18.5117L18.3188 30.413H17.4267L17.2338 30.8862H16.7605L17.6648 28.7613H18.0928L18.997 30.8862ZM18.153 30.0031L17.8727 29.3189L17.5924 30.0031H18.153Z" fill="black"/>
<path d="M21.0456 30.8862H20.5031L20.051 30.2111H19.6863V30.8862H19.2221V28.7764H20.1866C20.4378 28.7764 20.6327 28.8377 20.7714 28.9603C20.912 29.0828 20.9823 29.2536 20.9823 29.4726V29.4787C20.9823 29.6495 20.9401 29.7891 20.8558 29.8976C20.7734 30.0041 20.6649 30.0825 20.5302 30.1327L21.0456 30.8862ZM20.5122 29.5028V29.4968C20.5122 29.3963 20.48 29.3209 20.4157 29.2707C20.3514 29.2205 20.262 29.1954 20.1475 29.1954H19.6863V29.8012H20.1565C20.271 29.8012 20.3584 29.7741 20.4187 29.7198C20.481 29.6655 20.5122 29.5932 20.5122 29.5028Z" fill="black"/>
<path d="M23.6281 30.2623C23.6281 30.3668 23.609 30.4603 23.5708 30.5426C23.5326 30.623 23.4794 30.6913 23.411 30.7476C23.3427 30.8018 23.2614 30.844 23.1669 30.8742C23.0725 30.9023 22.968 30.9164 22.8534 30.9164C22.6927 30.9164 22.535 30.8893 22.3802 30.835C22.2255 30.7787 22.0849 30.6933 21.9583 30.5788L22.2326 30.2503C22.329 30.3286 22.4275 30.3909 22.5279 30.4371C22.6304 30.4834 22.7419 30.5065 22.8625 30.5065C22.9589 30.5065 23.0333 30.4894 23.0855 30.4552C23.1398 30.4191 23.1669 30.3698 23.1669 30.3075V30.3015C23.1669 30.2714 23.1609 30.2452 23.1488 30.2231C23.1388 30.199 23.1177 30.1769 23.0855 30.1568C23.0554 30.1367 23.0122 30.1167 22.9559 30.0966C22.9017 30.0765 22.8303 30.0554 22.7419 30.0333C22.6354 30.0071 22.539 29.978 22.4526 29.9459C22.3662 29.9137 22.2928 29.8745 22.2326 29.8283C22.1723 29.7801 22.1251 29.7208 22.0909 29.6505C22.0587 29.5801 22.0427 29.4927 22.0427 29.3883V29.3822C22.0427 29.2858 22.0608 29.1994 22.0969 29.123C22.1331 29.0447 22.1833 28.9773 22.2476 28.9211C22.3139 28.8648 22.3923 28.8216 22.4827 28.7915C22.5731 28.7613 22.6726 28.7463 22.7811 28.7463C22.9358 28.7463 23.0775 28.7694 23.2061 28.8156C23.3367 28.8618 23.4563 28.9281 23.5648 29.0145L23.3236 29.3641C23.2292 29.2998 23.1368 29.2496 23.0463 29.2134C22.9559 29.1753 22.8655 29.1562 22.7751 29.1562C22.6847 29.1562 22.6163 29.1743 22.5701 29.2104C22.5259 29.2446 22.5038 29.2878 22.5038 29.34V29.3461C22.5038 29.3802 22.5098 29.4104 22.5219 29.4365C22.536 29.4606 22.5601 29.4827 22.5942 29.5028C22.6284 29.5229 22.6746 29.542 22.7329 29.5601C22.7932 29.5781 22.8685 29.5992 22.9589 29.6234C23.0654 29.6515 23.1599 29.6836 23.2423 29.7198C23.3267 29.754 23.397 29.7962 23.4532 29.8464C23.5115 29.8946 23.5547 29.9519 23.5829 30.0182C23.613 30.0845 23.6281 30.1639 23.6281 30.2563V30.2623Z" fill="black"/>
<path d="M26.0794 29.8313C26.0794 29.982 26.0513 30.1237 25.995 30.2563C25.9388 30.3869 25.8604 30.5024 25.7599 30.6029C25.6615 30.7014 25.5429 30.7797 25.4043 30.838C25.2676 30.8943 25.118 30.9224 24.9552 30.9224C24.7924 30.9224 24.6427 30.8943 24.5061 30.838C24.3695 30.7797 24.2509 30.7024 24.1504 30.6059C24.052 30.5075 23.9746 30.3929 23.9184 30.2623C23.8641 30.1297 23.837 29.9881 23.837 29.8373V29.8313C23.837 29.6806 23.8651 29.54 23.9214 29.4094C23.9776 29.2767 24.055 29.1612 24.1535 29.0627C24.2539 28.9623 24.3725 28.8839 24.5091 28.8276C24.6478 28.7694 24.7985 28.7402 24.9612 28.7402C25.124 28.7402 25.2737 28.7694 25.4103 28.8276C25.547 28.8839 25.6645 28.9613 25.763 29.0597C25.8634 29.1562 25.9408 29.2707 25.995 29.4033C26.0513 29.5339 26.0794 29.6746 26.0794 29.8253V29.8313ZM25.5942 29.8373V29.8313C25.5942 29.7409 25.5781 29.6555 25.5459 29.5751C25.5158 29.4948 25.4716 29.4244 25.4133 29.3641C25.3571 29.3039 25.2898 29.2566 25.2114 29.2225C25.133 29.1863 25.0476 29.1682 24.9552 29.1682C24.8608 29.1682 24.7744 29.1853 24.696 29.2195C24.6196 29.2536 24.5533 29.3008 24.4971 29.3611C24.4428 29.4214 24.3996 29.4917 24.3675 29.5721C24.3373 29.6505 24.3222 29.7349 24.3222 29.8253V29.8313C24.3222 29.9217 24.3373 30.0071 24.3675 30.0875C24.3996 30.1679 24.4438 30.2382 24.5001 30.2985C24.5583 30.3588 24.6257 30.407 24.702 30.4432C24.7804 30.4773 24.8668 30.4944 24.9612 30.4944C25.0537 30.4944 25.139 30.4773 25.2174 30.4432C25.2958 30.409 25.3621 30.3618 25.4163 30.3015C25.4726 30.2412 25.5158 30.1719 25.5459 30.0935C25.5781 30.0132 25.5942 29.9278 25.5942 29.8373Z" fill="black"/>
<path d="M27.9972 29.1984H26.8549V29.6475H27.8616V30.0694H26.8549V30.8862H26.3907V28.7764H27.9972V29.1984Z" fill="black"/>
<path d="M29.8657 29.2044H29.2237V30.8862H28.7595V29.2044H28.1175V28.7764H29.8657V29.2044Z" fill="black"/>
<path d="M33.1603 28.7764L32.44 30.9013H32.0361L31.5599 29.5209L31.0837 30.9013H30.6798L29.9594 28.7764H30.4567L30.8938 30.2051L31.367 28.7704H31.7648L32.238 30.2051L32.6751 28.7764H33.1603Z" fill="black"/>
<path d="M35.4593 30.8862H34.974L34.7811 30.413H33.8889L33.696 30.8862H33.2228L34.127 28.7613H34.555L35.4593 30.8862ZM34.6153 30.0031L34.335 29.3189L34.0547 30.0031H34.6153Z" fill="black"/>
<path d="M37.5079 30.8862H36.9654L36.5133 30.2111H36.1486V30.8862H35.6844V28.7764H36.6489C36.9001 28.7764 37.095 28.8377 37.2336 28.9603C37.3743 29.0828 37.4446 29.2536 37.4446 29.4726V29.4787C37.4446 29.6495 37.4024 29.7891 37.318 29.8976C37.2357 30.0041 37.1272 30.0825 36.9925 30.1327L37.5079 30.8862ZM36.9744 29.5028V29.4968C36.9744 29.3963 36.9423 29.3209 36.878 29.2707C36.8137 29.2205 36.7243 29.1954 36.6097 29.1954H36.1486V29.8012H36.6188C36.7333 29.8012 36.8207 29.7741 36.881 29.7198C36.9433 29.6655 36.9744 29.5932 36.9744 29.5028Z" fill="black"/>
<path d="M39.3686 30.8862H37.7621V28.7764H39.3535V29.1893H38.2232V29.6173H39.2179V30.0302H38.2232V30.4733H39.3686V30.8862Z" fill="black"/>
<path d="M42.428 29.8313C42.428 29.98 42.4009 30.1187 42.3466 30.2473C42.2924 30.3759 42.215 30.4874 42.1145 30.5818C42.0161 30.6763 41.8975 30.7506 41.7589 30.8049C41.6223 30.8591 41.4716 30.8862 41.3068 30.8862H40.4839V28.7764H41.3068C41.4716 28.7764 41.6223 28.8035 41.7589 28.8578C41.8975 28.91 42.0161 28.9834 42.1145 29.0778C42.215 29.1722 42.2924 29.2838 42.3466 29.4124C42.4009 29.539 42.428 29.6766 42.428 29.8253V29.8313ZM41.9427 29.8373V29.8313C41.9427 29.7389 41.9267 29.6535 41.8945 29.5751C41.8644 29.4968 41.8212 29.4294 41.7649 29.3732C41.7107 29.3169 41.6444 29.2737 41.566 29.2436C41.4876 29.2114 41.4012 29.1954 41.3068 29.1954H40.9481V30.4673H41.3068C41.4012 30.4673 41.4876 30.4522 41.566 30.4221C41.6444 30.3919 41.7107 30.3487 41.7649 30.2925C41.8212 30.2362 41.8644 30.1699 41.8945 30.0935C41.9267 30.0172 41.9427 29.9318 41.9427 29.8373Z" fill="black"/>
<path d="M44.3476 30.8862H42.7412V28.7764H44.3326V29.1893H43.2023V29.6173H44.1969V30.0302H43.2023V30.4733H44.3476V30.8862Z" fill="black"/>
<path d="M46.5949 28.7764L45.7419 30.9013H45.332L44.479 28.7764H44.9914L45.543 30.2623L46.0945 28.7764H46.5949Z" fill="black"/>
<path d="M48.4264 30.8862H46.8199V28.7764H48.4113V29.1893H47.2811V29.6173H48.2757V30.0302H47.2811V30.4733H48.4264V30.8862Z" fill="black"/>
<path d="M50.2547 30.8862H48.7386V28.7764H49.2028V30.4643H50.2547V30.8862Z" fill="black"/>
<path d="M52.6533 29.8313C52.6533 29.982 52.6252 30.1237 52.5689 30.2563C52.5126 30.3869 52.4343 30.5024 52.3338 30.6029C52.2354 30.7014 52.1168 30.7797 51.9782 30.838C51.8415 30.8943 51.6918 30.9224 51.5291 30.9224C51.3663 30.9224 51.2166 30.8943 51.08 30.838C50.9433 30.7797 50.8248 30.7024 50.7243 30.6059C50.6259 30.5075 50.5485 30.3929 50.4922 30.2623C50.438 30.1297 50.4109 29.9881 50.4109 29.8373V29.8313C50.4109 29.6806 50.439 29.54 50.4952 29.4094C50.5515 29.2767 50.6289 29.1612 50.7273 29.0627C50.8278 28.9623 50.9464 28.8839 51.083 28.8276C51.2216 28.7694 51.3723 28.7402 51.5351 28.7402C51.6979 28.7402 51.8475 28.7694 51.9842 28.8276C52.1208 28.8839 52.2384 28.9613 52.3368 29.0597C52.4373 29.1562 52.5147 29.2707 52.5689 29.4033C52.6252 29.5339 52.6533 29.6746 52.6533 29.8253V29.8313ZM52.168 29.8373V29.8313C52.168 29.7409 52.152 29.6555 52.1198 29.5751C52.0897 29.4948 52.0455 29.4244 51.9872 29.3641C51.9309 29.3039 51.8636 29.2566 51.7853 29.2225C51.7069 29.1863 51.6215 29.1682 51.5291 29.1682C51.4346 29.1682 51.3482 29.1853 51.2699 29.2195C51.1935 29.2536 51.1272 29.3008 51.0709 29.3611C51.0167 29.4214 50.9735 29.4917 50.9413 29.5721C50.9112 29.6505 50.8961 29.7349 50.8961 29.8253V29.8313C50.8961 29.9217 50.9112 30.0071 50.9413 30.0875C50.9735 30.1679 51.0177 30.2382 51.0739 30.2985C51.1322 30.3588 51.1995 30.407 51.2759 30.4432C51.3543 30.4773 51.4407 30.4944 51.5351 30.4944C51.6275 30.4944 51.7129 30.4773 51.7913 30.4432C51.8697 30.409 51.936 30.3618 51.9902 30.3015C52.0465 30.2412 52.0897 30.1719 52.1198 30.0935C52.152 30.0132 52.168 29.9278 52.168 29.8373Z" fill="black"/>
<path d="M54.6344 29.5118C54.6344 29.6344 54.6123 29.7419 54.5681 29.8343C54.5239 29.9268 54.4626 30.0041 54.3842 30.0664C54.3078 30.1287 54.2174 30.1759 54.1129 30.2081C54.0105 30.2382 53.8999 30.2533 53.7814 30.2533H53.4287V30.8862H52.9646V28.7764H53.8266C53.9532 28.7764 54.0657 28.7945 54.1642 28.8307C54.2646 28.8648 54.349 28.914 54.4174 28.9783C54.4877 29.0426 54.5409 29.12 54.5771 29.2104C54.6153 29.2988 54.6344 29.3973 54.6344 29.5058V29.5118ZM54.1642 29.5209V29.5148C54.1642 29.4104 54.13 29.331 54.0617 29.2767C53.9954 29.2225 53.904 29.1954 53.7874 29.1954H53.4287V29.8404H53.7965C53.913 29.8404 54.0034 29.8102 54.0677 29.7499C54.132 29.6877 54.1642 29.6113 54.1642 29.5209Z" fill="black"/>
<path d="M56.9872 30.8862H56.5261V29.5088L55.9323 30.41H55.9203L55.3325 29.5179V30.8862H54.8774V28.7764H55.3777L55.9323 29.6686L56.4869 28.7764H56.9872V30.8862Z" fill="black"/>
<path d="M59.0001 30.8862H57.3936V28.7764H58.9851V29.1893H57.8548V29.6173H58.8494V30.0302H57.8548V30.4733H59.0001V30.8862Z" fill="black"/>
<path d="M61.1871 30.8862H60.7922L59.7705 29.545V30.8862H59.3123V28.7764H59.7403L60.7289 30.0755V28.7764H61.1871V30.8862Z" fill="black"/>
<path d="M63.1905 29.2044H62.5485V30.8862H62.0844V29.2044H61.4424V28.7764H63.1905V29.2044Z" fill="black"/>
<path d="M28.8199 33.1984H27.6776V33.6475H28.6843V34.0694H27.6776V34.8862H27.2134V32.7764H28.8199V33.1984Z" fill="black"/>
<path d="M30.6974 34.8862H29.0909V32.7764H30.6823V33.1893H29.552V33.6173H30.5467V34.0302H29.552V34.4733H30.6974V34.8862Z" fill="black"/>
<path d="M32.5257 34.8862H31.0096V32.7764H31.4738V34.4643H32.5257V34.8862Z" fill="black"/>
<path d="M34.2913 34.8862H32.7753V32.7764H33.2394V34.4643H34.2913V34.8862Z" fill="black"/>
<path d="M36.6899 33.8313C36.6899 33.982 36.6618 34.1237 36.6055 34.2563C36.5493 34.3869 36.4709 34.5024 36.3704 34.6029C36.272 34.7014 36.1534 34.7797 36.0148 34.838C35.8781 34.8943 35.7284 34.9224 35.5657 34.9224C35.4029 34.9224 35.2532 34.8943 35.1166 34.838C34.98 34.7797 34.8614 34.7024 34.7609 34.6059C34.6625 34.5075 34.5851 34.3929 34.5289 34.2623C34.4746 34.1297 34.4475 33.9881 34.4475 33.8373V33.8313C34.4475 33.6806 34.4756 33.54 34.5319 33.4094C34.5881 33.2767 34.6655 33.1612 34.764 33.0627C34.8644 32.9623 34.983 32.8839 35.1196 32.8276C35.2583 32.7694 35.409 32.7402 35.5717 32.7402C35.7345 32.7402 35.8842 32.7694 36.0208 32.8276C36.1574 32.8839 36.275 32.9613 36.3735 33.0597C36.4739 33.1562 36.5513 33.2707 36.6055 33.4033C36.6618 33.5339 36.6899 33.6746 36.6899 33.8253V33.8313ZM36.2047 33.8373V33.8313C36.2047 33.7409 36.1886 33.6555 36.1564 33.5751C36.1263 33.4948 36.0821 33.4244 36.0238 33.3641C35.9676 33.3039 35.9002 33.2566 35.8219 33.2225C35.7435 33.1863 35.6581 33.1682 35.5657 33.1682C35.4712 33.1682 35.3848 33.1853 35.3065 33.2195C35.2301 33.2536 35.1638 33.3008 35.1076 33.3611C35.0533 33.4214 35.0101 33.4917 34.9779 33.5721C34.9478 33.6505 34.9327 33.7349 34.9327 33.8253V33.8313C34.9327 33.9217 34.9478 34.0071 34.9779 34.0875C35.0101 34.1679 35.0543 34.2382 35.1106 34.2985C35.1688 34.3588 35.2362 34.407 35.3125 34.4432C35.3909 34.4773 35.4773 34.4944 35.5717 34.4944C35.6641 34.4944 35.7495 34.4773 35.8279 34.4432C35.9063 34.409 35.9726 34.3618 36.0268 34.3015C36.0831 34.2412 36.1263 34.1719 36.1564 34.0935C36.1886 34.0132 36.2047 33.9278 36.2047 33.8373Z" fill="black"/>
<path d="M40.0394 32.7764L39.319 34.9013H38.9151L38.4389 33.5209L37.9627 34.9013H37.5588L36.8384 32.7764H37.3358L37.7728 34.2051L38.246 32.7704H38.6439L39.1171 34.2051L39.5541 32.7764H40.0394Z" fill="black"/>
<path d="M41.8078 34.2623C41.8078 34.3668 41.7887 34.4603 41.7506 34.5426C41.7124 34.623 41.6591 34.6913 41.5908 34.7476C41.5225 34.8018 41.4411 34.844 41.3467 34.8742C41.2522 34.9023 41.1477 34.9164 41.0332 34.9164C40.8725 34.9164 40.7147 34.8893 40.56 34.835C40.4053 34.7787 40.2646 34.6933 40.138 34.5788L40.4123 34.2503C40.5088 34.3286 40.6072 34.3909 40.7077 34.4371C40.8102 34.4834 40.9217 34.5065 41.0423 34.5065C41.1387 34.5065 41.2131 34.4894 41.2653 34.4552C41.3195 34.4191 41.3467 34.3698 41.3467 34.3075V34.3015C41.3467 34.2714 41.3406 34.2452 41.3286 34.2231C41.3185 34.199 41.2974 34.1769 41.2653 34.1568C41.2352 34.1367 41.192 34.1167 41.1357 34.0966C41.0814 34.0765 41.0101 34.0554 40.9217 34.0333C40.8152 34.0071 40.7188 33.978 40.6323 33.9459C40.5459 33.9137 40.4726 33.8745 40.4123 33.8283C40.352 33.7801 40.3048 33.7208 40.2707 33.6505C40.2385 33.5801 40.2224 33.4927 40.2224 33.3883V33.3822C40.2224 33.2858 40.2405 33.1994 40.2767 33.123C40.3129 33.0447 40.3631 32.9773 40.4274 32.9211C40.4937 32.8648 40.5721 32.8216 40.6625 32.7915C40.7529 32.7613 40.8524 32.7463 40.9609 32.7463C41.1156 32.7463 41.2573 32.7694 41.3859 32.8156C41.5165 32.8618 41.636 32.9281 41.7445 33.0145L41.5034 33.3641C41.409 33.2998 41.3165 33.2496 41.2261 33.2134C41.1357 33.1753 41.0453 33.1562 40.9548 33.1562C40.8644 33.1562 40.7961 33.1743 40.7499 33.2104C40.7057 33.2446 40.6836 33.2878 40.6836 33.34V33.3461C40.6836 33.3802 40.6896 33.4104 40.7017 33.4365C40.7157 33.4606 40.7398 33.4827 40.774 33.5028C40.8082 33.5229 40.8544 33.542 40.9127 33.5601C40.9729 33.5781 41.0483 33.5992 41.1387 33.6234C41.2452 33.6515 41.3396 33.6836 41.422 33.7198C41.5064 33.754 41.5767 33.7962 41.633 33.8464C41.6913 33.8946 41.7345 33.9519 41.7626 34.0182C41.7928 34.0845 41.8078 34.1639 41.8078 34.2563V34.2623Z" fill="black"/>
<path d="M43.8945 34.8862H43.4303V34.0393H42.5743V34.8862H42.1102V32.7764H42.5743V33.6113H43.4303V32.7764H43.8945V34.8862Z" fill="black"/>
<path d="M44.7849 34.8862H44.3208V32.7764H44.7849V34.8862Z" fill="black"/>
<path d="M46.8815 33.5118C46.8815 33.6344 46.8594 33.7419 46.8152 33.8343C46.771 33.9268 46.7097 34.0041 46.6314 34.0664C46.555 34.1287 46.4646 34.1759 46.3601 34.2081C46.2576 34.2382 46.1471 34.2533 46.0286 34.2533H45.6759V34.8862H45.2117V32.7764H46.0738C46.2004 32.7764 46.3129 32.7945 46.4113 32.8307C46.5118 32.8648 46.5962 32.914 46.6645 32.9783C46.7348 33.0426 46.7881 33.12 46.8243 33.2104C46.8624 33.2988 46.8815 33.3973 46.8815 33.5058V33.5118ZM46.4113 33.5209V33.5148C46.4113 33.4104 46.3772 33.331 46.3089 33.2767C46.2425 33.2225 46.1511 33.1954 46.0346 33.1954H45.6759V33.8404H46.0436C46.1602 33.8404 46.2506 33.8102 46.3149 33.7499C46.3792 33.6877 46.4113 33.6113 46.4113 33.5209Z" fill="black"/>
<path fill-rule="evenodd" clip-rule="evenodd" d="M30.6273 14.4218C30.5083 14.4218 30.3942 14.3746 30.31 14.2904C30.2259 14.2063 30.1786 14.0921 30.1786 13.9731V11.9092H29.2812V13.9731C29.2812 14.7165 29.8839 15.3192 30.6273 15.3192H31.6144V14.4218H30.6273ZM33.3194 12.8066C33.2134 12.8066 33.1084 12.8274 33.0104 12.868C32.9124 12.9086 32.8234 12.9681 32.7484 13.0431C32.6734 13.1181 32.6139 13.2071 32.5733 13.3051C32.5327 13.4031 32.5118 13.5081 32.5118 13.6142C32.5118 13.7203 32.5327 13.8253 32.5733 13.9233C32.6139 14.0213 32.6734 14.1103 32.7484 14.1853C32.8234 14.2603 32.9124 14.3198 33.0104 14.3604C33.1084 14.4009 33.2134 14.4218 33.3194 14.4218C33.5336 14.4218 33.7391 14.3367 33.8905 14.1853C34.042 14.0338 34.1271 13.8284 34.1271 13.6142C34.1271 13.4 34.042 13.1946 33.8905 13.0431C33.7391 12.8916 33.5336 12.8066 33.3194 12.8066ZM31.6144 13.6142C31.6144 12.6726 32.3778 11.9092 33.3194 11.9092C34.2611 11.9092 35.0245 12.6726 35.0245 13.6142C35.0245 14.5558 34.2611 15.3192 33.3194 15.3192C32.3778 15.3192 31.6144 14.5558 31.6144 13.6142ZM43.0111 12.8066C42.7969 12.8066 42.5915 12.8916 42.44 13.0431C42.2886 13.1946 42.2035 13.4 42.2035 13.6142C42.2035 13.8284 42.2886 14.0338 42.44 14.1853C42.5915 14.3367 42.7969 14.4218 43.0111 14.4218C43.2253 14.4218 43.4307 14.3367 43.5822 14.1853C43.7337 14.0338 43.8188 13.8284 43.8188 13.6142C43.8188 13.4 43.7337 13.1946 43.5822 13.0431C43.4307 12.8916 43.2253 12.8066 43.0111 12.8066ZM41.3061 13.6142C41.3061 12.6726 42.0695 11.9092 43.0111 11.9092C43.9527 11.9092 44.7161 12.6726 44.7161 13.6142C44.7161 14.5558 43.9527 15.3192 43.0111 15.3192C42.0695 15.3192 41.3061 14.5558 41.3061 13.6142ZM36.909 11.9092C35.9673 11.9092 35.2039 12.6726 35.2039 13.6142C35.2039 14.5558 35.9673 15.3192 36.909 15.3192H39.4216C39.5983 15.3192 39.7687 15.2923 39.929 15.2424L40.4087 15.4987L40.9263 14.5292C41.0578 14.2824 41.1266 14.007 41.1266 13.7274V13.6142C41.1266 12.6726 40.3632 11.9092 39.4216 11.9092H36.909ZM40.2292 13.6142C40.2292 13.4 40.1442 13.1946 39.9927 13.0431C39.8412 12.8916 39.6358 12.8066 39.4216 12.8066H36.909C36.8029 12.8066 36.6979 12.8274 36.5999 12.868C36.5019 12.9086 36.4129 12.9681 36.3379 13.0431C36.2629 13.1181 36.2034 13.2071 36.1628 13.3051C36.1222 13.4031 36.1013 13.5081 36.1013 13.6142C36.1013 13.7203 36.1222 13.8253 36.1628 13.9233C36.2034 14.0213 36.2629 14.1103 36.3379 14.1853C36.4129 14.2603 36.5019 14.3198 36.5999 14.3604C36.6979 14.4009 36.8029 14.4218 36.909 14.4218H39.4216C39.6347 14.4218 39.8392 14.3376 39.9905 14.1875C40.1418 14.0374 40.2276 13.8336 40.2292 13.6205V13.6142Z" fill="#141317"/>
<defs>
<clipPath id="clip0_594_6501">
<rect width="3.49915" height="3.49915" fill="white" transform="translate(28.8594 47.584)"/>
</clipPath>
<clipPath id="clip1_594_6501">
<rect width="3.49915" height="3.49915" fill="white" transform="translate(32.0664 47.584)"/>
</clipPath>
<clipPath id="clip2_594_6501">
<rect width="3.49915" height="3.49915" fill="white" transform="translate(35.2734 47.584)"/>
</clipPath>
<clipPath id="clip3_594_6501">
<rect width="3.49915" height="3.49915" fill="white" transform="translate(38.4824 47.584)"/>
</clipPath>
<clipPath id="clip4_594_6501">
<rect width="3.49915" height="3.49915" fill="white" transform="translate(41.6914 47.584)"/>
</clipPath>
</defs>
</svg>
