<svg xmlns="http://www.w3.org/2000/svg" width="44" height="10" viewBox="0 0 44 10" fill="none">
  <g clip-path="url(#clip0_594_6488)">
    <path fill-rule="evenodd" clip-rule="evenodd" d="M3.75 7C3.41848 7 3.10054 6.8683 2.86612 6.63388C2.6317 6.39946 2.5 6.08152 2.5 5.75V0H0V5.75C0 7.821 1.679 9.5 3.75 9.5H6.5V7H3.75ZM11.25 2.5C10.9545 2.5 10.6619 2.5582 10.389 2.67127C10.116 2.78434 9.86794 2.95008 9.65901 3.15901C9.45008 3.36794 9.28435 3.61598 9.17127 3.88896C9.0582 4.16194 9 4.45452 9 4.75C9 5.04547 9.0582 5.33805 9.17127 5.61104C9.28435 5.88402 9.45008 6.13206 9.65901 6.34099C9.86794 6.54992 10.116 6.71565 10.389 6.82873C10.6619 6.9418 10.9545 7 11.25 7C11.8467 7 12.419 6.76294 12.841 6.34099C13.2629 5.91903 13.5 5.34674 13.5 4.75C13.5 4.15326 13.2629 3.58097 12.841 3.15901C12.419 2.73705 11.8467 2.5 11.25 2.5ZM6.5 4.75C6.5 2.12675 8.62675 0 11.25 0C13.8733 0 16 2.12675 16 4.75C16 7.37325 13.8733 9.5 11.25 9.5C8.62675 9.5 6.5 7.37325 6.5 4.75ZM38.25 2.5C37.6533 2.5 37.081 2.73705 36.659 3.15901C36.2371 3.58097 36 4.15326 36 4.75C36 5.34674 36.2371 5.91903 36.659 6.34099C37.081 6.76294 37.6533 7 38.25 7C38.8467 7 39.419 6.76294 39.841 6.34099C40.263 5.91903 40.5 5.34674 40.5 4.75C40.5 4.15326 40.263 3.58097 39.841 3.15901C39.419 2.73705 38.8467 2.5 38.25 2.5ZM33.5 4.75C33.5 2.12675 35.6268 0 38.25 0C40.8733 0 43 2.12675 43 4.75C43 7.37325 40.8733 9.5 38.25 9.5C35.6268 9.5 33.5 7.37325 33.5 4.75ZM21.25 0C18.6268 0 16.5 2.12675 16.5 4.75C16.5 7.37325 18.6268 9.5 21.25 9.5H28.25C28.7423 9.5 29.217 9.425 29.6635 9.286L31 10L32.442 7.299C32.8083 6.61142 32.9999 5.84432 33 5.06525V4.75C33 2.12675 30.8733 0 28.25 0H21.25ZM30.5 4.75C30.5 4.15326 30.263 3.58097 29.841 3.15901C29.419 2.73705 28.8467 2.5 28.25 2.5H21.25C20.9545 2.5 20.6619 2.5582 20.389 2.67127C20.116 2.78434 19.8679 2.95008 19.659 3.15901C19.4501 3.36794 19.2843 3.61598 19.1713 3.88896C19.0582 4.16194 19 4.45452 19 4.75C19 5.04547 19.0582 5.33805 19.1713 5.61104C19.2843 5.88402 19.4501 6.13206 19.659 6.34099C19.8679 6.54992 20.116 6.71565 20.389 6.82873C20.6619 6.9418 20.9545 7 21.25 7H28.25C28.8437 7.00002 29.4134 6.76537 29.8348 6.34719C30.2563 5.92901 30.4954 5.3612 30.5 4.7675V4.75Z" fill="white"/>
    <path d="M44 0.625C44 0.79076 43.9342 0.949731 43.8169 1.06694C43.6997 1.18415 43.5408 1.25 43.375 1.25C43.2092 1.25 43.0503 1.18415 42.9331 1.06694C42.8158 0.949731 42.75 0.79076 42.75 0.625C42.75 0.45924 42.8158 0.300268 42.9331 0.183058C43.0503 0.065848 43.2092 0 43.375 0C43.5408 0 43.6997 0.065848 43.8169 0.183058C43.9342 0.300268 44 0.45924 44 0.625Z" fill="white"/>
  </g>
  <defs>
    <clipPath id="clip0_594_6488">
      <rect width="44" height="10" fill="white"/>
    </clipPath>
  </defs>
</svg>