 <svg
                      xmlns="http://www.w3.org/2000/svg"
                      width="24"
                      height="24"
                      viewBox="0 0 24 24"
                      fill="none"
                    >
                      <path
                        d="M15.7164 14.7922L13.5331 18.6116L13.1135 16.1043L14.1122 14.1123H10.1282L11.1268 16.1043L10.7072 18.6116L8.52393 14.7922C4.80022 16.2371 2.16016 17.8466 2.16016 22.0803H22.0802C22.0802 17.8466 19.4348 16.2371 15.7164 14.7922Z"
                        fill="#FFD03F"
                      />
                      <path
                        d="M8.17871 9.13477C8.40181 11.3711 10.0698 13.1188 12.1202 13.1188C14.1706 13.1188 15.8386 11.3711 16.0617 9.13477H8.17871Z"
                        fill="#FFD03F"
                      />
                      <path
                        d="M19.0948 9.22512V5.15081L12.1202 2.16016L5.14551 5.15081L8.57706 6.62224C8.50269 6.79222 8.43364 6.96752 8.3752 7.14281H15.8545C15.7961 6.9622 15.7323 6.79222 15.6526 6.62224L18.0909 5.57577V9.22512C17.5118 9.43228 17.0922 9.97942 17.0922 10.6275V12.1202H20.0882V10.6275C20.0882 9.97411 19.6685 9.42697 19.0948 9.22512Z"
                        fill="#FFD03F"
                      />
                    </svg>