<svg xmlns="http://www.w3.org/2000/svg" width="20" height="20" viewBox="0 0 20 20" fill="none">
  <path d="M10.0003 1.66699C8.35215 1.66699 6.74099 2.15573 5.37058 3.07141C4.00017 3.98709 2.93206 5.28858 2.30133 6.8113C1.6706 8.33401 1.50558 10.0096 1.82712 11.6261C2.14866 13.2426 2.94234 14.7274 4.10777 15.8929C5.27321 17.0583 6.75807 17.852 8.37458 18.1735C9.99109 18.4951 11.6666 18.3301 13.1894 17.6993C14.7121 17.0686 16.0136 16.0005 16.9292 14.6301C17.8449 13.2597 18.3337 11.6485 18.3337 10.0003C18.3337 8.90598 18.1181 7.82234 17.6993 6.8113C17.2805 5.80025 16.6667 4.88159 15.8929 4.10777C15.1191 3.33395 14.2004 2.72012 13.1894 2.30133C12.1783 1.88254 11.0947 1.66699 10.0003 1.66699ZM12.6753 11.492C12.7534 11.5695 12.8154 11.6616 12.8577 11.7632C12.9 11.8647 12.9218 11.9736 12.9218 12.0837C12.9218 12.1937 12.9 12.3026 12.8577 12.4041C12.8154 12.5057 12.7534 12.5979 12.6753 12.6753C12.5979 12.7534 12.5057 12.8154 12.4041 12.8577C12.3026 12.9 12.1937 12.9218 12.0837 12.9218C11.9737 12.9218 11.8647 12.9 11.7632 12.8577C11.6616 12.8154 11.5695 12.7534 11.492 12.6753L10.0003 11.1753L8.50866 12.6753C8.43119 12.7534 8.33903 12.8154 8.23748 12.8577C8.13593 12.9 8.02701 12.9218 7.917 12.9218C7.80699 12.9218 7.69806 12.9 7.59652 12.8577C7.49497 12.8154 7.4028 12.7534 7.32533 12.6753C7.24722 12.5979 7.18523 12.5057 7.14292 12.4041C7.10061 12.3026 7.07883 12.1937 7.07883 12.0837C7.07883 11.9736 7.10061 11.8647 7.14292 11.7632C7.18523 11.6616 7.24722 11.5695 7.32533 11.492L8.82533 10.0003L7.32533 8.50866C7.16841 8.35174 7.08025 8.13891 7.08025 7.91699C7.08025 7.69507 7.16841 7.48225 7.32533 7.32533C7.48225 7.16841 7.69508 7.08025 7.917 7.08025C8.13891 7.08025 8.35174 7.16841 8.50866 7.32533L10.0003 8.82533L11.492 7.32533C11.6489 7.16841 11.8617 7.08025 12.0837 7.08025C12.3056 7.08025 12.5184 7.16841 12.6753 7.32533C12.8322 7.48225 12.9204 7.69507 12.9204 7.91699C12.9204 8.13891 12.8322 8.35174 12.6753 8.50866L11.1753 10.0003L12.6753 11.492Z" fill="#E53131"/>
</svg>